<svg xmlns="http://www.w3.org/2000/svg" xmlns:xlink="http://www.w3.org/1999/xlink" width="150" zoomAndPan="magnify" viewBox="0 0 112.5 112.499997" height="150" preserveAspectRatio="xMidYMid meet" version="1.0"><defs><clipPath id="ae097e4a6a"><path d="M 0 0 L 112.003906 0 L 112.003906 112.003906 L 0 112.003906 Z M 0 0 " clip-rule="nonzero"/></clipPath><clipPath id="18868bff30"><path d="M 19.277344 19.277344 L 92.449219 19.277344 L 92.449219 92.449219 L 19.277344 92.449219 Z M 19.277344 19.277344 " clip-rule="nonzero"/></clipPath></defs><g clip-path="url(#ae097e4a6a)"><path fill="#ffffff" d="M 0 0 L 112.003906 0 L 112.003906 112.003906 L 0 112.003906 Z M 0 0 " fill-opacity="1" fill-rule="nonzero"/><path fill="#0b5793" d="M 0 0 L 112.003906 0 L 112.003906 112.003906 L 0 112.003906 Z M 0 0 " fill-opacity="1" fill-rule="nonzero"/></g><g clip-path="url(#18868bff30)"><path fill="#e7c01d" d="M 92.71875 22.949219 L 92.71875 44.980469 C 92.71875 45.46875 92.625 45.9375 92.441406 46.386719 C 92.253906 46.835938 91.988281 47.234375 91.644531 47.578125 C 91.300781 47.921875 90.902344 48.1875 90.453125 48.375 C 90.003906 48.558594 89.535156 48.652344 89.046875 48.652344 L 63.34375 48.652344 C 62.855469 48.652344 62.386719 48.558594 61.9375 48.375 C 61.488281 48.1875 61.089844 47.921875 60.746094 47.578125 C 60.402344 47.234375 60.136719 46.835938 59.949219 46.386719 C 59.761719 45.9375 59.671875 45.46875 59.671875 44.980469 L 59.671875 22.949219 C 59.671875 22.460938 59.761719 21.992188 59.949219 21.542969 C 60.136719 21.09375 60.402344 20.695312 60.746094 20.351562 C 61.089844 20.007812 61.488281 19.742188 61.9375 19.554688 C 62.386719 19.371094 62.855469 19.277344 63.34375 19.277344 L 89.046875 19.277344 C 89.535156 19.277344 90.003906 19.371094 90.453125 19.554688 C 90.902344 19.742188 91.300781 20.007812 91.644531 20.351562 C 91.988281 20.695312 92.253906 21.09375 92.441406 21.542969 C 92.625 21.992188 92.71875 22.460938 92.71875 22.949219 Z M 48.652344 63.34375 L 22.949219 63.34375 C 22.460938 63.34375 21.992188 63.433594 21.542969 63.621094 C 21.09375 63.808594 20.695312 64.074219 20.351562 64.417969 C 20.007812 64.761719 19.742188 65.160156 19.554688 65.609375 C 19.371094 66.058594 19.277344 66.527344 19.277344 67.015625 L 19.277344 89.046875 C 19.277344 89.535156 19.371094 90.003906 19.554688 90.453125 C 19.742188 90.902344 20.007812 91.300781 20.351562 91.644531 C 20.695312 91.988281 21.09375 92.253906 21.542969 92.441406 C 21.992188 92.625 22.460938 92.71875 22.949219 92.71875 L 48.652344 92.71875 C 49.140625 92.71875 49.609375 92.625 50.058594 92.441406 C 50.507812 92.253906 50.90625 91.988281 51.25 91.644531 C 51.59375 91.300781 51.859375 90.902344 52.046875 90.453125 C 52.234375 90.003906 52.324219 89.535156 52.324219 89.046875 L 52.324219 67.015625 C 52.324219 66.527344 52.234375 66.058594 52.046875 65.609375 C 51.859375 65.160156 51.59375 64.761719 51.25 64.417969 C 50.90625 64.074219 50.507812 63.808594 50.058594 63.621094 C 49.609375 63.433594 49.140625 63.34375 48.652344 63.34375 Z M 48.652344 19.277344 L 22.949219 19.277344 C 22.460938 19.277344 21.992188 19.371094 21.542969 19.554688 C 21.09375 19.742188 20.695312 20.007812 20.351562 20.351562 C 20.007812 20.695312 19.742188 21.09375 19.554688 21.542969 C 19.371094 21.992188 19.277344 22.460938 19.277344 22.949219 L 19.277344 52.324219 C 19.277344 52.8125 19.371094 53.28125 19.554688 53.730469 C 19.742188 54.179688 20.007812 54.578125 20.351562 54.921875 C 20.695312 55.265625 21.09375 55.53125 21.542969 55.71875 C 21.992188 55.90625 22.460938 55.996094 22.949219 55.996094 L 48.652344 55.996094 C 49.140625 55.996094 49.609375 55.90625 50.058594 55.71875 C 50.507812 55.53125 50.90625 55.265625 51.25 54.921875 C 51.59375 54.578125 51.859375 54.179688 52.046875 53.730469 C 52.234375 53.28125 52.324219 52.8125 52.324219 52.324219 L 52.324219 22.949219 C 52.324219 22.460938 52.234375 21.992188 52.046875 21.542969 C 51.859375 21.09375 51.59375 20.695312 51.25 20.351562 C 50.90625 20.007812 50.507812 19.742188 50.058594 19.554688 C 49.609375 19.371094 49.140625 19.277344 48.652344 19.277344 Z M 89.046875 55.996094 L 63.34375 55.996094 C 62.855469 55.996094 62.386719 56.089844 61.9375 56.277344 C 61.488281 56.464844 61.089844 56.730469 60.746094 57.074219 C 60.402344 57.417969 60.136719 57.816406 59.949219 58.265625 C 59.761719 58.714844 59.671875 59.183594 59.671875 59.671875 L 59.671875 89.046875 C 59.671875 89.535156 59.761719 90.003906 59.949219 90.453125 C 60.136719 90.902344 60.402344 91.300781 60.746094 91.644531 C 61.089844 91.988281 61.488281 92.253906 61.9375 92.441406 C 62.386719 92.625 62.855469 92.71875 63.34375 92.71875 L 89.046875 92.71875 C 89.535156 92.71875 90.003906 92.625 90.453125 92.441406 C 90.902344 92.253906 91.300781 91.988281 91.644531 91.644531 C 91.988281 91.300781 92.253906 90.902344 92.441406 90.453125 C 92.625 90.003906 92.71875 89.535156 92.71875 89.046875 L 92.71875 59.671875 C 92.71875 59.183594 92.625 58.714844 92.441406 58.265625 C 92.253906 57.816406 91.988281 57.417969 91.644531 57.074219 C 91.300781 56.730469 90.902344 56.464844 90.453125 56.277344 C 90.003906 56.089844 89.535156 55.996094 89.046875 55.996094 Z M 89.046875 55.996094 " fill-opacity="1" fill-rule="nonzero"/></g></svg>