<svg width="954" height="1271" viewBox="0 0 954 1271" fill="none" xmlns="http://www.w3.org/2000/svg">
<path d="M954 477C954 740.44 740.44 954 477 954C213.56 954 0 740.44 0 477C0 213.56 213.56 0 477 0C740.44 0 954 213.56 954 477Z" fill="#EDEDED"/>
<path d="M526 1081C526 1185.93 440.934 1271 336 1271C231.066 1271 146 1185.93 146 1081C146 976.066 231.066 891 336 891C440.934 891 526 976.066 526 1081Z" fill="#EDEDED"/>
<path d="M150 916C150 955.212 118.212 987 79 987C39.7878 987 8 955.212 8 916C8 876.788 39.7878 845 79 845C118.212 845 150 876.788 150 916Z" fill="#EDEDED"/>
</svg>
