<svg width="671" height="1055" viewBox="0 0 671 1055" fill="none" xmlns="http://www.w3.org/2000/svg">
<path d="M671 273C671 423.774 548.774 546 398 546C247.226 546 125 423.774 125 273C125 122.226 247.226 0 398 0C548.774 0 671 122.226 671 273Z" fill="#EDEDED"/>
<path d="M505 802.5C505 941.952 391.952 1055 252.5 1055C113.048 1055 0 941.952 0 802.5C0 663.048 113.048 550 252.5 550C391.952 550 505 663.048 505 802.5ZM85.2615 802.5C85.2615 894.863 160.137 969.738 252.5 969.738C344.863 969.738 419.738 894.863 419.738 802.5C419.738 710.137 344.863 635.262 252.5 635.262C160.137 635.262 85.2615 710.137 85.2615 802.5Z" fill="#EDEDED"/>
</svg>
