<svg width="780" height="1009" viewBox="0 0 780 1009" fill="none" xmlns="http://www.w3.org/2000/svg">
<path d="M780 390C780 605.391 605.391 780 390 780C174.609 780 0 605.391 0 390C0 174.609 174.609 0 390 0C605.391 0 780 174.609 780 390Z" fill="#EDEDED"/>
<path d="M655 892C655 956.617 602.617 1009 538 1009C473.383 1009 421 956.617 421 892C421 827.383 473.383 775 538 775C602.617 775 655 827.383 655 892ZM457.306 892C457.306 936.566 493.434 972.694 538 972.694C582.566 972.694 618.694 936.566 618.694 892C618.694 847.434 582.566 811.306 538 811.306C493.434 811.306 457.306 847.434 457.306 892Z" fill="#EDEDED"/>
</svg>
