<svg width="661" height="428" viewBox="0 0 661 428" fill="none" xmlns="http://www.w3.org/2000/svg">
<g filter="url(#filter0_d_419_2081)">
<path d="M966.33 0H35.6699C26.7154 0 19.4563 7.25841 19.4563 16.2121V252.909C19.4563 261.863 26.7154 269.121 35.6699 269.121H966.33C975.285 269.121 982.544 261.863 982.544 252.909V16.2121C982.544 7.25841 975.285 0 966.33 0Z" fill="white"/>
<path d="M966.33 1.62122H35.6699C27.6108 1.62122 21.0776 8.15379 21.0776 16.2121V252.909C21.0776 260.967 27.6108 267.5 35.6699 267.5H966.33C974.389 267.5 980.922 260.967 980.922 252.909V16.2121C980.922 8.15379 974.389 1.62122 966.33 1.62122Z" stroke="#909090" stroke-opacity="0.25" stroke-width="2"/>
</g>
<path d="M99.0618 56.0078H94.0181C93.926 55.3553 93.7379 54.7757 93.4538 54.2691C93.1698 53.7548 92.8051 53.3173 92.3599 52.9566C91.9147 52.5957 91.4002 52.3194 90.8168 52.1275C90.2411 51.9355 89.6154 51.8397 88.9398 51.8397C87.7192 51.8397 86.6559 52.1429 85.7501 52.7492C84.8442 53.3479 84.1417 54.2231 83.6428 55.3744C83.1438 56.5182 82.8942 57.9076 82.8942 59.5427C82.8942 61.2238 83.1438 62.6362 83.6428 63.7799C84.1495 64.9237 84.8557 65.7873 85.7616 66.3706C86.6675 66.9541 87.7153 67.2458 88.9053 67.2458C89.5731 67.2458 90.1912 67.1574 90.7593 66.9809C91.335 66.8043 91.8456 66.5472 92.2908 66.2095C92.736 65.864 93.1046 65.4457 93.3963 64.9543C93.6957 64.4631 93.9029 63.9028 94.0181 63.2733L99.0618 63.2963C98.9313 64.3786 98.605 65.4227 98.083 66.4282C97.5687 67.4262 96.8739 68.3205 95.9987 69.1111C95.1313 69.894 94.0949 70.5158 92.8896 70.9763C91.692 71.4293 90.3371 71.6558 88.8247 71.6558C86.7211 71.6558 84.8403 71.1798 83.1822 70.228C81.5316 69.2762 80.2266 67.8983 79.2669 66.0944C78.315 64.2905 77.839 62.1065 77.839 59.5427C77.839 56.9712 78.3226 54.7835 79.2899 52.9796C80.2572 51.1757 81.5701 49.8015 83.2282 48.8575C84.8864 47.9055 86.7519 47.4297 88.8247 47.4297C90.1912 47.4297 91.4578 47.6216 92.6247 48.0054C93.7993 48.3891 94.8394 48.9496 95.7454 49.6864C96.6513 50.4156 97.3882 51.3099 97.9563 52.3694C98.5321 53.4287 98.9006 54.6415 99.0618 56.0078ZM110.537 71.6788C108.748 71.6788 107.201 71.2988 105.896 70.5388C104.599 69.7713 103.597 68.7042 102.891 67.3378C102.184 65.9639 101.831 64.371 101.831 62.5595C101.831 60.7325 102.184 59.1358 102.891 57.7695C103.597 56.3955 104.599 55.3284 105.896 54.5685C107.201 53.8009 108.748 53.4171 110.537 53.4171C112.325 53.4171 113.869 53.8009 115.166 54.5685C116.471 55.3284 117.477 56.3955 118.183 57.7695C118.889 59.1358 119.242 60.7325 119.242 62.5595C119.242 64.371 118.889 65.9639 118.183 67.3378C117.477 68.7042 116.471 69.7713 115.166 70.5388C113.869 71.2988 112.325 71.6788 110.537 71.6788ZM110.56 67.879C111.374 67.879 112.053 67.6488 112.598 67.1882C113.143 66.72 113.554 66.0829 113.83 65.2768C114.114 64.4707 114.256 63.5535 114.256 62.525C114.256 61.4963 114.114 60.579 113.83 59.773C113.554 58.967 113.143 58.3299 112.598 57.8615C112.053 57.3933 111.374 57.1592 110.56 57.1592C109.738 57.1592 109.048 57.3933 108.487 57.8615C107.934 58.3299 107.516 58.967 107.232 59.773C106.956 60.579 106.817 61.4963 106.817 62.525C106.817 63.5535 106.956 64.4707 107.232 65.2768C107.516 66.0829 107.934 66.72 108.487 67.1882C109.048 67.6488 109.738 67.879 110.56 67.879ZM133.775 63.803V53.6474H138.68V71.3333H133.971V68.1209H133.786C133.387 69.1572 132.723 69.99 131.794 70.6195C130.873 71.2489 129.748 71.5635 128.42 71.5635C127.238 71.5635 126.198 71.2949 125.299 70.7576C124.401 70.2202 123.699 69.4564 123.192 68.4662C122.693 67.476 122.44 66.2901 122.432 64.9083V53.6474H127.338V64.0333C127.345 65.0772 127.626 65.9024 128.178 66.5088C128.731 67.1153 129.472 67.4184 130.401 67.4184C130.992 67.4184 131.545 67.2842 132.059 67.0154C132.573 66.7391 132.988 66.3322 133.303 65.7949C133.625 65.2577 133.782 64.5936 133.775 63.803ZM142.604 71.3333V53.6474H147.36V56.7332H147.544C147.867 55.6355 148.408 54.8065 149.168 54.2461C149.928 53.678 150.803 53.3941 151.793 53.3941C152.039 53.3941 152.304 53.4094 152.588 53.4402C152.872 53.4708 153.121 53.513 153.336 53.5668V57.9193C153.106 57.85 152.788 57.7888 152.381 57.7349C151.974 57.6813 151.601 57.6543 151.264 57.6543C150.542 57.6543 149.897 57.8118 149.329 58.1264C148.769 58.4335 148.323 58.8633 147.993 59.416C147.671 59.9688 147.51 60.6058 147.51 61.3274V71.3333H142.604ZM170.59 58.6906L166.098 58.967C166.022 58.5831 165.857 58.2377 165.602 57.9308C165.349 57.6159 165.015 57.3664 164.602 57.1823C164.195 56.9903 163.707 56.8945 163.14 56.8945C162.379 56.8945 161.738 57.0556 161.216 57.3779C160.694 57.6928 160.433 58.1149 160.433 58.6446C160.433 59.0668 160.602 59.4237 160.939 59.7154C161.277 60.0071 161.857 60.2412 162.679 60.4177L165.88 61.0626C167.6 61.4157 168.881 61.9838 169.725 62.7667C170.57 63.5497 170.992 64.5782 170.992 65.8525C170.992 67.0117 170.651 68.0286 169.967 68.9038C169.293 69.7789 168.364 70.4621 167.182 70.9533C166.006 71.4369 164.651 71.6788 163.115 71.6788C160.774 71.6788 158.909 71.1913 157.519 70.2165C156.138 69.2339 155.328 67.8983 155.09 66.2095L159.915 65.9561C160.06 66.6701 160.414 67.2151 160.974 67.5912C161.534 67.9596 162.253 68.1439 163.128 68.1439C163.987 68.1439 164.678 67.9789 165.2 67.6488C165.73 67.3109 165.998 66.8773 166.006 66.3476C165.998 65.9024 165.81 65.5378 165.442 65.2538C165.074 64.9621 164.505 64.7395 163.738 64.586L160.675 63.9756C158.947 63.6303 157.661 63.0316 156.817 62.1795C155.98 61.3274 155.562 60.2412 155.562 58.921C155.562 57.7849 155.869 56.8061 156.483 55.9848C157.105 55.1634 157.976 54.5301 159.097 54.0849C160.225 53.6397 161.546 53.4171 163.058 53.4171C165.293 53.4171 167.05 53.8892 168.333 54.8333C169.622 55.7775 170.374 57.0633 170.59 58.6906ZM182.142 71.6788C180.323 71.6788 178.756 71.3103 177.443 70.5733C176.138 69.8288 175.133 68.7772 174.427 67.4184C173.721 66.0521 173.367 64.4362 173.367 62.571C173.367 60.7517 173.721 59.1551 174.427 57.781C175.133 56.407 176.127 55.3362 177.409 54.5685C178.7 53.8009 180.211 53.4171 181.946 53.4171C183.113 53.4171 184.199 53.6052 185.205 53.9813C186.218 54.3497 187.102 54.9062 187.854 55.6509C188.614 56.3955 189.204 57.3319 189.628 58.4604C190.049 59.581 190.26 60.8937 190.26 62.3982V63.7454H175.326V60.7056H185.642C185.642 59.9994 185.49 59.3738 185.182 58.8288C184.875 58.2839 184.449 57.8578 183.904 57.5508C183.366 57.2361 182.74 57.0787 182.027 57.0787C181.283 57.0787 180.623 57.2513 180.047 57.5968C179.478 57.9345 179.034 58.3912 178.711 58.967C178.388 59.535 178.223 60.1684 178.215 60.8668V63.7569C178.215 64.632 178.377 65.3882 178.7 66.0253C179.029 66.6623 179.494 67.1537 180.092 67.499C180.691 67.8445 181.401 68.0171 182.223 68.0171C182.768 68.0171 183.267 67.9405 183.719 67.7869C184.173 67.6334 184.561 67.4032 184.882 67.0961C185.205 66.7891 185.451 66.4129 185.62 65.9676L190.156 66.267C189.926 67.357 189.454 68.309 188.741 69.1226C188.034 69.9285 187.121 70.5581 185.999 71.0109C184.887 71.4562 183.601 71.6788 182.142 71.6788ZM205.872 61.1087V71.3333H200.967V53.6474H205.642V56.7677H205.849C206.24 55.7392 206.897 54.9255 207.818 54.3266C208.74 53.7203 209.857 53.4171 211.169 53.4171C212.398 53.4171 213.468 53.6858 214.383 54.2231C215.295 54.7605 216.006 55.528 216.513 56.526C217.019 57.5162 217.272 58.6982 217.272 60.0724V71.3333H212.367V60.9475C212.375 59.865 212.098 59.0207 211.537 58.4142C210.978 57.8003 210.206 57.4932 209.223 57.4932C208.564 57.4932 207.98 57.6352 207.472 57.9193C206.975 58.2031 206.582 58.6177 206.298 59.1627C206.021 59.7 205.88 60.3486 205.872 61.1087ZM226.183 71.6673C225.054 71.6673 224.048 71.4715 223.165 71.0801C222.282 70.6808 221.585 70.0936 221.069 69.3183C220.563 68.5353 220.31 67.5604 220.31 66.3937C220.31 65.4112 220.49 64.586 220.85 63.9181C221.212 63.2503 221.703 62.713 222.326 62.3061C222.947 61.8993 223.654 61.5923 224.443 61.3849C225.242 61.1777 226.079 61.0318 226.955 60.9475C227.983 60.84 228.811 60.7402 229.442 60.6481C230.071 60.5482 230.528 60.4025 230.812 60.2105C231.096 60.0186 231.238 59.7345 231.238 59.3584V59.2893C231.238 58.5601 231.008 57.9959 230.548 57.5968C230.094 57.1977 229.448 56.9981 228.612 56.9981C227.73 56.9981 227.028 57.1938 226.505 57.5853C225.983 57.969 225.638 58.4526 225.468 59.0361L220.931 58.6676C221.161 57.5929 221.615 56.6641 222.29 55.8812C222.966 55.0906 223.837 54.4841 224.904 54.0619C225.979 53.632 227.222 53.4171 228.636 53.4171C229.618 53.4171 230.559 53.5323 231.457 53.7625C232.362 53.9928 233.164 54.3497 233.863 54.8333C234.57 55.3169 235.126 55.9388 235.533 56.6986C235.94 57.4509 236.143 58.3529 236.143 59.4044V71.3333H231.491V68.8808H231.353C231.07 69.4334 230.689 69.9209 230.214 70.3431C229.737 70.7576 229.165 71.0838 228.497 71.3218C227.829 71.552 227.058 71.6673 226.183 71.6673ZM227.587 68.282C228.308 68.282 228.946 68.14 229.498 67.856C230.051 67.5643 230.486 67.1728 230.8 66.6816C231.115 66.1904 231.272 65.6338 231.272 65.0121V63.1352C231.118 63.2349 230.907 63.3271 230.638 63.4114C230.377 63.4883 230.082 63.5612 229.751 63.6303C229.422 63.6917 229.092 63.7493 228.762 63.803C228.432 63.849 228.132 63.8913 227.864 63.9296C227.289 64.014 226.784 64.1484 226.355 64.3326C225.925 64.5169 225.591 64.7663 225.353 65.0811C225.116 65.3882 224.996 65.7719 224.996 66.2325C224.996 66.9003 225.238 67.4108 225.722 67.7639C226.214 68.1094 226.835 68.282 227.587 68.282ZM239.95 71.3333V53.6474H244.624V56.7677H244.832C245.2 55.7314 245.814 54.914 246.674 54.3151C247.534 53.7164 248.562 53.4171 249.761 53.4171C250.973 53.4171 252.006 53.7203 252.857 54.3266C253.71 54.9255 254.278 55.7392 254.561 56.7677H254.746C255.108 55.7544 255.76 54.9447 256.703 54.3382C257.655 53.7242 258.78 53.4171 260.077 53.4171C261.728 53.4171 263.069 53.9429 264.097 54.9946C265.133 56.0385 265.652 57.5199 265.652 59.4391V71.3333H260.757V60.4062C260.757 59.4237 260.496 58.6867 259.974 58.1955C259.451 57.7043 258.8 57.4587 258.017 57.4587C257.126 57.4587 256.431 57.7427 255.932 58.3106C255.434 58.8711 255.184 59.6118 255.184 60.533V71.3333H250.429V60.3026C250.429 59.4352 250.179 58.7443 249.68 58.23C249.188 57.7158 248.54 57.4587 247.734 57.4587C247.189 57.4587 246.696 57.5968 246.26 57.873C245.829 58.1418 245.488 58.5217 245.234 59.0131C244.981 59.4967 244.854 60.0646 244.854 60.7171V71.3333H239.95ZM277.586 71.6788C275.767 71.6788 274.201 71.3103 272.889 70.5733C271.584 69.8288 270.577 68.7772 269.872 67.4184C269.165 66.0521 268.812 64.4362 268.812 62.571C268.812 60.7517 269.165 59.1551 269.872 57.781C270.577 56.407 271.573 55.3362 272.854 54.5685C274.144 53.8009 275.657 53.4171 277.392 53.4171C278.558 53.4171 279.644 53.6052 280.651 53.9813C281.664 54.3497 282.546 54.9062 283.298 55.6509C284.059 56.3955 284.649 57.3319 285.072 58.4604C285.494 59.581 285.705 60.8937 285.705 62.3982V63.7454H270.77V60.7056H281.087C281.087 59.9994 280.934 59.3738 280.626 58.8288C280.32 58.2839 279.894 57.8578 279.349 57.5508C278.812 57.2361 278.186 57.0787 277.471 57.0787C276.727 57.0787 276.067 57.2513 275.492 57.5968C274.923 57.9345 274.478 58.3912 274.156 58.967C273.833 59.535 273.668 60.1684 273.659 60.8668V63.7569C273.659 64.632 273.822 65.3882 274.144 66.0253C274.473 66.6623 274.939 67.1537 275.537 67.499C276.135 67.8445 276.845 68.0171 277.667 68.0171C278.212 68.0171 278.712 67.9405 279.164 67.7869C279.618 67.6334 280.005 67.4032 280.328 67.0961C280.651 66.7891 280.896 66.4129 281.064 65.9676L285.602 66.267C285.371 67.357 284.899 68.309 284.185 69.1226C283.478 69.9285 282.566 70.5581 281.445 71.0109C280.331 71.4562 279.046 71.6788 277.586 71.6788ZM291.773 71.6328C291.014 71.6328 290.361 71.364 289.816 70.8267C289.278 70.2816 289.01 69.6293 289.01 68.8692C289.01 68.117 289.278 67.4722 289.816 66.9348C290.361 66.3975 291.014 66.1289 291.773 66.1289C292.511 66.1289 293.156 66.3975 293.709 66.9348C294.26 67.4722 294.538 68.117 294.538 68.8692C294.538 69.3759 294.406 69.8404 294.145 70.2625C293.892 70.6771 293.558 71.0109 293.143 71.2643C292.73 71.5099 292.273 71.6328 291.773 71.6328ZM291.773 59.2433C291.014 59.2433 290.361 58.9747 289.816 58.4374C289.278 57.9 289.01 57.2476 289.01 56.4799C289.01 55.7277 289.278 55.0867 289.816 54.557C290.361 54.0196 291.014 53.751 291.773 53.751C292.511 53.751 293.156 54.0196 293.709 54.557C294.26 55.0867 294.538 55.7277 294.538 56.4799C294.538 56.9942 294.406 57.4624 294.145 57.8846C293.892 58.2991 293.558 58.6292 293.143 58.8748C292.73 59.1206 292.273 59.2433 291.773 59.2433Z" fill="#0B5793"/>
<path d="M76.2039 102.136C76.2039 93.1827 83.463 85.9243 92.4174 85.9243H907.961C916.916 85.9243 924.175 93.1827 924.175 102.136V128.076C924.175 137.029 916.916 144.288 907.961 144.288H92.4174C83.463 144.288 76.2039 137.029 76.2039 128.076V102.136Z" fill="#EDEDED"/>
<path d="M76.2039 102.136C76.2039 93.1827 83.463 85.9243 92.4174 85.9243H907.961C916.916 85.9243 924.175 93.1827 924.175 102.136V128.076C924.175 137.029 916.916 144.288 907.961 144.288H92.4174C83.463 144.288 76.2039 137.029 76.2039 128.076V102.136Z" fill="#EDEDED"/>
<path d="M231.751 110.622H227.443C227.321 109.915 227.094 109.29 226.763 108.745C226.434 108.192 226.024 107.724 225.531 107.34C225.04 106.956 224.48 106.668 223.851 106.476C223.229 106.277 222.558 106.177 221.836 106.177C220.554 106.177 219.417 106.499 218.426 107.144C217.437 107.781 216.661 108.718 216.101 109.954C215.54 111.182 215.26 112.683 215.26 114.456C215.26 116.26 215.54 117.78 216.101 119.015C216.669 120.244 217.444 121.172 218.426 121.802C219.417 122.424 220.55 122.735 221.825 122.735C222.53 122.735 223.19 122.642 223.804 122.458C224.427 122.266 224.983 121.986 225.474 121.618C225.974 121.249 226.392 120.796 226.729 120.259C227.075 119.722 227.313 119.108 227.443 118.417L231.751 118.44C231.588 119.56 231.24 120.612 230.702 121.595C230.173 122.577 229.477 123.445 228.618 124.197C227.759 124.941 226.752 125.525 225.601 125.947C224.45 126.362 223.172 126.569 221.766 126.569C219.694 126.569 217.844 126.089 216.216 125.13C214.589 124.17 213.306 122.784 212.371 120.973C211.433 119.161 210.965 116.989 210.965 114.456C210.965 111.915 211.437 109.743 212.382 107.939C213.325 106.127 214.611 104.742 216.239 103.782C217.867 102.823 219.709 102.343 221.766 102.343C223.08 102.343 224.3 102.527 225.429 102.895C226.557 103.264 227.563 103.805 228.445 104.519C229.328 105.225 230.053 106.093 230.622 107.121C231.198 108.142 231.574 109.309 231.751 110.622ZM243.194 126.592C241.466 126.592 239.969 126.212 238.703 125.452C237.435 124.692 236.453 123.629 235.755 122.263C235.063 120.896 234.718 119.299 234.718 117.473C234.718 115.646 235.063 114.045 235.755 112.671C236.453 111.297 237.435 110.23 238.703 109.47C239.969 108.71 241.466 108.33 243.194 108.33C244.921 108.33 246.417 108.71 247.684 109.47C248.952 110.23 249.929 111.297 250.622 112.671C251.319 114.045 251.669 115.646 251.669 117.473C251.669 119.299 251.319 120.896 250.622 122.263C249.929 123.629 248.952 124.692 247.684 125.452C246.417 126.212 244.921 126.592 243.194 126.592ZM243.217 123.253C244.152 123.253 244.936 122.996 245.566 122.481C246.195 121.959 246.664 121.261 246.97 120.386C247.285 119.511 247.442 118.536 247.442 117.461C247.442 116.379 247.285 115.4 246.97 114.525C246.664 113.642 246.195 112.94 245.566 112.418C244.936 111.896 244.152 111.635 243.217 111.635C242.257 111.635 241.459 111.896 240.822 112.418C240.191 112.94 239.72 113.642 239.405 114.525C239.099 115.4 238.945 116.379 238.945 117.461C238.945 118.536 239.099 119.511 239.405 120.386C239.72 121.261 240.191 121.959 240.822 122.481C241.459 122.996 242.257 123.253 243.217 123.253ZM255.207 126.246V108.561H259.19V111.566H259.398C259.768 110.552 260.377 109.762 261.23 109.194C262.081 108.618 263.098 108.33 264.282 108.33C265.478 108.33 266.488 108.622 267.31 109.205C268.139 109.781 268.722 110.568 269.06 111.566H269.245C269.635 110.583 270.295 109.8 271.224 109.217C272.161 108.626 273.27 108.33 274.553 108.33C276.181 108.33 277.509 108.844 278.537 109.873C279.566 110.902 280.08 112.402 280.08 114.375V126.246H275.9V115.02C275.9 113.922 275.608 113.12 275.025 112.614C274.441 112.099 273.728 111.842 272.883 111.842C271.878 111.842 271.09 112.157 270.522 112.786C269.961 113.408 269.682 114.218 269.682 115.216V126.246H265.593V114.847C265.593 113.934 265.318 113.205 264.765 112.66C264.22 112.115 263.505 111.842 262.623 111.842C262.025 111.842 261.478 111.996 260.987 112.303C260.496 112.602 260.105 113.028 259.813 113.581C259.521 114.126 259.375 114.763 259.375 115.492V126.246H255.207ZM284.309 132.879V108.561H288.409V111.485H288.651C288.865 111.055 289.168 110.599 289.56 110.115C289.951 109.624 290.481 109.205 291.149 108.86C291.817 108.507 292.67 108.33 293.706 108.33C295.073 108.33 296.303 108.679 297.403 109.378C298.507 110.069 299.382 111.094 300.028 112.452C300.679 113.803 301.007 115.461 301.007 117.426C301.007 119.369 300.688 121.019 300.05 122.378C299.413 123.736 298.546 124.773 297.448 125.487C296.35 126.2 295.107 126.557 293.717 126.557C292.704 126.557 291.863 126.388 291.195 126.051C290.528 125.713 289.99 125.306 289.583 124.83C289.184 124.347 288.873 123.89 288.651 123.46H288.477V132.879H284.309ZM288.398 117.403C288.398 118.547 288.558 119.549 288.881 120.409C289.21 121.268 289.683 121.94 290.296 122.424C290.919 122.9 291.671 123.138 292.555 123.138C293.476 123.138 294.248 122.892 294.869 122.401C295.491 121.902 295.958 121.222 296.274 120.363C296.595 119.495 296.757 118.509 296.757 117.403C296.757 116.306 296.6 115.331 296.286 114.479C295.971 113.627 295.502 112.959 294.88 112.475C294.259 111.992 293.482 111.75 292.555 111.75C291.663 111.75 290.908 111.984 290.285 112.452C289.664 112.921 289.192 113.577 288.869 114.421C288.555 115.266 288.398 116.26 288.398 117.403ZM315.849 118.808V108.561H320.017V126.246H315.977V123.103H315.792C315.393 124.093 314.737 124.903 313.822 125.533C312.917 126.162 311.8 126.477 310.472 126.477C309.313 126.477 308.288 126.22 307.397 125.705C306.515 125.183 305.824 124.427 305.325 123.437C304.825 122.439 304.576 121.234 304.576 119.822V108.561H308.744V119.177C308.744 120.297 309.052 121.188 309.665 121.848C310.28 122.508 311.085 122.838 312.084 122.838C312.699 122.838 313.294 122.688 313.869 122.389C314.445 122.09 314.917 121.645 315.285 121.053C315.661 120.455 315.849 119.706 315.849 118.808ZM333.137 108.561V111.785H322.968V108.561H333.137ZM325.48 104.323H329.648V120.927C329.648 121.487 329.733 121.917 329.901 122.216C330.078 122.508 330.308 122.708 330.592 122.815C330.876 122.923 331.19 122.976 331.536 122.976C331.797 122.976 332.035 122.957 332.251 122.919C332.473 122.88 332.641 122.846 332.756 122.815L333.46 126.074C333.236 126.151 332.919 126.235 332.503 126.327C332.097 126.419 331.597 126.473 331.007 126.488C329.963 126.519 329.022 126.362 328.186 126.016C327.349 125.663 326.684 125.118 326.193 124.381C325.71 123.644 325.472 122.723 325.48 121.618V104.323ZM344.263 126.592C342.491 126.592 340.959 126.223 339.668 125.487C338.387 124.742 337.4 123.69 336.709 122.332C336.019 120.965 335.673 119.357 335.673 117.507C335.673 115.688 336.019 114.091 336.709 112.717C337.408 111.335 338.383 110.261 339.634 109.493C340.886 108.718 342.357 108.33 344.044 108.33C345.136 108.33 346.163 108.507 347.131 108.86C348.106 109.205 348.965 109.743 349.711 110.472C350.463 111.201 351.053 112.13 351.483 113.258C351.914 114.379 352.128 115.715 352.128 117.265V118.543H337.63V115.734H348.133C348.125 114.936 347.952 114.226 347.615 113.604C347.277 112.974 346.804 112.479 346.197 112.118C345.599 111.758 344.9 111.577 344.103 111.577C343.25 111.577 342.502 111.785 341.857 112.199C341.212 112.606 340.709 113.143 340.348 113.811C339.996 114.471 339.814 115.197 339.808 115.987V118.44C339.808 119.468 339.996 120.351 340.372 121.088C340.748 121.817 341.273 122.378 341.95 122.769C342.624 123.153 343.415 123.345 344.322 123.345C344.928 123.345 345.476 123.26 345.967 123.092C346.459 122.915 346.885 122.658 347.247 122.32C347.606 121.982 347.879 121.564 348.064 121.065L351.957 121.503C351.71 122.531 351.242 123.429 350.551 124.197C349.868 124.957 348.993 125.548 347.926 125.97C346.859 126.385 345.638 126.592 344.263 126.592ZM355.655 126.246V108.561H359.697V111.508H359.882C360.204 110.487 360.756 109.7 361.539 109.148C362.33 108.587 363.232 108.307 364.245 108.307C364.477 108.307 364.733 108.319 365.017 108.342C365.308 108.357 365.55 108.384 365.743 108.422V112.257C365.566 112.195 365.286 112.142 364.902 112.095C364.525 112.042 364.161 112.015 363.809 112.015C363.048 112.015 362.364 112.18 361.758 112.51C361.159 112.832 360.688 113.281 360.342 113.857C359.997 114.433 359.823 115.097 359.823 115.849V126.246H355.655ZM376.739 126.246V102.665H392.079V106.246H381.011V112.648H391.284V116.229H381.011V122.665H392.17V126.246H376.739ZM400.421 115.884V126.246H396.252V108.561H400.237V111.566H400.443C400.85 110.575 401.5 109.789 402.391 109.205C403.289 108.622 404.398 108.33 405.718 108.33C406.938 108.33 408.002 108.591 408.908 109.113C409.821 109.635 410.528 110.391 411.026 111.381C411.533 112.372 411.783 113.573 411.775 114.985V126.246H407.606V115.63C407.606 114.448 407.3 113.523 406.686 112.855C406.079 112.188 405.238 111.854 404.164 111.854C403.435 111.854 402.786 112.015 402.217 112.337C401.658 112.652 401.215 113.109 400.892 113.707C400.578 114.306 400.421 115.031 400.421 115.884ZM423.705 133.247C422.208 133.247 420.923 133.044 419.848 132.637C418.773 132.238 417.909 131.7 417.257 131.025C416.603 130.349 416.151 129.601 415.898 128.78L419.652 127.87C419.82 128.215 420.067 128.557 420.389 128.895C420.71 129.24 421.145 129.524 421.69 129.747C422.243 129.977 422.938 130.092 423.775 130.092C424.957 130.092 425.936 129.804 426.711 129.229C427.486 128.661 427.873 127.724 427.873 126.419V123.068H427.666C427.452 123.498 427.137 123.94 426.722 124.393C426.315 124.845 425.774 125.226 425.098 125.533C424.431 125.84 423.59 125.993 422.577 125.993C421.218 125.993 419.986 125.675 418.88 125.037C417.782 124.393 416.907 123.433 416.255 122.159C415.609 120.877 415.287 119.273 415.287 117.346C415.287 115.404 415.609 113.765 416.255 112.429C416.907 111.086 417.785 110.069 418.891 109.378C419.997 108.679 421.229 108.33 422.588 108.33C423.624 108.33 424.477 108.507 425.145 108.86C425.821 109.205 426.358 109.624 426.756 110.115C427.155 110.599 427.458 111.055 427.666 111.485H427.896V108.561H432.008V126.534C432.008 128.047 431.646 129.298 430.925 130.288C430.203 131.278 429.218 132.019 427.966 132.51C426.714 133.001 425.294 133.247 423.705 133.247ZM423.739 122.723C424.623 122.723 425.375 122.508 425.996 122.078C426.619 121.648 427.09 121.03 427.413 120.225C427.736 119.418 427.896 118.451 427.896 117.323C427.896 116.21 427.736 115.235 427.413 114.398C427.098 113.562 426.63 112.913 426.009 112.452C425.394 111.984 424.637 111.75 423.739 111.75C422.81 111.75 422.035 111.992 421.414 112.475C420.791 112.959 420.323 113.623 420.008 114.467C419.694 115.304 419.536 116.256 419.536 117.323C419.536 118.405 419.694 119.353 420.008 120.167C420.331 120.973 420.803 121.602 421.425 122.055C422.054 122.5 422.826 122.723 423.739 122.723ZM436.28 126.246V108.561H440.449V126.246H436.28ZM438.375 106.05C437.715 106.05 437.148 105.832 436.671 105.394C436.196 104.949 435.958 104.415 435.958 103.794C435.958 103.164 436.196 102.631 436.671 102.193C437.148 101.748 437.715 101.525 438.375 101.525C439.043 101.525 439.612 101.748 440.079 102.193C440.556 102.631 440.794 103.164 440.794 103.794C440.794 104.415 440.556 104.949 440.079 105.394C439.612 105.832 439.043 106.05 438.375 106.05ZM448.904 115.884V126.246H444.736V108.561H448.719V111.566H448.927C449.334 110.575 449.982 109.789 450.872 109.205C451.771 108.622 452.88 108.33 454.201 108.33C455.42 108.33 456.484 108.591 457.39 109.113C458.303 109.635 459.01 110.391 459.509 111.381C460.015 112.372 460.265 113.573 460.257 114.985V126.246H456.088V115.63C456.088 114.448 455.782 113.523 455.167 112.855C454.561 112.188 453.721 111.854 452.646 111.854C451.917 111.854 451.268 112.015 450.701 112.337C450.14 112.652 449.699 113.109 449.376 113.707C449.061 114.306 448.904 115.031 448.904 115.884ZM472.326 126.592C470.553 126.592 469.02 126.223 467.731 125.487C466.449 124.742 465.463 123.69 464.772 122.332C464.08 120.965 463.735 119.357 463.735 117.507C463.735 115.688 464.08 114.091 464.772 112.717C465.47 111.335 466.446 110.261 467.697 109.493C468.947 108.718 470.418 108.33 472.107 108.33C473.197 108.33 474.227 108.507 475.193 108.86C476.167 109.205 477.028 109.743 477.772 110.472C478.525 111.201 479.117 112.13 479.546 113.258C479.976 114.379 480.19 115.715 480.19 117.265V118.543H465.693V115.734H476.195C476.187 114.936 476.015 114.226 475.676 113.604C475.339 112.974 474.867 112.479 474.261 112.118C473.661 111.758 472.963 111.577 472.164 111.577C471.313 111.577 470.564 111.785 469.919 112.199C469.275 112.606 468.771 113.143 468.411 113.811C468.057 114.471 467.877 115.197 467.869 115.987V118.44C467.869 119.468 468.057 120.351 468.433 121.088C468.81 121.817 469.335 122.378 470.011 122.769C470.687 123.153 471.477 123.345 472.383 123.345C472.989 123.345 473.539 123.26 474.03 123.092C474.522 122.915 474.948 122.658 475.308 122.32C475.67 121.982 475.942 121.564 476.125 121.065L480.018 121.503C479.772 122.531 479.305 123.429 478.612 124.197C477.93 124.957 477.054 125.548 475.987 125.97C474.92 126.385 473.7 126.592 472.326 126.592ZM491.548 126.592C489.774 126.592 488.243 126.223 486.953 125.487C485.672 124.742 484.684 123.69 483.994 122.332C483.303 120.965 482.958 119.357 482.958 117.507C482.958 115.688 483.303 114.091 483.994 112.717C484.692 111.335 485.667 110.261 486.919 109.493C488.17 108.718 489.639 108.33 491.329 108.33C492.42 108.33 493.448 108.507 494.416 108.86C495.39 109.205 496.249 109.743 496.994 110.472C497.746 111.201 498.338 112.13 498.767 113.258C499.197 114.379 499.413 115.715 499.413 117.265V118.543H484.915V115.734H495.416C495.41 114.936 495.236 114.226 494.899 113.604C494.562 112.974 494.088 112.479 493.482 112.118C492.883 111.758 492.185 111.577 491.387 111.577C490.534 111.577 489.785 111.785 489.141 112.199C488.496 112.606 487.993 113.143 487.632 113.811C487.28 114.471 487.098 115.197 487.092 115.987V118.44C487.092 119.468 487.28 120.351 487.656 121.088C488.032 121.817 488.558 122.378 489.234 122.769C489.908 123.153 490.7 123.345 491.606 123.345C492.212 123.345 492.76 123.26 493.252 123.092C493.743 122.915 494.169 122.658 494.531 122.32C494.891 121.982 495.163 121.564 495.348 121.065L499.239 121.503C498.994 122.531 498.526 123.429 497.835 124.197C497.153 124.957 496.277 125.548 495.21 125.97C494.142 126.385 492.922 126.592 491.548 126.592ZM502.939 126.246V108.561H506.981V111.508H507.166C507.487 110.487 508.04 109.7 508.823 109.148C509.614 108.587 510.516 108.307 511.529 108.307C511.759 108.307 512.017 108.319 512.301 108.342C512.593 108.357 512.834 108.384 513.027 108.422V112.257C512.851 112.195 512.57 112.142 512.186 112.095C511.81 112.042 511.445 112.015 511.091 112.015C510.333 112.015 509.648 112.18 509.042 112.51C508.444 112.832 507.972 113.281 507.627 113.857C507.281 114.433 507.108 115.097 507.108 115.849V126.246H502.939ZM515.797 126.246V108.561H519.965V126.246H515.797ZM517.891 106.05C517.231 106.05 516.664 105.832 516.187 105.394C515.712 104.949 515.474 104.415 515.474 103.794C515.474 103.164 515.712 102.631 516.187 102.193C516.664 101.748 517.231 101.525 517.891 101.525C518.559 101.525 519.128 101.748 519.595 102.193C520.072 102.631 520.31 103.164 520.31 103.794C520.31 104.415 520.072 104.949 519.595 105.394C519.128 105.832 518.559 106.05 517.891 106.05ZM528.42 115.884V126.246H524.252V108.561H528.236V111.566H528.443C528.85 110.575 529.499 109.789 530.389 109.205C531.287 108.622 532.396 108.33 533.717 108.33C534.937 108.33 536 108.591 536.907 109.113C537.819 109.635 538.526 110.391 539.026 111.381C539.532 112.372 539.781 113.573 539.773 114.985V126.246H535.605V115.63C535.605 114.448 535.298 113.523 534.684 112.855C534.077 112.188 533.237 111.854 532.163 111.854C531.433 111.854 530.784 112.015 530.217 112.337C529.656 112.652 529.215 113.109 528.892 113.707C528.578 114.306 528.42 115.031 528.42 115.884ZM551.703 133.247C550.207 133.247 548.921 133.044 547.846 132.637C546.771 132.238 545.908 131.7 545.255 131.025C544.603 130.349 544.149 129.601 543.896 128.78L547.65 127.87C547.82 128.215 548.065 128.557 548.387 128.895C548.71 129.24 549.143 129.524 549.688 129.747C550.241 129.977 550.936 130.092 551.773 130.092C552.955 130.092 553.934 129.804 554.709 129.229C555.484 128.661 555.872 127.724 555.872 126.419V123.068H555.666C555.45 123.498 555.136 123.94 554.72 124.393C554.314 124.845 553.772 125.226 553.098 125.533C552.43 125.84 551.588 125.993 550.575 125.993C549.216 125.993 547.984 125.675 546.88 125.037C545.78 124.393 544.906 123.433 544.253 122.159C543.608 120.877 543.287 119.273 543.287 117.346C543.287 115.404 543.608 113.765 544.253 112.429C544.906 111.086 545.785 110.069 546.891 109.378C547.995 108.679 549.227 108.33 550.586 108.33C551.624 108.33 552.475 108.507 553.143 108.86C553.819 109.205 554.356 109.624 554.755 110.115C555.155 110.599 555.458 111.055 555.666 111.485H555.896V108.561H560.006V126.534C560.006 128.047 559.646 129.298 558.923 130.288C558.202 131.278 557.216 132.019 555.964 132.51C554.712 133.001 553.292 133.247 551.703 133.247ZM551.739 122.723C552.621 122.723 553.373 122.508 553.996 122.078C554.617 121.648 555.089 121.03 555.411 120.225C555.734 119.418 555.896 118.451 555.896 117.323C555.896 116.21 555.734 115.235 555.411 114.398C555.097 113.562 554.628 112.913 554.007 112.452C553.393 111.984 552.637 111.75 551.739 111.75C550.81 111.75 550.035 111.992 549.412 112.475C548.79 112.959 548.323 113.623 548.008 114.467C547.692 115.304 547.535 116.256 547.535 117.323C547.535 118.405 547.692 119.353 548.008 120.167C548.329 120.973 548.803 121.602 549.424 122.055C550.053 122.5 550.824 122.723 551.739 122.723ZM577.411 126.603C576.291 126.603 575.281 126.404 574.383 126.005C573.493 125.598 572.786 124.999 572.264 124.208C571.75 123.418 571.493 122.443 571.493 121.284C571.493 120.286 571.677 119.461 572.046 118.808C572.414 118.156 572.917 117.634 573.554 117.242C574.191 116.851 574.91 116.555 575.707 116.356C576.513 116.148 577.347 115.999 578.206 115.907C579.242 115.799 580.083 115.703 580.729 115.619C581.372 115.527 581.841 115.388 582.133 115.204C582.433 115.012 582.582 114.717 582.582 114.318V114.249C582.582 113.381 582.324 112.709 581.81 112.234C581.296 111.758 580.555 111.52 579.589 111.52C578.567 111.52 577.757 111.742 577.158 112.188C576.567 112.633 576.168 113.158 575.96 113.765L572.069 113.212C572.376 112.138 572.883 111.239 573.588 110.518C574.295 109.789 575.159 109.244 576.179 108.883C577.201 108.514 578.329 108.33 579.565 108.33C580.417 108.33 581.265 108.43 582.11 108.63C582.955 108.829 583.727 109.159 584.424 109.62C585.123 110.073 585.684 110.691 586.105 111.474C586.536 112.257 586.75 113.235 586.75 114.41V126.246H582.744V123.817H582.605C582.352 124.308 581.995 124.769 581.535 125.199C581.081 125.621 580.51 125.963 579.819 126.223C579.135 126.477 578.332 126.603 577.411 126.603ZM578.494 123.541C579.331 123.541 580.056 123.376 580.67 123.045C581.285 122.708 581.757 122.263 582.087 121.71C582.425 121.157 582.593 120.555 582.593 119.902V117.818C582.464 117.926 582.24 118.025 581.925 118.117C581.619 118.21 581.274 118.29 580.889 118.359C580.505 118.428 580.126 118.49 579.749 118.543C579.373 118.597 579.047 118.643 578.77 118.681C578.149 118.766 577.591 118.904 577.1 119.096C576.609 119.288 576.221 119.557 575.938 119.902C575.654 120.24 575.511 120.677 575.511 121.215C575.511 121.982 575.792 122.562 576.353 122.953C576.912 123.345 577.627 123.541 578.494 123.541ZM604.923 113.235L601.122 113.65C601.014 113.266 600.825 112.905 600.558 112.567C600.297 112.23 599.943 111.957 599.498 111.75C599.053 111.543 598.509 111.439 597.863 111.439C596.996 111.439 596.266 111.627 595.674 112.003C595.092 112.379 594.804 112.867 594.812 113.466C594.804 113.98 594.992 114.398 595.376 114.721C595.767 115.043 596.412 115.308 597.31 115.515L600.328 116.16C602.001 116.521 603.245 117.093 604.058 117.876C604.879 118.658 605.294 119.683 605.302 120.95C605.294 122.063 604.968 123.045 604.323 123.898C603.686 124.742 602.799 125.402 601.664 125.878C600.527 126.354 599.222 126.592 597.748 126.592C595.584 126.592 593.841 126.139 592.519 125.233C591.199 124.32 590.413 123.049 590.159 121.422L594.225 121.03C594.408 121.829 594.8 122.431 595.399 122.838C595.997 123.245 596.777 123.448 597.737 123.448C598.727 123.448 599.522 123.245 600.12 122.838C600.727 122.431 601.03 121.929 601.03 121.33C601.03 120.823 600.834 120.405 600.443 120.075C600.059 119.745 599.46 119.491 598.646 119.315L595.629 118.681C593.933 118.328 592.677 117.734 591.864 116.897C591.05 116.053 590.647 114.985 590.655 113.696C590.647 112.606 590.942 111.662 591.542 110.863C592.148 110.057 592.988 109.436 594.063 108.998C595.146 108.553 596.393 108.33 597.805 108.33C599.879 108.33 601.51 108.772 602.7 109.654C603.896 110.537 604.637 111.731 604.923 113.235ZM621.872 126.603C620.752 126.603 619.742 126.404 618.844 126.005C617.954 125.598 617.247 124.999 616.725 124.208C616.211 123.418 615.954 122.443 615.954 121.284C615.954 120.286 616.138 119.461 616.506 118.808C616.875 118.156 617.378 117.634 618.015 117.242C618.652 116.851 619.371 116.555 620.168 116.356C620.974 116.148 621.808 115.999 622.667 115.907C623.703 115.799 624.544 115.703 625.19 115.619C625.833 115.527 626.302 115.388 626.594 115.204C626.894 115.012 627.043 114.717 627.043 114.318V114.249C627.043 113.381 626.785 112.709 626.271 112.234C625.757 111.758 625.016 111.52 624.048 111.52C623.028 111.52 622.218 111.742 621.619 112.188C621.028 112.633 620.629 113.158 620.421 113.765L616.53 113.212C616.836 112.138 617.344 111.239 618.049 110.518C618.756 109.789 619.619 109.244 620.64 108.883C621.662 108.514 622.79 108.33 624.025 108.33C624.878 108.33 625.726 108.43 626.571 108.63C627.416 108.829 628.186 109.159 628.885 109.62C629.584 110.073 630.144 110.691 630.566 111.474C630.996 112.257 631.211 113.235 631.211 114.41V126.246H627.203V123.817H627.066C626.813 124.308 626.456 124.769 625.995 125.199C625.541 125.621 624.971 125.963 624.278 126.223C623.596 126.477 622.793 126.603 621.872 126.603ZM622.955 123.541C623.792 123.541 624.517 123.376 625.131 123.045C625.746 122.708 626.218 122.263 626.548 121.71C626.886 121.157 627.054 120.555 627.054 119.902V117.818C626.925 117.926 626.701 118.025 626.386 118.117C626.08 118.21 625.734 118.29 625.35 118.359C624.966 118.428 624.587 118.49 624.21 118.543C623.834 118.597 623.508 118.643 623.231 118.681C622.61 118.766 622.052 118.904 621.561 119.096C621.07 119.288 620.682 119.557 620.399 119.902C620.115 120.24 619.972 120.677 619.972 121.215C619.972 121.982 620.253 122.562 620.814 122.953C621.373 123.345 622.088 123.541 622.955 123.541ZM651.623 126.246H643.631V102.665H651.783C654.124 102.665 656.137 103.137 657.818 104.081C659.506 105.018 660.804 106.365 661.709 108.123C662.615 109.881 663.068 111.984 663.068 114.433C663.068 116.889 662.612 119 661.698 120.766C660.793 122.531 659.483 123.886 657.771 124.83C656.067 125.774 654.017 126.246 651.623 126.246ZM647.903 122.55H651.415C653.058 122.55 654.428 122.251 655.525 121.652C656.625 121.046 657.45 120.144 658.001 118.946C658.554 117.741 658.831 116.237 658.831 114.433C658.831 112.629 658.554 111.132 658.001 109.942C657.45 108.745 656.631 107.85 655.55 107.259C654.475 106.661 653.139 106.361 651.542 106.361H647.903V122.55ZM666.943 126.246V108.561H671.111V126.246H666.943ZM669.039 106.05C668.379 106.05 667.81 105.832 667.335 105.394C666.859 104.949 666.622 104.415 666.622 103.794C666.622 103.164 666.859 102.631 667.335 102.193C667.81 101.748 668.379 101.525 669.039 101.525C669.707 101.525 670.275 101.748 670.743 102.193C671.22 102.631 671.457 103.164 671.457 103.794C671.457 104.415 671.22 104.949 670.743 105.394C670.275 105.832 669.707 106.05 669.039 106.05ZM689.378 113.235L685.579 113.65C685.47 113.266 685.282 112.905 685.015 112.567C684.753 112.23 684.4 111.957 683.954 111.75C683.51 111.543 682.964 111.439 682.32 111.439C681.452 111.439 680.723 111.627 680.131 112.003C679.547 112.379 679.26 112.867 679.268 113.466C679.26 113.98 679.448 114.398 679.833 114.721C680.223 115.043 680.869 115.308 681.767 115.515L684.784 116.16C686.458 116.521 687.701 117.093 688.515 117.876C689.336 118.658 689.751 119.683 689.759 120.95C689.751 122.063 689.425 123.045 688.779 123.898C688.142 124.742 687.255 125.402 686.119 125.878C684.984 126.354 683.679 126.592 682.205 126.592C680.039 126.592 678.297 126.139 676.976 125.233C675.656 124.32 674.87 123.049 674.615 121.422L678.68 121.03C678.865 121.829 679.256 122.431 679.855 122.838C680.454 123.245 681.234 123.448 682.193 123.448C683.182 123.448 683.977 123.245 684.577 122.838C685.183 122.431 685.486 121.929 685.486 121.33C685.486 120.823 685.29 120.405 684.899 120.075C684.515 119.745 683.917 119.491 683.103 119.315L680.086 118.681C678.388 118.328 677.133 117.734 676.319 116.897C675.505 116.053 675.103 114.985 675.111 113.696C675.103 112.606 675.398 111.662 675.998 110.863C676.605 110.057 677.444 109.436 678.519 108.998C679.602 108.553 680.849 108.33 682.261 108.33C684.335 108.33 685.966 108.772 687.156 109.654C688.353 110.537 689.094 111.731 689.378 113.235ZM700.91 126.592C699.145 126.592 697.629 126.204 696.362 125.429C695.103 124.654 694.131 123.583 693.449 122.216C692.773 120.842 692.436 119.261 692.436 117.473C692.436 115.676 692.781 114.091 693.472 112.717C694.162 111.335 695.138 110.261 696.397 109.493C697.663 108.718 699.161 108.33 700.888 108.33C702.324 108.33 703.594 108.595 704.699 109.125C705.812 109.647 706.699 110.387 707.36 111.347C708.02 112.299 708.396 113.412 708.489 114.686H704.503C704.343 113.834 703.958 113.124 703.352 112.556C702.754 111.98 701.951 111.692 700.946 111.692C700.093 111.692 699.344 111.923 698.7 112.383C698.055 112.836 697.553 113.489 697.191 114.341C696.838 115.193 696.662 116.214 696.662 117.403C696.662 118.609 696.838 119.645 697.191 120.512C697.544 121.372 698.039 122.036 698.676 122.504C699.321 122.965 700.079 123.195 700.946 123.195C701.559 123.195 702.109 123.08 702.592 122.85C703.083 122.612 703.495 122.27 703.824 121.825C704.155 121.38 704.38 120.839 704.503 120.201H708.489C708.388 121.453 708.02 122.562 707.383 123.529C706.746 124.489 705.878 125.241 704.781 125.786C703.683 126.323 702.392 126.592 700.91 126.592ZM711.911 126.246V108.561H716.08V126.246H711.911ZM714.006 106.05C713.346 106.05 712.779 105.832 712.302 105.394C711.827 104.949 711.589 104.415 711.589 103.794C711.589 103.164 711.827 102.631 712.302 102.193C712.779 101.748 713.346 101.525 714.006 101.525C714.674 101.525 715.243 101.748 715.71 102.193C716.187 102.631 716.425 103.164 716.425 103.794C716.425 104.415 716.187 104.949 715.71 105.394C715.243 105.832 714.674 106.05 714.006 106.05ZM720.367 132.879V108.561H724.465V111.485H724.707C724.923 111.055 725.226 110.599 725.617 110.115C726.009 109.624 726.538 109.205 727.206 108.86C727.874 108.507 728.726 108.33 729.762 108.33C731.129 108.33 732.361 108.679 733.459 109.378C734.565 110.069 735.439 111.094 736.084 112.452C736.738 113.803 737.063 115.461 737.063 117.426C737.063 119.369 736.744 121.019 736.107 122.378C735.47 123.736 734.602 124.773 733.505 125.487C732.407 126.2 731.163 126.557 729.774 126.557C728.76 126.557 727.921 126.388 727.253 126.051C726.585 125.713 726.046 125.306 725.639 124.83C725.24 124.347 724.929 123.89 724.707 123.46H724.535V132.879H720.367ZM724.454 117.403C724.454 118.547 724.615 119.549 724.937 120.409C725.268 121.268 725.74 121.94 726.354 122.424C726.975 122.9 727.728 123.138 728.611 123.138C729.532 123.138 730.304 122.892 730.925 122.401C731.548 121.902 732.016 121.222 732.331 120.363C732.653 119.495 732.814 118.509 732.814 117.403C732.814 116.306 732.657 115.331 732.342 114.479C732.027 113.627 731.559 112.959 730.936 112.475C730.315 111.992 729.54 111.75 728.611 111.75C727.721 111.75 726.964 111.984 726.343 112.452C725.72 112.921 725.249 113.577 724.926 114.421C724.611 115.266 724.454 116.26 724.454 117.403ZM744.802 102.665V126.246H740.634V102.665H744.802ZM749.087 126.246V108.561H753.256V126.246H749.087ZM751.184 106.05C750.524 106.05 749.955 105.832 749.48 105.394C749.003 104.949 748.766 104.415 748.766 103.794C748.766 103.164 749.003 102.631 749.48 102.193C749.955 101.748 750.524 101.525 751.184 101.525C751.852 101.525 752.419 101.748 752.888 102.193C753.365 102.631 753.603 103.164 753.603 103.794C753.603 104.415 753.365 104.949 752.888 105.394C752.419 105.832 751.852 106.05 751.184 106.05ZM761.711 115.884V126.246H757.543V108.561H761.528V111.566H761.734C762.141 110.575 762.791 109.789 763.681 109.205C764.58 108.622 765.689 108.33 767.008 108.33C768.229 108.33 769.293 108.591 770.199 109.113C771.112 109.635 771.819 110.391 772.317 111.381C772.824 112.372 773.074 113.573 773.066 114.985V126.246H768.897V115.63C768.897 114.448 768.591 113.523 767.976 112.855C767.37 112.188 766.528 111.854 765.455 111.854C764.725 111.854 764.077 112.015 763.508 112.337C762.948 112.652 762.506 113.109 762.183 113.707C761.869 114.306 761.711 115.031 761.711 115.884ZM785.133 126.592C783.361 126.592 781.829 126.223 780.54 125.487C779.258 124.742 778.27 123.69 777.58 122.332C776.889 120.965 776.544 119.357 776.544 117.507C776.544 115.688 776.889 114.091 777.58 112.717C778.278 111.335 779.253 110.261 780.505 109.493C781.756 108.718 783.227 108.33 784.915 108.33C786.006 108.33 787.034 108.507 788.002 108.86C788.976 109.205 789.835 109.743 790.581 110.472C791.334 111.201 791.924 112.13 792.353 113.258C792.785 114.379 792.999 115.715 792.999 117.265V118.543H778.501V115.734H789.004C788.996 114.936 788.822 114.226 788.485 113.604C788.148 112.974 787.676 112.479 787.069 112.118C786.469 111.758 785.771 111.577 784.973 111.577C784.12 111.577 783.373 111.785 782.727 112.199C782.082 112.606 781.579 113.143 781.22 113.811C780.866 114.471 780.684 115.197 780.678 115.987V118.44C780.678 119.468 780.866 120.351 781.242 121.088C781.618 121.817 782.144 122.378 782.82 122.769C783.494 123.153 784.286 123.345 785.192 123.345C785.798 123.345 786.346 123.26 786.838 123.092C787.329 122.915 787.755 122.658 788.117 122.32C788.477 121.982 788.749 121.564 788.934 121.065L792.827 121.503C792.58 122.531 792.112 123.429 791.421 124.197C790.739 124.957 789.863 125.548 788.796 125.97C787.729 126.385 786.508 126.592 785.133 126.592Z" fill="#0B5793"/>
<path d="M97.9794 187.393V210.975H93.6726L83.4124 196.133H83.2398V210.975H78.2536V187.393H82.6295L92.809 202.224H93.0162V187.393H97.9794ZM113.35 203.444V193.289H118.255V210.975H113.545V207.762H113.361C112.962 208.798 112.298 209.631 111.369 210.26C110.448 210.89 109.323 211.205 107.995 211.205C106.813 211.205 105.772 210.936 104.874 210.399C103.976 209.861 103.274 209.097 102.767 208.107C102.268 207.116 102.015 205.931 102.007 204.55V193.289H106.912V203.674C106.92 204.719 107.2 205.544 107.753 206.15C108.306 206.756 109.047 207.06 109.975 207.06C110.567 207.06 111.119 206.925 111.634 206.656C112.148 206.38 112.563 205.973 112.877 205.437C113.2 204.899 113.357 204.235 113.35 203.444ZM122.179 210.975V193.289H126.854V196.408H127.061C127.43 195.372 128.044 194.555 128.904 193.957C129.764 193.357 130.792 193.059 131.99 193.059C133.203 193.059 134.235 193.362 135.088 193.968C135.94 194.567 136.508 195.38 136.792 196.408H136.976C137.337 195.395 137.989 194.586 138.934 193.98C139.886 193.365 141.01 193.059 142.308 193.059C143.958 193.059 145.298 193.584 146.327 194.636C147.363 195.68 147.881 197.16 147.881 199.08V210.975H142.987V200.048C142.987 199.065 142.726 198.328 142.204 197.837C141.682 197.345 141.029 197.099 140.246 197.099C139.356 197.099 138.661 197.384 138.162 197.952C137.663 198.513 137.414 199.253 137.414 200.174V210.975H132.658V199.944C132.658 199.077 132.408 198.386 131.909 197.871C131.418 197.357 130.769 197.099 129.963 197.099C129.418 197.099 128.927 197.238 128.489 197.514C128.059 197.783 127.718 198.162 127.464 198.654C127.211 199.138 127.084 199.706 127.084 200.357V210.975H122.179ZM151.848 210.975V187.393H156.754V196.259H156.903C157.118 195.782 157.429 195.299 157.836 194.808C158.251 194.309 158.788 193.895 159.448 193.565C160.116 193.227 160.945 193.059 161.936 193.059C163.225 193.059 164.416 193.396 165.505 194.072C166.595 194.738 167.467 195.748 168.119 197.099C168.772 198.443 169.098 200.127 169.098 202.154C169.098 204.127 168.78 205.793 168.143 207.152C167.512 208.502 166.653 209.527 165.563 210.226C164.48 210.916 163.268 211.262 161.924 211.262C160.972 211.262 160.162 211.105 159.494 210.79C158.834 210.475 158.293 210.08 157.871 209.605C157.448 209.12 157.126 208.634 156.903 208.143H156.685V210.975H151.848ZM156.65 202.131C156.65 203.183 156.796 204.101 157.088 204.884C157.379 205.667 157.802 206.277 158.354 206.714C158.907 207.144 159.579 207.36 160.369 207.36C161.168 207.36 161.843 207.141 162.397 206.703C162.948 206.257 163.367 205.643 163.652 204.86C163.944 204.07 164.09 203.161 164.09 202.131C164.09 201.11 163.947 200.212 163.663 199.437C163.379 198.662 162.961 198.055 162.408 197.618C161.855 197.18 161.176 196.961 160.369 196.961C159.571 196.961 158.895 197.172 158.343 197.595C157.798 198.016 157.379 198.616 157.088 199.391C156.796 200.166 156.65 201.079 156.65 202.131ZM180.431 211.32C178.612 211.32 177.046 210.95 175.734 210.214C174.429 209.47 173.424 208.418 172.717 207.06C172.01 205.693 171.658 204.077 171.658 202.212C171.658 200.393 172.01 198.796 172.717 197.421C173.424 196.048 174.418 194.977 175.699 194.21C176.989 193.441 178.502 193.059 180.237 193.059C181.403 193.059 182.489 193.247 183.496 193.623C184.509 193.991 185.391 194.547 186.143 195.291C186.904 196.037 187.496 196.972 187.917 198.101C188.339 199.223 188.551 200.534 188.551 202.039V203.386H173.615V200.346H183.933C183.933 199.641 183.779 199.015 183.471 198.47C183.165 197.924 182.739 197.499 182.194 197.191C181.657 196.877 181.031 196.72 180.316 196.72C179.572 196.72 178.912 196.893 178.337 197.238C177.767 197.576 177.323 198.033 177.001 198.608C176.678 199.176 176.513 199.81 176.506 200.508V203.397C176.506 204.273 176.667 205.03 176.989 205.667C177.318 206.304 177.784 206.795 178.382 207.141C178.982 207.486 179.692 207.658 180.512 207.658C181.057 207.658 181.557 207.582 182.009 207.428C182.463 207.275 182.85 207.043 183.173 206.737C183.496 206.431 183.741 206.054 183.909 205.609L188.447 205.909C188.217 206.998 187.744 207.95 187.03 208.763C186.323 209.569 185.411 210.198 184.29 210.652C183.176 211.096 181.891 211.32 180.431 211.32ZM191.752 210.975V193.289H196.507V196.374H196.692C197.015 195.277 197.556 194.448 198.315 193.887C199.075 193.32 199.951 193.034 200.942 193.034C201.186 193.034 201.451 193.051 201.736 193.081C202.02 193.112 202.269 193.154 202.483 193.208V197.561C202.253 197.491 201.935 197.43 201.528 197.376C201.121 197.323 200.749 197.295 200.411 197.295C199.69 197.295 199.045 197.452 198.477 197.767C197.916 198.075 197.47 198.504 197.141 199.057C196.818 199.61 196.658 200.247 196.658 200.969V210.975H191.752ZM220.516 211.32C218.728 211.32 217.181 210.939 215.876 210.18C214.579 209.412 213.577 208.345 212.871 206.979C212.165 205.605 211.811 204.012 211.811 202.201C211.811 200.374 212.165 198.777 212.871 197.41C213.577 196.037 214.579 194.97 215.876 194.21C217.181 193.441 218.728 193.059 220.516 193.059C222.306 193.059 223.848 193.441 225.147 194.21C226.45 194.97 227.457 196.037 228.163 197.41C228.869 198.777 229.223 200.374 229.223 202.201C229.223 204.012 228.869 205.605 228.163 206.979C227.457 208.345 226.45 209.412 225.147 210.18C223.848 210.939 222.306 211.32 220.516 211.32ZM220.541 207.52C221.354 207.52 222.034 207.29 222.579 206.829C223.123 206.361 223.534 205.724 223.811 204.918C224.095 204.112 224.236 203.195 224.236 202.165C224.236 201.137 224.095 200.22 223.811 199.414C223.534 198.608 223.123 197.971 222.579 197.503C222.034 197.034 221.354 196.801 220.541 196.801C219.718 196.801 219.028 197.034 218.467 197.503C217.914 197.971 217.496 198.608 217.212 199.414C216.936 200.22 216.797 201.137 216.797 202.165C216.797 203.195 216.936 204.112 217.212 204.918C217.496 205.724 217.914 206.361 218.467 206.829C219.028 207.29 219.718 207.52 220.541 207.52ZM241.925 193.289V196.972H231.008V193.289H241.925ZM233.507 210.975V192.01C233.507 190.729 233.756 189.666 234.254 188.821C234.761 187.976 235.452 187.342 236.328 186.921C237.203 186.499 238.197 186.287 239.309 186.287C240.062 186.287 240.749 186.345 241.372 186.46C242.001 186.576 242.469 186.679 242.776 186.772L241.9 190.455C241.709 190.395 241.471 190.337 241.187 190.283C240.911 190.23 240.626 190.202 240.334 190.202C239.613 190.202 239.11 190.371 238.826 190.71C238.542 191.039 238.4 191.504 238.4 192.102V210.975H233.507ZM263.769 203.444V193.289H268.674V210.975H263.964V207.762H263.781C263.38 208.798 262.717 209.631 261.788 210.26C260.867 210.89 259.742 211.205 258.414 211.205C257.232 211.205 256.191 210.936 255.293 210.399C254.394 209.861 253.692 209.097 253.187 208.107C252.687 207.116 252.434 205.931 252.426 204.55V193.289H257.331V203.674C257.339 204.719 257.619 205.544 258.172 206.15C258.725 206.756 259.466 207.06 260.395 207.06C260.985 207.06 261.538 206.925 262.052 206.656C262.568 206.38 262.981 205.973 263.296 205.437C263.618 204.899 263.776 204.235 263.769 203.444ZM277.504 200.75V210.975H272.597V193.289H277.273V196.408H277.481C277.872 195.38 278.528 194.567 279.449 193.968C280.37 193.362 281.487 193.059 282.801 193.059C284.028 193.059 285.1 193.326 286.013 193.865C286.927 194.401 287.637 195.17 288.143 196.167C288.651 197.157 288.904 198.339 288.904 199.714V210.975H283.999V200.588C284.005 199.506 283.73 198.662 283.169 198.055C282.609 197.441 281.838 197.135 280.855 197.135C280.194 197.135 279.611 197.276 279.104 197.561C278.605 197.845 278.214 198.258 277.93 198.804C277.653 199.341 277.512 199.989 277.504 200.75ZM292.77 210.975V193.289H297.675V210.975H292.77ZM295.235 191.008C294.505 191.008 293.879 190.766 293.357 190.283C292.843 189.792 292.586 189.205 292.586 188.521C292.586 187.847 292.843 187.266 293.357 186.783C293.879 186.292 294.505 186.045 295.235 186.045C295.963 186.045 296.586 186.292 297.099 186.783C297.622 187.266 297.883 187.847 297.883 188.521C297.883 189.205 297.622 189.792 297.099 190.283C296.586 190.766 295.963 191.008 295.235 191.008ZM311.012 193.289V196.972H300.362V193.289H311.012ZM302.779 189.051H307.685V205.539C307.685 205.993 307.755 206.346 307.893 206.599C308.031 206.844 308.222 207.017 308.468 207.116C308.721 207.217 309.013 207.267 309.344 207.267C309.574 207.267 309.804 207.248 310.035 207.209C310.265 207.163 310.442 207.129 310.563 207.105L311.335 210.756C311.09 210.832 310.745 210.921 310.299 211.02C309.853 211.127 309.313 211.194 308.676 211.216C307.494 211.262 306.456 211.105 305.566 210.745C304.684 210.383 303.997 209.822 303.505 209.063C303.014 208.303 302.773 207.343 302.779 206.184V189.051ZM328.703 198.331L324.212 198.608C324.136 198.224 323.97 197.879 323.717 197.572C323.464 197.258 323.13 197.008 322.715 196.823C322.308 196.632 321.822 196.535 321.253 196.535C320.492 196.535 319.852 196.697 319.33 197.019C318.808 197.334 318.547 197.755 318.547 198.286C318.547 198.707 318.715 199.065 319.054 199.357C319.392 199.647 319.97 199.882 320.792 200.059L323.993 200.703C325.713 201.056 326.996 201.625 327.84 202.408C328.684 203.191 329.107 204.219 329.107 205.493C329.107 206.653 328.765 207.669 328.082 208.545C327.406 209.42 326.477 210.103 325.295 210.594C324.121 211.079 322.766 211.32 321.23 211.32C318.889 211.32 317.023 210.832 315.633 209.858C314.252 208.875 313.441 207.539 313.204 205.85L318.03 205.597C318.174 206.311 318.527 206.855 319.088 207.231C319.649 207.601 320.366 207.784 321.241 207.784C322.101 207.784 322.792 207.621 323.314 207.29C323.844 206.953 324.113 206.518 324.121 205.988C324.113 205.544 323.925 205.179 323.557 204.895C323.187 204.603 322.62 204.38 321.851 204.227L318.788 203.616C317.062 203.271 315.776 202.673 314.931 201.82C314.095 200.969 313.676 199.882 313.676 198.561C313.676 197.426 313.983 196.447 314.597 195.625C315.22 194.805 316.09 194.171 317.211 193.725C318.339 193.281 319.661 193.059 321.172 193.059C323.406 193.059 325.165 193.531 326.446 194.474C327.737 195.419 328.489 196.705 328.703 198.331ZM335.064 211.273C334.303 211.273 333.65 211.006 333.105 210.467C332.568 209.923 332.299 209.271 332.299 208.511C332.299 207.758 332.568 207.113 333.105 206.576C333.65 206.038 334.303 205.769 335.064 205.769C335.8 205.769 336.445 206.038 336.998 206.576C337.551 207.113 337.826 207.758 337.826 208.511C337.826 209.016 337.697 209.482 337.436 209.903C337.181 210.318 336.847 210.652 336.434 210.905C336.019 211.152 335.561 211.273 335.064 211.273ZM335.064 198.884C334.303 198.884 333.65 198.616 333.105 198.078C332.568 197.541 332.299 196.888 332.299 196.121C332.299 195.369 332.568 194.727 333.105 194.199C333.65 193.66 334.303 193.393 335.064 193.393C335.8 193.393 336.445 193.66 336.998 194.199C337.551 194.727 337.826 195.369 337.826 196.121C337.826 196.635 337.697 197.104 337.436 197.525C337.181 197.94 336.847 198.271 336.434 198.516C336.019 198.762 335.561 198.884 335.064 198.884Z" fill="#0B5793"/>
<g filter="url(#filter1_d_419_2081)">
<path d="M231.854 282.091H35.6699C26.7154 282.091 19.4563 289.349 19.4563 298.303V405.303C19.4563 414.257 26.7154 421.515 35.6699 421.515H231.854C240.809 421.515 248.068 414.257 248.068 405.303V298.303C248.068 289.349 240.809 282.091 231.854 282.091Z" fill="white"/>
<path d="M231.854 283.712H35.6699C27.6108 283.712 21.0776 290.245 21.0776 298.303V405.303C21.0776 413.361 27.6108 419.894 35.6699 419.894H231.854C239.913 419.894 246.447 413.361 246.447 405.303V298.303C246.447 290.245 239.913 283.712 231.854 283.712Z" stroke="#909090" stroke-opacity="0.25" stroke-width="2"/>
</g>
<path d="M43.7952 330.727V311.863H51.2387C52.6695 311.863 53.8886 312.135 54.896 312.682C55.9032 313.223 56.6709 313.975 57.1989 314.938C57.7333 315.896 58.0004 317.002 58.0004 318.255C58.0004 319.509 57.7303 320.613 57.1897 321.571C56.6493 322.529 55.8662 323.275 54.8407 323.81C53.8212 324.343 52.5867 324.61 51.1373 324.61H46.3929V321.415H50.4924C51.2601 321.415 51.8927 321.282 52.3902 321.018C52.8937 320.749 53.2684 320.377 53.5141 319.904C53.7659 319.424 53.8917 318.875 53.8917 318.255C53.8917 317.628 53.7659 317.082 53.5141 316.615C53.2684 316.143 52.8937 315.776 52.3902 315.519C51.8866 315.254 51.2479 315.123 50.474 315.123H47.784V330.727H43.7952ZM60.5177 330.727V316.579H64.3224V319.046H64.4698C64.7277 318.169 65.1606 317.506 65.7686 317.057C66.3766 316.603 67.0768 316.376 67.8691 316.376C68.0656 316.376 68.2775 316.388 68.5047 316.412C68.732 316.438 68.9316 316.47 69.1034 316.514V319.996C68.9193 319.941 68.6644 319.891 68.3388 319.849C68.0134 319.805 67.7156 319.784 67.4453 319.784C66.8681 319.784 66.3522 319.911 65.8977 320.162C65.4494 320.407 65.0932 320.752 64.8291 321.193C64.5711 321.636 64.442 322.145 64.442 322.722V330.727H60.5177ZM76.9225 331.003C75.467 331.003 74.214 330.709 73.1638 330.119C72.1198 329.524 71.3151 328.683 70.7503 327.595C70.1852 326.502 69.9026 325.21 69.9026 323.717C69.9026 322.261 70.1852 320.985 70.7503 319.885C71.3151 318.785 72.1106 317.929 73.1363 317.315C74.1679 316.701 75.3778 316.394 76.7658 316.394C77.6992 316.394 78.5683 316.545 79.3728 316.846C80.1835 317.14 80.8899 317.586 81.4918 318.181C82.0998 318.777 82.5726 319.526 82.9105 320.429C83.2482 321.326 83.4171 322.375 83.4171 323.579V324.657H71.4687V322.226H79.723C79.723 321.66 79.6001 321.159 79.3545 320.724C79.1089 320.288 78.7679 319.946 78.3319 319.701C77.9019 319.45 77.4014 319.324 76.8304 319.324C76.2345 319.324 75.7064 319.461 75.2458 319.739C74.7913 320.008 74.4351 320.374 74.1772 320.835C73.9192 321.289 73.7872 321.796 73.7811 322.354V324.666C73.7811 325.366 73.91 325.971 74.1679 326.481C74.432 326.99 74.8037 327.384 75.2826 327.66C75.7617 327.936 76.3298 328.075 76.987 328.075C77.423 328.075 77.8221 328.013 78.1845 327.89C78.5469 327.767 78.8571 327.584 79.115 327.337C79.3728 327.093 79.5695 326.791 79.7045 326.434L83.3341 326.674C83.1499 327.546 82.7722 328.308 82.2011 328.959C81.6361 329.604 80.9052 330.106 80.0085 330.47C79.1179 330.826 78.0893 331.003 76.9225 331.003ZM89.9026 311.863V330.727H85.9781V311.863H89.9026ZM93.0462 330.727V316.579H96.9706V330.727H93.0462ZM95.0176 314.755C94.4341 314.755 93.9336 314.561 93.5161 314.175C93.1046 313.781 92.8988 313.312 92.8988 312.764C92.8988 312.224 93.1046 311.761 93.5161 311.373C93.9336 310.981 94.4341 310.785 95.0176 310.785C95.601 310.785 96.0986 310.981 96.5099 311.373C96.9276 311.761 97.1364 312.224 97.1364 312.764C97.1364 313.312 96.9276 313.781 96.5099 314.175C96.0986 314.561 95.601 314.755 95.0176 314.755ZM100.114 330.727V316.579H103.855V319.074H104.02C104.315 318.246 104.806 317.592 105.494 317.112C106.182 316.634 107.005 316.394 107.963 316.394C108.934 316.394 109.76 316.637 110.441 317.122C111.123 317.6 111.577 318.252 111.805 319.074H111.952C112.241 318.263 112.763 317.617 113.518 317.132C114.28 316.641 115.179 316.394 116.217 316.394C117.538 316.394 118.61 316.816 119.432 317.657C120.262 318.492 120.676 319.677 120.676 321.212V330.727H116.761V321.986C116.761 321.199 116.552 320.609 116.134 320.217C115.717 319.825 115.195 319.627 114.568 319.627C113.856 319.627 113.3 319.855 112.901 320.309C112.502 320.757 112.302 321.35 112.302 322.086V330.727H108.497V321.903C108.497 321.209 108.298 320.656 107.899 320.245C107.506 319.833 106.987 319.627 106.342 319.627C105.906 319.627 105.513 319.739 105.163 319.959C104.819 320.175 104.545 320.478 104.343 320.87C104.14 321.258 104.039 321.712 104.039 322.234V330.727H100.114ZM126.07 330.967C125.462 330.967 124.94 330.752 124.504 330.322C124.074 329.886 123.859 329.364 123.859 328.756C123.859 328.154 124.074 327.639 124.504 327.209C124.94 326.778 125.462 326.564 126.07 326.564C126.659 326.564 127.175 326.778 127.617 327.209C128.06 327.639 128.281 328.154 128.281 328.756C128.281 329.161 128.176 329.532 127.968 329.871C127.765 330.202 127.498 330.47 127.166 330.672C126.835 330.868 126.469 330.967 126.07 330.967ZM126.07 321.055C125.462 321.055 124.94 320.841 124.504 320.41C124.074 319.98 123.859 319.458 123.859 318.844C123.859 318.242 124.074 317.73 124.504 317.307C124.94 316.876 125.462 316.662 126.07 316.662C126.659 316.662 127.175 316.876 127.617 317.307C128.06 317.73 128.281 318.242 128.281 318.844C128.281 319.256 128.176 319.63 127.968 319.969C127.765 320.3 127.498 320.564 127.166 320.76C126.835 320.956 126.469 321.055 126.07 321.055Z" fill="#0B5793"/>
<path d="M42.1553 359.909C42.1553 350.955 49.4145 343.697 58.3689 343.697H209.155C218.11 343.697 225.369 350.955 225.369 359.909V377.742C225.369 386.696 218.11 393.955 209.155 393.955H58.3689C49.4143 393.955 42.1553 386.696 42.1553 377.742V359.909Z" fill="#EDEDED"/>
<path d="M42.1553 359.909C42.1553 350.955 49.4145 343.697 58.3689 343.697H209.155C218.11 343.697 225.369 350.955 225.369 359.909V377.742C225.369 386.696 218.11 393.955 209.155 393.955H58.3689C49.4143 393.955 42.1553 386.696 42.1553 377.742V359.909Z" fill="#EDEDED"/>
<path d="M104.026 358.62C104.929 358.625 105.807 358.786 106.661 359.098C107.521 359.405 108.294 359.909 108.982 360.609C109.67 361.303 110.217 362.234 110.622 363.4C111.027 364.567 111.23 366.01 111.23 367.73C111.236 369.351 111.064 370.8 110.714 372.078C110.37 373.349 109.876 374.424 109.231 375.301C108.586 376.18 107.809 376.849 106.9 377.31C105.991 377.77 104.969 378 103.833 378C102.641 378 101.585 377.767 100.664 377.3C99.7484 376.833 99.0084 376.194 98.4434 375.384C97.8784 374.573 97.5314 373.646 97.4025 372.603H100.765C100.937 373.352 101.287 373.947 101.815 374.39C102.349 374.826 103.022 375.043 103.833 375.043C105.141 375.043 106.148 374.476 106.854 373.339C107.56 372.203 107.914 370.625 107.914 368.605H107.785C107.484 369.145 107.094 369.612 106.615 370.004C106.136 370.392 105.592 370.69 104.984 370.898C104.382 371.107 103.744 371.212 103.068 371.212C101.963 371.212 100.968 370.948 100.083 370.419C99.205 369.891 98.5079 369.166 97.992 368.245C97.4823 367.325 97.2243 366.271 97.2181 365.086C97.2181 363.858 97.5007 362.756 98.0658 361.778C98.6368 360.796 99.4323 360.023 100.452 359.458C101.471 358.886 102.663 358.607 104.026 358.62ZM104.035 361.383C103.372 361.383 102.773 361.545 102.239 361.871C101.711 362.19 101.293 362.626 100.986 363.179C100.685 363.725 100.535 364.337 100.535 365.013C100.541 365.682 100.691 366.29 100.986 366.837C101.287 367.383 101.695 367.816 102.211 368.135C102.733 368.455 103.329 368.613 103.999 368.613C104.496 368.613 104.96 368.519 105.389 368.328C105.819 368.138 106.194 367.874 106.513 367.537C106.839 367.192 107.091 366.803 107.269 366.366C107.453 365.93 107.542 365.47 107.536 364.985C107.536 364.34 107.382 363.745 107.075 363.197C106.774 362.651 106.36 362.211 105.832 361.881C105.31 361.548 104.711 361.383 104.035 361.383ZM120.848 358.62C121.75 358.625 122.629 358.786 123.482 359.098C124.342 359.405 125.116 359.909 125.804 360.609C126.492 361.303 127.038 362.234 127.444 363.4C127.849 364.567 128.052 366.01 128.052 367.73C128.058 369.351 127.886 370.8 127.536 372.078C127.192 373.349 126.698 374.424 126.053 375.301C125.408 376.18 124.631 376.849 123.722 377.31C122.813 377.77 121.79 378 120.654 378C119.463 378 118.406 377.767 117.485 377.3C116.57 376.833 115.83 376.194 115.265 375.384C114.7 374.573 114.353 373.646 114.224 372.603H117.586C117.758 373.352 118.109 373.947 118.637 374.39C119.171 374.826 119.844 375.043 120.654 375.043C121.962 375.043 122.97 374.476 123.676 373.339C124.382 372.203 124.735 370.625 124.735 368.605H124.606C124.305 369.145 123.915 369.612 123.436 370.004C122.957 370.392 122.414 370.69 121.806 370.898C121.204 371.107 120.565 371.212 119.89 371.212C118.784 371.212 117.789 370.948 116.905 370.419C116.027 369.891 115.33 369.166 114.814 368.245C114.304 367.325 114.046 366.271 114.04 365.086C114.04 363.858 114.322 362.756 114.887 361.778C115.458 360.796 116.254 360.023 117.273 359.458C118.293 358.886 119.484 358.607 120.848 358.62ZM120.857 361.383C120.194 361.383 119.595 361.545 119.06 361.871C118.532 362.19 118.115 362.626 117.808 363.179C117.507 363.725 117.356 364.337 117.356 365.013C117.362 365.682 117.513 366.29 117.808 366.837C118.109 367.383 118.517 367.816 119.033 368.135C119.555 368.455 120.151 368.613 120.82 368.613C121.318 368.613 121.781 368.519 122.211 368.328C122.641 368.138 123.016 367.874 123.335 367.537C123.66 367.192 123.912 366.803 124.09 366.366C124.275 365.93 124.364 365.47 124.358 364.985C124.358 364.34 124.204 363.745 123.897 363.197C123.596 362.651 123.181 362.211 122.653 361.881C122.131 361.548 121.532 361.383 120.857 361.383ZM132.476 377.945C131.917 377.945 131.438 377.749 131.039 377.355C130.64 376.963 130.443 376.483 130.449 375.919C130.443 375.366 130.64 374.892 131.039 374.5C131.438 374.108 131.917 373.91 132.476 373.91C133.016 373.91 133.486 374.108 133.885 374.5C134.291 374.892 134.496 375.366 134.503 375.919C134.496 376.293 134.398 376.634 134.208 376.942C134.023 377.248 133.778 377.494 133.471 377.678C133.17 377.856 132.838 377.945 132.476 377.945ZM144.148 378.102C142.631 378.102 141.329 377.718 140.242 376.95C139.161 376.176 138.329 375.063 137.745 373.607C137.168 372.144 136.879 370.385 136.879 368.328C136.886 366.271 137.177 364.521 137.755 363.079C138.338 361.629 139.17 360.524 140.251 359.762C141.338 359 142.637 358.62 144.148 358.62C145.659 358.62 146.958 359 148.045 359.762C149.132 360.524 149.964 361.629 150.541 363.079C151.125 364.526 151.416 366.277 151.416 368.328C151.416 370.392 151.125 372.154 150.541 373.616C149.964 375.071 149.132 376.183 148.045 376.95C146.964 377.718 145.665 378.102 144.148 378.102ZM144.148 375.218C145.327 375.218 146.257 374.638 146.939 373.477C147.627 372.311 147.971 370.595 147.971 368.328C147.971 366.83 147.814 365.57 147.501 364.552C147.188 363.533 146.746 362.764 146.174 362.249C145.603 361.726 144.928 361.465 144.148 361.465C142.975 361.465 142.047 362.049 141.366 363.216C140.684 364.377 140.34 366.081 140.334 368.328C140.328 369.833 140.478 371.099 140.785 372.123C141.099 373.15 141.541 373.923 142.112 374.445C142.683 374.96 143.362 375.218 144.148 375.218ZM161.451 378.102C159.934 378.102 158.632 377.718 157.545 376.95C156.464 376.176 155.632 375.063 155.048 373.607C154.471 372.144 154.182 370.385 154.182 368.328C154.188 366.271 154.48 364.521 155.057 363.079C155.641 361.629 156.473 360.524 157.554 359.762C158.641 359 159.94 358.62 161.451 358.62C162.961 358.62 164.26 359 165.348 359.762C166.434 360.524 167.268 361.629 167.845 363.079C168.427 364.526 168.719 366.277 168.719 368.328C168.719 370.392 168.427 372.154 167.845 373.616C167.268 375.071 166.434 376.183 165.348 376.95C164.266 377.718 162.968 378.102 161.451 378.102ZM161.451 375.218C162.63 375.218 163.561 374.638 164.242 373.477C164.93 372.311 165.273 370.595 165.273 368.328C165.273 366.83 165.118 365.57 164.805 364.552C164.49 363.533 164.049 362.764 163.477 362.249C162.906 361.726 162.23 361.465 161.451 361.465C160.278 361.465 159.35 362.049 158.669 363.216C157.987 364.377 157.643 366.081 157.637 368.328C157.631 369.833 157.781 371.099 158.088 372.123C158.401 373.15 158.844 373.923 159.415 374.445C159.986 374.96 160.665 375.218 161.451 375.218Z" fill="#0B5793"/>
<g filter="url(#filter2_d_419_2081)">
<path d="M476.68 282.091H280.495C271.541 282.091 264.281 289.349 264.281 298.303V405.303C264.281 414.257 271.541 421.515 280.495 421.515H476.68C485.634 421.515 492.893 414.257 492.893 405.303V298.303C492.893 289.349 485.634 282.091 476.68 282.091Z" fill="white"/>
<path d="M476.68 283.712H280.495C272.436 283.712 265.903 290.245 265.903 298.303V405.303C265.903 413.361 272.436 419.894 280.495 419.894H476.68C484.739 419.894 491.272 413.361 491.272 405.303V298.303C491.272 290.245 484.739 283.712 476.68 283.712Z" stroke="#909090" stroke-opacity="0.25" stroke-width="2"/>
</g>
<path d="M288.62 311.863H293.539L298.735 324.538H298.956L304.152 311.863H309.072V330.727H305.203V318.448H305.046L300.164 330.635H297.529L292.646 318.403H292.49V330.727H288.62V311.863ZM312.285 330.727V316.579H316.209V330.727H312.285ZM314.255 314.755C313.673 314.755 313.172 314.561 312.754 314.175C312.343 313.781 312.138 313.312 312.138 312.764C312.138 312.224 312.343 311.761 312.754 311.373C313.172 310.981 313.673 310.785 314.255 310.785C314.839 310.785 315.336 310.981 315.748 311.373C316.165 311.761 316.374 312.224 316.374 312.764C316.374 313.312 316.165 313.781 315.748 314.175C315.336 314.561 314.839 314.755 314.255 314.755ZM324.567 330.957C323.492 330.957 322.519 330.682 321.647 330.129C320.781 329.57 320.092 328.749 319.583 327.67C319.079 326.582 318.827 325.249 318.827 323.672C318.827 322.051 319.088 320.702 319.61 319.627C320.132 318.547 320.826 317.74 321.692 317.205C322.565 316.665 323.519 316.394 324.557 316.394C325.35 316.394 326.01 316.529 326.538 316.799C327.072 317.064 327.502 317.396 327.827 317.795C328.16 318.187 328.411 318.575 328.583 318.956H328.703V311.863H332.619V330.727H328.748V328.461H328.583C328.398 328.855 328.137 329.244 327.8 329.631C327.469 330.012 327.036 330.328 326.501 330.58C325.973 330.831 325.329 330.957 324.567 330.957ZM325.81 327.835C326.443 327.835 326.978 327.663 327.414 327.319C327.855 326.969 328.194 326.481 328.426 325.854C328.666 325.228 328.786 324.494 328.786 323.652C328.786 322.811 328.669 322.081 328.435 321.46C328.202 320.841 327.865 320.361 327.422 320.024C326.979 319.685 326.443 319.517 325.81 319.517C325.165 319.517 324.622 319.692 324.179 320.042C323.737 320.392 323.403 320.877 323.176 321.498C322.949 322.117 322.835 322.837 322.835 323.652C322.835 324.476 322.949 325.204 323.176 325.836C323.409 326.462 323.743 326.953 324.179 327.31C324.622 327.66 325.165 327.835 325.81 327.835ZM343.371 316.579V319.526H334.85V316.579H343.371ZM336.784 313.189H340.709V326.379C340.709 326.742 340.764 327.024 340.875 327.227C340.985 327.423 341.139 327.561 341.335 327.642C341.538 327.722 341.771 327.76 342.035 327.76C342.22 327.76 342.403 327.746 342.588 327.715C342.773 327.678 342.914 327.65 343.011 327.632L343.629 330.552C343.433 330.614 343.156 330.684 342.801 330.765C342.444 330.85 342.011 330.902 341.5 330.92C340.555 330.957 339.727 330.831 339.013 330.542C338.308 330.254 337.758 329.806 337.364 329.198C336.972 328.591 336.779 327.822 336.784 326.895V313.189ZM352.224 331.003C350.768 331.003 349.516 330.709 348.466 330.119C347.422 329.524 346.617 328.683 346.052 327.595C345.487 326.502 345.205 325.21 345.205 323.717C345.205 322.261 345.487 320.985 346.052 319.885C346.617 318.785 347.412 317.929 348.438 317.315C349.469 316.701 350.679 316.394 352.067 316.394C353.001 316.394 353.87 316.545 354.674 316.846C355.485 317.14 356.192 317.586 356.793 318.181C357.401 318.777 357.874 319.526 358.212 320.429C358.551 321.326 358.719 322.375 358.719 323.579V324.657H346.77V322.226H355.024C355.024 321.66 354.903 321.159 354.656 320.724C354.411 320.288 354.069 319.946 353.633 319.701C353.203 319.45 352.704 319.324 352.132 319.324C351.537 319.324 351.008 319.461 350.548 319.739C350.094 320.008 349.737 320.374 349.479 320.835C349.221 321.289 349.088 321.796 349.083 322.354V324.666C349.083 325.366 349.212 325.971 349.469 326.481C349.734 326.99 350.105 327.384 350.585 327.66C351.063 327.936 351.632 328.075 352.289 328.075C352.725 328.075 353.124 328.013 353.485 327.89C353.849 327.767 354.158 327.584 354.416 327.337C354.674 327.093 354.872 326.791 355.006 326.434L358.637 326.674C358.452 327.546 358.074 328.308 357.503 328.959C356.937 329.604 356.206 330.106 355.31 330.47C354.419 330.826 353.391 331.003 352.224 331.003ZM361.279 330.727V316.579H365.085V319.046H365.232C365.49 318.169 365.923 317.506 366.531 317.057C367.139 316.603 367.839 316.376 368.631 316.376C368.828 316.376 369.039 316.388 369.266 316.412C369.495 316.438 369.694 316.47 369.866 316.514V319.996C369.681 319.941 369.427 319.891 369.101 319.849C368.775 319.805 368.478 319.784 368.207 319.784C367.63 319.784 367.115 319.911 366.659 320.162C366.212 320.407 365.855 320.752 365.591 321.193C365.333 321.636 365.205 322.145 365.205 322.722V330.727H361.279ZM371.894 330.727V316.579H375.635V319.074H375.8C376.095 318.246 376.587 317.592 377.274 317.112C377.963 316.634 378.785 316.394 379.743 316.394C380.715 316.394 381.54 316.637 382.221 317.122C382.903 317.6 383.357 318.252 383.584 319.074H383.732C384.021 318.263 384.543 317.617 385.298 317.132C386.06 316.641 386.96 316.394 387.998 316.394C389.318 316.394 390.389 316.816 391.213 317.657C392.041 318.492 392.456 319.677 392.456 321.212V330.727H388.541V321.986C388.541 321.199 388.332 320.609 387.915 320.217C387.497 319.825 386.975 319.627 386.349 319.627C385.637 319.627 385.081 319.855 384.682 320.309C384.282 320.757 384.082 321.35 384.082 322.086V330.727H380.278V321.903C380.278 321.209 380.079 320.656 379.679 320.245C379.286 319.833 378.767 319.627 378.122 319.627C377.686 319.627 377.293 319.739 376.943 319.959C376.6 320.175 376.326 320.478 376.123 320.87C375.92 321.258 375.82 321.712 375.82 322.234V330.727H371.894ZM397.851 330.967C397.243 330.967 396.721 330.752 396.284 330.322C395.855 329.886 395.639 329.364 395.639 328.756C395.639 328.154 395.855 327.639 396.284 327.209C396.721 326.778 397.243 326.564 397.851 326.564C398.439 326.564 398.956 326.778 399.398 327.209C399.84 327.639 400.061 328.154 400.061 328.756C400.061 329.161 399.957 329.532 399.748 329.871C399.545 330.202 399.278 330.47 398.947 330.672C398.614 330.868 398.25 330.967 397.851 330.967ZM397.851 321.055C397.243 321.055 396.721 320.841 396.284 320.41C395.855 319.98 395.639 319.458 395.639 318.844C395.639 318.242 395.855 317.73 396.284 317.307C396.721 316.876 397.243 316.662 397.851 316.662C398.439 316.662 398.956 316.876 399.398 317.307C399.84 317.73 400.061 318.242 400.061 318.844C400.061 319.256 399.957 319.63 399.748 319.969C399.545 320.3 399.278 320.564 398.947 320.76C398.614 320.956 398.25 321.055 397.851 321.055Z" fill="#0B5793"/>
<path d="M286.981 359.909C286.981 350.955 294.239 343.697 303.194 343.697H453.981C462.935 343.697 470.194 350.955 470.194 359.909V377.742C470.194 386.696 462.935 393.955 453.981 393.955H303.194C294.239 393.955 286.981 386.696 286.981 377.742V359.909Z" fill="#EDEDED"/>
<path d="M286.981 359.909C286.981 350.955 294.239 343.697 303.194 343.697H453.981C462.935 343.697 470.194 350.955 470.194 359.909V377.742C470.194 386.696 462.935 393.955 453.981 393.955H303.194C294.239 393.955 286.981 386.696 286.981 377.742V359.909Z" fill="#EDEDED"/>
<path d="M349.857 378C348.487 378 347.271 377.77 346.209 377.31C345.152 376.849 344.323 376.22 343.722 375.421C343.125 374.617 342.83 373.704 342.836 372.686C342.83 371.893 343.003 371.165 343.352 370.502C343.702 369.839 344.176 369.286 344.771 368.844C345.374 368.396 346.043 368.111 346.78 367.988V367.858C345.81 367.644 345.024 367.149 344.422 366.376C343.825 365.596 343.53 364.697 343.537 363.677C343.53 362.706 343.801 361.84 344.347 361.08C344.894 360.318 345.643 359.719 346.595 359.283C347.548 358.841 348.634 358.62 349.857 358.62C351.066 358.62 352.145 358.841 353.09 359.283C354.042 359.719 354.791 360.318 355.339 361.08C355.89 361.84 356.167 362.706 356.167 363.677C356.167 364.697 355.862 365.596 355.254 366.376C354.653 367.149 353.876 367.644 352.924 367.858V367.988C353.661 368.111 354.325 368.396 354.914 368.844C355.511 369.286 355.982 369.839 356.333 370.502C356.689 371.165 356.868 371.893 356.868 372.686C356.868 373.704 356.566 374.617 355.965 375.421C355.363 376.22 354.533 376.849 353.477 377.31C352.427 377.77 351.22 378 349.857 378ZM349.857 375.366C350.562 375.366 351.177 375.246 351.699 375.006C352.221 374.761 352.626 374.417 352.915 373.975C353.203 373.532 353.351 373.023 353.357 372.446C353.351 371.844 353.195 371.313 352.887 370.852C352.587 370.385 352.172 370.021 351.644 369.756C351.122 369.492 350.526 369.361 349.857 369.361C349.181 369.361 348.579 369.492 348.051 369.756C347.522 370.021 347.105 370.385 346.797 370.852C346.497 371.313 346.35 371.844 346.356 372.446C346.35 373.023 346.491 373.532 346.78 373.975C347.068 374.411 347.473 374.751 347.996 374.998C348.524 375.243 349.143 375.366 349.857 375.366ZM349.857 366.772C350.434 366.772 350.943 366.655 351.386 366.422C351.835 366.188 352.187 365.862 352.445 365.446C352.704 365.027 352.835 364.546 352.842 363.999C352.835 363.458 352.706 362.986 352.454 362.581C352.203 362.169 351.853 361.853 351.404 361.631C350.956 361.404 350.441 361.29 349.857 361.29C349.26 361.29 348.736 361.404 348.281 361.631C347.833 361.853 347.483 362.169 347.232 362.581C346.985 362.986 346.865 363.458 346.872 363.999C346.865 364.546 346.989 365.027 347.24 365.446C347.498 365.857 347.851 366.182 348.3 366.422C348.754 366.655 349.273 366.772 349.857 366.772ZM366.445 358.62C367.348 358.625 368.227 358.786 369.08 359.098C369.941 359.405 370.714 359.909 371.401 360.609C372.089 361.303 372.637 362.234 373.042 363.4C373.448 364.567 373.65 366.01 373.65 367.73C373.655 369.351 373.483 370.8 373.133 372.078C372.789 373.349 372.295 374.424 371.651 375.301C371.006 376.18 370.229 376.849 369.32 377.31C368.41 377.77 367.389 378 366.252 378C365.06 378 364.005 377.767 363.084 377.3C362.168 376.833 361.428 376.194 360.863 375.384C360.298 374.573 359.951 373.646 359.822 372.603H363.184C363.356 373.352 363.706 373.947 364.235 374.39C364.768 374.826 365.441 375.043 366.252 375.043C367.56 375.043 368.567 374.476 369.274 373.339C369.98 372.203 370.333 370.625 370.333 368.605H370.205C369.903 369.145 369.513 369.612 369.034 370.004C368.556 370.392 368.011 370.69 367.403 370.898C366.802 371.107 366.163 371.212 365.487 371.212C364.383 371.212 363.387 370.948 362.503 370.419C361.625 369.891 360.927 369.166 360.412 368.245C359.901 367.325 359.643 366.271 359.637 365.086C359.637 363.858 359.921 362.756 360.485 361.778C361.057 360.796 361.852 360.023 362.872 359.458C363.891 358.886 365.081 358.607 366.445 358.62ZM366.455 361.383C365.792 361.383 365.193 361.545 364.658 361.871C364.13 362.19 363.713 362.626 363.405 363.179C363.105 363.725 362.954 364.337 362.954 365.013C362.961 365.682 363.111 366.29 363.405 366.837C363.706 367.383 364.115 367.816 364.631 368.135C365.153 368.455 365.748 368.613 366.417 368.613C366.915 368.613 367.379 368.519 367.809 368.328C368.238 368.138 368.613 367.874 368.932 367.537C369.258 367.192 369.511 366.803 369.688 366.366C369.873 365.93 369.962 365.47 369.955 364.985C369.955 364.34 369.801 363.745 369.495 363.197C369.193 362.651 368.78 362.211 368.251 361.881C367.729 361.548 367.131 361.383 366.455 361.383ZM378.073 377.945C377.516 377.945 377.036 377.749 376.637 377.355C376.238 376.963 376.04 376.483 376.047 375.919C376.04 375.366 376.238 374.892 376.637 374.5C377.036 374.108 377.516 373.91 378.073 373.91C378.615 373.91 379.083 374.108 379.484 374.5C379.889 374.892 380.094 375.366 380.1 375.919C380.094 376.293 379.996 376.634 379.805 376.942C379.622 377.248 379.375 377.494 379.069 377.678C378.767 377.856 378.437 377.945 378.073 377.945ZM389.746 378.102C388.228 378.102 386.926 377.718 385.84 376.95C384.758 376.176 383.926 375.063 383.343 373.607C382.766 372.144 382.477 370.385 382.477 368.328C382.483 366.271 382.775 364.521 383.353 363.079C383.936 361.629 384.768 360.524 385.849 359.762C386.936 359 388.234 358.62 389.746 358.62C391.257 358.62 392.555 359 393.643 359.762C394.73 360.524 395.561 361.629 396.139 363.079C396.722 364.526 397.014 366.277 397.014 368.328C397.014 370.392 396.722 372.154 396.139 373.616C395.561 375.071 394.73 376.183 393.643 376.95C392.562 377.718 391.263 378.102 389.746 378.102ZM389.746 375.218C390.924 375.218 391.855 374.638 392.538 373.477C393.225 372.311 393.569 370.595 393.569 368.328C393.569 366.83 393.411 365.57 393.098 364.552C392.786 363.533 392.343 362.764 391.772 362.249C391.202 361.726 390.525 361.465 389.746 361.465C388.573 361.465 387.646 362.049 386.963 363.216C386.282 364.377 385.939 366.081 385.932 368.328C385.926 369.833 386.076 371.099 386.383 372.123C386.696 373.15 387.138 373.923 387.709 374.445C388.281 374.96 388.959 375.218 389.746 375.218ZM407.049 378.102C405.531 378.102 404.229 377.718 403.143 376.95C402.061 376.176 401.23 375.063 400.646 373.607C400.069 372.144 399.78 370.385 399.78 368.328C399.787 366.271 400.078 364.521 400.656 363.079C401.239 361.629 402.071 360.524 403.153 359.762C404.239 359 405.538 358.62 407.049 358.62C408.56 358.62 409.858 359 410.945 359.762C412.033 360.524 412.864 361.629 413.442 363.079C414.025 364.526 414.317 366.277 414.317 368.328C414.317 370.392 414.025 372.154 413.442 373.616C412.864 375.071 412.033 376.183 410.945 376.95C409.865 377.718 408.566 378.102 407.049 378.102ZM407.049 375.218C408.227 375.218 409.158 374.638 409.841 373.477C410.528 372.311 410.872 370.595 410.872 368.328C410.872 366.83 410.715 365.57 410.402 364.552C410.089 363.533 409.646 362.764 409.075 362.249C408.505 361.726 407.829 361.465 407.049 361.465C405.875 361.465 404.949 362.049 404.266 363.216C403.585 364.377 403.24 366.081 403.235 368.328C403.229 369.833 403.38 371.099 403.686 372.123C403.999 373.15 404.442 373.923 405.012 374.445C405.585 374.96 406.262 375.218 407.049 375.218Z" fill="#0B5793"/>
<g filter="url(#filter3_d_419_2081)">
<path d="M721.505 282.091H525.32C516.366 282.091 509.107 289.349 509.107 298.303V405.303C509.107 414.257 516.366 421.515 525.32 421.515H721.505C730.459 421.515 737.718 414.257 737.718 405.303V298.303C737.718 289.349 730.459 282.091 721.505 282.091Z" fill="white"/>
<path d="M721.505 283.712H525.32C517.261 283.712 510.728 290.245 510.728 298.303V405.303C510.728 413.361 517.261 419.894 525.32 419.894H721.505C729.564 419.894 736.097 413.361 736.097 405.303V298.303C736.097 290.245 729.564 283.712 721.505 283.712Z" stroke="#909090" stroke-opacity="0.25" stroke-width="2"/>
</g>
<path d="M533.445 330.727V311.863H540.889C542.32 311.863 543.54 312.135 544.547 312.682C545.553 313.223 546.322 313.975 546.849 314.938C547.384 315.896 547.651 317.002 547.651 318.255C547.651 319.509 547.381 320.613 546.841 321.571C546.299 322.529 545.516 323.275 544.491 323.81C543.472 324.343 542.238 324.61 540.788 324.61H536.044V321.415H540.143C540.911 321.415 541.544 321.282 542.04 321.018C542.544 320.749 542.919 320.377 543.165 319.904C543.416 319.424 543.543 318.875 543.543 318.255C543.543 317.628 543.416 317.082 543.165 316.615C542.919 316.143 542.544 315.776 542.04 315.519C541.537 315.254 540.898 315.123 540.125 315.123H537.435V330.727H533.445ZM550.168 330.727V316.579H553.973V319.046H554.121C554.378 318.169 554.811 317.506 555.419 317.057C556.027 316.603 556.728 316.376 557.519 316.376C557.717 316.376 557.928 316.388 558.155 316.412C558.383 316.438 558.583 316.47 558.755 316.514V319.996C558.57 319.941 558.315 319.891 557.989 319.849C557.663 319.805 557.367 319.784 557.096 319.784C556.519 319.784 556.003 319.911 555.547 320.162C555.1 320.407 554.743 320.752 554.479 321.193C554.221 321.636 554.093 322.145 554.093 322.722V330.727H550.168ZM566.573 331.003C565.117 331.003 563.865 330.709 562.814 330.119C561.77 329.524 560.966 328.683 560.4 327.595C559.836 326.502 559.554 325.21 559.554 323.717C559.554 322.261 559.836 320.985 560.4 319.885C560.966 318.785 561.761 317.929 562.787 317.315C563.818 316.701 565.029 316.394 566.417 316.394C567.349 316.394 568.218 316.545 569.024 316.846C569.835 317.14 570.54 317.586 571.142 318.181C571.75 318.777 572.223 319.526 572.56 320.429C572.899 321.326 573.068 322.375 573.068 323.579V324.657H561.12V322.226H569.373C569.373 321.66 569.251 321.159 569.005 320.724C568.76 320.288 568.418 319.946 567.982 319.701C567.552 319.45 567.053 319.324 566.48 319.324C565.885 319.324 565.357 319.461 564.896 319.739C564.442 320.008 564.086 320.374 563.828 320.835C563.57 321.289 563.437 321.796 563.432 322.354V324.666C563.432 325.366 563.56 325.971 563.818 326.481C564.082 326.99 564.454 327.384 564.934 327.66C565.412 327.936 565.981 328.075 566.638 328.075C567.074 328.075 567.473 328.013 567.836 327.89C568.197 327.767 568.507 327.584 568.765 327.337C569.024 327.093 569.22 326.791 569.355 326.434L572.985 326.674C572.8 327.546 572.423 328.308 571.852 328.959C571.286 329.604 570.556 330.106 569.66 330.47C568.768 330.826 567.74 331.003 566.573 331.003ZM583.239 316.579V319.526H574.504V316.579H583.239ZM576.504 330.727V315.556C576.504 314.53 576.703 313.68 577.103 313.004C577.509 312.33 578.06 311.822 578.76 311.485C579.461 311.146 580.257 310.978 581.147 310.978C581.749 310.978 582.298 311.025 582.796 311.115C583.299 311.208 583.675 311.291 583.92 311.365L583.219 314.313C583.067 314.264 582.875 314.217 582.648 314.175C582.428 314.131 582.199 314.11 581.967 314.11C581.389 314.11 580.987 314.244 580.76 314.515C580.533 314.779 580.419 315.151 580.419 315.631V330.727H576.504ZM585.635 330.727V316.579H589.56V330.727H585.635ZM587.607 314.755C587.023 314.755 586.524 314.561 586.105 314.175C585.693 313.781 585.487 313.312 585.487 312.764C585.487 312.224 585.693 311.761 586.105 311.373C586.524 310.981 587.023 310.785 587.607 310.785C588.19 310.785 588.688 310.981 589.1 311.373C589.517 311.761 589.726 312.224 589.726 312.764C589.726 313.312 589.517 313.781 589.1 314.175C588.688 314.561 588.19 314.755 587.607 314.755ZM596.628 322.548V330.727H592.704V316.579H596.443V319.074H596.61C596.923 318.252 597.448 317.6 598.184 317.122C598.922 316.637 599.815 316.394 600.866 316.394C601.849 316.394 602.705 316.61 603.436 317.039C604.167 317.469 604.735 318.083 605.14 318.881C605.545 319.674 605.748 320.619 605.748 321.718V330.727H601.824V322.419C601.829 321.553 601.609 320.877 601.161 320.392C600.712 319.901 600.094 319.654 599.31 319.654C598.781 319.654 598.314 319.77 597.909 319.996C597.51 320.223 597.195 320.554 596.968 320.99C596.748 321.42 596.634 321.94 596.628 322.548ZM612.875 330.995C611.974 330.995 611.168 330.838 610.463 330.525C609.756 330.205 609.197 329.735 608.786 329.116C608.381 328.488 608.178 327.709 608.178 326.775C608.178 325.99 608.323 325.329 608.611 324.795C608.9 324.26 609.292 323.831 609.79 323.505C610.288 323.181 610.852 322.934 611.484 322.769C612.123 322.603 612.793 322.487 613.493 322.419C614.317 322.333 614.98 322.253 615.483 322.179C615.987 322.099 616.352 321.982 616.58 321.828C616.807 321.676 616.921 321.449 616.921 321.148V321.092C616.921 320.509 616.736 320.058 616.368 319.739C616.005 319.419 615.489 319.259 614.82 319.259C614.114 319.259 613.552 319.416 613.135 319.729C612.717 320.035 612.439 320.423 612.305 320.89L608.676 320.595C608.859 319.735 609.223 318.991 609.762 318.366C610.302 317.733 611 317.249 611.854 316.91C612.713 316.566 613.709 316.394 614.839 316.394C615.624 316.394 616.378 316.487 617.096 316.671C617.821 316.855 618.461 317.14 619.02 317.527C619.586 317.915 620.031 318.411 620.356 319.019C620.682 319.622 620.844 320.343 620.844 321.185V330.727H617.123V328.766H617.013C616.785 329.207 616.481 329.597 616.1 329.935C615.719 330.267 615.262 330.528 614.727 330.718C614.194 330.902 613.576 330.995 612.875 330.995ZM614.001 328.286C614.578 328.286 615.087 328.172 615.53 327.945C615.972 327.712 616.319 327.399 616.571 327.007C616.822 326.613 616.948 326.167 616.948 325.671V324.169C616.825 324.249 616.657 324.322 616.441 324.39C616.232 324.452 615.997 324.51 615.732 324.565C615.468 324.614 615.204 324.661 614.939 324.703C614.675 324.74 614.437 324.774 614.221 324.805C613.761 324.871 613.359 324.98 613.015 325.126C612.671 325.274 612.404 325.473 612.212 325.726C612.023 325.971 611.927 326.279 611.927 326.647C611.927 327.18 612.122 327.589 612.507 327.872C612.901 328.148 613.398 328.286 614.001 328.286ZM627.813 311.863V330.727H623.889V311.863H627.813ZM633.251 330.967C632.643 330.967 632.121 330.752 631.685 330.322C631.255 329.886 631.041 329.364 631.041 328.756C631.041 328.154 631.255 327.639 631.685 327.209C632.121 326.778 632.643 326.564 633.251 326.564C633.841 326.564 634.357 326.778 634.8 327.209C635.241 327.639 635.463 328.154 635.463 328.756C635.463 329.161 635.357 329.532 635.15 329.871C634.947 330.202 634.679 330.47 634.347 330.672C634.016 330.868 633.65 330.967 633.251 330.967ZM633.251 321.055C632.643 321.055 632.121 320.841 631.685 320.41C631.255 319.98 631.041 319.458 631.041 318.844C631.041 318.242 631.255 317.73 631.685 317.307C632.121 316.876 632.643 316.662 633.251 316.662C633.841 316.662 634.357 316.876 634.8 317.307C635.241 317.73 635.463 318.242 635.463 318.844C635.463 319.256 635.357 319.63 635.15 319.969C634.947 320.3 634.679 320.564 634.347 320.76C634.016 320.956 633.65 321.055 633.251 321.055Z" fill="#0B5793"/>
<path d="M530.995 359.909C530.995 350.955 538.254 343.697 547.209 343.697H697.995C706.95 343.697 714.209 350.955 714.209 359.909V377.742C714.209 386.696 706.95 393.955 697.995 393.955H547.209C538.254 393.955 530.995 386.696 530.995 377.742V359.909Z" fill="#EDEDED"/>
<path d="M530.995 359.909C530.995 350.955 538.254 343.697 547.209 343.697H697.995C706.95 343.697 714.209 350.955 714.209 359.909V377.742C714.209 386.696 706.95 393.955 697.995 393.955H547.209C538.254 393.955 530.995 386.696 530.995 377.742V359.909Z" fill="#EDEDED"/>
<path d="M590.363 377.742L598.387 361.863V361.733H589.074V358.878H601.925V361.798L593.91 377.742H590.363ZM611.194 358.62C612.097 358.625 612.976 358.786 613.829 359.098C614.69 359.405 615.463 359.909 616.151 360.609C616.84 361.303 617.386 362.234 617.791 363.4C618.197 364.567 618.399 366.01 618.399 367.73C618.404 369.351 618.232 370.8 617.882 372.078C617.538 373.349 617.044 374.424 616.4 375.301C615.755 376.18 614.978 376.849 614.069 377.31C613.161 377.77 612.138 378 611.001 378C609.809 378 608.754 377.767 607.833 377.3C606.917 376.833 606.178 376.194 605.612 375.384C605.047 374.573 604.7 373.646 604.571 372.603H607.933C608.105 373.352 608.456 373.947 608.984 374.39C609.518 374.826 610.19 375.043 611.001 375.043C612.31 375.043 613.316 374.476 614.023 373.339C614.729 372.203 615.082 370.625 615.082 368.605H614.954C614.652 369.145 614.263 369.612 613.783 370.004C613.305 370.392 612.76 370.69 612.152 370.898C611.551 371.107 610.912 371.212 610.237 371.212C609.132 371.212 608.136 370.948 607.252 370.419C606.374 369.891 605.677 369.166 605.161 368.245C604.652 367.325 604.392 366.271 604.388 365.086C604.388 363.858 604.67 362.756 605.234 361.778C605.806 360.796 606.601 360.023 607.621 359.458C608.64 358.886 609.832 358.607 611.194 358.62ZM611.204 361.383C610.541 361.383 609.942 361.545 609.407 361.871C608.879 362.19 608.462 362.626 608.154 363.179C607.854 363.725 607.703 364.337 607.703 365.013C607.71 365.682 607.861 366.29 608.154 366.837C608.456 367.383 608.864 367.816 609.38 368.135C609.902 368.455 610.498 368.613 611.166 368.613C611.664 368.613 612.128 368.519 612.558 368.328C612.989 368.138 613.363 367.874 613.683 367.537C614.007 367.192 614.26 366.803 614.437 366.366C614.622 365.93 614.711 365.47 614.704 364.985C614.704 364.34 614.552 363.745 614.244 363.197C613.944 362.651 613.529 362.211 613 361.881C612.478 361.548 611.88 361.383 611.204 361.383ZM622.822 377.945C622.265 377.945 621.785 377.749 621.386 377.355C620.987 376.963 620.791 376.483 620.796 375.919C620.791 375.366 620.987 374.892 621.386 374.5C621.785 374.108 622.265 373.91 622.822 373.91C623.364 373.91 623.833 374.108 624.233 374.5C624.638 374.892 624.844 375.366 624.849 375.919C624.844 376.293 624.745 376.634 624.556 376.942C624.371 377.248 624.124 377.494 623.818 377.678C623.516 377.856 623.186 377.945 622.822 377.945ZM634.495 378.102C632.979 378.102 631.677 377.718 630.589 376.95C629.507 376.176 628.676 375.063 628.092 373.607C627.515 372.144 627.226 370.385 627.226 368.328C627.233 366.271 627.524 364.521 628.102 363.079C628.685 361.629 629.517 360.524 630.598 359.762C631.685 359 632.983 358.62 634.495 358.62C636.006 358.62 637.304 359 638.392 359.762C639.479 360.524 640.31 361.629 640.888 363.079C641.471 364.526 641.763 366.277 641.763 368.328C641.763 370.392 641.471 372.154 640.888 373.616C640.31 375.071 639.479 376.183 638.392 376.95C637.311 377.718 636.012 378.102 634.495 378.102ZM634.495 375.218C635.675 375.218 636.604 374.638 637.287 373.477C637.974 372.311 638.318 370.595 638.318 368.328C638.318 366.83 638.162 365.57 637.848 364.552C637.535 363.533 637.094 362.764 636.521 362.249C635.951 361.726 635.274 361.465 634.495 361.465C633.322 361.465 632.395 362.049 631.712 363.216C631.031 364.377 630.688 366.081 630.681 368.328C630.675 369.833 630.825 371.099 631.132 372.123C631.446 373.15 631.887 373.923 632.46 374.445C633.03 374.96 633.708 375.218 634.495 375.218ZM651.798 378.102C650.28 378.102 648.978 377.718 647.892 376.95C646.81 376.176 645.979 375.063 645.395 373.607C644.818 372.144 644.529 370.385 644.529 368.328C644.536 366.271 644.828 364.521 645.405 363.079C645.988 361.629 646.82 360.524 647.902 359.762C648.988 359 650.287 358.62 651.798 358.62C653.309 358.62 654.608 359 655.695 359.762C656.782 360.524 657.614 361.629 658.191 363.079C658.774 364.526 659.066 366.277 659.066 368.328C659.066 370.392 658.774 372.154 658.191 373.616C657.614 375.071 656.782 376.183 655.695 376.95C654.614 377.718 653.315 378.102 651.798 378.102ZM651.798 375.218C652.976 375.218 653.907 374.638 654.59 373.477C655.277 372.311 655.621 370.595 655.621 368.328C655.621 366.83 655.464 365.57 655.151 364.552C654.838 363.533 654.395 362.764 653.824 362.249C653.254 361.726 652.578 361.465 651.798 361.465C650.625 361.465 649.698 362.049 649.015 363.216C648.334 364.377 647.991 366.081 647.984 368.328C647.978 369.833 648.129 371.099 648.435 372.123C648.748 373.15 649.191 373.923 649.761 374.445C650.334 374.96 651.011 375.218 651.798 375.218Z" fill="#0B5793"/>
<defs>
<filter id="filter0_d_419_2081" x="19.4563" y="0" width="963.087" height="273.121" filterUnits="userSpaceOnUse" color-interpolation-filters="sRGB">
<feFlood flood-opacity="0" result="BackgroundImageFix"/>
<feColorMatrix in="SourceAlpha" type="matrix" values="0 0 0 0 0 0 0 0 0 0 0 0 0 0 0 0 0 0 127 0" result="hardAlpha"/>
<feOffset dy="4"/>
<feComposite in2="hardAlpha" operator="out"/>
<feColorMatrix type="matrix" values="0 0 0 0 0.566623 0 0 0 0 0.566623 0 0 0 0 0.566623 0 0 0 0.25 0"/>
<feBlend mode="normal" in2="BackgroundImageFix" result="effect1_dropShadow_419_2081"/>
<feBlend mode="normal" in="SourceGraphic" in2="effect1_dropShadow_419_2081" result="shape"/>
</filter>
<filter id="filter1_d_419_2081" x="19.4563" y="282.091" width="228.612" height="143.424" filterUnits="userSpaceOnUse" color-interpolation-filters="sRGB">
<feFlood flood-opacity="0" result="BackgroundImageFix"/>
<feColorMatrix in="SourceAlpha" type="matrix" values="0 0 0 0 0 0 0 0 0 0 0 0 0 0 0 0 0 0 127 0" result="hardAlpha"/>
<feOffset dy="4"/>
<feComposite in2="hardAlpha" operator="out"/>
<feColorMatrix type="matrix" values="0 0 0 0 0.566623 0 0 0 0 0.566623 0 0 0 0 0.566623 0 0 0 0.25 0"/>
<feBlend mode="normal" in2="BackgroundImageFix" result="effect1_dropShadow_419_2081"/>
<feBlend mode="normal" in="SourceGraphic" in2="effect1_dropShadow_419_2081" result="shape"/>
</filter>
<filter id="filter2_d_419_2081" x="264.281" y="282.091" width="228.612" height="143.424" filterUnits="userSpaceOnUse" color-interpolation-filters="sRGB">
<feFlood flood-opacity="0" result="BackgroundImageFix"/>
<feColorMatrix in="SourceAlpha" type="matrix" values="0 0 0 0 0 0 0 0 0 0 0 0 0 0 0 0 0 0 127 0" result="hardAlpha"/>
<feOffset dy="4"/>
<feComposite in2="hardAlpha" operator="out"/>
<feColorMatrix type="matrix" values="0 0 0 0 0.566623 0 0 0 0 0.566623 0 0 0 0 0.566623 0 0 0 0.25 0"/>
<feBlend mode="normal" in2="BackgroundImageFix" result="effect1_dropShadow_419_2081"/>
<feBlend mode="normal" in="SourceGraphic" in2="effect1_dropShadow_419_2081" result="shape"/>
</filter>
<filter id="filter3_d_419_2081" x="509.107" y="282.091" width="228.612" height="143.424" filterUnits="userSpaceOnUse" color-interpolation-filters="sRGB">
<feFlood flood-opacity="0" result="BackgroundImageFix"/>
<feColorMatrix in="SourceAlpha" type="matrix" values="0 0 0 0 0 0 0 0 0 0 0 0 0 0 0 0 0 0 127 0" result="hardAlpha"/>
<feOffset dy="4"/>
<feComposite in2="hardAlpha" operator="out"/>
<feColorMatrix type="matrix" values="0 0 0 0 0.566623 0 0 0 0 0.566623 0 0 0 0 0.566623 0 0 0 0.25 0"/>
<feBlend mode="normal" in2="BackgroundImageFix" result="effect1_dropShadow_419_2081"/>
<feBlend mode="normal" in="SourceGraphic" in2="effect1_dropShadow_419_2081" result="shape"/>
</filter>
</defs>
</svg>
