<svg width="187" height="332" viewBox="0 0 187 332" fill="none" xmlns="http://www.w3.org/2000/svg">
<g filter="url(#filter0_d_410_1965)">
<path d="M170.359 59.76H-156.906C-163.033 59.76 -168 64.7147 -168 70.8267V164.893C-168 171.005 -163.033 175.96 -156.906 175.96H170.359C176.486 175.96 181.453 171.005 181.453 164.893V70.8267C181.453 64.7147 176.486 59.76 170.359 59.76Z" fill="white"/>
<path d="M170.359 60.8667H-156.906C-162.42 60.8667 -166.891 65.3259 -166.891 70.8267V164.893C-166.891 170.394 -162.42 174.853 -156.906 174.853H170.359C175.874 174.853 180.344 170.394 180.344 164.893V70.8267C180.344 65.3259 175.874 60.8667 170.359 60.8667Z" stroke="#909090" stroke-opacity="0.25" stroke-width="2"/>
</g>
<path d="M-145.812 101.813C-145.812 98.7574 -143.329 96.28 -140.266 96.28H152.609C155.672 96.28 158.156 98.7574 158.156 101.813V118.413C158.156 121.469 155.672 123.947 152.609 123.947H-140.266C-143.329 123.947 -145.812 121.469 -145.812 118.413V101.813Z" fill="#EDEDED"/>
<path d="M-145.812 101.813C-145.812 98.7574 -143.329 96.28 -140.266 96.28H152.609C155.672 96.28 158.156 98.7574 158.156 101.813V118.413C158.156 121.469 155.672 123.947 152.609 123.947H-140.266C-143.329 123.947 -145.812 121.469 -145.812 118.413V101.813Z" fill="#EDEDED"/>
<path d="M-105.252 108.694H-107.02C-107.071 108.405 -107.164 108.148 -107.299 107.925C-107.435 107.699 -107.603 107.507 -107.805 107.35C-108.007 107.193 -108.237 107.075 -108.495 106.996C-108.75 106.914 -109.026 106.873 -109.322 106.873C-109.849 106.873 -110.315 107.006 -110.722 107.27C-111.128 107.531 -111.447 107.914 -111.677 108.42C-111.907 108.923 -112.022 109.538 -112.022 110.264C-112.022 111.003 -111.907 111.625 -111.677 112.132C-111.443 112.634 -111.125 113.015 -110.722 113.273C-110.315 113.527 -109.85 113.655 -109.327 113.655C-109.037 113.655 -108.766 113.617 -108.514 113.542C-108.259 113.463 -108.03 113.348 -107.829 113.198C-107.624 113.047 -107.452 112.861 -107.313 112.641C-107.172 112.421 -107.074 112.17 -107.02 111.886L-105.252 111.896C-105.318 112.355 -105.462 112.786 -105.682 113.188C-105.9 113.59 -106.185 113.946 -106.538 114.253C-106.891 114.559 -107.304 114.798 -107.777 114.97C-108.249 115.141 -108.774 115.225 -109.351 115.225C-110.202 115.225 -110.961 115.029 -111.629 114.636C-112.298 114.243 -112.824 113.676 -113.208 112.933C-113.593 112.192 -113.785 111.302 -113.785 110.264C-113.785 109.224 -113.591 108.334 -113.204 107.595C-112.816 106.853 -112.288 106.286 -111.62 105.893C-110.952 105.5 -110.195 105.303 -109.351 105.303C-108.812 105.303 -108.311 105.379 -107.848 105.53C-107.384 105.68 -106.971 105.902 -106.609 106.194C-106.247 106.484 -105.949 106.839 -105.715 107.26C-105.479 107.678 -105.325 108.156 -105.252 108.694ZM-100.554 115.235C-101.263 115.235 -101.878 115.079 -102.398 114.768C-102.918 114.457 -103.321 114.021 -103.608 113.462C-103.892 112.902 -104.034 112.248 -104.034 111.5C-104.034 110.752 -103.892 110.096 -103.608 109.533C-103.321 108.97 -102.918 108.533 -102.398 108.222C-101.878 107.911 -101.263 107.755 -100.554 107.755C-99.8451 107.755 -99.2306 107.911 -98.7105 108.222C-98.1906 108.533 -97.7886 108.97 -97.5051 109.533C-97.2182 110.096 -97.0749 110.752 -97.0749 111.5C-97.0749 112.248 -97.2182 112.902 -97.5051 113.462C-97.7886 114.021 -98.1906 114.457 -98.7105 114.768C-99.2306 115.079 -99.8451 115.235 -100.554 115.235ZM-100.545 113.867C-100.16 113.867 -99.8388 113.762 -99.5804 113.552C-99.3219 113.337 -99.1296 113.052 -99.0036 112.693C-98.8744 112.334 -98.8098 111.935 -98.8098 111.496C-98.8098 111.052 -98.8744 110.651 -99.0036 110.293C-99.1296 109.931 -99.3219 109.643 -99.5804 109.43C-99.8388 109.216 -100.16 109.109 -100.545 109.109C-100.939 109.109 -101.267 109.216 -101.528 109.43C-101.786 109.643 -101.98 109.931 -102.11 110.293C-102.236 110.651 -102.299 111.052 -102.299 111.496C-102.299 111.935 -102.236 112.334 -102.11 112.693C-101.98 113.052 -101.786 113.337 -101.528 113.552C-101.267 113.762 -100.939 113.867 -100.545 113.867ZM-95.6224 115.093V107.85H-93.9866V109.081H-93.9015C-93.7503 108.666 -93.4997 108.342 -93.1499 108.109C-92.8 107.873 -92.3824 107.755 -91.8971 107.755C-91.4054 107.755 -90.9911 107.875 -90.6538 108.114C-90.3134 108.35 -90.0738 108.672 -89.9351 109.081H-89.8596C-89.6989 108.678 -89.4278 108.357 -89.0464 108.118C-88.6619 107.876 -88.2065 107.755 -87.6802 107.755C-87.0121 107.755 -86.4668 107.966 -86.0445 108.387C-85.6222 108.809 -85.411 109.423 -85.411 110.231V115.093H-87.1271V110.495C-87.1271 110.046 -87.2469 109.717 -87.4864 109.51C-87.7259 109.299 -88.019 109.194 -88.3657 109.194C-88.7785 109.194 -89.1016 109.323 -89.3349 109.58C-89.5648 109.835 -89.6799 110.167 -89.6799 110.575V115.093H-91.3581V110.425C-91.3581 110.05 -91.4716 109.752 -91.6985 109.529C-91.9223 109.305 -92.2154 109.194 -92.5778 109.194C-92.8236 109.194 -93.0474 109.257 -93.2492 109.382C-93.4509 109.505 -93.6116 109.68 -93.7313 109.906C-93.8511 110.129 -93.911 110.39 -93.911 110.689V115.093H-95.6224ZM-83.6748 117.81V107.85H-81.9919V109.048H-81.8926C-81.8044 108.871 -81.6798 108.684 -81.5192 108.486C-81.3585 108.285 -81.1409 108.114 -80.8668 107.972C-80.5925 107.828 -80.2428 107.755 -79.8173 107.755C-79.2563 107.755 -78.7504 107.898 -78.2998 108.185C-77.846 108.467 -77.4866 108.887 -77.2219 109.444C-76.954 109.997 -76.8201 110.677 -76.8201 111.481C-76.8201 112.277 -76.9509 112.952 -77.2125 113.509C-77.474 114.065 -77.8302 114.49 -78.2808 114.782C-78.7316 115.075 -79.2421 115.221 -79.8125 115.221C-80.2286 115.221 -80.5737 115.152 -80.8478 115.014C-81.1221 114.875 -81.3427 114.708 -81.5097 114.513C-81.6736 114.315 -81.8012 114.128 -81.8926 113.952H-81.9635V117.81H-83.6748ZM-81.9967 111.471C-81.9967 111.94 -81.9305 112.35 -81.7981 112.702C-81.6625 113.055 -81.4687 113.329 -81.2166 113.527C-80.9613 113.722 -80.6525 113.82 -80.29 113.82C-79.9118 113.82 -79.5951 113.72 -79.3398 113.519C-79.0846 113.314 -78.8923 113.036 -78.7631 112.683C-78.6307 112.328 -78.5645 111.924 -78.5645 111.471C-78.5645 111.022 -78.6291 110.623 -78.7583 110.274C-78.8875 109.925 -79.0798 109.651 -79.3351 109.453C-79.5903 109.255 -79.9087 109.156 -80.29 109.156C-80.6556 109.156 -80.9661 109.252 -81.2213 109.444C-81.4766 109.635 -81.6704 109.904 -81.8028 110.25C-81.932 110.596 -81.9967 111.003 -81.9967 111.471ZM-70.7264 112.047V107.85H-69.015V115.093H-70.6744V113.806H-70.7501C-70.9139 114.211 -71.1834 114.543 -71.5585 114.801C-71.9303 115.059 -72.3888 115.187 -72.9341 115.187C-73.41 115.187 -73.8308 115.082 -74.1963 114.872C-74.5588 114.658 -74.8424 114.349 -75.0472 113.942C-75.2521 113.534 -75.3545 113.04 -75.3545 112.462V107.85H-73.6432V112.198C-73.6432 112.656 -73.5172 113.022 -73.265 113.292C-73.0129 113.562 -72.6819 113.698 -72.2722 113.698C-72.0202 113.698 -71.7759 113.636 -71.5395 113.513C-71.3031 113.391 -71.1093 113.209 -70.9581 112.966C-70.8036 112.722 -70.7264 112.415 -70.7264 112.047ZM-63.6293 107.85V109.17H-67.8037V107.85H-63.6293ZM-66.7731 106.114H-65.0617V112.914C-65.0617 113.144 -65.027 113.32 -64.9577 113.443C-64.8852 113.562 -64.7907 113.644 -64.6741 113.688C-64.5574 113.732 -64.4283 113.754 -64.2864 113.754C-64.1792 113.754 -64.0816 113.747 -63.9933 113.73C-63.9019 113.714 -63.8326 113.7 -63.7853 113.688L-63.497 115.022C-63.5884 115.053 -63.7192 115.089 -63.8894 115.127C-64.0563 115.164 -64.2612 115.186 -64.5038 115.192C-64.9325 115.205 -65.3186 115.141 -65.6621 114.999C-66.0056 114.854 -66.2783 114.631 -66.48 114.33C-66.6785 114.028 -66.7762 113.65 -66.7731 113.198V106.114ZM-59.0614 115.235C-59.7894 115.235 -60.4182 115.083 -60.9476 114.782C-61.474 114.477 -61.8789 114.046 -62.1626 113.49C-62.4463 112.93 -62.5881 112.271 -62.5881 111.514C-62.5881 110.768 -62.4463 110.115 -62.1626 109.552C-61.8758 108.986 -61.4756 108.546 -60.9618 108.232C-60.4481 107.914 -59.8446 107.755 -59.1512 107.755C-58.7037 107.755 -58.2814 107.828 -57.8843 107.972C-57.484 108.114 -57.131 108.334 -56.8251 108.633C-56.5167 108.931 -56.2737 109.312 -56.0973 109.774C-55.9209 110.233 -55.8322 110.78 -55.8322 111.415V111.938H-61.7844V110.787H-57.473C-57.4762 110.461 -57.5471 110.17 -57.6857 109.915C-57.8244 109.657 -58.0182 109.455 -58.2672 109.307C-58.513 109.159 -58.7999 109.085 -59.1276 109.085C-59.4774 109.085 -59.7847 109.17 -60.0495 109.34C-60.3142 109.507 -60.5206 109.727 -60.6687 110C-60.8137 110.27 -60.8878 110.568 -60.8909 110.891V111.896C-60.8909 112.317 -60.8137 112.679 -60.6593 112.981C-60.5049 113.28 -60.289 113.509 -60.0116 113.669C-59.7343 113.826 -59.4097 113.905 -59.0377 113.905C-58.7888 113.905 -58.5635 113.87 -58.3618 113.801C-58.16 113.729 -57.9851 113.624 -57.837 113.485C-57.6888 113.347 -57.577 113.175 -57.5013 112.971L-55.9032 113.15C-56.0041 113.572 -56.1961 113.939 -56.4801 114.253C-56.7607 114.565 -57.1199 114.807 -57.558 114.98C-57.9961 115.15 -58.4972 115.235 -59.0614 115.235ZM-54.3844 115.093V107.85H-52.7259V109.057H-52.6494C-52.5174 108.639 -52.2911 108.317 -51.9693 108.09C-51.6443 107.861 -51.2738 107.746 -50.8577 107.746C-50.7634 107.746 -50.6581 107.751 -50.5416 107.76C-50.4218 107.766 -50.3219 107.777 -50.2431 107.793V109.363C-50.3164 109.338 -50.4306 109.316 -50.5882 109.297C-50.7435 109.275 -50.8932 109.265 -51.0375 109.265C-51.3492 109.265 -51.6299 109.332 -51.8795 109.467C-52.1247 109.599 -52.3188 109.783 -52.4608 110.019C-52.6028 110.255 -52.6738 110.527 -52.6738 110.835V115.093H-54.3844ZM-45.7291 115.093V105.435H-39.4323V106.902H-43.9752V109.524H-39.7584V110.991H-43.9752V113.627H-39.3946V115.093H-45.7291ZM-36.0065 110.849V115.093H-37.7183V107.85H-36.082V109.081H-35.9977C-35.8302 108.675 -35.5639 108.353 -35.1989 108.114C-34.8295 107.875 -34.3747 107.755 -33.8322 107.755C-33.3307 107.755 -32.8947 107.862 -32.5231 108.076C-32.1481 108.29 -31.8575 108.6 -31.6534 109.005C-31.4448 109.411 -31.3427 109.903 -31.3461 110.481V115.093H-33.0567V110.745C-33.0567 110.261 -33.1832 109.882 -33.435 109.609C-33.6835 109.335 -34.0296 109.198 -34.4701 109.198C-34.7696 109.198 -35.0358 109.265 -35.2688 109.397C-35.4996 109.525 -35.6804 109.712 -35.8135 109.958C-35.9422 110.203 -36.0065 110.5 -36.0065 110.849ZM-26.4482 117.961C-27.0628 117.961 -27.5908 117.878 -28.0312 117.711C-28.4728 117.547 -28.8278 117.327 -29.0951 117.05C-29.3636 116.773 -29.5489 116.467 -29.6532 116.131L-28.1122 115.758C-28.0423 115.9 -27.9414 116.04 -27.8094 116.178C-27.6774 116.32 -27.4987 116.436 -27.2758 116.526C-27.0483 116.622 -26.7632 116.668 -26.4193 116.668C-25.9345 116.668 -25.5318 116.551 -25.2146 116.315C-24.8962 116.082 -24.7364 115.699 -24.7364 115.164V113.792H-24.8218C-24.9095 113.968 -25.0393 114.148 -25.209 114.334C-25.3765 114.52 -25.5984 114.675 -25.8757 114.801C-26.1498 114.926 -26.4948 114.989 -26.9108 114.989C-27.4688 114.989 -27.9747 114.859 -28.4284 114.599C-28.8799 114.334 -29.2382 113.941 -29.5067 113.419C-29.7719 112.894 -29.9039 112.237 -29.9039 111.448C-29.9039 110.652 -29.7719 109.981 -29.5067 109.434C-29.2382 108.884 -28.8777 108.467 -28.424 108.185C-27.9702 107.898 -27.4644 107.755 -26.9063 107.755C-26.4815 107.755 -26.1309 107.828 -25.8569 107.972C-25.5795 108.114 -25.3588 108.285 -25.1957 108.486C-25.0315 108.684 -24.9073 108.871 -24.8218 109.048H-24.7275V107.85H-23.0391V115.212C-23.0391 115.83 -23.1877 116.343 -23.4839 116.749C-23.7801 117.154 -24.185 117.457 -24.6987 117.659C-25.2123 117.86 -25.7959 117.961 -26.4482 117.961ZM-26.4337 113.65C-26.071 113.65 -25.7626 113.562 -25.5074 113.386C-25.2523 113.21 -25.0581 112.957 -24.9261 112.627C-24.793 112.297 -24.7275 111.901 -24.7275 111.438C-24.7275 110.983 -24.793 110.583 -24.9261 110.241C-25.0548 109.898 -25.2467 109.632 -25.5019 109.444C-25.7548 109.252 -26.0654 109.156 -26.4337 109.156C-26.8154 109.156 -27.1338 109.255 -27.3889 109.453C-27.6441 109.651 -27.836 109.923 -27.9658 110.269C-28.0945 110.612 -28.1588 111.002 -28.1588 111.438C-28.1588 111.882 -28.0945 112.27 -27.9658 112.603C-27.8327 112.933 -27.6396 113.191 -27.3845 113.377C-27.126 113.559 -26.8087 113.65 -26.4337 113.65ZM-21.2851 115.093V107.85H-19.5745V115.093H-21.2851ZM-20.4254 106.822C-20.6961 106.822 -20.929 106.732 -21.1243 106.553C-21.3206 106.37 -21.4183 106.152 -21.4183 105.897C-21.4183 105.64 -21.3206 105.421 -21.1243 105.242C-20.929 105.059 -20.6961 104.968 -20.4254 104.968C-20.1514 104.968 -19.9173 105.059 -19.7254 105.242C-19.5301 105.421 -19.4325 105.64 -19.4325 105.897C-19.4325 106.152 -19.5301 106.37 -19.7254 106.553C-19.9173 106.732 -20.1514 106.822 -20.4254 106.822ZM-16.1032 110.849V115.093H-17.8139V107.85H-16.1787V109.081H-16.0933C-15.9269 108.675 -15.6606 108.353 -15.2945 108.114C-14.9262 107.875 -14.4703 107.755 -13.9289 107.755C-13.4274 107.755 -12.9903 107.862 -12.6187 108.076C-12.2437 108.29 -11.9542 108.6 -11.749 109.005C-11.5415 109.411 -11.4383 109.903 -11.4417 110.481V115.093H-13.1534V110.745C-13.1534 110.261 -13.2788 109.882 -13.5317 109.609C-13.7802 109.335 -14.1252 109.198 -14.5668 109.198C-14.8663 109.198 -15.1325 109.265 -15.3655 109.397C-15.5952 109.525 -15.7771 109.712 -15.9091 109.958C-16.0389 110.203 -16.1032 110.5 -16.1032 110.849ZM-6.48718 115.235C-7.21493 115.235 -7.84395 115.083 -8.37423 114.782C-8.90008 114.477 -9.305 114.046 -9.589 113.49C-9.87189 112.93 -10.0139 112.271 -10.0139 111.514C-10.0139 110.768 -9.87189 110.115 -9.589 109.552C-9.30167 108.986 -8.90118 108.546 -8.38754 108.232C-7.8739 107.914 -7.27041 107.755 -6.57705 107.755C-6.12997 107.755 -5.7073 107.828 -5.31015 107.972C-4.90966 108.114 -4.55687 108.334 -4.25179 108.633C-3.94228 108.931 -3.69933 109.312 -3.52294 109.774C-3.34655 110.233 -3.25892 110.78 -3.25892 111.415V111.938H-9.2107V110.787H-4.89857C-4.9019 110.461 -4.9729 110.17 -5.11157 109.915C-5.25024 109.657 -5.44438 109.455 -5.69288 109.307C-5.93917 109.159 -6.22537 109.085 -6.55374 109.085C-6.9032 109.085 -7.2105 109.17 -7.47564 109.34C-7.73968 109.507 -7.94713 109.727 -8.09467 110C-8.24 110.27 -8.31433 110.568 -8.31655 110.891V111.896C-8.31655 112.317 -8.24001 112.679 -8.0858 112.981C-7.93049 113.28 -7.71527 113.509 -7.43793 113.669C-7.16059 113.826 -6.83553 113.905 -6.46389 113.905C-6.21428 113.905 -5.98909 113.87 -5.78829 113.801C-5.58638 113.729 -5.41109 113.624 -5.26355 113.485C-5.11489 113.347 -5.00285 113.175 -4.92741 112.971L-3.32991 113.15C-3.43086 113.572 -3.62279 113.939 -3.90679 114.253C-4.18635 114.565 -4.54578 114.807 -4.98399 114.98C-5.42219 115.15 -5.92362 115.235 -6.48718 115.235ZM1.40379 115.235C0.676041 115.235 0.0470289 115.083 -0.482143 114.782C-1.0091 114.477 -1.41402 114.046 -1.69691 113.49C-1.98091 112.93 -2.12291 112.271 -2.12291 111.514C-2.12291 110.768 -1.98091 110.115 -1.69691 109.552C-1.41069 108.986 -1.01021 108.546 -0.496565 108.232C0.0170753 107.914 0.620579 107.755 1.31394 107.755C1.76213 107.755 2.18369 107.828 2.58084 107.972C2.98133 108.114 3.33411 108.334 3.6403 108.633C3.9487 108.931 4.19165 109.312 4.36804 109.774C4.54443 110.233 4.63319 110.78 4.63319 111.415V111.938H-1.31861V110.787H2.99242C2.9891 110.461 2.91809 110.17 2.77942 109.915C2.64075 109.657 2.44661 109.455 2.19811 109.307C1.95183 109.159 1.66561 109.085 1.33723 109.085C0.987778 109.085 0.680488 109.17 0.415348 109.34C0.151317 109.507 -0.0550257 109.727 -0.203682 110C-0.347901 110.27 -0.422242 110.568 -0.42557 110.891V111.896C-0.42557 112.317 -0.347915 112.679 -0.193712 112.981C-0.0395084 113.28 0.176819 113.509 0.454163 113.669C0.731507 113.826 1.05546 113.905 1.4271 113.905C1.67671 113.905 1.9019 113.87 2.1038 113.801C2.30571 113.729 2.47989 113.624 2.62855 113.485C2.77609 113.347 2.88814 113.175 2.96358 112.971L4.56218 113.15C4.46123 113.572 4.26821 113.939 3.98532 114.253C3.70465 114.565 3.34521 114.807 2.90701 114.98C2.4688 115.15 1.96846 115.235 1.40379 115.235ZM6.08092 115.093V107.85H7.73943V109.057H7.81598C7.94799 108.639 8.17431 108.317 8.49603 108.09C8.82108 107.861 9.19161 107.746 9.60762 107.746C9.70192 107.746 9.80732 107.751 9.9238 107.76C10.0436 107.766 10.1435 107.777 10.2222 107.793V109.363C10.149 109.338 10.0347 109.316 9.8761 109.297C9.72189 109.275 9.57212 109.265 9.4279 109.265C9.11506 109.265 8.83549 109.332 8.58588 109.467C8.34071 109.599 8.14657 109.783 8.00457 110.019C7.86257 110.255 7.79158 110.527 7.79158 110.835V115.093H6.08092ZM11.3582 115.093V107.85H13.07V115.093H11.3582ZM12.2191 106.822C11.9484 106.822 11.7143 106.732 11.5191 106.553C11.3238 106.37 11.2262 106.152 11.2262 105.897C11.2262 105.64 11.3238 105.421 11.5191 105.242C11.7143 105.059 11.9484 104.968 12.2191 104.968C12.4931 104.968 12.7261 105.059 12.9191 105.242C13.1144 105.421 13.212 105.64 13.212 105.897C13.212 106.152 13.1144 106.37 12.9191 106.553C12.7261 106.732 12.4931 106.822 12.2191 106.822ZM16.5412 110.849V115.093H14.8295V107.85H16.4658V109.081H16.5501C16.7176 108.675 16.9839 108.353 17.35 108.114C17.7183 107.875 18.1742 107.755 18.7156 107.755C19.217 107.755 19.653 107.862 20.0258 108.076C20.4007 108.29 20.6903 108.6 20.8955 109.005C21.103 109.411 21.205 109.903 21.2028 110.481V115.093H19.491V110.745C19.491 110.261 19.3646 109.882 19.1127 109.609C18.8642 109.335 18.5192 109.198 18.0777 109.198C17.7782 109.198 17.5119 109.265 17.2789 109.397C17.0482 109.525 16.8674 109.712 16.7354 109.958C16.6056 110.203 16.5412 110.5 16.5412 110.849ZM26.0996 117.961C25.485 117.961 24.958 117.878 24.5165 117.711C24.075 117.547 23.7211 117.327 23.4526 117.05C23.1853 116.773 22.9989 116.467 22.8946 116.131L24.4355 115.758C24.5054 115.9 24.6064 116.04 24.7384 116.178C24.8704 116.32 25.049 116.436 25.2731 116.526C25.4994 116.622 25.7845 116.668 26.1284 116.668C26.6132 116.668 27.0159 116.551 27.3343 116.315C27.6527 116.082 27.8114 115.699 27.8114 115.164V113.792H27.7259C27.6383 113.968 27.5085 114.148 27.3388 114.334C27.1713 114.52 26.9494 114.675 26.672 114.801C26.398 114.926 26.053 114.989 25.637 114.989C25.079 114.989 24.5731 114.859 24.1194 114.599C23.6689 114.334 23.3095 113.941 23.041 113.419C22.777 112.894 22.6439 112.237 22.6439 111.448C22.6439 110.652 22.777 109.981 23.041 109.434C23.3095 108.884 23.6701 108.467 24.1238 108.185C24.5775 107.898 25.0834 107.755 25.6414 107.755C26.0674 107.755 26.4169 107.828 26.6909 107.972C26.9682 108.114 27.189 108.285 27.3532 108.486C27.5163 108.684 27.6416 108.871 27.7259 109.048H27.8213V107.85H29.5087V115.212C29.5087 115.83 29.36 116.343 29.0638 116.749C28.7676 117.154 28.3627 117.457 27.8491 117.659C27.3354 117.86 26.7519 117.961 26.0996 117.961ZM26.114 113.65C26.4768 113.65 26.7852 113.562 27.0403 113.386C27.2966 113.21 27.4896 112.957 27.6228 112.627C27.7548 112.297 27.8213 111.901 27.8213 111.438C27.8213 110.983 27.7548 110.583 27.6228 110.241C27.493 109.898 27.301 109.632 27.0459 109.444C26.7929 109.252 26.4834 109.156 26.114 109.156C25.7324 109.156 25.4151 109.255 25.1588 109.453C24.9037 109.651 24.7118 109.923 24.5831 110.269C24.4533 110.612 24.3889 111.002 24.3889 111.438C24.3889 111.882 24.4533 112.27 24.5831 112.603C24.7151 112.933 24.9092 113.191 25.1644 113.377C25.4229 113.559 25.739 113.65 26.114 113.65ZM36.6542 115.239C36.1938 115.239 35.78 115.158 35.4106 114.995C35.0456 114.828 34.7549 114.582 34.5408 114.259C34.3301 113.935 34.2247 113.535 34.2247 113.06C34.2247 112.652 34.3001 112.314 34.451 112.047C34.6018 111.78 34.8093 111.565 35.07 111.406C35.3318 111.245 35.6269 111.124 35.9542 111.042C36.2859 110.958 36.6276 110.896 36.9803 110.858C37.4052 110.815 37.7514 110.775 38.0154 110.741C38.2805 110.703 38.4725 110.646 38.5923 110.571C38.7154 110.492 38.7764 110.371 38.7764 110.208V110.179C38.7764 109.824 38.671 109.549 38.4602 109.354C38.2484 109.159 37.9444 109.062 37.5472 109.062C37.1279 109.062 36.7962 109.153 36.5499 109.335C36.3069 109.517 36.1439 109.733 36.0585 109.981L34.461 109.755C34.5863 109.315 34.7949 108.947 35.0844 108.651C35.3751 108.353 35.729 108.13 36.1483 107.982C36.5677 107.831 37.0303 107.755 37.5384 107.755C37.8878 107.755 38.2362 107.796 38.5834 107.878C38.9295 107.96 39.2468 108.095 39.533 108.284C39.8203 108.469 40.05 108.722 40.223 109.043C40.3994 109.363 40.4882 109.764 40.4882 110.245V115.093H38.843V114.098H38.7864C38.6821 114.3 38.5357 114.488 38.346 114.664C38.1607 114.837 37.9255 114.977 37.6426 115.083C37.362 115.187 37.0325 115.239 36.6542 115.239ZM37.0979 113.986C37.4418 113.986 37.7403 113.917 37.9921 113.782C38.2439 113.644 38.4381 113.462 38.5734 113.235C38.7121 113.008 38.782 112.762 38.782 112.495V111.642C38.7276 111.685 38.6366 111.726 38.5068 111.763C38.3815 111.802 38.2395 111.834 38.082 111.863C37.9244 111.892 37.768 111.916 37.6138 111.938C37.4596 111.96 37.3254 111.979 37.2122 111.995C36.957 112.03 36.7285 112.087 36.5266 112.165C36.3247 112.244 36.1661 112.353 36.0485 112.495C35.932 112.633 35.8743 112.812 35.8743 113.033C35.8743 113.347 35.9886 113.584 36.2193 113.744C36.449 113.905 36.7418 113.986 37.0979 113.986ZM47.9476 109.764L46.3879 109.934C46.3435 109.777 46.2669 109.629 46.156 109.491C46.0495 109.352 45.9041 109.241 45.7211 109.156C45.5381 109.071 45.3151 109.029 45.0499 109.029C44.6938 109.029 44.3943 109.106 44.1513 109.26C43.9128 109.414 43.7941 109.613 43.7975 109.859C43.7941 110.069 43.8718 110.241 44.0293 110.373C44.1902 110.505 44.4542 110.613 44.8236 110.698L46.0617 110.962C46.7484 111.11 47.2598 111.344 47.5937 111.665C47.931 111.986 48.1007 112.405 48.1041 112.924C48.1007 113.38 47.9665 113.782 47.7025 114.132C47.4406 114.477 47.0768 114.747 46.6097 114.943C46.1438 115.138 45.608 115.235 45.0022 115.235C44.1136 115.235 43.3981 115.049 42.8567 114.678C42.3142 114.304 41.9914 113.784 41.8871 113.117L43.5567 112.957C43.6322 113.284 43.793 113.531 44.0382 113.698C44.2845 113.864 44.604 113.947 44.9978 113.947C45.4049 113.947 45.7311 113.864 45.9763 113.698C46.2259 113.531 46.3501 113.325 46.3501 113.079C46.3501 112.872 46.2702 112.701 46.1094 112.566C45.9519 112.431 45.7056 112.327 45.3717 112.255L44.1325 111.995C43.4369 111.851 42.921 111.606 42.5871 111.264C42.2532 110.918 42.0879 110.481 42.0901 109.953C42.0879 109.507 42.2088 109.12 42.4551 108.793C42.7036 108.463 43.0486 108.208 43.4902 108.029C43.9339 107.847 44.4464 107.755 45.0266 107.755C45.8775 107.755 46.5476 107.936 47.0357 108.298C47.5272 108.659 47.8311 109.148 47.9476 109.764ZM54.9067 115.239C54.4463 115.239 54.0326 115.158 53.6631 114.995C53.2981 114.828 53.0075 114.582 52.7934 114.259C52.5826 113.935 52.4772 113.535 52.4772 113.06C52.4772 112.652 52.5526 112.314 52.7035 112.047C52.8555 111.78 53.0618 111.565 53.3225 111.406C53.5844 111.245 53.8794 111.124 54.2067 111.042C54.5384 110.958 54.8801 110.896 55.2329 110.858C55.6589 110.815 56.0039 110.775 56.2679 110.741C56.5331 110.703 56.725 110.646 56.8448 110.571C56.968 110.492 57.029 110.371 57.029 110.208V110.179C57.029 109.824 56.9236 109.549 56.7128 109.354C56.502 109.159 56.1969 109.062 55.7998 109.062C55.3815 109.062 55.0487 109.153 54.8025 109.335C54.5606 109.517 54.3964 109.733 54.311 109.981L52.7135 109.755C52.8389 109.315 53.0474 108.947 53.337 108.651C53.6276 108.353 53.9815 108.13 54.4009 107.982C54.8202 107.831 55.2839 107.755 55.7909 107.755C56.1404 107.755 56.4887 107.796 56.8359 107.878C57.1821 107.96 57.4993 108.095 57.7856 108.284C58.0729 108.469 58.3025 108.722 58.4756 109.043C58.652 109.363 58.7407 109.764 58.7407 110.245V115.093H57.0955V114.098H57.039C56.9347 114.3 56.7882 114.488 56.5996 114.664C56.4133 114.837 56.1781 114.977 55.8952 115.083C55.6145 115.187 55.285 115.239 54.9067 115.239ZM55.3516 113.986C55.6944 113.986 55.9928 113.917 56.2446 113.782C56.4965 113.644 56.6906 113.462 56.826 113.235C56.9646 113.008 57.0345 112.762 57.0345 112.495V111.642C56.9802 111.685 56.8892 111.726 56.7594 111.763C56.634 111.802 56.492 111.834 56.3345 111.863C56.177 111.892 56.0205 111.916 55.8663 111.938C55.7121 111.96 55.5779 111.979 55.4647 111.995C55.2096 112.03 54.9811 112.087 54.7792 112.165C54.5773 112.244 54.4186 112.353 54.3021 112.495C54.1845 112.633 54.1268 112.812 54.1268 113.033C54.1268 113.347 54.2422 113.584 54.4719 113.744C54.7015 113.905 54.9955 113.986 55.3516 113.986ZM67.1198 115.093H63.8394V105.435H67.1864C68.1471 105.435 68.9736 105.628 69.6636 106.015C70.357 106.399 70.8895 106.95 71.2611 107.67C71.6328 108.39 71.8192 109.252 71.8192 110.255C71.8192 111.261 71.6317 112.125 71.2567 112.849C70.8851 113.572 70.347 114.126 69.6448 114.513C68.9448 114.9 68.1039 115.093 67.1198 115.093ZM65.5933 113.579H67.0355C67.71 113.579 68.2725 113.457 68.7229 113.212C69.1733 112.963 69.5128 112.593 69.7391 112.103C69.9665 111.61 70.0796 110.993 70.0796 110.255C70.0796 109.516 69.9665 108.903 69.7391 108.416C69.5128 107.925 69.1766 107.559 68.7318 107.317C68.2913 107.072 67.7422 106.949 67.0866 106.949H65.5933V113.579ZM73.41 115.093V107.85H75.1218V115.093H73.41ZM74.2709 106.822C73.9991 106.822 73.7661 106.732 73.5709 106.553C73.3756 106.37 73.278 106.152 73.278 105.897C73.278 105.64 73.3756 105.421 73.5709 105.242C73.7661 105.059 73.9991 104.968 74.2709 104.968C74.5449 104.968 74.7779 105.059 74.9698 105.242C75.165 105.421 75.2627 105.64 75.2627 105.897C75.2627 106.152 75.165 106.37 74.9698 106.553C74.7779 106.732 74.5449 106.822 74.2709 106.822ZM82.62 109.764L81.0603 109.934C81.0159 109.777 80.9393 109.629 80.8284 109.491C80.7219 109.352 80.5766 109.241 80.3935 109.156C80.2105 109.071 79.9875 109.029 79.7223 109.029C79.3662 109.029 79.0667 109.106 78.8237 109.26C78.5841 109.414 78.4665 109.613 78.4699 109.859C78.4665 110.069 78.5442 110.241 78.7017 110.373C78.8615 110.505 79.1266 110.613 79.4949 110.698L80.7341 110.962C81.4208 111.11 81.9311 111.344 82.2661 111.665C82.6034 111.986 82.7731 112.405 82.7765 112.924C82.7731 113.38 82.6389 113.782 82.3749 114.132C82.113 114.477 81.7492 114.747 81.2821 114.943C80.8162 115.138 80.2804 115.235 79.6746 115.235C78.786 115.235 78.0705 115.049 77.5291 114.678C76.9866 114.304 76.6638 113.784 76.5595 113.117L78.228 112.957C78.3046 113.284 78.4643 113.531 78.7106 113.698C78.9569 113.864 79.2764 113.947 79.6702 113.947C80.0773 113.947 80.4035 113.864 80.6487 113.698C80.8983 113.531 81.0225 113.325 81.0225 113.079C81.0225 112.872 80.9415 112.701 80.7818 112.566C80.6243 112.431 80.378 112.327 80.0441 112.255L78.8049 111.995C78.1082 111.851 77.5934 111.606 77.2595 111.264C76.9256 110.918 76.7603 110.481 76.7625 109.953C76.7603 109.507 76.8812 109.12 77.1275 108.793C77.376 108.463 77.721 108.208 78.1626 108.029C78.6063 107.847 79.1188 107.755 79.699 107.755C80.5499 107.755 81.2189 107.936 81.7081 108.298C82.1996 108.659 82.5035 109.148 82.62 109.764ZM87.3548 115.235C86.6304 115.235 86.007 115.076 85.4878 114.758C84.9708 114.442 84.5714 114.002 84.2919 113.443C84.0145 112.88 83.8758 112.233 83.8758 111.5C83.8758 110.764 84.0167 110.115 84.3007 109.552C84.5847 108.986 84.9852 108.546 85.5022 108.232C86.0214 107.914 86.636 107.755 87.3449 107.755C87.935 107.755 88.4564 107.864 88.9102 108.081C89.3672 108.295 89.7311 108.598 90.0018 108.991C90.2736 109.381 90.4278 109.837 90.4655 110.359H88.8303C88.7638 110.01 88.6062 109.719 88.3566 109.486C88.1114 109.25 87.782 109.132 87.3693 109.132C87.0187 109.132 86.7114 109.227 86.4474 109.415C86.1822 109.601 85.9759 109.868 85.8283 110.217C85.683 110.566 85.6109 110.984 85.6109 111.471C85.6109 111.965 85.683 112.39 85.8283 112.745C85.9726 113.097 86.1756 113.369 86.4374 113.561C86.7025 113.75 87.0132 113.844 87.3693 113.844C87.6211 113.844 87.8463 113.796 88.0449 113.702C88.2468 113.605 88.4154 113.464 88.5508 113.283C88.6861 113.1 88.7793 112.879 88.8303 112.618H90.4655C90.4245 113.13 90.2736 113.584 90.0118 113.98C89.75 114.373 89.3939 114.682 88.9435 114.905C88.4931 115.124 87.9628 115.235 87.3548 115.235ZM91.8711 115.093V107.85H93.5818V115.093H91.8711ZM92.7309 106.822C92.4602 106.822 92.2272 106.732 92.032 106.553C91.8356 106.37 91.738 106.152 91.738 105.897C91.738 105.64 91.8356 105.421 92.032 105.242C92.2272 105.059 92.4602 104.968 92.7309 104.968C93.0049 104.968 93.239 105.059 93.4309 105.242C93.6261 105.421 93.7238 105.64 93.7238 105.897C93.7238 106.152 93.6261 106.37 93.4309 106.553C93.239 106.732 93.0049 106.822 92.7309 106.822ZM95.3423 117.81V107.85H97.0253V109.048H97.124C97.2127 108.871 97.337 108.684 97.4979 108.486C97.6587 108.285 97.8762 108.114 98.1502 107.972C98.4242 107.828 98.7736 107.755 99.1996 107.755C99.761 107.755 100.266 107.898 100.717 108.185C101.171 108.467 101.53 108.887 101.794 109.444C102.063 109.997 102.197 110.677 102.197 111.481C102.197 112.277 102.066 112.952 101.804 113.509C101.543 114.065 101.187 114.49 100.736 114.782C100.286 115.075 99.7743 115.221 99.2041 115.221C98.7881 115.221 98.443 115.152 98.169 115.014C97.895 114.875 97.6743 114.708 97.5067 114.513C97.3437 114.315 97.215 114.128 97.124 113.952H97.053V117.81H95.3423ZM97.0197 111.471C97.0197 111.94 97.0863 112.35 97.2183 112.702C97.3536 113.055 97.5478 113.329 97.7996 113.527C98.0559 113.722 98.3643 113.82 98.727 113.82C99.1053 113.82 99.4215 113.72 99.6767 113.519C99.9318 113.314 100.125 113.036 100.254 112.683C100.386 112.328 100.452 111.924 100.452 111.471C100.452 111.022 100.388 110.623 100.258 110.274C100.129 109.925 99.9374 109.651 99.6811 109.453C99.4259 109.255 99.1076 109.156 98.727 109.156C98.3609 109.156 98.0503 109.252 97.7952 109.444C97.54 109.635 97.3459 109.904 97.2139 110.25C97.0852 110.596 97.0197 111.003 97.0197 111.471ZM105.373 105.435V115.093H103.663V105.435H105.373ZM107.133 115.093V107.85H108.845V115.093H107.133ZM107.994 106.822C107.723 106.822 107.489 106.732 107.294 106.553C107.098 106.37 107.001 106.152 107.001 105.897C107.001 105.64 107.098 105.421 107.294 105.242C107.489 105.059 107.723 104.968 107.994 104.968C108.268 104.968 108.501 105.059 108.694 105.242C108.889 105.421 108.987 105.64 108.987 105.897C108.987 106.152 108.889 106.37 108.694 106.553C108.501 106.732 108.268 106.822 107.994 106.822ZM112.316 110.849V115.093H110.604V107.85H112.24V109.081H112.326C112.492 108.675 112.758 108.353 113.125 108.114C113.493 107.875 113.949 107.755 114.49 107.755C114.992 107.755 115.428 107.862 115.8 108.076C116.175 108.29 116.465 108.6 116.67 109.005C116.878 109.411 116.981 109.903 116.977 110.481V115.093H115.266V110.745C115.266 110.261 115.139 109.882 114.887 109.609C114.639 109.335 114.294 109.198 113.852 109.198C113.553 109.198 113.286 109.265 113.054 109.397C112.823 109.525 112.642 109.712 112.51 109.958C112.38 110.203 112.316 110.5 112.316 110.849ZM121.932 115.235C121.203 115.235 120.575 115.083 120.045 114.782C119.519 114.477 119.114 114.046 118.83 113.49C118.546 112.93 118.405 112.271 118.405 111.514C118.405 110.768 118.546 110.115 118.83 109.552C119.117 108.986 119.517 108.546 120.031 108.232C120.545 107.914 121.149 107.755 121.842 107.755C122.289 107.755 122.712 107.828 123.109 107.972C123.508 108.114 123.862 108.334 124.167 108.633C124.477 108.931 124.719 109.312 124.895 109.774C125.072 110.233 125.16 110.78 125.16 111.415V111.938H119.208V110.787H123.519C123.517 110.461 123.446 110.17 123.307 109.915C123.169 109.657 122.975 109.455 122.725 109.307C122.48 109.159 122.193 109.085 121.865 109.085C121.516 109.085 121.209 109.17 120.943 109.34C120.678 109.507 120.472 109.727 120.324 110C120.179 110.27 120.105 110.568 120.101 110.891V111.896C120.101 112.317 120.179 112.679 120.333 112.981C120.487 113.28 120.704 113.509 120.981 113.669C121.258 113.826 121.584 113.905 121.955 113.905C122.204 113.905 122.429 113.87 122.631 113.801C122.833 113.729 123.008 113.624 123.155 113.485C123.304 113.347 123.416 113.175 123.492 112.971L125.089 113.15C124.988 113.572 124.796 113.939 124.512 114.253C124.232 114.565 123.873 114.807 123.435 114.98C122.997 115.15 122.495 115.235 121.932 115.235Z" fill="#0B5793"/>
<path d="M78.2812 141.653C78.2812 138.598 80.7651 136.12 83.8281 136.12H152.609C155.672 136.12 158.156 138.598 158.156 141.653V158.253C158.156 161.309 155.672 163.787 152.609 163.787H83.8281C80.7651 163.787 78.2812 161.309 78.2812 158.253V141.653Z" fill="#EDEDED"/>
<path d="M78.2812 141.653C78.2812 138.598 80.7651 136.12 83.8281 136.12H152.609C155.672 136.12 158.156 138.598 158.156 141.653V158.253C158.156 161.309 155.672 163.787 152.609 163.787H83.8281C80.7651 163.787 78.2812 161.309 78.2812 158.253V141.653Z" fill="#EDEDED"/>
<path d="M108.294 154.918C107.614 154.918 107.009 154.802 106.479 154.568C105.952 154.336 105.536 154.012 105.231 153.597C104.925 153.182 104.763 152.702 104.744 152.159H106.522C106.537 152.42 106.624 152.648 106.782 152.843C106.94 153.034 107.148 153.184 107.41 153.29C107.672 153.397 107.965 153.45 108.29 153.45C108.636 153.45 108.943 153.391 109.212 153.271C109.479 153.149 109.689 152.979 109.841 152.762C109.992 152.545 110.066 152.295 110.063 152.013C110.066 151.72 109.991 151.462 109.835 151.239C109.681 151.016 109.457 150.841 109.164 150.716C108.875 150.59 108.525 150.527 108.115 150.527H107.259V149.179H108.115C108.452 149.179 108.747 149.12 108.999 149.004C109.254 148.888 109.455 148.724 109.599 148.514C109.744 148.3 109.815 148.053 109.812 147.773C109.815 147.5 109.753 147.262 109.628 147.061C109.505 146.857 109.329 146.698 109.103 146.585C108.879 146.472 108.616 146.414 108.313 146.414C108.017 146.414 107.743 146.468 107.491 146.575C107.238 146.682 107.035 146.835 106.881 147.033C106.727 147.228 106.645 147.46 106.635 147.73H104.947C104.96 147.19 105.116 146.715 105.416 146.306C105.718 145.894 106.121 145.573 106.626 145.344C107.13 145.112 107.695 144.995 108.323 144.995C108.969 144.995 109.53 145.116 110.006 145.358C110.485 145.598 110.855 145.92 111.117 146.325C111.378 146.731 111.509 147.179 111.509 147.669C111.513 148.213 111.352 148.669 111.027 149.037C110.705 149.404 110.283 149.645 109.76 149.759V149.834C110.441 149.928 110.962 150.179 111.325 150.589C111.69 150.994 111.872 151.498 111.869 152.102C111.869 152.643 111.715 153.127 111.405 153.554C111.1 153.979 110.677 154.313 110.138 154.555C109.602 154.796 108.988 154.918 108.294 154.918ZM114.278 154.889C113.991 154.889 113.746 154.788 113.541 154.587C113.336 154.387 113.236 154.141 113.238 153.852C113.236 153.569 113.336 153.326 113.541 153.125C113.746 152.925 113.991 152.824 114.278 152.824C114.556 152.824 114.796 152.925 115.002 153.125C115.209 153.326 115.316 153.569 115.318 153.852C115.316 154.044 115.265 154.218 115.167 154.376C115.073 154.533 114.946 154.658 114.789 154.753C114.634 154.844 114.465 154.889 114.278 154.889ZM120.268 154.97C119.489 154.97 118.821 154.773 118.263 154.38C117.709 153.984 117.281 153.413 116.982 152.668C116.686 151.92 116.538 151.019 116.538 149.966C116.541 148.913 116.691 148.017 116.987 147.277C117.287 146.536 117.714 145.969 118.269 145.58C118.826 145.19 119.492 144.995 120.268 144.995C121.043 144.995 121.71 145.19 122.268 145.58C122.826 145.969 123.252 146.536 123.549 147.277C123.848 148.02 123.998 148.915 123.998 149.966C123.998 151.022 123.848 151.924 123.549 152.672C123.252 153.418 122.826 153.987 122.268 154.38C121.713 154.773 121.047 154.97 120.268 154.97ZM120.268 153.494C120.874 153.494 121.351 153.196 121.7 152.602C122.053 152.005 122.23 151.126 122.23 149.966C122.23 149.199 122.149 148.555 121.989 148.032C121.828 147.51 121.601 147.117 121.308 146.854C121.014 146.586 120.668 146.453 120.268 146.453C119.667 146.453 119.191 146.751 118.84 147.348C118.491 147.943 118.314 148.815 118.311 149.966C118.308 150.736 118.385 151.383 118.543 151.909C118.704 152.433 118.93 152.83 119.223 153.097C119.517 153.361 119.864 153.494 120.268 153.494ZM129.147 154.97C128.369 154.97 127.701 154.773 127.143 154.38C126.588 153.984 126.161 153.413 125.861 152.668C125.565 151.92 125.418 151.019 125.418 149.966C125.421 148.913 125.571 148.017 125.867 147.277C126.166 146.536 126.592 145.969 127.147 145.58C127.705 145.19 128.372 144.995 129.147 144.995C129.923 144.995 130.589 145.19 131.147 145.58C131.704 145.969 132.132 146.536 132.428 147.277C132.727 148.02 132.877 148.915 132.877 149.966C132.877 151.022 132.727 151.924 132.428 152.672C132.132 153.418 131.704 153.987 131.147 154.38C130.593 154.773 129.926 154.97 129.147 154.97ZM129.147 153.494C129.752 153.494 130.23 153.196 130.58 152.602C130.932 152.005 131.109 151.126 131.109 149.966C131.109 149.199 131.029 148.555 130.868 148.032C130.707 147.51 130.481 147.117 130.188 146.854C129.894 146.586 129.548 146.453 129.147 146.453C128.545 146.453 128.069 146.751 127.72 147.348C127.37 147.943 127.194 148.815 127.19 149.966C127.187 150.736 127.265 151.383 127.422 151.909C127.583 152.433 127.809 152.83 128.102 153.097C128.395 153.361 128.744 153.494 129.147 153.494Z" fill="#0B5793"/>
<g filter="url(#filter1_d_410_1965)">
<path d="M-7.14062 182.6H-156.906C-163.033 182.6 -168 187.555 -168 193.667V216.907C-168 223.019 -163.033 227.973 -156.906 227.973H-7.14062C-1.01372 227.973 3.95312 223.019 3.95312 216.907V193.667C3.95312 187.555 -1.01372 182.6 -7.14062 182.6Z" fill="white"/>
<path d="M-7.14062 183.707H-156.906C-162.42 183.707 -166.891 188.166 -166.891 193.667V216.907C-166.891 222.407 -162.42 226.867 -156.906 226.867H-7.14062C-1.6264 226.867 2.84375 222.407 2.84375 216.907V193.667C2.84375 188.166 -1.6264 183.707 -7.14062 183.707Z" stroke="#909090" stroke-opacity="0.25" stroke-width="2"/>
</g>
<g filter="url(#filter2_d_410_1965)">
<path d="M-7.14062 234.613H-156.906C-163.033 234.613 -168 239.568 -168 245.68V268.92C-168 275.032 -163.033 279.987 -156.906 279.987H-7.14062C-1.01372 279.987 3.95312 275.032 3.95312 268.92V245.68C3.95312 239.568 -1.01372 234.613 -7.14062 234.613Z" fill="white"/>
<path d="M-7.14062 235.72H-156.906C-162.42 235.72 -166.891 240.179 -166.891 245.68V268.92C-166.891 274.421 -162.42 278.88 -156.906 278.88H-7.14062C-1.6264 278.88 2.84375 274.421 2.84375 268.92V245.68C2.84375 240.179 -1.6264 235.72 -7.14062 235.72Z" stroke="#909090" stroke-opacity="0.25" stroke-width="2"/>
</g>
<g filter="url(#filter3_d_410_1965)">
<path d="M170.359 182.6H20.5938C14.4668 182.6 9.5 187.555 9.5 193.667V216.907C9.5 223.019 14.4668 227.973 20.5938 227.973H170.359C176.486 227.973 181.453 223.019 181.453 216.907V193.667C181.453 187.555 176.486 182.6 170.359 182.6Z" fill="white"/>
<path d="M170.359 183.707H20.5938C15.0795 183.707 10.6094 188.166 10.6094 193.667V216.907C10.6094 222.407 15.0795 226.867 20.5938 226.867H170.359C175.874 226.867 180.344 222.407 180.344 216.907V193.667C180.344 188.166 175.874 183.707 170.359 183.707Z" stroke="#909090" stroke-opacity="0.25" stroke-width="2"/>
</g>
<path d="M23.4316 198.496H26.7975L30.3519 207.148H30.5039L34.0583 198.496H37.4242V211.373H34.7772V202.991H34.6696L31.3293 211.31H29.5266L26.1851 202.96H26.0786V211.373H23.4316V198.496ZM39.623 211.373V201.715H42.3077V211.373H39.623ZM40.972 200.47C40.5726 200.47 40.2298 200.338 39.9436 200.074C39.6629 199.805 39.522 199.486 39.522 199.111C39.522 198.743 39.6629 198.426 39.9436 198.162C40.2298 197.894 40.5726 197.76 40.972 197.76C41.3702 197.76 41.7108 197.894 41.9926 198.162C42.2788 198.426 42.4208 198.743 42.4208 199.111C42.4208 199.486 42.2788 199.805 41.9926 200.074C41.7108 200.338 41.3702 200.47 40.972 200.47ZM48.0265 211.53C47.291 211.53 46.6253 211.342 46.0285 210.965C45.4361 210.583 44.9646 210.023 44.6163 209.286C44.2713 208.544 44.0993 207.634 44.0993 206.557C44.0993 205.45 44.2779 204.53 44.6351 203.796C44.9924 203.059 45.4672 202.508 46.0596 202.143C46.6564 201.774 47.3098 201.589 48.0198 201.589C48.5623 201.589 49.0138 201.681 49.3755 201.866C49.7405 202.046 50.0356 202.273 50.2574 202.545C50.4849 202.813 50.6568 203.078 50.7744 203.338H50.8565V198.496H53.5356V211.373H50.8887V209.826H50.7744C50.6491 210.095 50.4704 210.361 50.2386 210.625C50.0123 210.885 49.7161 211.101 49.35 211.273C48.9883 211.444 48.5479 211.53 48.0265 211.53ZM48.8774 209.399C49.31 209.399 49.6761 209.282 49.9745 209.047C50.2763 208.808 50.5082 208.475 50.6679 208.047C50.831 207.62 50.9131 207.118 50.9131 206.544C50.9131 205.97 50.8332 205.471 50.6735 205.048C50.5137 204.625 50.283 204.297 49.9801 204.067C49.6783 203.836 49.31 203.721 48.8774 203.721C48.4358 203.721 48.0642 203.84 47.7613 204.079C47.4596 204.318 47.2299 204.649 47.0746 205.073C46.9193 205.496 46.8417 205.987 46.8417 206.544C46.8417 207.106 46.9193 207.603 47.0746 208.035C47.2344 208.462 47.4629 208.797 47.7613 209.04C48.0642 209.28 48.4358 209.399 48.8774 209.399ZM60.893 201.715V203.727H55.0622V201.715H60.893ZM56.3856 199.401H59.0714V208.405C59.0714 208.653 59.1091 208.846 59.1846 208.984C59.26 209.118 59.3654 209.212 59.4997 209.267C59.6383 209.322 59.7981 209.348 59.9789 209.348C60.1054 209.348 60.2307 209.338 60.3572 209.317C60.4837 209.292 60.5802 209.273 60.6467 209.261L61.0694 211.254C60.9352 211.296 60.7455 211.343 60.5025 211.399C60.2585 211.457 59.9623 211.493 59.6139 211.505C58.966 211.531 58.3991 211.444 57.911 211.247C57.4284 211.05 57.0524 210.745 56.7828 210.33C56.5143 209.915 56.3823 209.39 56.3856 208.757V199.401ZM66.9502 211.561C65.954 211.561 65.0976 211.361 64.3787 210.958C63.6642 210.552 63.114 209.978 62.7268 209.235C62.3408 208.489 62.1477 207.607 62.1477 206.588C62.1477 205.594 62.3408 204.723 62.7268 203.972C63.114 203.222 63.6576 202.637 64.3598 202.218C65.0654 201.798 65.8941 201.589 66.8437 201.589C67.4816 201.589 68.0762 201.692 68.6276 201.898C69.1823 202.098 69.6648 202.403 70.0764 202.809C70.4924 203.216 70.8164 203.727 71.0471 204.344C71.279 204.956 71.3944 205.672 71.3944 206.494V207.23H63.2194V205.57H68.8661C68.8661 205.184 68.7829 204.842 68.6143 204.545C68.4467 204.248 68.2127 204.014 67.9154 203.847C67.6203 203.675 67.2786 203.589 66.887 203.589C66.4798 203.589 66.1182 203.683 65.8031 203.872C65.4925 204.056 65.2484 204.306 65.072 204.62C64.8956 204.93 64.8047 205.277 64.8013 205.657V207.236C64.8013 207.714 64.889 208.126 65.0654 208.475C65.2462 208.822 65.5002 209.091 65.8286 209.28C66.1559 209.468 66.5453 209.563 66.9946 209.563C67.293 209.563 67.5659 209.521 67.8144 209.437C68.0618 209.353 68.2737 209.228 68.4501 209.059C68.6276 208.892 68.7618 208.686 68.8539 208.443L71.3378 208.607C71.2113 209.202 70.9528 209.722 70.5623 210.166C70.1752 210.606 69.6759 210.95 69.0625 211.197C68.4523 211.441 67.7489 211.561 66.9502 211.561ZM73.1461 211.373V201.715H75.7498V203.4H75.8507C76.0271 202.801 76.3233 202.348 76.7393 202.042C77.1553 201.732 77.6346 201.577 78.1771 201.577C78.3113 201.577 78.4555 201.585 78.612 201.601C78.7673 201.619 78.9037 201.641 79.0213 201.671V204.048C78.8949 204.011 78.7207 203.976 78.4977 203.948C78.2758 203.918 78.0717 203.903 77.8864 203.903C77.4915 203.903 77.1387 203.99 76.8281 204.161C76.5208 204.328 76.2767 204.564 76.097 204.865C75.9195 205.167 75.8319 205.515 75.8319 205.909V211.373H73.1461ZM80.4091 211.373V201.715H82.9685V203.419H83.0816C83.2835 202.853 83.6197 202.407 84.09 202.08C84.5615 201.753 85.124 201.589 85.7796 201.589C86.4441 201.589 87.0088 201.755 87.4759 202.086C87.9418 202.413 88.2524 202.858 88.4088 203.419H88.5087C88.7062 202.865 89.0634 202.424 89.5803 202.093C90.1017 201.758 90.7175 201.589 91.4275 201.589C92.3316 201.589 93.0638 201.877 93.6273 202.451C94.1942 203.021 94.4782 203.83 94.4782 204.878V211.373H91.7991V205.406C91.7991 204.869 91.6571 204.467 91.3709 204.199C91.0847 203.931 90.7274 203.796 90.2992 203.796C89.8122 203.796 89.4317 203.952 89.1588 204.262C88.8848 204.567 88.7483 204.972 88.7483 205.475V211.373H86.1457V205.35C86.1457 204.876 86.0093 204.499 85.7352 204.218C85.4668 203.937 85.1118 203.796 84.6703 203.796C84.3718 203.796 84.1034 203.872 83.8637 204.023C83.6285 204.17 83.4411 204.377 83.3024 204.645C83.1637 204.909 83.0949 205.219 83.0949 205.576V211.373H80.4091ZM98.1691 211.537C97.7531 211.537 97.3959 211.39 97.0975 211.097C96.8035 210.799 96.6559 210.443 96.6559 210.028C96.6559 209.617 96.8035 209.265 97.0975 208.972C97.3959 208.678 97.7531 208.531 98.1691 208.531C98.5718 208.531 98.9257 208.678 99.2275 208.972C99.5303 209.265 99.6812 209.617 99.6812 210.028C99.6812 210.304 99.6102 210.558 99.4671 210.789C99.3284 211.015 99.1465 211.197 98.9191 211.336C98.6916 211.47 98.442 211.537 98.1691 211.537ZM98.1691 204.771C97.7531 204.771 97.3959 204.625 97.0975 204.331C96.8035 204.037 96.6559 203.681 96.6559 203.261C96.6559 202.851 96.8035 202.501 97.0975 202.212C97.3959 201.918 97.7531 201.772 98.1691 201.772C98.5718 201.772 98.9257 201.918 99.2275 202.212C99.5303 202.501 99.6812 202.851 99.6812 203.261C99.6812 203.543 99.6102 203.798 99.4671 204.03C99.3284 204.255 99.1465 204.436 98.9191 204.57C98.6916 204.703 98.442 204.771 98.1691 204.771Z" fill="#0B5793"/>
<path d="M114.958 199.2C114.958 196.145 117.441 193.667 120.505 193.667H166.728C169.792 193.667 172.275 196.145 172.275 199.2V215.8C172.275 218.856 169.792 221.333 166.728 221.333H120.505C117.441 221.333 114.958 218.856 114.958 215.8V199.2Z" fill="#EDEDED"/>
<path d="M114.958 199.2C114.958 196.145 117.441 193.667 120.505 193.667H166.728C169.792 193.667 172.275 196.145 172.275 199.2V215.8C172.275 218.856 169.792 221.333 166.728 221.333H120.505C117.441 221.333 114.958 218.856 114.958 215.8V199.2Z" fill="#EDEDED"/>
<path d="M130.655 212.612C129.952 212.612 129.328 212.494 128.782 212.259C128.241 212.023 127.815 211.7 127.507 211.291C127.2 210.88 127.049 210.413 127.053 209.891C127.049 209.485 127.137 209.112 127.317 208.774C127.497 208.434 127.74 208.151 128.046 207.925C128.354 207.695 128.698 207.549 129.076 207.486V207.42C128.578 207.31 128.174 207.056 127.866 206.66C127.56 206.262 127.409 205.8 127.412 205.279C127.409 204.782 127.548 204.338 127.828 203.949C128.108 203.559 128.493 203.253 128.981 203.029C129.47 202.803 130.028 202.689 130.655 202.689C131.276 202.689 131.829 202.803 132.315 203.029C132.803 203.253 133.188 203.559 133.467 203.949C133.751 204.338 133.893 204.782 133.893 205.279C133.893 205.8 133.737 206.262 133.425 206.66C133.117 207.056 132.717 207.31 132.229 207.42V207.486C132.607 207.549 132.948 207.695 133.25 207.925C133.556 208.151 133.799 208.434 133.979 208.774C134.161 209.112 134.253 209.485 134.253 209.891C134.253 210.413 134.098 210.88 133.789 211.291C133.481 211.7 133.055 212.023 132.513 212.259C131.974 212.494 131.355 212.612 130.655 212.612ZM130.655 211.264C131.018 211.264 131.333 211.202 131.6 211.079C131.869 210.954 132.076 210.778 132.225 210.551C132.372 210.325 132.448 210.064 132.451 209.769C132.448 209.46 132.368 209.189 132.21 208.952C132.056 208.714 131.843 208.527 131.572 208.391C131.304 208.256 130.999 208.188 130.655 208.188C130.308 208.188 129.999 208.256 129.729 208.391C129.457 208.527 129.243 208.714 129.085 208.952C128.931 209.189 128.856 209.46 128.859 209.769C128.856 210.064 128.928 210.325 129.076 210.551C129.224 210.775 129.432 210.948 129.7 211.075C129.97 211.201 130.289 211.264 130.655 211.264ZM130.655 206.864C130.951 206.864 131.213 206.804 131.439 206.684C131.67 206.565 131.851 206.398 131.983 206.184C132.116 205.971 132.184 205.724 132.187 205.444C132.184 205.167 132.117 204.925 131.988 204.718C131.859 204.506 131.679 204.345 131.449 204.232C131.219 204.116 130.954 204.057 130.655 204.057C130.349 204.057 130.079 204.116 129.846 204.232C129.617 204.345 129.437 204.506 129.307 204.718C129.182 204.925 129.12 205.167 129.123 205.444C129.12 205.724 129.183 205.971 129.313 206.184C129.445 206.394 129.625 206.562 129.856 206.684C130.089 206.804 130.355 206.864 130.655 206.864ZM139.168 202.689C139.631 202.693 140.081 202.775 140.52 202.935C140.961 203.092 141.358 203.35 141.711 203.709C142.064 204.064 142.344 204.54 142.553 205.137C142.76 205.735 142.865 206.473 142.865 207.354C142.868 208.184 142.779 208.925 142.6 209.579C142.423 210.23 142.169 210.78 141.839 211.231C141.508 211.68 141.11 212.023 140.643 212.259C140.177 212.494 139.652 212.612 139.068 212.612C138.457 212.612 137.915 212.492 137.442 212.253C136.973 212.015 136.593 211.688 136.303 211.273C136.013 210.858 135.835 210.383 135.769 209.848H137.494C137.583 210.232 137.762 210.537 138.033 210.764C138.307 210.987 138.652 211.098 139.068 211.098C139.74 211.098 140.257 210.808 140.619 210.226C140.981 209.644 141.163 208.836 141.163 207.802H141.096C140.942 208.079 140.742 208.318 140.496 208.518C140.25 208.716 139.971 208.869 139.66 208.976C139.35 209.083 139.023 209.137 138.676 209.137C138.109 209.137 137.599 209.002 137.145 208.731C136.693 208.461 136.336 208.09 136.071 207.618C135.81 207.146 135.677 206.607 135.674 206C135.674 205.372 135.819 204.807 136.109 204.307C136.403 203.805 136.811 203.409 137.333 203.119C137.857 202.827 138.468 202.684 139.168 202.689ZM139.173 204.105C138.832 204.105 138.525 204.188 138.251 204.355C137.98 204.518 137.765 204.741 137.607 205.024C137.453 205.304 137.376 205.616 137.376 205.963C137.379 206.305 137.457 206.617 137.607 206.897C137.762 207.176 137.971 207.398 138.236 207.561C138.505 207.725 138.81 207.807 139.154 207.807C139.409 207.807 139.646 207.758 139.867 207.66C140.088 207.563 140.28 207.428 140.444 207.254C140.612 207.078 140.74 206.879 140.832 206.656C140.927 206.433 140.972 206.196 140.969 205.948C140.969 205.619 140.89 205.313 140.733 205.033C140.578 204.753 140.365 204.529 140.095 204.359C139.826 204.19 139.519 204.105 139.173 204.105ZM145.135 212.584C144.848 212.584 144.602 212.483 144.398 212.282C144.193 212.08 144.092 211.836 144.095 211.546C144.092 211.264 144.193 211.021 144.398 210.82C144.602 210.619 144.848 210.518 145.135 210.518C145.412 210.518 145.654 210.619 145.858 210.82C146.066 211.021 146.172 211.264 146.175 211.546C146.172 211.739 146.122 211.912 146.024 212.069C145.929 212.227 145.803 212.353 145.646 212.447C145.491 212.539 145.321 212.584 145.135 212.584ZM151.125 212.664C150.346 212.664 149.679 212.468 149.121 212.075C148.566 211.679 148.139 211.108 147.839 210.363C147.543 209.615 147.394 208.714 147.394 207.66C147.398 206.607 147.547 205.712 147.844 204.972C148.143 204.23 148.57 203.664 149.125 203.275C149.683 202.885 150.35 202.689 151.125 202.689C151.899 202.689 152.566 202.885 153.124 203.275C153.682 203.664 154.109 204.23 154.406 204.972C154.705 205.714 154.855 206.61 154.855 207.66C154.855 208.716 154.705 209.619 154.406 210.367C154.109 211.112 153.682 211.681 153.124 212.075C152.57 212.468 151.903 212.664 151.125 212.664ZM151.125 211.187C151.73 211.187 152.207 210.891 152.557 210.297C152.91 209.699 153.087 208.82 153.087 207.66C153.087 206.894 153.007 206.248 152.846 205.727C152.685 205.205 152.457 204.812 152.165 204.547C151.872 204.281 151.525 204.147 151.125 204.147C150.523 204.147 150.047 204.446 149.697 205.043C149.347 205.637 149.17 206.51 149.167 207.66C149.165 208.431 149.241 209.078 149.399 209.604C149.56 210.128 149.787 210.525 150.08 210.791C150.373 211.056 150.721 211.187 151.125 211.187ZM160.003 212.664C159.226 212.664 158.558 212.468 158 212.075C157.445 211.679 157.018 211.108 156.719 210.363C156.422 209.615 156.274 208.714 156.274 207.66C156.277 206.607 156.427 205.712 156.723 204.972C157.023 204.23 157.45 203.664 158.004 203.275C158.562 202.885 159.229 202.689 160.003 202.689C160.779 202.689 161.446 202.885 162.004 203.275C162.562 203.664 162.989 204.23 163.285 204.972C163.585 205.714 163.734 206.61 163.734 207.66C163.734 208.716 163.585 209.619 163.285 210.367C162.989 211.112 162.562 211.681 162.004 212.075C161.449 212.468 160.782 212.664 160.003 212.664ZM160.003 211.187C160.609 211.187 161.086 210.891 161.437 210.297C161.79 209.699 161.966 208.82 161.966 207.66C161.966 206.894 161.886 206.248 161.725 205.727C161.564 205.205 161.337 204.812 161.044 204.547C160.751 204.281 160.404 204.147 160.003 204.147C159.402 204.147 158.926 204.446 158.577 205.043C158.226 205.637 158.05 206.51 158.047 207.66C158.043 208.431 158.121 209.078 158.278 209.604C158.439 210.128 158.667 210.525 158.96 210.791C159.252 211.056 159.601 211.187 160.003 211.187Z" fill="#0B5793"/>
<g filter="url(#filter4_d_410_1965)">
<path d="M170.359 234.613H20.5938C14.4668 234.613 9.5 239.568 9.5 245.68V268.92C9.5 275.032 14.4668 279.987 20.5938 279.987H170.359C176.486 279.987 181.453 275.032 181.453 268.92V245.68C181.453 239.568 176.486 234.613 170.359 234.613Z" fill="white"/>
<path d="M170.359 235.72H20.5938C15.0795 235.72 10.6094 240.179 10.6094 245.68V268.92C10.6094 274.421 15.0795 278.88 20.5938 278.88H170.359C175.874 278.88 180.344 274.421 180.344 268.92V245.68C180.344 240.179 175.874 235.72 170.359 235.72Z" stroke="#909090" stroke-opacity="0.25" stroke-width="2"/>
</g>
<path d="M23.4316 263.387V250.509H31.9783V252.754H26.1607V255.823H31.4114V258.067H26.1607V263.387H23.4316ZM33.7633 263.387V253.729H36.4491V263.387H33.7633ZM35.1123 252.484C34.7129 252.484 34.3712 252.351 34.085 252.088C33.8032 251.819 33.6634 251.499 33.6634 251.125C33.6634 250.756 33.8032 250.44 34.085 250.175C34.3712 249.907 34.7129 249.774 35.1123 249.774C35.5116 249.774 35.8522 249.907 36.134 250.175C36.4191 250.44 36.5622 250.756 36.5622 251.125C36.5622 251.499 36.4191 251.819 36.134 252.088C35.8522 252.351 35.5116 252.484 35.1123 252.484ZM41.2848 257.804V263.387H38.6001V253.729H41.1594V255.432H41.2726C41.4867 254.871 41.8461 254.426 42.3498 254.1C42.8546 253.769 43.4658 253.603 44.1847 253.603C44.857 253.603 45.4428 253.75 45.9431 254.043C46.4434 254.336 46.8317 254.756 47.109 255.3C47.3864 255.841 47.525 256.487 47.525 257.237V263.387H44.8404V257.715C44.8448 257.124 44.6928 256.663 44.3866 256.332C44.0793 255.996 43.6578 255.828 43.1197 255.828C42.7581 255.828 42.4386 255.907 42.1612 256.062C41.8883 256.217 41.6742 256.442 41.5178 256.74C41.3669 257.033 41.2893 257.389 41.2848 257.804ZM52.403 263.569C51.7851 263.569 51.2348 263.462 50.7511 263.248C50.2674 263.03 49.8858 262.709 49.604 262.287C49.3267 261.858 49.188 261.326 49.188 260.689C49.188 260.153 49.2867 259.701 49.4842 259.337C49.6817 258.972 49.9501 258.679 50.2907 258.456C50.6313 258.235 51.0174 258.067 51.4511 257.954C51.8882 257.841 52.3453 257.761 52.8245 257.715C53.3881 257.656 53.8418 257.602 54.1869 257.551C54.5308 257.497 54.7815 257.417 54.9368 257.312C55.0921 257.208 55.1698 257.053 55.1698 256.847V256.81C55.1698 256.411 55.0433 256.104 54.7915 255.886C54.543 255.668 54.1902 255.558 53.732 255.558C53.2494 255.558 52.8645 255.665 52.5794 255.879C52.2931 256.088 52.1046 256.353 52.0114 256.671L49.5286 256.47C49.6539 255.883 49.9024 255.376 50.2719 254.948C50.6413 254.517 51.1183 254.186 51.703 253.955C52.2909 253.72 52.9721 253.603 53.7453 253.603C54.2834 253.603 54.7981 253.666 55.2896 253.792C55.7854 253.917 56.2248 254.112 56.6064 254.376C56.9936 254.641 57.2975 254.979 57.5205 255.394C57.7435 255.806 57.8544 256.298 57.8544 256.873V263.387H55.3084V262.048H55.233C55.0777 262.349 54.8691 262.615 54.6084 262.846C54.3477 263.072 54.0349 263.251 53.6699 263.38C53.3038 263.506 52.8811 263.569 52.403 263.569ZM53.1718 261.72C53.5667 261.72 53.9151 261.643 54.2179 261.488C54.5208 261.328 54.7582 261.115 54.9301 260.847C55.1021 260.578 55.1886 260.274 55.1886 259.935V258.91C55.1043 258.964 54.9889 259.014 54.8414 259.061C54.6994 259.103 54.5374 259.143 54.3566 259.18C54.1758 259.213 53.9949 259.246 53.8141 259.274C53.6333 259.3 53.4702 259.323 53.3226 259.344C53.0076 259.389 52.7324 259.464 52.4973 259.563C52.2621 259.664 52.079 259.8 51.9481 259.973C51.8183 260.14 51.7529 260.35 51.7529 260.601C51.7529 260.965 51.886 261.244 52.15 261.438C52.4196 261.626 52.7602 261.72 53.1718 261.72ZM62.6236 250.509V263.387H59.9378V250.509H62.6236ZM72.8299 256.482L70.3715 256.634C70.3294 256.424 70.2395 256.235 70.1008 256.067C69.9622 255.896 69.7791 255.76 69.5517 255.659C69.3298 255.554 69.0625 255.502 68.7518 255.502C68.3358 255.502 67.9841 255.59 67.699 255.766C67.4128 255.938 67.2708 256.168 67.2708 256.458C67.2708 256.688 67.3629 256.883 67.5482 257.042C67.7323 257.201 68.0496 257.33 68.5 257.426L70.2517 257.778C71.1936 257.971 71.8947 258.28 72.3573 258.709C72.8188 259.136 73.0507 259.698 73.0507 260.393C73.0507 261.026 72.8632 261.582 72.4893 262.06C72.1199 262.538 71.6107 262.911 70.9639 263.179C70.3216 263.443 69.5794 263.575 68.7385 263.575C67.4572 263.575 66.4366 263.309 65.6755 262.777C64.9189 262.24 64.4763 261.511 64.3454 260.589L66.9868 260.451C67.0667 260.84 67.2597 261.138 67.567 261.343C67.8732 261.544 68.2659 261.645 68.7452 261.645C69.2156 261.645 69.5938 261.555 69.8801 261.375C70.1696 261.19 70.3172 260.953 70.3216 260.664C70.3172 260.421 70.214 260.222 70.0121 260.067C69.8102 259.907 69.4996 259.786 69.0791 259.701L67.4028 259.368C66.4576 259.18 65.7532 258.853 65.2906 258.388C64.8335 257.922 64.6039 257.33 64.6039 256.608C64.6039 255.987 64.7725 255.453 65.1086 255.005C65.4492 254.557 65.9251 254.21 66.5386 253.968C67.1565 253.724 67.8799 253.603 68.7074 253.603C69.93 253.603 70.8929 253.86 71.594 254.376C72.3007 254.892 72.7123 255.594 72.8299 256.482ZM76.3111 263.55C75.8951 263.55 75.5379 263.403 75.2394 263.11C74.9455 262.812 74.7979 262.456 74.7979 262.041C74.7979 261.63 74.9455 261.278 75.2394 260.985C75.5379 260.691 75.8951 260.545 76.3111 260.545C76.7138 260.545 77.0677 260.691 77.3694 260.985C77.6723 261.278 77.8232 261.63 77.8232 262.041C77.8232 262.318 77.7522 262.571 77.6091 262.802C77.4704 263.028 77.2874 263.211 77.061 263.349C76.8336 263.483 76.584 263.55 76.3111 263.55ZM76.3111 256.784C75.8951 256.784 75.5379 256.638 75.2394 256.344C74.9455 256.051 74.7979 255.694 74.7979 255.275C74.7979 254.864 74.9455 254.515 75.2394 254.226C75.5379 253.931 75.8951 253.785 76.3111 253.785C76.7138 253.785 77.0677 253.931 77.3694 254.226C77.6723 254.515 77.8232 254.864 77.8232 255.275C77.8232 255.556 77.7522 255.812 77.6091 256.043C77.4704 256.269 77.2874 256.449 77.061 256.583C76.8336 256.717 76.584 256.784 76.3111 256.784Z" fill="#0B5793"/>
<path d="M111.63 249C111.63 245.945 114.113 243.467 117.177 243.467H163.4C166.464 243.467 168.947 245.945 168.947 249V265.6C168.947 268.656 166.464 271.133 163.4 271.133H117.177C114.113 271.133 111.63 268.656 111.63 265.6V249Z" fill="#EDEDED"/>
<path d="M111.63 249C111.63 245.945 114.113 243.467 117.177 243.467H163.4C166.464 243.467 168.947 245.945 168.947 249V265.6C168.947 268.656 166.464 271.133 163.4 271.133H117.177C114.113 271.133 111.63 268.656 111.63 265.6V249Z" fill="#EDEDED"/>
<path d="M126.302 262.412C125.838 262.408 125.386 262.329 124.945 262.172C124.503 262.011 124.106 261.752 123.754 261.394C123.401 261.032 123.12 260.552 122.913 259.955C122.704 259.355 122.602 258.611 122.605 257.725C122.605 256.897 122.693 256.16 122.869 255.513C123.046 254.865 123.3 254.317 123.63 253.872C123.962 253.422 124.36 253.079 124.826 252.843C125.297 252.608 125.821 252.489 126.402 252.489C127.01 252.489 127.549 252.609 128.018 252.848C128.491 253.087 128.872 253.414 129.162 253.829C129.452 254.241 129.631 254.706 129.701 255.225H127.976C127.887 254.854 127.706 254.559 127.432 254.339C127.16 254.115 126.818 254.003 126.402 254.003C125.729 254.003 125.213 254.294 124.851 254.876C124.491 255.457 124.31 256.256 124.307 257.271H124.373C124.528 256.995 124.728 256.758 124.974 256.56C125.219 256.362 125.496 256.209 125.806 256.103C126.118 255.992 126.447 255.937 126.793 255.937C127.361 255.937 127.869 256.073 128.321 256.343C128.775 256.613 129.134 256.986 129.398 257.46C129.663 257.932 129.794 258.473 129.791 259.083C129.794 259.718 129.649 260.288 129.356 260.795C129.063 261.297 128.655 261.693 128.131 261.983C127.609 262.272 126.998 262.415 126.302 262.412ZM126.293 260.997C126.636 260.997 126.943 260.914 127.214 260.747C127.485 260.58 127.7 260.355 127.857 260.073C128.015 259.79 128.092 259.472 128.089 259.12C128.092 258.774 128.016 258.462 127.861 258.182C127.711 257.902 127.501 257.681 127.234 257.517C126.965 257.353 126.659 257.271 126.316 257.271C126.061 257.271 125.822 257.32 125.602 257.418C125.381 257.516 125.189 257.651 125.025 257.823C124.862 257.993 124.732 258.191 124.638 258.418C124.547 258.641 124.499 258.88 124.496 259.135C124.499 259.471 124.578 259.78 124.732 260.063C124.886 260.347 125.099 260.572 125.371 260.743C125.642 260.912 125.949 260.997 126.293 260.997ZM134.75 252.489C135.213 252.493 135.664 252.575 136.102 252.735C136.543 252.892 136.941 253.15 137.293 253.509C137.646 253.864 137.927 254.34 138.134 254.937C138.343 255.535 138.446 256.273 138.446 257.154C138.449 257.984 138.362 258.725 138.182 259.379C138.006 260.03 137.752 260.58 137.421 261.031C137.089 261.48 136.691 261.823 136.225 262.059C135.758 262.294 135.233 262.412 134.651 262.412C134.039 262.412 133.497 262.292 133.025 262.053C132.554 261.815 132.175 261.488 131.885 261.073C131.595 260.658 131.417 260.183 131.351 259.648H133.077C133.164 260.032 133.344 260.337 133.615 260.564C133.89 260.787 134.235 260.898 134.651 260.898C135.322 260.898 135.839 260.608 136.201 260.026C136.563 259.444 136.744 258.636 136.744 257.602H136.679C136.525 257.879 136.324 258.118 136.079 258.318C135.832 258.516 135.554 258.669 135.241 258.776C134.933 258.883 134.604 258.937 134.258 258.937C133.691 258.937 133.18 258.802 132.726 258.531C132.276 258.261 131.918 257.89 131.653 257.418C131.392 256.946 131.26 256.407 131.256 255.8C131.256 255.172 131.402 254.607 131.691 254.107C131.984 253.605 132.392 253.209 132.916 252.919C133.438 252.627 134.05 252.484 134.75 252.489ZM134.754 253.905C134.415 253.905 134.107 253.988 133.832 254.155C133.561 254.318 133.347 254.541 133.19 254.824C133.036 255.104 132.958 255.416 132.958 255.763C132.961 256.105 133.038 256.417 133.19 256.697C133.344 256.976 133.554 257.198 133.819 257.361C134.086 257.525 134.392 257.607 134.735 257.607C134.99 257.607 135.229 257.558 135.45 257.46C135.67 257.363 135.862 257.228 136.027 257.054C136.193 256.878 136.323 256.679 136.414 256.456C136.508 256.233 136.555 255.996 136.551 255.748C136.551 255.419 136.472 255.113 136.315 254.833C136.16 254.553 135.948 254.329 135.676 254.159C135.409 253.99 135.101 253.905 134.754 253.905ZM140.717 262.384C140.43 262.384 140.184 262.283 139.979 262.082C139.775 261.88 139.674 261.636 139.677 261.346C139.674 261.064 139.775 260.821 139.979 260.62C140.184 260.419 140.43 260.318 140.717 260.318C140.994 260.318 141.235 260.419 141.44 260.62C141.648 260.821 141.754 261.064 141.758 261.346C141.754 261.539 141.703 261.712 141.606 261.869C141.511 262.027 141.385 262.153 141.227 262.247C141.073 262.339 140.903 262.384 140.717 262.384ZM146.706 262.464C145.928 262.464 145.26 262.268 144.702 261.875C144.147 261.479 143.72 260.908 143.422 260.163C143.124 259.415 142.977 258.514 142.977 257.46C142.98 256.407 143.13 255.512 143.426 254.772C143.726 254.03 144.153 253.464 144.707 253.075C145.264 252.685 145.931 252.489 146.706 252.489C147.482 252.489 148.149 252.685 148.707 253.075C149.265 253.464 149.691 254.03 149.988 254.772C150.286 255.514 150.436 256.41 150.436 257.46C150.436 258.516 150.286 259.419 149.988 260.167C149.691 260.912 149.265 261.481 148.707 261.875C148.152 262.268 147.485 262.464 146.706 262.464ZM146.706 260.987C147.312 260.987 147.789 260.691 148.139 260.097C148.493 259.499 148.669 258.62 148.669 257.46C148.669 256.694 148.588 256.048 148.427 255.527C148.266 255.005 148.04 254.612 147.747 254.347C147.453 254.081 147.107 253.947 146.706 253.947C146.105 253.947 145.629 254.246 145.279 254.843C144.929 255.437 144.753 256.31 144.75 257.46C144.746 258.231 144.824 258.878 144.981 259.404C145.142 259.928 145.369 260.324 145.661 260.591C145.955 260.856 146.304 260.987 146.706 260.987ZM155.586 262.464C154.807 262.464 154.139 262.268 153.581 261.875C153.027 261.479 152.599 260.908 152.3 260.163C152.004 259.415 151.856 258.514 151.856 257.46C151.86 256.407 152.009 255.512 152.305 254.772C152.605 254.03 153.032 253.464 153.587 253.075C154.144 252.685 154.81 252.489 155.586 252.489C156.361 252.489 157.028 252.685 157.586 253.075C158.143 253.464 158.57 254.03 158.866 254.772C159.166 255.514 159.316 256.41 159.316 257.46C159.316 258.516 159.166 259.419 158.866 260.167C158.57 260.912 158.143 261.481 157.586 261.875C157.031 262.268 156.365 262.464 155.586 262.464ZM155.586 260.987C156.192 260.987 156.669 260.691 157.018 260.097C157.371 259.499 157.548 258.62 157.548 257.46C157.548 256.694 157.467 256.048 157.307 255.527C157.146 255.005 156.919 254.612 156.626 254.347C156.333 254.081 155.986 253.947 155.586 253.947C154.984 253.947 154.508 254.246 154.158 254.843C153.809 255.437 153.632 256.31 153.629 257.46C153.626 258.231 153.703 258.878 153.861 259.404C154.022 259.928 154.248 260.324 154.541 260.591C154.835 260.856 155.182 260.987 155.586 260.987Z" fill="#0B5793"/>
<g filter="url(#filter5_d_410_1965)">
<path d="M164.812 291.053H72.7344C62.9313 291.053 54.9844 298.981 54.9844 308.76C54.9844 318.539 62.9313 326.467 72.7344 326.467H164.812C174.616 326.467 182.562 318.539 182.562 308.76C182.562 298.981 174.616 291.053 164.812 291.053Z" fill="#E7C01D"/>
<path d="M164.812 292.16H72.7344C63.544 292.16 56.0938 299.592 56.0938 308.76C56.0938 317.928 63.544 325.36 72.7344 325.36H164.812C174.003 325.36 181.453 317.928 181.453 308.76C181.453 299.592 174.003 292.16 164.812 292.16Z" stroke="#F3DF8E" stroke-width="2"/>
</g>
<path d="M85.5753 312.08H83.3821L86.7246 302.422H89.3627L92.6997 312.08H90.5065L88.0814 304.629H88.006L85.5753 312.08ZM85.4388 308.284H90.6196V309.878H85.4388V308.284ZM96.1654 312.198C95.614 312.198 95.1137 312.057 94.6666 311.773C94.2218 311.487 93.869 311.067 93.6072 310.514C93.3487 309.957 93.22 309.276 93.22 308.468C93.22 307.638 93.3542 306.947 93.6216 306.397C93.8901 305.844 94.2462 305.43 94.6899 305.157C95.1381 304.88 95.6274 304.742 96.1599 304.742C96.567 304.742 96.9054 304.811 97.1772 304.95C97.4512 305.085 97.6719 305.254 97.8383 305.459C98.0092 305.66 98.1379 305.858 98.2266 306.053H98.2876V302.422H100.297V312.08H98.3109V310.92H98.2266C98.1312 311.122 97.9981 311.321 97.8239 311.519C97.6542 311.714 97.4323 311.875 97.1583 312.005C96.8865 312.133 96.5559 312.198 96.1654 312.198ZM96.8033 310.599C97.1283 310.599 97.4024 310.511 97.6265 310.335C97.8528 310.155 98.0258 309.906 98.1456 309.586C98.2688 309.265 98.3298 308.888 98.3298 308.458C98.3298 308.027 98.2699 307.653 98.1512 307.336C98.0314 307.018 97.8572 306.774 97.6309 306.6C97.4035 306.427 97.1283 306.341 96.8033 306.341C96.4727 306.341 96.1931 306.43 95.9668 306.61C95.7394 306.789 95.5675 307.037 95.451 307.355C95.3345 307.672 95.2768 308.04 95.2768 308.458C95.2768 308.879 95.3345 309.252 95.451 309.576C95.5708 309.897 95.7427 310.148 95.9668 310.33C96.1931 310.51 96.4727 310.599 96.8033 310.599ZM104.629 312.198C104.076 312.198 103.577 312.057 103.13 311.773C102.685 311.487 102.332 311.067 102.071 310.514C101.812 309.957 101.683 309.276 101.683 308.468C101.683 307.638 101.818 306.947 102.085 306.397C102.353 305.844 102.71 305.43 103.153 305.157C103.602 304.88 104.091 304.742 104.623 304.742C105.03 304.742 105.369 304.811 105.641 304.95C105.915 305.085 106.135 305.254 106.302 305.459C106.473 305.66 106.601 305.858 106.69 306.053H106.751V302.422H108.76V312.08H106.774V310.92H106.69C106.595 311.122 106.462 311.321 106.287 311.519C106.118 311.714 105.896 311.875 105.622 312.005C105.35 312.133 105.019 312.198 104.629 312.198ZM105.267 310.599C105.592 310.599 105.866 310.511 106.089 310.335C106.316 310.155 106.489 309.906 106.609 309.586C106.732 309.265 106.793 308.888 106.793 308.458C106.793 308.027 106.733 307.653 106.613 307.336C106.494 307.018 106.321 306.774 106.094 306.6C105.867 306.427 105.592 306.341 105.267 306.341C104.936 306.341 104.657 306.43 104.43 306.61C104.203 306.789 104.031 307.037 103.914 307.355C103.798 307.672 103.74 308.04 103.74 308.458C103.74 308.879 103.798 309.252 103.914 309.576C104.034 309.897 104.206 310.148 104.43 310.33C104.657 310.51 104.936 310.599 105.267 310.599ZM122.077 305.803H120.007C119.969 305.536 119.892 305.298 119.775 305.091C119.659 304.88 119.509 304.701 119.326 304.554C119.143 304.405 118.932 304.292 118.692 304.214C118.456 304.135 118.2 304.096 117.922 304.096C117.421 304.096 116.984 304.22 116.612 304.468C116.241 304.714 115.952 305.073 115.747 305.544C115.543 306.012 115.44 306.581 115.44 307.25C115.44 307.94 115.543 308.518 115.747 308.987C115.956 309.455 116.245 309.808 116.617 310.047C116.989 310.286 117.419 310.406 117.908 310.406C118.182 310.406 118.436 310.37 118.669 310.297C118.905 310.225 119.115 310.12 119.298 309.982C119.48 309.84 119.632 309.669 119.752 309.467C119.875 309.266 119.959 309.037 120.007 308.779L122.077 308.789C122.024 309.231 121.89 309.659 121.675 310.071C121.465 310.48 121.18 310.846 120.82 311.17C120.464 311.49 120.038 311.745 119.543 311.934C119.052 312.12 118.496 312.212 117.875 312.212C117.012 312.212 116.24 312.017 115.558 311.627C114.881 311.238 114.345 310.673 113.951 309.934C113.56 309.195 113.365 308.301 113.365 307.25C113.365 306.198 113.564 305.302 113.961 304.562C114.358 303.824 114.896 303.261 115.577 302.875C116.258 302.485 117.024 302.289 117.875 302.289C118.436 302.289 118.955 302.368 119.435 302.525C119.917 302.683 120.344 302.912 120.716 303.214C121.088 303.513 121.39 303.878 121.623 304.313C121.86 304.747 122.012 305.243 122.077 305.803ZM126.789 312.222C126.054 312.222 125.418 312.066 124.883 311.755C124.35 311.44 123.94 311.003 123.649 310.443C123.359 309.881 123.214 309.228 123.214 308.487C123.214 307.739 123.359 307.084 123.649 306.525C123.94 305.962 124.35 305.525 124.883 305.213C125.418 304.899 126.054 304.742 126.789 304.742C127.523 304.742 128.156 304.899 128.689 305.213C129.225 305.525 129.637 305.962 129.927 306.525C130.218 307.084 130.362 307.739 130.362 308.487C130.362 309.228 130.218 309.881 129.927 310.443C129.637 311.003 129.225 311.44 128.689 311.755C128.156 312.066 127.523 312.222 126.789 312.222ZM126.797 310.666C127.131 310.666 127.411 310.57 127.635 310.382C127.858 310.191 128.027 309.93 128.141 309.6C128.257 309.269 128.315 308.894 128.315 308.472C128.315 308.051 128.257 307.675 128.141 307.346C128.027 307.015 127.858 306.754 127.635 306.562C127.411 306.371 127.131 306.274 126.797 306.274C126.46 306.274 126.177 306.371 125.947 306.562C125.72 306.754 125.548 307.015 125.432 307.346C125.319 307.675 125.261 308.051 125.261 308.472C125.261 308.894 125.319 309.269 125.432 309.6C125.548 309.93 125.72 310.191 125.947 310.382C126.177 310.57 126.46 310.666 126.797 310.666ZM136.328 308.996V304.837H138.343V312.08H136.409V310.764H136.333C136.169 311.189 135.897 311.53 135.515 311.788C135.137 312.046 134.675 312.174 134.13 312.174C133.645 312.174 133.217 312.064 132.849 311.844C132.48 311.624 132.192 311.311 131.984 310.906C131.779 310.5 131.675 310.015 131.672 309.448V304.837H133.686V309.09C133.689 309.518 133.804 309.856 134.031 310.103C134.258 310.352 134.562 310.476 134.944 310.476C135.185 310.476 135.413 310.421 135.624 310.312C135.836 310.199 136.005 310.032 136.135 309.811C136.267 309.591 136.331 309.32 136.328 308.996ZM139.954 312.08V304.837H141.906V306.101H141.981C142.114 305.65 142.335 305.312 142.648 305.081C142.96 304.849 143.319 304.733 143.725 304.733C143.826 304.733 143.935 304.738 144.052 304.752C144.168 304.764 144.271 304.781 144.359 304.804V306.586C144.265 306.558 144.134 306.532 143.967 306.51C143.8 306.488 143.647 306.478 143.508 306.478C143.212 306.478 142.947 306.542 142.714 306.671C142.484 306.797 142.301 306.973 142.166 307.198C142.034 307.425 141.967 307.687 141.967 307.982V312.08H139.954ZM151.442 306.902L149.598 307.015C149.566 306.858 149.499 306.716 149.395 306.591C149.291 306.461 149.154 306.36 148.984 306.284C148.816 306.206 148.617 306.166 148.384 306.166C148.071 306.166 147.808 306.232 147.594 306.364C147.38 306.494 147.272 306.666 147.272 306.883C147.272 307.056 147.342 307.202 147.481 307.321C147.619 307.441 147.857 307.537 148.194 307.609L149.509 307.874C150.214 308.019 150.741 308.251 151.087 308.572C151.434 308.892 151.608 309.313 151.608 309.836C151.608 310.31 151.468 310.727 151.187 311.085C150.91 311.444 150.528 311.724 150.042 311.924C149.561 312.122 149.004 312.222 148.374 312.222C147.413 312.222 146.646 312.021 146.076 311.623C145.509 311.22 145.176 310.673 145.079 309.982L147.06 309.878C147.119 310.17 147.264 310.393 147.495 310.547C147.725 310.698 148.02 310.774 148.378 310.774C148.732 310.774 149.015 310.707 149.229 310.57C149.448 310.432 149.557 310.255 149.561 310.038C149.557 309.856 149.48 309.706 149.329 309.59C149.178 309.47 148.944 309.38 148.629 309.317L147.372 309.067C146.663 308.925 146.135 308.68 145.788 308.331C145.445 307.982 145.273 307.537 145.273 306.996C145.273 306.531 145.398 306.131 145.651 305.794C145.906 305.458 146.264 305.198 146.724 305.015C147.188 304.834 147.729 304.742 148.35 304.742C149.268 304.742 149.989 304.935 150.516 305.322C151.045 305.709 151.353 306.236 151.442 306.902ZM156.185 312.222C155.438 312.222 154.795 312.07 154.256 311.769C153.72 311.464 153.307 311.033 153.018 310.476C152.728 309.916 152.583 309.255 152.583 308.491C152.583 307.746 152.728 307.092 153.018 306.529C153.307 305.967 153.715 305.529 154.242 305.213C154.771 304.899 155.393 304.742 156.105 304.742C156.583 304.742 157.029 304.819 157.443 304.973C157.859 305.123 158.221 305.351 158.53 305.657C158.842 305.962 159.085 306.345 159.258 306.808C159.431 307.267 159.517 307.804 159.517 308.42V308.972H153.386V307.727H157.621C157.621 307.437 157.559 307.182 157.433 306.958C157.306 306.735 157.132 306.561 156.908 306.435C156.687 306.306 156.431 306.241 156.137 306.241C155.832 306.241 155.561 306.312 155.324 306.454C155.091 306.592 154.908 306.779 154.776 307.015C154.644 307.248 154.576 307.507 154.573 307.793V308.977C154.573 309.335 154.639 309.645 154.771 309.906C154.907 310.167 155.098 310.368 155.343 310.51C155.589 310.651 155.881 310.722 156.218 310.722C156.442 310.722 156.646 310.69 156.833 310.628C157.018 310.565 157.178 310.47 157.31 310.345C157.443 310.219 157.543 310.065 157.613 309.882L159.475 310.005C159.381 310.451 159.187 310.842 158.894 311.175C158.603 311.505 158.228 311.762 157.769 311.948C157.312 312.13 156.784 312.222 156.185 312.222Z" fill="white"/>
<defs>
<filter id="filter0_d_410_1965" x="-168" y="59.76" width="349.453" height="120.2" filterUnits="userSpaceOnUse" color-interpolation-filters="sRGB">
<feFlood flood-opacity="0" result="BackgroundImageFix"/>
<feColorMatrix in="SourceAlpha" type="matrix" values="0 0 0 0 0 0 0 0 0 0 0 0 0 0 0 0 0 0 127 0" result="hardAlpha"/>
<feOffset dy="4"/>
<feComposite in2="hardAlpha" operator="out"/>
<feColorMatrix type="matrix" values="0 0 0 0 0.566623 0 0 0 0 0.566623 0 0 0 0 0.566623 0 0 0 0.25 0"/>
<feBlend mode="normal" in2="BackgroundImageFix" result="effect1_dropShadow_410_1965"/>
<feBlend mode="normal" in="SourceGraphic" in2="effect1_dropShadow_410_1965" result="shape"/>
</filter>
<filter id="filter1_d_410_1965" x="-168" y="182.6" width="171.953" height="49.3733" filterUnits="userSpaceOnUse" color-interpolation-filters="sRGB">
<feFlood flood-opacity="0" result="BackgroundImageFix"/>
<feColorMatrix in="SourceAlpha" type="matrix" values="0 0 0 0 0 0 0 0 0 0 0 0 0 0 0 0 0 0 127 0" result="hardAlpha"/>
<feOffset dy="4"/>
<feComposite in2="hardAlpha" operator="out"/>
<feColorMatrix type="matrix" values="0 0 0 0 0.566623 0 0 0 0 0.566623 0 0 0 0 0.566623 0 0 0 0.25 0"/>
<feBlend mode="normal" in2="BackgroundImageFix" result="effect1_dropShadow_410_1965"/>
<feBlend mode="normal" in="SourceGraphic" in2="effect1_dropShadow_410_1965" result="shape"/>
</filter>
<filter id="filter2_d_410_1965" x="-168" y="234.613" width="171.953" height="49.3734" filterUnits="userSpaceOnUse" color-interpolation-filters="sRGB">
<feFlood flood-opacity="0" result="BackgroundImageFix"/>
<feColorMatrix in="SourceAlpha" type="matrix" values="0 0 0 0 0 0 0 0 0 0 0 0 0 0 0 0 0 0 127 0" result="hardAlpha"/>
<feOffset dy="4"/>
<feComposite in2="hardAlpha" operator="out"/>
<feColorMatrix type="matrix" values="0 0 0 0 0.566623 0 0 0 0 0.566623 0 0 0 0 0.566623 0 0 0 0.25 0"/>
<feBlend mode="normal" in2="BackgroundImageFix" result="effect1_dropShadow_410_1965"/>
<feBlend mode="normal" in="SourceGraphic" in2="effect1_dropShadow_410_1965" result="shape"/>
</filter>
<filter id="filter3_d_410_1965" x="9.5" y="182.6" width="171.953" height="49.3733" filterUnits="userSpaceOnUse" color-interpolation-filters="sRGB">
<feFlood flood-opacity="0" result="BackgroundImageFix"/>
<feColorMatrix in="SourceAlpha" type="matrix" values="0 0 0 0 0 0 0 0 0 0 0 0 0 0 0 0 0 0 127 0" result="hardAlpha"/>
<feOffset dy="4"/>
<feComposite in2="hardAlpha" operator="out"/>
<feColorMatrix type="matrix" values="0 0 0 0 0.566623 0 0 0 0 0.566623 0 0 0 0 0.566623 0 0 0 0.25 0"/>
<feBlend mode="normal" in2="BackgroundImageFix" result="effect1_dropShadow_410_1965"/>
<feBlend mode="normal" in="SourceGraphic" in2="effect1_dropShadow_410_1965" result="shape"/>
</filter>
<filter id="filter4_d_410_1965" x="9.5" y="234.613" width="171.953" height="49.3734" filterUnits="userSpaceOnUse" color-interpolation-filters="sRGB">
<feFlood flood-opacity="0" result="BackgroundImageFix"/>
<feColorMatrix in="SourceAlpha" type="matrix" values="0 0 0 0 0 0 0 0 0 0 0 0 0 0 0 0 0 0 127 0" result="hardAlpha"/>
<feOffset dy="4"/>
<feComposite in2="hardAlpha" operator="out"/>
<feColorMatrix type="matrix" values="0 0 0 0 0.566623 0 0 0 0 0.566623 0 0 0 0 0.566623 0 0 0 0.25 0"/>
<feBlend mode="normal" in2="BackgroundImageFix" result="effect1_dropShadow_410_1965"/>
<feBlend mode="normal" in="SourceGraphic" in2="effect1_dropShadow_410_1965" result="shape"/>
</filter>
<filter id="filter5_d_410_1965" x="54.9844" y="291.053" width="127.578" height="39.4133" filterUnits="userSpaceOnUse" color-interpolation-filters="sRGB">
<feFlood flood-opacity="0" result="BackgroundImageFix"/>
<feColorMatrix in="SourceAlpha" type="matrix" values="0 0 0 0 0 0 0 0 0 0 0 0 0 0 0 0 0 0 127 0" result="hardAlpha"/>
<feOffset dy="4"/>
<feComposite in2="hardAlpha" operator="out"/>
<feColorMatrix type="matrix" values="0 0 0 0 0.905882 0 0 0 0 0.752941 0 0 0 0 0.113725 0 0 0 0.5 0"/>
<feBlend mode="normal" in2="BackgroundImageFix" result="effect1_dropShadow_410_1965"/>
<feBlend mode="normal" in="SourceGraphic" in2="effect1_dropShadow_410_1965" result="shape"/>
</filter>
</defs>
</svg>
