<svg width="185" height="332" viewBox="0 0 185 332" fill="none" xmlns="http://www.w3.org/2000/svg">
<g filter="url(#filter0_d_410_1920)">
<path d="M338.359 59.76H11.0938C4.96684 59.76 0 64.7147 0 70.8267V164.893C0 171.005 4.96684 175.96 11.0938 175.96H338.359C344.486 175.96 349.453 171.005 349.453 164.893V70.8267C349.453 64.7147 344.486 59.76 338.359 59.76Z" fill="white"/>
<path d="M338.359 60.8667H11.0938C5.57953 60.8667 1.10938 65.3259 1.10938 70.8267V164.893C1.10938 170.394 5.57953 174.853 11.0938 174.853H338.359C343.874 174.853 348.344 170.394 348.344 164.893V70.8267C348.344 65.3259 343.874 60.8667 338.359 60.8667Z" stroke="#909090" stroke-opacity="0.25" stroke-width="2"/>
</g>
<path d="M34.6995 79.0575H31.9387C31.8882 78.7012 31.7852 78.3847 31.6298 78.108C31.4743 77.8272 31.2747 77.5882 31.031 77.3912C30.7872 77.1942 30.5057 77.0433 30.1863 76.9385C29.8711 76.8337 29.5287 76.7813 29.1589 76.7813C28.4907 76.7813 27.9087 76.9469 27.4129 77.278C26.9171 77.605 26.5326 78.0829 26.2594 78.7117C25.9862 79.3363 25.8496 80.095 25.8496 80.9879C25.8496 81.906 25.9862 82.6772 26.2594 83.3018C26.5368 83.9264 26.9233 84.3981 27.4192 84.7166C27.9151 85.0352 28.4886 85.1945 29.1399 85.1945C29.5056 85.1945 29.8438 85.1463 30.1548 85.0499C30.47 84.9535 30.7494 84.8131 30.9931 84.6286C31.2369 84.4399 31.4386 84.2115 31.5983 83.9432C31.7622 83.6749 31.8756 83.3689 31.9387 83.0251L34.6995 83.0377C34.628 83.6288 34.4494 84.1989 34.1637 84.748C33.8822 85.293 33.5019 85.7814 33.0227 86.2131C32.5479 86.6407 31.9807 86.9802 31.321 87.2318C30.6653 87.479 29.9237 87.6027 29.0959 87.6027C27.9445 87.6027 26.915 87.3428 26.0073 86.823C25.1038 86.3032 24.3894 85.5508 23.8642 84.5657C23.3431 83.5806 23.0825 82.388 23.0825 80.9879C23.0825 79.5836 23.3473 78.3889 23.8767 77.4038C24.4062 76.4187 25.1248 75.6683 26.0325 75.1527C26.9401 74.6329 27.9612 74.373 29.0959 74.373C29.8438 74.373 30.5372 74.4778 31.176 74.6874C31.8188 74.897 32.3883 75.203 32.8841 75.6055C33.38 76.0037 33.7834 76.492 34.0944 77.0705C34.4095 77.6491 34.6113 78.3114 34.6995 79.0575ZM40.9806 87.6154C40.0016 87.6154 39.1548 87.4079 38.4405 86.9929C37.7303 86.5737 37.1819 85.991 36.7953 85.2448C36.4087 84.4944 36.2154 83.6246 36.2154 82.6354C36.2154 81.6376 36.4087 80.7658 36.7953 80.0195C37.1819 79.2692 37.7303 78.6866 38.4405 78.2716C39.1548 77.8524 40.0016 77.6427 40.9806 77.6427C41.9598 77.6427 42.8044 77.8524 43.5145 78.2716C44.229 78.6866 44.7795 79.2692 45.1661 80.0195C45.5527 80.7658 45.7459 81.6376 45.7459 82.6354C45.7459 83.6246 45.5527 84.4944 45.1661 85.2448C44.7795 85.991 44.229 86.5737 43.5145 86.9929C42.8044 87.4079 41.9598 87.6154 40.9806 87.6154ZM40.9933 85.5404C41.4387 85.5404 41.8105 85.4145 42.109 85.163C42.4073 84.9073 42.6321 84.5594 42.7834 84.1193C42.9389 83.6791 43.0167 83.1782 43.0167 82.6164C43.0167 82.0547 42.9389 81.5538 42.7834 81.1137C42.6321 80.6735 42.4073 80.3255 42.109 80.0699C41.8105 79.8141 41.4387 79.6863 40.9933 79.6863C40.5436 79.6863 40.1655 79.8141 39.8587 80.0699C39.5562 80.3255 39.3271 80.6735 39.1717 81.1137C39.0204 81.5538 38.9447 82.0547 38.9447 82.6164C38.9447 83.1782 39.0204 83.6791 39.1717 84.1193C39.3271 84.5594 39.5562 84.9073 39.8587 85.163C40.1655 85.4145 40.5436 85.5404 40.9933 85.5404ZM53.7006 83.3144V77.7685H56.3858V87.4267H53.8078V85.6724H53.7069C53.4885 86.2382 53.1249 86.6931 52.6165 87.0368C52.1122 87.3805 51.4966 87.5524 50.7696 87.5524C50.1225 87.5524 49.5531 87.4058 49.0614 87.1123C48.5699 86.8189 48.1853 86.4018 47.908 85.861C47.6348 85.3202 47.4961 84.6726 47.492 83.918V77.7685H50.1771V83.4401C50.1813 84.0103 50.3348 84.4609 50.6373 84.792C50.9398 85.1233 51.3453 85.2888 51.8538 85.2888C52.1773 85.2888 52.48 85.2154 52.7615 85.0687C53.043 84.9179 53.2699 84.6956 53.4422 84.4022C53.6187 84.1088 53.7048 83.7461 53.7006 83.3144ZM58.5337 87.4267V77.7685H61.137V79.4537H61.2378C61.4143 78.8542 61.7105 78.4015 62.1265 78.0955C62.5425 77.7853 63.0216 77.6301 63.5637 77.6301C63.6982 77.6301 63.8432 77.6385 63.9986 77.6554C64.1541 77.6721 64.2907 77.6951 64.4083 77.7245V80.1013C64.2823 80.0636 64.1079 80.03 63.8851 80.0007C63.6625 79.9714 63.4587 79.9567 63.2737 79.9567C62.8788 79.9567 62.5258 80.0427 62.2148 80.2145C61.9081 80.3822 61.6644 80.6169 61.4836 80.9187C61.3071 81.2205 61.2188 81.5684 61.2188 81.9625V87.4267H58.5337ZM73.8522 80.5226L71.3939 80.6735C71.3519 80.4639 71.2616 80.2753 71.1229 80.1076C70.9842 79.9358 70.8014 79.7995 70.5745 79.6988C70.3518 79.594 70.085 79.5417 69.774 79.5417C69.358 79.5417 69.0071 79.6297 68.7213 79.8057C68.4355 79.9776 68.2928 80.2082 68.2928 80.4974C68.2928 80.728 68.3852 80.9229 68.5701 81.0822C68.7549 81.2415 69.0722 81.3693 69.5218 81.4657L71.2742 81.8179C72.2154 82.0108 72.9172 82.321 73.3795 82.7485C73.8417 83.1761 74.0728 83.7378 74.0728 84.4337C74.0728 85.0666 73.8858 85.622 73.5118 86.0999C73.1421 86.5779 72.6335 86.9509 71.9864 87.2192C71.3435 87.4832 70.6018 87.6154 69.7614 87.6154C68.4797 87.6154 67.4586 87.3491 66.698 86.8168C65.9416 86.2802 65.4983 85.5508 65.368 84.6286L68.0091 84.4902C68.0889 84.8801 68.2822 85.1777 68.589 85.3831C68.8957 85.5843 69.2887 85.6849 69.7677 85.6849C70.2383 85.6849 70.6166 85.5948 70.9022 85.4145C71.1922 85.2302 71.3393 84.9932 71.3435 84.7041C71.3393 84.4609 71.2364 84.2618 71.0346 84.1067C70.8329 83.9474 70.5219 83.8258 70.1017 83.742L68.4251 83.4087C67.4796 83.2201 66.7757 82.8931 66.3135 82.4279C65.8555 81.9625 65.6264 81.3693 65.6264 80.6483C65.6264 80.0279 65.7946 79.4934 66.1307 79.0449C66.4711 78.5964 66.948 78.2505 67.5616 78.0074C68.1793 77.7643 68.902 77.6427 69.7298 77.6427C70.9527 77.6427 71.915 77.9005 72.6168 78.4162C73.3228 78.9318 73.7346 79.6339 73.8522 80.5226ZM80.1759 87.6154C79.1801 87.6154 78.3229 87.4141 77.6042 87.0117C76.8899 86.6051 76.3394 86.0307 75.9528 85.2888C75.5662 84.5426 75.3729 83.6602 75.3729 82.6416C75.3729 81.6481 75.5662 80.7762 75.9528 80.0258C76.3394 79.2755 76.8835 78.6908 77.5853 78.2716C78.2912 77.8524 79.1192 77.6427 80.0688 77.6427C80.7076 77.6427 81.3022 77.7454 81.8527 77.9508C82.4073 78.152 82.8906 78.4559 83.3024 78.8626C83.7184 79.2692 84.042 79.7806 84.2731 80.3968C84.5042 81.0089 84.6198 81.7257 84.6198 82.5473V83.283H76.4445V81.623H82.0922C82.0922 81.2373 82.0081 80.8957 81.84 80.598C81.6719 80.3004 81.4388 80.0678 81.1403 79.9001C80.8462 79.7283 80.5038 79.6423 80.1129 79.6423C79.7054 79.6423 79.3439 79.7366 79.0287 79.9252C78.7178 80.1097 78.4741 80.3591 78.2976 80.6735C78.1211 80.9837 78.0308 81.3295 78.0265 81.711V83.2893C78.0265 83.7671 78.1148 84.18 78.2912 84.528C78.472 84.8759 78.7262 85.1442 79.0539 85.3329C79.3818 85.5214 79.7705 85.6157 80.2201 85.6157C80.5184 85.6157 80.7915 85.5739 81.0395 85.49C81.2874 85.4061 81.4997 85.2804 81.6762 85.1127C81.8527 84.9451 81.9871 84.7397 82.0795 84.4966L84.5631 84.66C84.4369 85.2553 84.1786 85.7751 83.7877 86.2194C83.4011 86.6595 82.901 87.0033 82.2875 87.2506C81.6783 87.4937 80.9744 87.6154 80.1759 87.6154ZM93.1654 81.843V87.4267H90.4803V77.7685H93.0394V79.4725H93.1529C93.3671 78.9108 93.7264 78.4664 94.2306 78.1395C94.7349 77.8083 95.3463 77.6427 96.065 77.6427C96.7373 77.6427 97.3234 77.7895 97.8236 78.0829C98.3235 78.3764 98.7123 78.7956 98.9896 79.3405C99.267 79.8812 99.4056 80.5268 99.4056 81.2771V87.4267H96.7205V81.755C96.7246 81.1639 96.5734 80.7028 96.2667 80.3717C95.9599 80.0364 95.5376 79.8687 94.9996 79.8687C94.6383 79.8687 94.3189 79.9462 94.0416 80.1013C93.7685 80.2564 93.5541 80.4828 93.3986 80.7804C93.2474 81.0739 93.1696 81.428 93.1654 81.843ZM104.283 87.6091C103.665 87.6091 103.115 87.5021 102.631 87.2883C102.148 87.0703 101.766 86.7497 101.484 86.3263C101.207 85.8987 101.068 85.3664 101.068 84.7292C101.068 84.1927 101.167 83.742 101.364 83.3773C101.562 83.0126 101.831 82.7191 102.171 82.497C102.512 82.2748 102.898 82.1071 103.331 81.9939C103.768 81.8807 104.226 81.8012 104.705 81.755C105.268 81.6964 105.722 81.6418 106.067 81.5916C106.411 81.537 106.661 81.4574 106.817 81.3526C106.972 81.2478 107.05 81.0927 107.05 80.8873V80.8495C107.05 80.4514 106.924 80.1433 106.672 79.9252C106.424 79.7072 106.071 79.5982 105.613 79.5982C105.13 79.5982 104.745 79.7051 104.459 79.9189C104.174 80.1285 103.984 80.3926 103.892 80.7112L101.408 80.51C101.535 79.9231 101.782 79.416 102.152 78.9883C102.522 78.5565 102.999 78.2254 103.583 77.9949C104.171 77.7602 104.852 77.6427 105.625 77.6427C106.163 77.6427 106.678 77.7056 107.17 77.8313C107.666 77.9571 108.105 78.152 108.487 78.4162C108.874 78.6802 109.178 79.0198 109.401 79.4348C109.624 79.8456 109.735 80.3381 109.735 80.9124V87.4267H107.189V86.0874H107.113C106.957 86.3892 106.749 86.6553 106.489 86.886C106.228 87.1123 105.915 87.2904 105.55 87.4204C105.184 87.5462 104.762 87.6091 104.283 87.6091ZM105.052 85.7604C105.447 85.7604 105.796 85.6828 106.098 85.5277C106.401 85.3685 106.638 85.1547 106.81 84.8863C106.983 84.6181 107.069 84.3142 107.069 83.9746V82.9497C106.985 83.0042 106.869 83.0545 106.722 83.1006C106.579 83.1425 106.418 83.1824 106.237 83.2201C106.056 83.2537 105.875 83.2851 105.695 83.3144C105.514 83.3395 105.35 83.3627 105.203 83.3836C104.888 83.4297 104.613 83.503 104.377 83.6037C104.142 83.7043 103.959 83.8405 103.829 84.0124C103.699 84.18 103.634 84.3897 103.634 84.6412C103.634 85.0058 103.766 85.2846 104.031 85.4774C104.3 85.6661 104.64 85.7604 105.052 85.7604ZM111.818 87.4267V77.7685H114.378V79.4725H114.491C114.693 78.9066 115.029 78.4601 115.499 78.1332C115.97 77.8062 116.533 77.6427 117.189 77.6427C117.852 77.6427 118.418 77.8083 118.884 78.1395C119.351 78.4664 119.662 78.9108 119.817 79.4725H119.918C120.115 78.9192 120.473 78.477 120.99 78.1457C121.511 77.8104 122.127 77.6427 122.837 77.6427C123.74 77.6427 124.473 77.9299 125.037 78.5042C125.603 79.0743 125.887 79.8833 125.887 80.9313V87.4267H123.208V81.4595C123.208 80.9229 123.065 80.5205 122.78 80.2522C122.494 79.9839 122.137 79.8498 121.708 79.8498C121.22 79.8498 120.841 80.0049 120.567 80.3151C120.294 80.6211 120.157 81.0256 120.157 81.5287V87.4267H117.554V81.4029C117.554 80.9292 117.417 80.552 117.144 80.2711C116.876 79.9902 116.521 79.8498 116.079 79.8498C115.781 79.8498 115.513 79.9252 115.273 80.0762C115.038 80.2228 114.85 80.4303 114.712 80.6987C114.573 80.9627 114.503 81.2729 114.503 81.6293V87.4267H111.818ZM132.421 87.6154C131.424 87.6154 130.568 87.4141 129.849 87.0117C129.135 86.6051 128.584 86.0307 128.197 85.2888C127.811 84.5426 127.618 83.6602 127.618 82.6416C127.618 81.6481 127.811 80.7762 128.197 80.0258C128.584 79.2755 129.128 78.6908 129.83 78.2716C130.536 77.8524 131.363 77.6427 132.313 77.6427C132.952 77.6427 133.547 77.7454 134.097 77.9508C134.651 78.152 135.135 78.4559 135.547 78.8626C135.963 79.2692 136.287 79.7806 136.517 80.3968C136.749 81.0089 136.865 81.7257 136.865 82.5473V83.283H128.689V81.623H134.336C134.336 81.2373 134.253 80.8957 134.085 80.598C133.917 80.3004 133.683 80.0678 133.385 79.9001C133.091 79.7283 132.749 79.6423 132.357 79.6423C131.95 79.6423 131.588 79.7366 131.273 79.9252C130.963 80.1097 130.719 80.3591 130.542 80.6735C130.366 80.9837 130.275 81.3295 130.272 81.711V83.2893C130.272 83.7671 130.359 84.18 130.536 84.528C130.717 84.8759 130.971 85.1442 131.299 85.3329C131.626 85.5214 132.016 85.6157 132.465 85.6157C132.763 85.6157 133.036 85.5739 133.284 85.49C133.532 85.4061 133.744 85.2804 133.92 85.1127C134.097 84.9451 134.232 84.7397 134.324 84.4966L136.808 84.66C136.682 85.2553 136.423 85.7751 136.033 86.2194C135.645 86.6595 135.145 87.0033 134.532 87.2506C133.923 87.4937 133.219 87.6154 132.421 87.6154ZM140.186 87.5901C139.77 87.5901 139.413 87.4435 139.114 87.15C138.821 86.8524 138.673 86.4961 138.673 86.0811C138.673 85.6703 138.821 85.3181 139.114 85.0247C139.413 84.7313 139.77 84.5845 140.186 84.5845C140.59 84.5845 140.943 84.7313 141.246 85.0247C141.547 85.3181 141.699 85.6703 141.699 86.0811C141.699 86.3577 141.627 86.6114 141.485 86.8419C141.347 87.0682 141.164 87.2506 140.936 87.3889C140.71 87.5231 140.459 87.5901 140.186 87.5901ZM140.186 80.8244C139.77 80.8244 139.413 80.6777 139.114 80.3843C138.821 80.0908 138.673 79.7345 138.673 79.3154C138.673 78.9045 138.821 78.5545 139.114 78.2652C139.413 77.9718 139.77 77.8251 140.186 77.8251C140.59 77.8251 140.943 77.9718 141.246 78.2652C141.547 78.5545 141.699 78.9045 141.699 79.3154C141.699 79.5961 141.627 79.8519 141.485 80.0824C141.347 80.3088 141.164 80.4891 140.936 80.6232C140.71 80.7574 140.459 80.8244 140.186 80.8244Z" fill="#0B5793"/>
<path d="M22.1875 101.813C22.1875 98.7574 24.6709 96.28 27.7344 96.28H320.609C323.672 96.28 326.156 98.7574 326.156 101.813V118.413C326.156 121.469 323.672 123.947 320.609 123.947H27.7344C24.6709 123.947 22.1875 121.469 22.1875 118.413V101.813Z" fill="#EDEDED"/>
<path d="M22.1875 101.813C22.1875 98.7574 24.6709 96.28 27.7344 96.28H320.609C323.672 96.28 326.156 98.7574 326.156 101.813V118.413C326.156 121.469 323.672 123.947 320.609 123.947H27.7344C24.6709 123.947 22.1875 121.469 22.1875 118.413V101.813Z" fill="#EDEDED"/>
<path d="M62.7478 108.694H60.9798C60.9293 108.405 60.8364 108.148 60.7009 107.925C60.5653 107.699 60.3967 107.507 60.195 107.35C59.9934 107.193 59.7633 107.075 59.5048 106.996C59.2495 106.914 58.9737 106.873 58.6775 106.873C58.1512 106.873 57.6847 107.006 57.2782 107.27C56.8717 107.531 56.5533 107.914 56.3232 108.42C56.0932 108.923 55.9782 109.538 55.9782 110.264C55.9782 111.003 56.0932 111.625 56.3232 112.132C56.5565 112.634 56.8748 113.015 57.2782 113.273C57.6847 113.527 58.1496 113.655 58.6728 113.655C58.9627 113.655 59.2338 113.617 59.4859 113.542C59.7412 113.463 59.9697 113.348 60.1714 113.198C60.3763 113.047 60.548 112.861 60.6867 112.641C60.8285 112.421 60.9262 112.17 60.9798 111.886L62.7478 111.896C62.6817 112.355 62.5383 112.786 62.3177 113.188C62.1002 113.59 61.815 113.946 61.4619 114.253C61.1091 114.559 60.6961 114.798 60.2234 114.97C59.7506 115.141 59.2259 115.225 58.6491 115.225C57.7982 115.225 57.0386 115.029 56.3706 114.636C55.7024 114.243 55.1761 113.676 54.7916 112.933C54.4071 112.192 54.2148 111.302 54.2148 110.264C54.2148 109.224 54.4086 108.334 54.7963 107.595C55.184 106.853 55.7118 106.286 56.38 105.893C57.0482 105.5 57.8046 105.303 58.6491 105.303C59.1881 105.303 59.6892 105.379 60.1524 105.53C60.6158 105.68 61.0286 105.902 61.3911 106.194C61.7535 106.484 62.0514 106.839 62.2845 107.26C62.521 107.678 62.6754 108.156 62.7478 108.694ZM67.4458 115.235C66.7367 115.235 66.1221 115.079 65.602 114.768C65.0821 114.457 64.6786 114.021 64.3918 113.462C64.1081 112.902 63.9664 112.248 63.9664 111.5C63.9664 110.752 64.1081 110.096 64.3918 109.533C64.6786 108.97 65.0821 108.533 65.602 108.222C66.1221 107.911 66.7367 107.755 67.4458 107.755C68.1549 107.755 68.7694 107.911 69.2895 108.222C69.8094 108.533 70.2114 108.97 70.4949 109.533C70.7818 110.096 70.9251 110.752 70.9251 111.5C70.9251 112.248 70.7818 112.902 70.4949 113.462C70.2114 114.021 69.8094 114.457 69.2895 114.768C68.7694 115.079 68.1549 115.235 67.4458 115.235ZM67.4552 113.867C67.8397 113.867 68.1612 113.762 68.4196 113.552C68.6781 113.337 68.8704 113.052 68.9964 112.693C69.1256 112.334 69.1902 111.935 69.1902 111.496C69.1902 111.052 69.1256 110.651 68.9964 110.293C68.8704 109.931 68.6781 109.643 68.4196 109.43C68.1612 109.216 67.8397 109.109 67.4552 109.109C67.0613 109.109 66.7335 109.216 66.4719 109.43C66.2135 109.643 66.0197 109.931 65.8905 110.293C65.7643 110.651 65.7013 111.052 65.7013 111.496C65.7013 111.935 65.7643 112.334 65.8905 112.693C66.0197 113.052 66.2135 113.337 66.4719 113.552C66.7335 113.762 67.0613 113.867 67.4552 113.867ZM72.3776 115.093V107.85H74.0134V109.081H74.0985C74.2497 108.666 74.5003 108.342 74.8501 108.109C75.2 107.873 75.6176 107.755 76.1029 107.755C76.5946 107.755 77.0089 107.875 77.3462 108.114C77.6866 108.35 77.9262 108.672 78.0649 109.081H78.1404C78.3011 108.678 78.5722 108.357 78.9536 108.118C79.3381 107.876 79.7935 107.755 80.3198 107.755C80.9879 107.755 81.5332 107.966 81.9555 108.387C82.3778 108.809 82.589 109.423 82.589 110.231V115.093H80.8729V110.495C80.8729 110.046 80.7531 109.717 80.5136 109.51C80.2741 109.299 79.981 109.194 79.6343 109.194C79.2215 109.194 78.8984 109.323 78.6651 109.58C78.4352 109.835 78.3201 110.167 78.3201 110.575V115.093H76.6419V110.425C76.6419 110.05 76.5284 109.752 76.3015 109.529C76.0777 109.305 75.7846 109.194 75.4222 109.194C75.1764 109.194 74.9526 109.257 74.7508 109.382C74.5491 109.505 74.3884 109.68 74.2687 109.906C74.1489 110.129 74.089 110.39 74.089 110.689V115.093H72.3776ZM84.3252 117.81V107.85H86.0081V109.048H86.1074C86.1956 108.871 86.3202 108.684 86.4808 108.486C86.6415 108.285 86.8591 108.114 87.1332 107.972C87.4075 107.828 87.7572 107.755 88.1827 107.755C88.7437 107.755 89.2496 107.898 89.7002 108.185C90.154 108.467 90.5134 108.887 90.7781 109.444C91.046 109.997 91.1799 110.677 91.1799 111.481C91.1799 112.277 91.0491 112.952 90.7875 113.509C90.526 114.065 90.1698 114.49 89.7192 114.782C89.2684 115.075 88.7579 115.221 88.1875 115.221C87.7714 115.221 87.4263 115.152 87.1522 115.014C86.8779 114.875 86.6573 114.708 86.4903 114.513C86.3264 114.315 86.1988 114.128 86.1074 113.952H86.0365V117.81H84.3252ZM86.0033 111.471C86.0033 111.94 86.0695 112.35 86.2019 112.702C86.3375 113.055 86.5313 113.329 86.7834 113.527C87.0387 113.722 87.3475 113.82 87.71 113.82C88.0882 113.82 88.4049 113.72 88.6602 113.519C88.9154 113.314 89.1077 113.036 89.2369 112.683C89.3693 112.328 89.4355 111.924 89.4355 111.471C89.4355 111.022 89.3709 110.623 89.2417 110.274C89.1125 109.925 88.9202 109.651 88.6649 109.453C88.4097 109.255 88.0913 109.156 87.71 109.156C87.3444 109.156 87.0339 109.252 86.7787 109.444C86.5234 109.635 86.3296 109.904 86.1972 110.25C86.068 110.596 86.0033 111.003 86.0033 111.471ZM97.2736 112.047V107.85H98.985V115.093H97.3256V113.806H97.2499C97.0861 114.211 96.8166 114.543 96.4415 114.801C96.0697 115.059 95.6112 115.187 95.0659 115.187C94.59 115.187 94.1692 115.082 93.8037 114.872C93.4412 114.658 93.1576 114.349 92.9528 113.942C92.7479 113.534 92.6455 113.04 92.6455 112.462V107.85H94.3568V112.198C94.3568 112.656 94.4828 113.022 94.735 113.292C94.9871 113.562 95.3181 113.698 95.7278 113.698C95.9798 113.698 96.2241 113.636 96.4605 113.513C96.6969 113.391 96.8907 113.209 97.0419 112.966C97.1964 112.722 97.2736 112.415 97.2736 112.047ZM104.371 107.85V109.17H100.196V107.85H104.371ZM101.227 106.114H102.938V112.914C102.938 113.144 102.973 113.32 103.042 113.443C103.115 113.562 103.209 113.644 103.326 113.688C103.443 113.732 103.572 113.754 103.714 113.754C103.821 113.754 103.918 113.747 104.007 113.73C104.098 113.714 104.167 113.7 104.215 113.688L104.503 115.022C104.412 115.053 104.281 115.089 104.111 115.127C103.944 115.164 103.739 115.186 103.496 115.192C103.067 115.205 102.681 115.141 102.338 114.999C101.994 114.854 101.722 114.631 101.52 114.33C101.321 114.028 101.224 113.65 101.227 113.198V106.114ZM108.939 115.235C108.211 115.235 107.582 115.083 107.052 114.782C106.526 114.477 106.121 114.046 105.837 113.49C105.554 112.93 105.412 112.271 105.412 111.514C105.412 110.768 105.554 110.115 105.837 109.552C106.124 108.986 106.524 108.546 107.038 108.232C107.552 107.914 108.155 107.755 108.849 107.755C109.296 107.755 109.719 107.828 110.116 107.972C110.516 108.114 110.869 108.334 111.175 108.633C111.483 108.931 111.726 109.312 111.903 109.774C112.079 110.233 112.168 110.78 112.168 111.415V111.938H106.216V110.787H110.527C110.524 110.461 110.453 110.17 110.314 109.915C110.176 109.657 109.982 109.455 109.733 109.307C109.487 109.159 109.2 109.085 108.872 109.085C108.523 109.085 108.215 109.17 107.951 109.34C107.686 109.507 107.479 109.727 107.331 110C107.186 110.27 107.112 110.568 107.109 110.891V111.896C107.109 112.317 107.186 112.679 107.341 112.981C107.495 113.28 107.711 113.509 107.988 113.669C108.266 113.826 108.59 113.905 108.962 113.905C109.211 113.905 109.437 113.87 109.638 113.801C109.84 113.729 110.015 113.624 110.163 113.485C110.311 113.347 110.423 113.175 110.499 112.971L112.097 113.15C111.996 113.572 111.804 113.939 111.52 114.253C111.239 114.565 110.88 114.807 110.442 114.98C110.004 115.15 109.503 115.235 108.939 115.235ZM113.616 115.093V107.85H115.274V109.057H115.351C115.483 108.639 115.709 108.317 116.031 108.09C116.356 107.861 116.726 107.746 117.142 107.746C117.237 107.746 117.342 107.751 117.458 107.76C117.578 107.766 117.678 107.777 117.757 107.793V109.363C117.684 109.338 117.569 109.316 117.412 109.297C117.257 109.275 117.107 109.265 116.963 109.265C116.651 109.265 116.37 109.332 116.121 109.467C115.875 109.599 115.681 109.783 115.539 110.019C115.397 110.255 115.326 110.527 115.326 110.835V115.093H113.616ZM122.271 115.093V105.435H128.568V106.902H124.025V109.524H128.242V110.991H124.025V113.627H128.605V115.093H122.271ZM131.993 110.849V115.093H130.282V107.85H131.918V109.081H132.002C132.17 108.675 132.436 108.353 132.801 108.114C133.171 107.875 133.625 107.755 134.168 107.755C134.669 107.755 135.105 107.862 135.477 108.076C135.852 108.29 136.143 108.6 136.347 109.005C136.555 109.411 136.657 109.903 136.654 110.481V115.093H134.943V110.745C134.943 110.261 134.817 109.882 134.565 109.609C134.316 109.335 133.97 109.198 133.53 109.198C133.23 109.198 132.964 109.265 132.731 109.397C132.5 109.525 132.32 109.712 132.186 109.958C132.058 110.203 131.993 110.5 131.993 110.849ZM141.552 117.961C140.937 117.961 140.409 117.878 139.969 117.711C139.527 117.547 139.172 117.327 138.905 117.05C138.636 116.773 138.451 116.467 138.347 116.131L139.888 115.758C139.958 115.9 140.059 116.04 140.191 116.178C140.323 116.32 140.501 116.436 140.724 116.526C140.952 116.622 141.237 116.668 141.581 116.668C142.065 116.668 142.468 116.551 142.785 116.315C143.104 116.082 143.264 115.699 143.264 115.164V113.792H143.178C143.091 113.968 142.961 114.148 142.791 114.334C142.623 114.52 142.402 114.675 142.124 114.801C141.85 114.926 141.505 114.989 141.089 114.989C140.531 114.989 140.025 114.859 139.572 114.599C139.12 114.334 138.762 113.941 138.493 113.419C138.228 112.894 138.096 112.237 138.096 111.448C138.096 110.652 138.228 109.981 138.493 109.434C138.762 108.884 139.122 108.467 139.576 108.185C140.03 107.898 140.536 107.755 141.094 107.755C141.519 107.755 141.869 107.828 142.143 107.972C142.42 108.114 142.641 108.285 142.804 108.486C142.969 108.684 143.093 108.871 143.178 109.048H143.272V107.85H144.961V115.212C144.961 115.83 144.812 116.343 144.516 116.749C144.22 117.154 143.815 117.457 143.301 117.659C142.788 117.86 142.204 117.961 141.552 117.961ZM141.566 113.65C141.929 113.65 142.237 113.562 142.493 113.386C142.748 113.21 142.942 112.957 143.074 112.627C143.207 112.297 143.272 111.901 143.272 111.438C143.272 110.983 143.207 110.583 143.074 110.241C142.945 109.898 142.753 109.632 142.498 109.444C142.245 109.252 141.935 109.156 141.566 109.156C141.185 109.156 140.866 109.255 140.611 109.453C140.356 109.651 140.164 109.923 140.034 110.269C139.906 110.612 139.841 111.002 139.841 111.438C139.841 111.882 139.906 112.27 140.034 112.603C140.167 112.933 140.36 113.191 140.616 113.377C140.874 113.559 141.191 113.65 141.566 113.65ZM146.715 115.093V107.85H148.426V115.093H146.715ZM147.575 106.822C147.304 106.822 147.071 106.732 146.876 106.553C146.679 106.37 146.582 106.152 146.582 105.897C146.582 105.64 146.679 105.421 146.876 105.242C147.071 105.059 147.304 104.968 147.575 104.968C147.849 104.968 148.083 105.059 148.275 105.242C148.47 105.421 148.568 105.64 148.568 105.897C148.568 106.152 148.47 106.37 148.275 106.553C148.083 106.732 147.849 106.822 147.575 106.822ZM151.897 110.849V115.093H150.186V107.85H151.821V109.081H151.907C152.073 108.675 152.339 108.353 152.705 108.114C153.074 107.875 153.53 107.755 154.071 107.755C154.573 107.755 155.01 107.862 155.381 108.076C155.756 108.29 156.046 108.6 156.251 109.005C156.458 109.411 156.562 109.903 156.558 110.481V115.093H154.847V110.745C154.847 110.261 154.721 109.882 154.468 109.609C154.22 109.335 153.875 109.198 153.433 109.198C153.134 109.198 152.867 109.265 152.634 109.397C152.405 109.525 152.223 109.712 152.091 109.958C151.961 110.203 151.897 110.5 151.897 110.849ZM161.513 115.235C160.785 115.235 160.156 115.083 159.626 114.782C159.1 114.477 158.695 114.046 158.411 113.49C158.128 112.93 157.986 112.271 157.986 111.514C157.986 110.768 158.128 110.115 158.411 109.552C158.698 108.986 159.099 108.546 159.612 108.232C160.126 107.914 160.73 107.755 161.423 107.755C161.87 107.755 162.293 107.828 162.69 107.972C163.09 108.114 163.443 108.334 163.748 108.633C164.058 108.931 164.301 109.312 164.477 109.774C164.653 110.233 164.741 110.78 164.741 111.415V111.938H158.789V110.787H163.101C163.098 110.461 163.027 110.17 162.888 109.915C162.75 109.657 162.556 109.455 162.307 109.307C162.061 109.159 161.775 109.085 161.446 109.085C161.097 109.085 160.789 109.17 160.524 109.34C160.26 109.507 160.053 109.727 159.905 110C159.76 110.27 159.686 110.568 159.683 110.891V111.896C159.683 112.317 159.76 112.679 159.914 112.981C160.07 113.28 160.285 113.509 160.562 113.669C160.839 113.826 161.164 113.905 161.536 113.905C161.786 113.905 162.011 113.87 162.212 113.801C162.414 113.729 162.589 113.624 162.736 113.485C162.885 113.347 162.997 113.175 163.073 112.971L164.67 113.15C164.569 113.572 164.377 113.939 164.093 114.253C163.814 114.565 163.454 114.807 163.016 114.98C162.578 115.15 162.076 115.235 161.513 115.235ZM169.404 115.235C168.676 115.235 168.047 115.083 167.518 114.782C166.991 114.477 166.586 114.046 166.303 113.49C166.019 112.93 165.877 112.271 165.877 111.514C165.877 110.768 166.019 110.115 166.303 109.552C166.589 108.986 166.99 108.546 167.503 108.232C168.017 107.914 168.621 107.755 169.314 107.755C169.762 107.755 170.184 107.828 170.581 107.972C170.981 108.114 171.334 108.334 171.64 108.633C171.949 108.931 172.192 109.312 172.368 109.774C172.544 110.233 172.633 110.78 172.633 111.415V111.938H166.681V110.787H170.992C170.989 110.461 170.918 110.17 170.779 109.915C170.641 109.657 170.447 109.455 170.198 109.307C169.952 109.159 169.666 109.085 169.337 109.085C168.988 109.085 168.68 109.17 168.415 109.34C168.151 109.507 167.945 109.727 167.796 110C167.652 110.27 167.578 110.568 167.574 110.891V111.896C167.574 112.317 167.652 112.679 167.806 112.981C167.96 113.28 168.177 113.509 168.454 113.669C168.732 113.826 169.055 113.905 169.427 113.905C169.677 113.905 169.902 113.87 170.104 113.801C170.306 113.729 170.48 113.624 170.629 113.485C170.776 113.347 170.888 113.175 170.964 112.971L172.562 113.15C172.461 113.572 172.268 113.939 171.985 114.253C171.705 114.565 171.345 114.807 170.907 114.98C170.469 115.15 169.968 115.235 169.404 115.235ZM174.081 115.093V107.85H175.739V109.057H175.816C175.948 108.639 176.174 108.317 176.496 108.09C176.821 107.861 177.192 107.746 177.608 107.746C177.702 107.746 177.807 107.751 177.924 107.76C178.044 107.766 178.143 107.777 178.222 107.793V109.363C178.149 109.338 178.035 109.316 177.876 109.297C177.722 109.275 177.572 109.265 177.428 109.265C177.115 109.265 176.835 109.332 176.586 109.467C176.341 109.599 176.147 109.783 176.005 110.019C175.863 110.255 175.792 110.527 175.792 110.835V115.093H174.081ZM179.358 115.093V107.85H181.07V115.093H179.358ZM180.219 106.822C179.948 106.822 179.714 106.732 179.519 106.553C179.324 106.37 179.226 106.152 179.226 105.897C179.226 105.64 179.324 105.421 179.519 105.242C179.714 105.059 179.948 104.968 180.219 104.968C180.493 104.968 180.726 105.059 180.919 105.242C181.114 105.421 181.212 105.64 181.212 105.897C181.212 106.152 181.114 106.37 180.919 106.553C180.726 106.732 180.493 106.822 180.219 106.822ZM184.541 110.849V115.093H182.829V107.85H184.466V109.081H184.55C184.718 108.675 184.984 108.353 185.35 108.114C185.718 107.875 186.174 107.755 186.716 107.755C187.217 107.755 187.653 107.862 188.026 108.076C188.401 108.29 188.69 108.6 188.896 109.005C189.103 109.411 189.205 109.903 189.203 110.481V115.093H187.491V110.745C187.491 110.261 187.365 109.882 187.113 109.609C186.864 109.335 186.519 109.198 186.078 109.198C185.778 109.198 185.512 109.265 185.279 109.397C185.048 109.525 184.867 109.712 184.735 109.958C184.606 110.203 184.541 110.5 184.541 110.849ZM194.1 117.961C193.485 117.961 192.958 117.878 192.517 117.711C192.075 117.547 191.721 117.327 191.453 117.05C191.185 116.773 190.999 116.467 190.895 116.131L192.436 115.758C192.505 115.9 192.606 116.04 192.738 116.178C192.87 116.32 193.049 116.436 193.273 116.526C193.499 116.622 193.785 116.668 194.128 116.668C194.613 116.668 195.016 116.551 195.334 116.315C195.653 116.082 195.811 115.699 195.811 115.164V113.792H195.726C195.638 113.968 195.509 114.148 195.339 114.334C195.171 114.52 194.949 114.675 194.672 114.801C194.398 114.926 194.053 114.989 193.637 114.989C193.079 114.989 192.573 114.859 192.119 114.599C191.669 114.334 191.31 113.941 191.041 113.419C190.777 112.894 190.644 112.237 190.644 111.448C190.644 110.652 190.777 109.981 191.041 109.434C191.31 108.884 191.67 108.467 192.124 108.185C192.578 107.898 193.083 107.755 193.641 107.755C194.067 107.755 194.417 107.828 194.691 107.972C194.968 108.114 195.189 108.285 195.353 108.486C195.516 108.684 195.642 108.871 195.726 109.048H195.821V107.85H197.509V115.212C197.509 115.83 197.36 116.343 197.064 116.749C196.768 117.154 196.363 117.457 195.849 117.659C195.335 117.86 194.752 117.961 194.1 117.961ZM194.114 113.65C194.477 113.65 194.785 113.562 195.04 113.386C195.297 113.21 195.49 112.957 195.623 112.627C195.755 112.297 195.821 111.901 195.821 111.438C195.821 110.983 195.755 110.583 195.623 110.241C195.493 109.898 195.301 109.632 195.046 109.444C194.793 109.252 194.483 109.156 194.114 109.156C193.732 109.156 193.415 109.255 193.159 109.453C192.904 109.651 192.712 109.923 192.583 110.269C192.453 110.612 192.389 111.002 192.389 111.438C192.389 111.882 192.453 112.27 192.583 112.603C192.715 112.933 192.909 113.191 193.164 113.377C193.423 113.559 193.739 113.65 194.114 113.65ZM204.654 115.239C204.194 115.239 203.78 115.158 203.411 114.995C203.046 114.828 202.755 114.582 202.541 114.259C202.33 113.935 202.225 113.535 202.225 113.06C202.225 112.652 202.3 112.314 202.451 112.047C202.602 111.78 202.809 111.565 203.07 111.406C203.332 111.245 203.627 111.124 203.954 111.042C204.286 110.958 204.628 110.896 204.98 110.858C205.405 110.815 205.751 110.775 206.015 110.741C206.281 110.703 206.472 110.646 206.592 110.571C206.715 110.492 206.776 110.371 206.776 110.208V110.179C206.776 109.824 206.671 109.549 206.46 109.354C206.248 109.159 205.944 109.062 205.547 109.062C205.128 109.062 204.796 109.153 204.55 109.335C204.307 109.517 204.144 109.733 204.058 109.981L202.461 109.755C202.586 109.315 202.795 108.947 203.084 108.651C203.375 108.353 203.729 108.13 204.148 107.982C204.568 107.831 205.03 107.755 205.538 107.755C205.888 107.755 206.236 107.796 206.583 107.878C206.93 107.96 207.247 108.095 207.533 108.284C207.82 108.469 208.05 108.722 208.223 109.043C208.399 109.363 208.488 109.764 208.488 110.245V115.093H206.843V114.098H206.786C206.682 114.3 206.536 114.488 206.346 114.664C206.161 114.837 205.926 114.977 205.643 115.083C205.362 115.187 205.032 115.239 204.654 115.239ZM205.098 113.986C205.442 113.986 205.74 113.917 205.992 113.782C206.244 113.644 206.438 113.462 206.573 113.235C206.712 113.008 206.782 112.762 206.782 112.495V111.642C206.728 111.685 206.637 111.726 206.507 111.763C206.381 111.802 206.239 111.834 206.082 111.863C205.924 111.892 205.768 111.916 205.614 111.938C205.46 111.96 205.325 111.979 205.212 111.995C204.957 112.03 204.729 112.087 204.527 112.165C204.325 112.244 204.166 112.353 204.048 112.495C203.932 112.633 203.874 112.812 203.874 113.033C203.874 113.347 203.989 113.584 204.219 113.744C204.449 113.905 204.742 113.986 205.098 113.986ZM215.948 109.764L214.388 109.934C214.343 109.777 214.267 109.629 214.156 109.491C214.049 109.352 213.904 109.241 213.721 109.156C213.538 109.071 213.315 109.029 213.05 109.029C212.694 109.029 212.394 109.106 212.151 109.26C211.913 109.414 211.794 109.613 211.797 109.859C211.794 110.069 211.872 110.241 212.029 110.373C212.19 110.505 212.454 110.613 212.824 110.698L214.062 110.962C214.748 111.11 215.26 111.344 215.594 111.665C215.931 111.986 216.101 112.405 216.104 112.924C216.101 113.38 215.966 113.782 215.702 114.132C215.441 114.477 215.077 114.747 214.61 114.943C214.144 115.138 213.608 115.235 213.002 115.235C212.114 115.235 211.398 115.049 210.857 114.678C210.314 114.304 209.991 113.784 209.887 113.117L211.557 112.957C211.632 113.284 211.793 113.531 212.038 113.698C212.284 113.864 212.604 113.947 212.998 113.947C213.405 113.947 213.731 113.864 213.976 113.698C214.226 113.531 214.35 113.325 214.35 113.079C214.35 112.872 214.27 112.701 214.109 112.566C213.952 112.431 213.706 112.327 213.372 112.255L212.132 111.995C211.437 111.851 210.921 111.606 210.587 111.264C210.253 110.918 210.088 110.481 210.09 109.953C210.088 109.507 210.209 109.12 210.455 108.793C210.704 108.463 211.049 108.208 211.49 108.029C211.934 107.847 212.446 107.755 213.027 107.755C213.878 107.755 214.548 107.936 215.036 108.298C215.527 108.659 215.831 109.148 215.948 109.764ZM222.907 115.239C222.446 115.239 222.033 115.158 221.663 114.995C221.298 114.828 221.007 114.582 220.793 114.259C220.583 113.935 220.477 113.535 220.477 113.06C220.477 112.652 220.553 112.314 220.704 112.047C220.855 111.78 221.062 111.565 221.323 111.406C221.584 111.245 221.879 111.124 222.207 111.042C222.538 110.958 222.88 110.896 223.233 110.858C223.659 110.815 224.004 110.775 224.268 110.741C224.533 110.703 224.725 110.646 224.845 110.571C224.968 110.492 225.029 110.371 225.029 110.208V110.179C225.029 109.824 224.924 109.549 224.713 109.354C224.502 109.159 224.197 109.062 223.8 109.062C223.382 109.062 223.049 109.153 222.802 109.335C222.561 109.517 222.396 109.733 222.311 109.981L220.714 109.755C220.839 109.315 221.047 108.947 221.337 108.651C221.628 108.353 221.982 108.13 222.401 107.982C222.82 107.831 223.284 107.755 223.791 107.755C224.14 107.755 224.489 107.796 224.836 107.878C225.182 107.96 225.499 108.095 225.786 108.284C226.073 108.469 226.303 108.722 226.476 109.043C226.652 109.363 226.741 109.764 226.741 110.245V115.093H225.096V114.098H225.039C224.935 114.3 224.788 114.488 224.6 114.664C224.413 114.837 224.178 114.977 223.895 115.083C223.615 115.187 223.285 115.239 222.907 115.239ZM223.352 113.986C223.694 113.986 223.993 113.917 224.245 113.782C224.496 113.644 224.691 113.462 224.826 113.235C224.965 113.008 225.035 112.762 225.035 112.495V111.642C224.98 111.685 224.889 111.726 224.759 111.763C224.634 111.802 224.492 111.834 224.334 111.863C224.177 111.892 224.021 111.916 223.866 111.938C223.712 111.96 223.578 111.979 223.465 111.995C223.21 112.03 222.981 112.087 222.779 112.165C222.577 112.244 222.419 112.353 222.302 112.495C222.185 112.633 222.127 112.812 222.127 113.033C222.127 113.347 222.242 113.584 222.472 113.744C222.701 113.905 222.995 113.986 223.352 113.986ZM235.12 115.093H231.839V105.435H235.186C236.147 105.435 236.974 105.628 237.664 106.015C238.357 106.399 238.889 106.95 239.261 107.67C239.633 108.39 239.819 109.252 239.819 110.255C239.819 111.261 239.632 112.125 239.257 112.849C238.885 113.572 238.347 114.126 237.645 114.513C236.945 114.9 236.104 115.093 235.12 115.093ZM233.593 113.579H235.036C235.71 113.579 236.272 113.457 236.723 113.212C237.173 112.963 237.513 112.593 237.739 112.103C237.967 111.61 238.08 110.993 238.08 110.255C238.08 109.516 237.967 108.903 237.739 108.416C237.513 107.925 237.177 107.559 236.732 107.317C236.291 107.072 235.742 106.949 235.087 106.949H233.593V113.579ZM241.41 115.093V107.85H243.122V115.093H241.41ZM242.271 106.822C241.999 106.822 241.766 106.732 241.571 106.553C241.376 106.37 241.278 106.152 241.278 105.897C241.278 105.64 241.376 105.421 241.571 105.242C241.766 105.059 241.999 104.968 242.271 104.968C242.545 104.968 242.778 105.059 242.97 105.242C243.165 105.421 243.263 105.64 243.263 105.897C243.263 106.152 243.165 106.37 242.97 106.553C242.778 106.732 242.545 106.822 242.271 106.822ZM250.62 109.764L249.06 109.934C249.016 109.777 248.939 109.629 248.828 109.491C248.722 109.352 248.577 109.241 248.394 109.156C248.21 109.071 247.987 109.029 247.722 109.029C247.366 109.029 247.067 109.106 246.824 109.26C246.584 109.414 246.467 109.613 246.47 109.859C246.467 110.069 246.544 110.241 246.702 110.373C246.861 110.505 247.127 110.613 247.495 110.698L248.734 110.962C249.421 111.11 249.931 111.344 250.266 111.665C250.603 111.986 250.773 112.405 250.776 112.924C250.773 113.38 250.639 113.782 250.375 114.132C250.113 114.477 249.749 114.747 249.282 114.943C248.816 115.138 248.28 115.235 247.675 115.235C246.786 115.235 246.07 115.049 245.529 114.678C244.987 114.304 244.664 113.784 244.56 113.117L246.228 112.957C246.305 113.284 246.464 113.531 246.711 113.698C246.957 113.864 247.276 113.947 247.67 113.947C248.077 113.947 248.404 113.864 248.649 113.698C248.898 113.531 249.023 113.325 249.023 113.079C249.023 112.872 248.942 112.701 248.782 112.566C248.624 112.431 248.378 112.327 248.044 112.255L246.805 111.995C246.108 111.851 245.593 111.606 245.26 111.264C244.926 110.918 244.76 110.481 244.763 109.953C244.76 109.507 244.881 109.12 245.128 108.793C245.376 108.463 245.721 108.208 246.163 108.029C246.606 107.847 247.119 107.755 247.699 107.755C248.55 107.755 249.219 107.936 249.708 108.298C250.2 108.659 250.504 109.148 250.62 109.764ZM255.355 115.235C254.63 115.235 254.007 115.076 253.488 114.758C252.971 114.442 252.571 114.002 252.292 113.443C252.015 112.88 251.876 112.233 251.876 111.5C251.876 110.764 252.017 110.115 252.301 109.552C252.585 108.986 252.985 108.546 253.502 108.232C254.021 107.914 254.636 107.755 255.345 107.755C255.935 107.755 256.456 107.864 256.91 108.081C257.367 108.295 257.731 108.598 258.002 108.991C258.274 109.381 258.428 109.837 258.466 110.359H256.83C256.764 110.01 256.606 109.719 256.357 109.486C256.111 109.25 255.782 109.132 255.369 109.132C255.019 109.132 254.711 109.227 254.447 109.415C254.182 109.601 253.976 109.868 253.828 110.217C253.683 110.566 253.611 110.984 253.611 111.471C253.611 111.965 253.683 112.39 253.828 112.745C253.973 113.097 254.176 113.369 254.437 113.561C254.703 113.75 255.013 113.844 255.369 113.844C255.621 113.844 255.846 113.796 256.045 113.702C256.247 113.605 256.415 113.464 256.551 113.283C256.686 113.1 256.779 112.879 256.83 112.618H258.466C258.424 113.13 258.274 113.584 258.012 113.98C257.75 114.373 257.394 114.682 256.943 114.905C256.493 115.124 255.963 115.235 255.355 115.235ZM259.871 115.093V107.85H261.582V115.093H259.871ZM260.731 106.822C260.46 106.822 260.227 106.732 260.032 106.553C259.836 106.37 259.738 106.152 259.738 105.897C259.738 105.64 259.836 105.421 260.032 105.242C260.227 105.059 260.46 104.968 260.731 104.968C261.005 104.968 261.239 105.059 261.431 105.242C261.626 105.421 261.724 105.64 261.724 105.897C261.724 106.152 261.626 106.37 261.431 106.553C261.239 106.732 261.005 106.822 260.731 106.822ZM263.342 117.81V107.85H265.025V109.048H265.124C265.213 108.871 265.337 108.684 265.498 108.486C265.659 108.285 265.876 108.114 266.15 107.972C266.424 107.828 266.774 107.755 267.2 107.755C267.761 107.755 268.266 107.898 268.717 108.185C269.171 108.467 269.53 108.887 269.794 109.444C270.063 109.997 270.197 110.677 270.197 111.481C270.197 112.277 270.066 112.952 269.804 113.509C269.543 114.065 269.187 114.49 268.736 114.782C268.286 115.075 267.774 115.221 267.204 115.221C266.788 115.221 266.443 115.152 266.169 115.014C265.895 114.875 265.674 114.708 265.507 114.513C265.344 114.315 265.215 114.128 265.124 113.952H265.053V117.81H263.342ZM265.02 111.471C265.02 111.94 265.086 112.35 265.218 112.702C265.354 113.055 265.548 113.329 265.8 113.527C266.056 113.722 266.364 113.82 266.727 113.82C267.105 113.82 267.422 113.72 267.677 113.519C267.932 113.314 268.125 113.036 268.254 112.683C268.386 112.328 268.452 111.924 268.452 111.471C268.452 111.022 268.388 110.623 268.258 110.274C268.129 109.925 267.937 109.651 267.681 109.453C267.426 109.255 267.108 109.156 266.727 109.156C266.361 109.156 266.05 109.252 265.795 109.444C265.54 109.635 265.346 109.904 265.214 110.25C265.085 110.596 265.02 111.003 265.02 111.471ZM273.373 105.435V115.093H271.663V105.435H273.373ZM275.133 115.093V107.85H276.845V115.093H275.133ZM275.994 106.822C275.723 106.822 275.489 106.732 275.294 106.553C275.098 106.37 275.001 106.152 275.001 105.897C275.001 105.64 275.098 105.421 275.294 105.242C275.489 105.059 275.723 104.968 275.994 104.968C276.268 104.968 276.501 105.059 276.694 105.242C276.889 105.421 276.987 105.64 276.987 105.897C276.987 106.152 276.889 106.37 276.694 106.553C276.501 106.732 276.268 106.822 275.994 106.822ZM280.316 110.849V115.093H278.604V107.85H280.24V109.081H280.326C280.492 108.675 280.758 108.353 281.125 108.114C281.493 107.875 281.949 107.755 282.49 107.755C282.992 107.755 283.428 107.862 283.8 108.076C284.175 108.29 284.465 108.6 284.67 109.005C284.878 109.411 284.981 109.903 284.977 110.481V115.093H283.266V110.745C283.266 110.261 283.139 109.882 282.887 109.609C282.639 109.335 282.294 109.198 281.852 109.198C281.553 109.198 281.286 109.265 281.054 109.397C280.823 109.525 280.642 109.712 280.51 109.958C280.38 110.203 280.316 110.5 280.316 110.849ZM289.932 115.235C289.203 115.235 288.575 115.083 288.045 114.782C287.519 114.477 287.114 114.046 286.83 113.49C286.546 112.93 286.405 112.271 286.405 111.514C286.405 110.768 286.546 110.115 286.83 109.552C287.117 108.986 287.517 108.546 288.031 108.232C288.545 107.914 289.149 107.755 289.842 107.755C290.289 107.755 290.712 107.828 291.109 107.972C291.508 108.114 291.862 108.334 292.167 108.633C292.477 108.931 292.719 109.312 292.895 109.774C293.072 110.233 293.16 110.78 293.16 111.415V111.938H287.208V110.787H291.519C291.517 110.461 291.446 110.17 291.307 109.915C291.169 109.657 290.975 109.455 290.725 109.307C290.48 109.159 290.193 109.085 289.865 109.085C289.516 109.085 289.209 109.17 288.943 109.34C288.678 109.507 288.472 109.727 288.324 110C288.179 110.27 288.105 110.568 288.101 110.891V111.896C288.101 112.317 288.179 112.679 288.333 112.981C288.487 113.28 288.704 113.509 288.981 113.669C289.258 113.826 289.584 113.905 289.955 113.905C290.204 113.905 290.429 113.87 290.631 113.801C290.833 113.729 291.008 113.624 291.155 113.485C291.304 113.347 291.416 113.175 291.492 112.971L293.089 113.15C292.988 113.572 292.796 113.939 292.512 114.253C292.232 114.565 291.873 114.807 291.435 114.98C290.997 115.15 290.495 115.235 289.932 115.235Z" fill="#0B5793"/>
<path d="M34.107 143.163V156.04H31.7496L26.1334 147.935H26.0389V156.04H23.3096V143.163H25.7048L31.2769 151.261H31.3904V143.163H34.107ZM42.5203 151.928V146.382H45.2055V156.04H42.6275V154.286H42.5266C42.3081 154.851 41.9446 155.306 41.4362 155.65C40.9319 155.994 40.3163 156.166 39.5893 156.166C38.9421 156.166 38.3728 156.019 37.8811 155.726C37.3894 155.432 37.0049 155.015 36.7276 154.474C36.4544 153.934 36.3158 153.286 36.3116 152.532V146.382H38.9968V152.054C39.001 152.624 39.1543 153.074 39.457 153.405C39.7595 153.737 40.165 153.902 40.6735 153.902C40.997 153.902 41.2995 153.829 41.5811 153.682C41.8626 153.531 42.0896 153.309 42.2619 153.015C42.4384 152.722 42.5245 152.359 42.5203 151.928ZM47.3534 156.04V146.382H49.9125V148.085H50.026C50.2277 147.52 50.5638 147.074 51.0344 146.746C51.5051 146.42 52.0682 146.256 52.7238 146.256C53.3877 146.256 53.9528 146.422 54.4193 146.753C54.8857 147.079 55.1967 147.524 55.3522 148.085H55.453C55.6505 147.532 56.0077 147.09 56.5246 146.759C57.0457 146.424 57.6613 146.256 58.3715 146.256C59.275 146.256 60.0082 146.544 60.5713 147.118C61.1386 147.688 61.4223 148.497 61.4223 149.545V156.04H58.7433V150.073C58.7433 149.536 58.6005 149.133 58.3147 148.865C58.029 148.598 57.6718 148.463 57.2431 148.463C56.7557 148.463 56.3754 148.619 56.1023 148.929C55.8291 149.234 55.6926 149.639 55.6926 150.141V156.04H53.0893V150.016C53.0893 149.543 52.9527 149.165 52.6796 148.884C52.4107 148.603 52.0556 148.463 51.6144 148.463C51.316 148.463 51.0471 148.539 50.8075 148.69C50.5722 148.837 50.3852 149.044 50.2465 149.311C50.1079 149.576 50.0385 149.886 50.0385 150.242V156.04H47.3534ZM63.5938 156.04V143.163H66.2789V148.004H66.3609C66.4785 147.744 66.6487 147.48 66.8714 147.212C67.0984 146.94 67.3925 146.713 67.7539 146.533C68.1194 146.348 68.5733 146.256 69.1153 146.256C69.8213 146.256 70.4727 146.441 71.0694 146.809C71.6661 147.174 72.143 147.726 72.5003 148.463C72.8574 149.196 73.036 150.117 73.036 151.224C73.036 152.301 72.8616 153.21 72.5128 153.953C72.1682 154.69 71.6976 155.25 71.1009 155.632C70.5084 156.009 69.8444 156.197 69.1091 156.197C68.588 156.197 68.1446 156.111 67.7791 155.939C67.4177 155.768 67.1215 155.552 66.8904 155.292C66.6592 155.027 66.4827 154.762 66.3609 154.493H66.2411V156.04H63.5938ZM66.2222 151.211C66.2222 151.785 66.3021 152.286 66.4617 152.713C66.6213 153.142 66.8525 153.475 67.1551 153.714C67.4576 153.948 67.8253 154.066 68.2581 154.066C68.6951 154.066 69.065 153.946 69.3675 153.707C69.67 153.464 69.8991 153.128 70.0545 152.701C70.2143 152.27 70.294 151.773 70.294 151.211C70.294 150.654 70.2164 150.162 70.0608 149.74C69.9054 149.316 69.6763 148.985 69.3738 148.746C69.0713 148.507 68.6993 148.387 68.2581 148.387C67.8211 148.387 67.4513 148.502 67.1487 148.734C66.8504 148.964 66.6213 149.292 66.4617 149.714C66.3021 150.138 66.2222 150.636 66.2222 151.211ZM79.24 156.228C78.244 156.228 77.3868 156.028 76.6683 155.625C75.9539 155.219 75.4034 154.644 75.0168 153.902C74.6303 153.156 74.4369 152.274 74.4369 151.255C74.4369 150.261 74.6303 149.39 75.0168 148.639C75.4034 147.888 75.9476 147.304 76.6493 146.885C77.3553 146.465 78.1831 146.256 79.1329 146.256C79.7715 146.256 80.3662 146.359 80.9166 146.565C81.4713 146.765 81.9546 147.069 82.3664 147.476C82.7824 147.883 83.106 148.394 83.3371 149.01C83.5683 149.622 83.6838 150.338 83.6838 151.161V151.897H75.5084V150.237H81.1562C81.1562 149.85 81.0722 149.508 80.9041 149.212C80.7359 148.914 80.5027 148.681 80.2044 148.514C79.9102 148.342 79.5678 148.256 79.1769 148.256C78.7693 148.256 78.408 148.35 78.0928 148.539C77.7819 148.723 77.5381 148.973 77.3616 149.287C77.1851 149.597 77.0947 149.943 77.0906 150.324V151.902C77.0906 152.38 77.1788 152.793 77.3553 153.142C77.536 153.489 77.7902 153.758 78.118 153.946C78.4457 154.134 78.8345 154.229 79.2841 154.229C79.5825 154.229 79.8556 154.187 80.1036 154.103C80.3515 154.019 80.5636 153.894 80.7401 153.726C80.9166 153.559 81.0511 153.353 81.1436 153.11L83.6271 153.273C83.501 153.869 83.2426 154.389 82.8517 154.833C82.4652 155.273 81.9651 155.616 81.3516 155.864C80.7423 156.108 80.0385 156.228 79.24 156.228ZM85.4361 156.04V146.382H88.0394V148.066H88.1402C88.3167 147.468 88.6129 147.015 89.029 146.709C89.445 146.399 89.924 146.244 90.4661 146.244C90.6006 146.244 90.7456 146.252 90.901 146.268C91.0566 146.286 91.1931 146.308 91.3107 146.338V148.715C91.1847 148.677 91.0103 148.643 90.7875 148.614C90.5649 148.584 90.3611 148.57 90.1762 148.57C89.7812 148.57 89.4282 148.656 89.1173 148.828C88.8105 148.995 88.5668 149.231 88.3861 149.532C88.2096 149.834 88.1213 150.181 88.1213 150.575V156.04H85.4361ZM101.182 156.228C100.203 156.228 99.3558 156.021 98.6415 155.606C97.9312 155.187 97.3829 154.605 96.9963 153.858C96.6097 153.107 96.4164 152.237 96.4164 151.248C96.4164 150.251 96.6097 149.379 96.9963 148.633C97.3829 147.883 97.9312 147.3 98.6415 146.885C99.3558 146.465 100.203 146.256 101.182 146.256C102.161 146.256 103.005 146.465 103.716 146.885C104.43 147.3 104.98 147.883 105.367 148.633C105.754 149.379 105.947 150.251 105.947 151.248C105.947 152.237 105.754 153.107 105.367 153.858C104.98 154.605 104.43 155.187 103.716 155.606C103.005 156.021 102.161 156.228 101.182 156.228ZM101.194 154.153C101.64 154.153 102.012 154.028 102.31 153.777C102.608 153.52 102.833 153.173 102.984 152.732C103.14 152.293 103.218 151.792 103.218 151.229C103.218 150.668 103.14 150.167 102.984 149.726C102.833 149.287 102.608 148.939 102.31 148.683C102.012 148.427 101.64 148.3 101.194 148.3C100.745 148.3 100.366 148.427 100.06 148.683C99.7572 148.939 99.5281 149.287 99.3727 149.726C99.2213 150.167 99.1457 150.668 99.1457 151.229C99.1457 151.792 99.2213 152.293 99.3727 152.732C99.5281 153.173 99.7572 153.52 100.06 153.777C100.366 154.028 100.745 154.153 101.194 154.153ZM112.899 146.382V148.394H106.924V146.382H112.899ZM108.292 156.04V145.684C108.292 144.983 108.428 144.403 108.701 143.942C108.979 143.482 109.357 143.135 109.836 142.905C110.315 142.674 110.859 142.559 111.469 142.559C111.881 142.559 112.257 142.591 112.597 142.653C112.941 142.716 113.197 142.772 113.366 142.823L112.887 144.835C112.781 144.802 112.652 144.77 112.496 144.741C112.344 144.711 112.189 144.697 112.029 144.697C111.634 144.697 111.359 144.789 111.204 144.973C111.048 145.154 110.971 145.407 110.971 145.735V156.04H108.292ZM124.857 151.928V146.382H127.542V156.04H124.963V154.286H124.864C124.645 154.851 124.281 155.306 123.773 155.65C123.268 155.994 122.653 156.166 121.926 156.166C121.278 156.166 120.709 156.019 120.217 155.726C119.726 155.432 119.341 155.015 119.064 154.474C118.791 153.934 118.652 153.286 118.648 152.532V146.382H121.334V152.054C121.338 152.624 121.491 153.074 121.794 153.405C122.096 153.737 122.502 153.902 123.01 153.902C123.334 153.902 123.635 153.829 123.917 153.682C124.199 153.531 124.426 153.309 124.598 153.015C124.775 152.722 124.861 152.359 124.857 151.928ZM132.375 150.457V156.04H129.689V146.382H132.249V148.085H132.362C132.577 147.524 132.936 147.079 133.44 146.753C133.945 146.422 134.556 146.256 135.275 146.256C135.947 146.256 136.533 146.403 137.033 146.696C137.533 146.99 137.922 147.409 138.199 147.954C138.477 148.495 138.615 149.14 138.615 149.89V156.04H135.93V150.368C135.934 149.777 135.783 149.316 135.476 148.985C135.17 148.65 134.747 148.481 134.209 148.481C133.848 148.481 133.529 148.56 133.252 148.715C132.978 148.87 132.763 149.096 132.608 149.393C132.457 149.687 132.38 150.042 132.375 150.457ZM140.732 156.04V146.382H143.417V156.04H140.732ZM142.08 145.137C141.682 145.137 141.339 145.004 141.053 144.741C140.772 144.472 140.631 144.152 140.631 143.778C140.631 143.41 140.772 143.093 141.053 142.829C141.339 142.561 141.682 142.427 142.08 142.427C142.479 142.427 142.82 142.561 143.102 142.829C143.387 143.093 143.53 143.41 143.53 143.778C143.53 144.152 143.387 144.472 143.102 144.741C142.82 145.004 142.479 145.137 142.08 145.137ZM150.718 146.382V148.394H144.887V146.382H150.718ZM146.21 144.068H148.896V153.072C148.896 153.32 148.934 153.512 149.009 153.651C149.085 153.785 149.19 153.879 149.324 153.934C149.463 153.988 149.623 154.015 149.803 154.015C149.93 154.015 150.055 154.005 150.182 153.984C150.308 153.958 150.405 153.94 150.471 153.927L150.894 155.92C150.76 155.963 150.57 156.01 150.327 156.065C150.083 156.124 149.787 156.16 149.438 156.172C148.791 156.197 148.224 156.111 147.736 155.914C147.253 155.717 146.877 155.411 146.607 154.996C146.339 154.581 146.207 154.057 146.21 153.424V144.068ZM160.401 149.136L157.943 149.287C157.901 149.077 157.81 148.889 157.671 148.721C157.532 148.549 157.35 148.413 157.123 148.312C156.9 148.207 156.634 148.155 156.323 148.155C155.907 148.155 155.556 148.244 155.27 148.419C154.984 148.591 154.841 148.821 154.841 149.111C154.841 149.341 154.934 149.536 155.118 149.695C155.304 149.855 155.621 149.983 156.07 150.079L157.823 150.431C158.764 150.624 159.466 150.934 159.929 151.362C160.39 151.789 160.622 152.351 160.622 153.046C160.622 153.679 160.435 154.235 160.061 154.713C159.69 155.191 159.182 155.564 158.535 155.832C157.892 156.096 157.151 156.228 156.31 156.228C155.029 156.228 154.007 155.963 153.247 155.43C152.49 154.893 152.047 154.164 151.917 153.242L154.558 153.104C154.638 153.494 154.831 153.791 155.137 153.996C155.445 154.197 155.837 154.298 156.317 154.298C156.787 154.298 157.165 154.208 157.451 154.028C157.741 153.843 157.887 153.606 157.892 153.318C157.887 153.074 157.785 152.875 157.583 152.72C157.382 152.561 157.071 152.439 156.65 152.355L154.974 152.022C154.028 151.834 153.325 151.506 152.862 151.041C152.404 150.575 152.175 149.983 152.175 149.262C152.175 148.641 152.343 148.106 152.679 147.658C153.019 147.21 153.497 146.864 154.11 146.621C154.728 146.378 155.451 146.256 156.279 146.256C157.501 146.256 158.463 146.514 159.165 147.03C159.871 147.545 160.284 148.247 160.401 149.136ZM163.881 156.204C163.465 156.204 163.108 156.057 162.811 155.763C162.516 155.466 162.369 155.109 162.369 154.694C162.369 154.284 162.516 153.932 162.811 153.639C163.108 153.344 163.465 153.198 163.881 153.198C164.285 153.198 164.638 153.344 164.941 153.639C165.244 153.932 165.395 154.284 165.395 154.694C165.395 154.971 165.324 155.224 165.18 155.456C165.042 155.681 164.859 155.864 164.632 156.002C164.405 156.136 164.155 156.204 163.881 156.204ZM163.881 149.438C163.465 149.438 163.108 149.292 162.811 148.997C162.516 148.704 162.369 148.348 162.369 147.928C162.369 147.518 162.516 147.168 162.811 146.879C163.108 146.585 163.465 146.439 163.881 146.439C164.285 146.439 164.638 146.585 164.941 146.879C165.244 147.168 165.395 147.518 165.395 147.928C165.395 148.209 165.324 148.465 165.18 148.696C165.042 148.922 164.859 149.102 164.632 149.236C164.405 149.37 164.155 149.438 163.881 149.438Z" fill="#0B5793"/>
<g filter="url(#filter1_d_410_1920)">
<path d="M160.859 182.6H11.0938C4.96684 182.6 0 187.555 0 193.667V216.907C0 223.019 4.96684 227.973 11.0938 227.973H160.859C166.986 227.973 171.953 223.019 171.953 216.907V193.667C171.953 187.555 166.986 182.6 160.859 182.6Z" fill="white"/>
<path d="M160.859 183.707H11.0938C5.57953 183.707 1.10938 188.166 1.10938 193.667V216.907C1.10938 222.407 5.57953 226.867 11.0938 226.867H160.859C166.374 226.867 170.844 222.407 170.844 216.907V193.667C170.844 188.166 166.374 183.707 160.859 183.707Z" stroke="#909090" stroke-opacity="0.25" stroke-width="2"/>
</g>
<path d="M13.4814 211.373V198.496H18.5745C19.5536 198.496 20.3877 198.682 21.0769 199.055C21.766 199.425 22.2913 199.938 22.6528 200.596C23.0183 201.25 23.2011 202.004 23.2011 202.86C23.2011 203.715 23.0162 204.469 22.6464 205.123C22.2767 205.777 21.7409 206.286 21.0391 206.651C20.3415 207.015 19.4969 207.198 18.5051 207.198H15.259V205.017H18.0639C18.5892 205.017 19.0221 204.926 19.3625 204.746C19.707 204.562 19.9633 204.308 20.1315 203.985C20.3038 203.658 20.3899 203.283 20.3899 202.86C20.3899 202.431 20.3038 202.059 20.1315 201.74C19.9633 201.418 19.707 201.168 19.3625 200.992C19.0179 200.811 18.5808 200.722 18.0514 200.722H16.2108V211.373H13.4814ZM24.9235 211.373V201.715H27.5267V203.4H27.6276C27.804 202.801 28.1003 202.348 28.5164 202.042C28.9324 201.732 29.4114 201.577 29.9534 201.577C30.088 201.577 30.2329 201.585 30.3884 201.601C30.5439 201.619 30.6804 201.641 30.7981 201.671V204.048C30.6721 204.011 30.4977 203.976 30.2749 203.948C30.0523 203.918 29.8484 203.903 29.6636 203.903C29.2685 203.903 28.9155 203.99 28.6046 204.161C28.2978 204.328 28.0541 204.564 27.8734 204.865C27.697 205.167 27.6087 205.515 27.6087 205.909V211.373H24.9235ZM36.1481 211.561C35.1521 211.561 34.2949 211.361 33.5763 210.958C32.8619 210.552 32.3114 209.978 31.9248 209.235C31.5382 208.489 31.3449 207.607 31.3449 206.588C31.3449 205.594 31.5382 204.723 31.9248 203.972C32.3114 203.222 32.8556 202.637 33.5574 202.218C34.2634 201.798 35.0912 201.589 36.0409 201.589C36.6796 201.589 37.2742 201.692 37.8247 201.898C38.3794 202.098 38.8626 202.403 39.2744 202.809C39.6904 203.216 40.014 203.727 40.2451 204.344C40.4763 204.956 40.5918 205.672 40.5918 206.494V207.23H32.4165V205.57H38.0642C38.0642 205.184 37.9802 204.842 37.8121 204.545C37.644 204.248 37.4108 204.014 37.1125 203.847C36.8183 203.675 36.4758 203.589 36.085 203.589C35.6774 203.589 35.3161 203.683 35.0009 203.872C34.6899 204.056 34.4462 204.306 34.2697 204.62C34.0932 204.93 34.0028 205.277 33.9987 205.657V207.236C33.9987 207.714 34.0869 208.126 34.2634 208.475C34.4441 208.822 34.6982 209.091 35.0261 209.28C35.3538 209.468 35.7425 209.563 36.1921 209.563C36.4905 209.563 36.7637 209.521 37.0116 209.437C37.2595 209.353 37.4717 209.228 37.6482 209.059C37.8247 208.892 37.9591 208.686 38.0517 208.443L40.5351 208.607C40.4091 209.202 40.1506 209.722 39.7598 210.166C39.3731 210.606 38.8732 210.95 38.2597 211.197C37.6503 211.441 36.9464 211.561 36.1481 211.561ZM45.0293 198.496V211.373H42.3442V198.496H45.0293ZM47.1804 211.373V201.715H49.8655V211.373H47.1804ZM48.5293 200.47C48.13 200.47 47.7875 200.338 47.5018 200.074C47.2202 199.805 47.0794 199.486 47.0794 199.111C47.0794 198.743 47.2202 198.426 47.5018 198.162C47.7875 197.894 48.13 197.76 48.5293 197.76C48.9284 197.76 49.2688 197.894 49.5503 198.162C49.8361 198.426 49.979 198.743 49.979 199.111C49.979 199.486 49.8361 199.805 49.5503 200.074C49.2688 200.338 48.9284 200.47 48.5293 200.47ZM52.0165 211.373V201.715H54.5756V203.419H54.6891C54.8908 202.853 55.227 202.407 55.6976 202.08C56.1683 201.753 56.7313 201.589 57.3868 201.589C58.0508 201.589 58.616 201.755 59.0824 202.086C59.5489 202.413 59.8599 202.858 60.0154 203.419H60.1162C60.3137 202.865 60.6709 202.424 61.1878 202.093C61.7089 201.758 62.3245 201.589 63.0346 201.589C63.938 201.589 64.6713 201.877 65.2345 202.451C65.8018 203.021 66.0853 203.83 66.0853 204.878V211.373H63.4065V205.406C63.4065 204.869 63.2637 204.467 62.9779 204.199C62.6921 203.931 62.335 203.796 61.9063 203.796C61.4189 203.796 61.0386 203.952 60.7654 204.262C60.4923 204.567 60.3558 204.972 60.3558 205.475V211.373H57.7525V205.35C57.7525 204.876 57.6159 204.499 57.3428 204.218C57.0738 203.937 56.7188 203.796 56.2775 203.796C55.9792 203.796 55.7103 203.872 55.4707 204.023C55.2353 204.17 55.0484 204.377 54.9097 204.645C54.7711 204.909 54.7017 205.219 54.7017 205.576V211.373H52.0165ZM69.776 211.537C69.36 211.537 69.0028 211.39 68.7044 211.097C68.4103 210.799 68.2632 210.443 68.2632 210.028C68.2632 209.617 68.4103 209.265 68.7044 208.972C69.0028 208.678 69.36 208.531 69.776 208.531C70.1794 208.531 70.5324 208.678 70.8349 208.972C71.1374 209.265 71.2888 209.617 71.2888 210.028C71.2888 210.304 71.2173 210.558 71.0744 210.789C70.9358 211.015 70.7529 211.197 70.5261 211.336C70.2991 211.47 70.0491 211.537 69.776 211.537ZM69.776 204.771C69.36 204.771 69.0028 204.625 68.7044 204.331C68.4103 204.037 68.2632 203.681 68.2632 203.261C68.2632 202.851 68.4103 202.501 68.7044 202.212C69.0028 201.918 69.36 201.772 69.776 201.772C70.1794 201.772 70.5324 201.918 70.8349 202.212C71.1374 202.501 71.2888 202.851 71.2888 203.261C71.2888 203.543 71.2173 203.798 71.0744 204.03C70.9358 204.255 70.7529 204.436 70.5261 204.57C70.2991 204.703 70.0491 204.771 69.776 204.771Z" fill="#0B5793"/>
<path d="M102.097 196.987C102.097 193.931 104.581 191.453 107.644 191.453H154.047C157.111 191.453 159.594 193.931 159.594 196.987V213.587C159.594 216.642 157.111 219.12 154.047 219.12H107.644C104.581 219.12 102.097 216.642 102.097 213.587V196.987Z" fill="#EDEDED"/>
<path d="M102.097 196.987C102.097 193.931 104.581 191.453 107.644 191.453H154.047C157.111 191.453 159.594 193.931 159.594 196.987V213.587C159.594 216.642 157.111 219.12 154.047 219.12H107.644C104.581 219.12 102.097 216.642 102.097 213.587V196.987Z" fill="#EDEDED"/>
<path d="M116.617 200.476C117.08 200.479 117.532 200.561 117.97 200.722C118.41 200.879 118.807 201.137 119.16 201.495C119.514 201.85 119.794 202.326 120.002 202.924C120.21 203.522 120.314 204.26 120.314 205.141C120.317 205.971 120.23 206.712 120.05 207.366C119.873 208.017 119.619 208.567 119.289 209.017C118.957 209.467 118.559 209.81 118.092 210.045C117.626 210.281 117.101 210.398 116.518 210.398C115.906 210.398 115.365 210.279 114.891 210.04C114.422 209.802 114.043 209.474 113.752 209.059C113.462 208.644 113.285 208.17 113.218 207.635H114.943C115.032 208.019 115.212 208.323 115.483 208.55C115.757 208.774 116.102 208.884 116.518 208.884C117.189 208.884 117.706 208.594 118.069 208.012C118.431 207.43 118.612 206.622 118.612 205.589H118.546C118.391 205.865 118.192 206.104 117.945 206.305C117.7 206.503 117.421 206.656 117.109 206.763C116.8 206.869 116.472 206.923 116.126 206.923C115.558 206.923 115.048 206.788 114.594 206.517C114.144 206.247 113.785 205.877 113.521 205.405C113.259 204.933 113.127 204.394 113.124 203.787C113.124 203.159 113.268 202.594 113.559 202.094C113.852 201.592 114.26 201.195 114.783 200.905C115.306 200.613 115.917 200.47 116.617 200.476ZM116.622 201.891C116.281 201.891 115.974 201.974 115.7 202.142C115.429 202.304 115.215 202.528 115.058 202.811C114.902 203.091 114.826 203.403 114.826 203.749C114.829 204.091 114.906 204.404 115.058 204.684C115.212 204.962 115.422 205.185 115.686 205.348C115.954 205.511 116.259 205.593 116.603 205.593C116.858 205.593 117.097 205.545 117.317 205.447C117.537 205.35 117.73 205.215 117.893 205.041C118.061 204.865 118.189 204.666 118.282 204.442C118.376 204.22 118.421 203.983 118.418 203.735C118.418 203.405 118.339 203.1 118.182 202.82C118.027 202.54 117.814 202.315 117.544 202.146C117.276 201.977 116.969 201.891 116.622 201.891ZM125.249 200.476C125.713 200.479 126.164 200.561 126.602 200.722C127.043 200.879 127.441 201.137 127.793 201.495C128.146 201.85 128.427 202.326 128.634 202.924C128.843 203.522 128.946 204.26 128.946 205.141C128.949 205.971 128.862 206.712 128.682 207.366C128.506 208.017 128.251 208.567 127.921 209.017C127.589 209.467 127.191 209.81 126.725 210.045C126.258 210.281 125.733 210.398 125.151 210.398C124.538 210.398 123.997 210.279 123.524 210.04C123.054 209.802 122.675 209.474 122.385 209.059C122.094 208.644 121.917 208.17 121.85 207.635H123.577C123.664 208.019 123.844 208.323 124.115 208.55C124.39 208.774 124.735 208.884 125.151 208.884C125.822 208.884 126.339 208.594 126.701 208.012C127.063 207.43 127.244 206.622 127.244 205.589H127.179C127.024 205.865 126.824 206.104 126.579 206.305C126.332 206.503 126.054 206.656 125.741 206.763C125.433 206.869 125.104 206.923 124.758 206.923C124.191 206.923 123.68 206.788 123.226 206.517C122.776 206.247 122.418 205.877 122.153 205.405C121.891 204.933 121.759 204.394 121.756 203.787C121.756 203.159 121.901 202.594 122.191 202.094C122.484 201.592 122.892 201.195 123.416 200.905C123.938 200.613 124.549 200.47 125.249 200.476ZM125.254 201.891C124.914 201.891 124.607 201.974 124.332 202.142C124.061 202.304 123.847 202.528 123.69 202.811C123.536 203.091 123.458 203.403 123.458 203.749C123.461 204.091 123.538 204.404 123.69 204.684C123.844 204.962 124.054 205.185 124.319 205.348C124.586 205.511 124.892 205.593 125.235 205.593C125.49 205.593 125.729 205.545 125.95 205.447C126.17 205.35 126.362 205.215 126.526 205.041C126.693 204.865 126.823 204.666 126.914 204.442C127.008 204.22 127.054 203.983 127.051 203.735C127.051 203.405 126.972 203.1 126.815 202.82C126.66 202.54 126.448 202.315 126.176 202.146C125.908 201.977 125.601 201.891 125.254 201.891ZM131.217 210.371C130.929 210.371 130.684 210.27 130.479 210.069C130.275 209.867 130.174 209.623 130.177 209.333C130.174 209.05 130.275 208.808 130.479 208.607C130.684 208.405 130.929 208.305 131.217 208.305C131.494 208.305 131.735 208.405 131.94 208.607C132.148 208.808 132.254 209.05 132.257 209.333C132.254 209.525 132.203 209.699 132.105 209.856C132.011 210.013 131.885 210.139 131.727 210.233C131.573 210.325 131.403 210.371 131.217 210.371ZM137.206 210.45C136.428 210.45 135.76 210.254 135.202 209.862C134.647 209.465 134.22 208.894 133.921 208.15C133.624 207.402 133.477 206.501 133.477 205.447C133.48 204.394 133.63 203.498 133.926 202.759C134.225 202.016 134.653 201.451 135.207 201.061C135.764 200.672 136.431 200.476 137.206 200.476C137.982 200.476 138.649 200.672 139.207 201.061C139.765 201.451 140.191 202.016 140.488 202.759C140.786 203.501 140.936 204.397 140.936 205.447C140.936 206.503 140.786 207.406 140.488 208.154C140.191 208.899 139.765 209.468 139.207 209.862C138.652 210.254 137.985 210.45 137.206 210.45ZM137.206 208.974C137.812 208.974 138.289 208.677 138.639 208.083C138.992 207.486 139.169 206.607 139.169 205.447C139.169 204.68 139.088 204.035 138.927 203.514C138.766 202.991 138.54 202.599 138.247 202.334C137.953 202.067 137.607 201.933 137.206 201.933C136.605 201.933 136.129 202.232 135.779 202.83C135.429 203.424 135.253 204.296 135.249 205.447C135.246 206.217 135.324 206.865 135.481 207.39C135.642 207.915 135.868 208.311 136.161 208.578C136.455 208.842 136.804 208.974 137.206 208.974ZM146.086 210.45C145.307 210.45 144.639 210.254 144.081 209.862C143.526 209.465 143.099 208.894 142.8 208.15C142.504 207.402 142.356 206.501 142.356 205.447C142.359 204.394 142.509 203.498 142.805 202.759C143.105 202.016 143.532 201.451 144.087 201.061C144.644 200.672 145.31 200.476 146.086 200.476C146.861 200.476 147.528 200.672 148.086 201.061C148.643 201.451 149.07 202.016 149.366 202.759C149.666 203.501 149.815 204.397 149.815 205.447C149.815 206.503 149.666 207.406 149.366 208.154C149.07 208.899 148.643 209.468 148.086 209.862C147.531 210.254 146.865 210.45 146.086 210.45ZM146.086 208.974C146.691 208.974 147.169 208.677 147.518 208.083C147.871 207.486 148.048 206.607 148.048 205.447C148.048 204.68 147.967 204.035 147.806 203.514C147.646 202.991 147.419 202.599 147.126 202.334C146.832 202.067 146.486 201.933 146.086 201.933C145.483 201.933 145.007 202.232 144.658 202.83C144.309 203.424 144.132 204.296 144.129 205.447C144.126 206.217 144.203 206.865 144.361 207.39C144.522 207.915 144.748 208.311 145.041 208.578C145.335 208.842 145.682 208.974 146.086 208.974Z" fill="#0B5793"/>
<g filter="url(#filter2_d_410_1920)">
<path d="M160.859 234.613H11.0938C4.96684 234.613 0 239.568 0 245.68V268.92C0 275.032 4.96684 279.987 11.0938 279.987H160.859C166.986 279.987 171.953 275.032 171.953 268.92V245.68C171.953 239.568 166.986 234.613 160.859 234.613Z" fill="white"/>
<path d="M160.859 235.72H11.0938C5.57953 235.72 1.10938 240.179 1.10938 245.68V268.92C1.10938 274.421 5.57953 278.88 11.0938 278.88H160.859C166.374 278.88 170.844 274.421 170.844 268.92V245.68C170.844 240.179 166.374 235.72 160.859 235.72Z" stroke="#909090" stroke-opacity="0.25" stroke-width="2"/>
</g>
<path d="M13.4814 263.387V250.509H18.5745C19.5536 250.509 20.3877 250.695 21.0769 251.068C21.766 251.438 22.2913 251.951 22.6528 252.609C23.0183 253.263 23.2011 254.018 23.2011 254.873C23.2011 255.729 23.0162 256.482 22.6464 257.136C22.2767 257.79 21.7409 258.299 21.0391 258.665C20.3415 259.029 19.4969 259.211 18.5051 259.211H15.259V257.03H18.0639C18.5892 257.03 19.0221 256.939 19.3625 256.759C19.707 256.575 19.9633 256.322 20.1315 255.999C20.3038 255.671 20.3899 255.296 20.3899 254.873C20.3899 254.445 20.3038 254.072 20.1315 253.753C19.9633 253.431 19.707 253.181 19.3625 253.005C19.0179 252.825 18.5808 252.735 18.0514 252.735H16.2108V263.387H13.4814ZM24.9235 263.387V253.729H27.5267V255.413H27.6276C27.804 254.814 28.1003 254.362 28.5164 254.055C28.9324 253.745 29.4114 253.59 29.9534 253.59C30.088 253.59 30.2329 253.598 30.3884 253.615C30.5439 253.632 30.6804 253.655 30.7981 253.685V256.062C30.6721 256.024 30.4977 255.99 30.2749 255.961C30.0523 255.931 29.8484 255.917 29.6636 255.917C29.2685 255.917 28.9155 256.003 28.6046 256.175C28.2978 256.342 28.0541 256.577 27.8734 256.878C27.697 257.18 27.6087 257.528 27.6087 257.922V263.387H24.9235ZM36.1481 263.575C35.1521 263.575 34.2949 263.374 33.5763 262.972C32.8619 262.566 32.3114 261.991 31.9248 261.249C31.5382 260.503 31.3449 259.621 31.3449 258.601C31.3449 257.608 31.5382 256.737 31.9248 255.985C32.3114 255.235 32.8556 254.651 33.5574 254.231C34.2634 253.812 35.0912 253.603 36.0409 253.603C36.6796 253.603 37.2742 253.706 37.8247 253.911C38.3794 254.112 38.8626 254.416 39.2744 254.822C39.6904 255.229 40.014 255.741 40.2451 256.357C40.4763 256.969 40.5918 257.685 40.5918 258.507V259.243H32.4165V257.583H38.0642C38.0642 257.197 37.9802 256.855 37.8121 256.559C37.644 256.261 37.4108 256.027 37.1125 255.86C36.8183 255.689 36.4758 255.602 36.085 255.602C35.6774 255.602 35.3161 255.696 35.0009 255.886C34.6899 256.069 34.4462 256.319 34.2697 256.634C34.0932 256.944 34.0028 257.29 33.9987 257.671V259.249C33.9987 259.727 34.0869 260.14 34.2634 260.488C34.4441 260.836 34.6982 261.105 35.0261 261.293C35.3538 261.481 35.7425 261.576 36.1921 261.576C36.4905 261.576 36.7637 261.534 37.0116 261.45C37.2595 261.366 37.4717 261.241 37.6482 261.073C37.8247 260.906 37.9591 260.7 38.0517 260.456L40.5351 260.62C40.4091 261.215 40.1506 261.736 39.7598 262.179C39.3731 262.62 38.8732 262.963 38.2597 263.211C37.6503 263.454 36.9464 263.575 36.1481 263.575ZM47.5507 253.729V255.741H41.5751V253.729H47.5507ZM42.943 263.387V253.03C42.943 252.33 43.0796 251.75 43.3527 251.289C43.63 250.828 44.0082 250.482 44.4873 250.252C44.9663 250.02 45.5104 249.905 46.1198 249.905C46.5316 249.905 46.9077 249.937 47.248 249.999C47.5926 250.062 47.849 250.119 48.0171 250.17L47.538 252.182C47.433 252.148 47.3027 252.116 47.1472 252.088C46.996 252.058 46.8405 252.043 46.6808 252.043C46.2858 252.043 46.0105 252.135 45.8551 252.32C45.6996 252.5 45.6218 252.754 45.6218 253.081V263.387H42.943ZM49.1911 263.387V253.729H51.8763V263.387H49.1911ZM50.54 252.484C50.1407 252.484 49.7983 252.351 49.5125 252.088C49.2309 251.819 49.0902 251.499 49.0902 251.125C49.0902 250.756 49.2309 250.44 49.5125 250.175C49.7983 249.907 50.1407 249.774 50.54 249.774C50.9392 249.774 51.2795 249.907 51.5611 250.175C51.8469 250.44 51.9897 250.756 51.9897 251.125C51.9897 251.499 51.8469 251.819 51.5611 252.088C51.2795 252.351 50.9392 252.484 50.54 252.484ZM56.7125 257.804V263.387H54.0272V253.729H56.5863V255.432H56.6998C56.9141 254.871 57.2735 254.426 57.7777 254.1C58.282 253.769 58.8934 253.603 59.6119 253.603C60.2843 253.603 60.8705 253.75 61.3705 254.043C61.8706 254.336 62.2593 254.756 62.5367 255.3C62.814 255.841 62.9527 256.487 62.9527 257.237V263.387H60.2675V257.715C60.2717 257.124 60.1205 256.663 59.8136 256.332C59.5069 255.996 59.0845 255.828 58.5467 255.828C58.1853 255.828 57.866 255.907 57.5886 256.062C57.3154 256.217 57.1012 256.442 56.9456 256.74C56.7943 257.033 56.7167 257.389 56.7125 257.804ZM67.8298 263.569C67.2121 263.569 66.6617 263.462 66.1784 263.248C65.6951 263.03 65.3128 262.709 65.0312 262.287C64.7539 261.858 64.6152 261.326 64.6152 260.689C64.6152 260.153 64.7139 259.701 64.9114 259.337C65.1089 258.972 65.3779 258.679 65.7183 258.456C66.0586 258.235 66.4452 258.067 66.878 257.954C67.3151 257.841 67.7731 257.761 68.2522 257.715C68.8152 257.656 69.269 257.602 69.6136 257.551C69.9583 257.497 70.2082 257.417 70.3638 257.312C70.5192 257.208 70.597 257.053 70.597 256.847V256.81C70.597 256.411 70.4709 256.104 70.2188 255.886C69.9708 255.668 69.6178 255.558 69.1599 255.558C68.6765 255.558 68.2921 255.665 68.0063 255.879C67.7206 256.088 67.5315 256.353 67.439 256.671L64.9556 256.47C65.0816 255.883 65.3295 255.376 65.6993 254.948C66.0692 254.517 66.5461 254.186 67.1302 253.955C67.7185 253.72 68.3992 253.603 69.1724 253.603C69.7103 253.603 70.2251 253.666 70.7168 253.792C71.2125 253.917 71.6517 254.112 72.0341 254.376C72.4207 254.641 72.7254 254.979 72.948 255.394C73.1708 255.806 73.2822 256.298 73.2822 256.873V263.387H70.7356V262.048H70.66C70.5045 262.349 70.2965 262.615 70.0359 262.846C69.7755 263.072 69.4624 263.251 69.0967 263.38C68.7312 263.506 68.3089 263.569 67.8298 263.569ZM68.5989 261.72C68.9938 261.72 69.3426 261.643 69.6452 261.488C69.9477 261.328 70.1852 261.115 70.3574 260.847C70.5297 260.578 70.6159 260.274 70.6159 259.935V258.91C70.5318 258.964 70.4162 259.014 70.2692 259.061C70.1264 259.103 69.9645 259.143 69.7839 259.18C69.6032 259.213 69.4225 259.246 69.2417 259.274C69.061 259.3 68.8972 259.323 68.7501 259.344C68.4349 259.389 68.1597 259.464 67.9244 259.563C67.6891 259.664 67.5062 259.8 67.376 259.973C67.2458 260.14 67.1806 260.35 67.1806 260.601C67.1806 260.965 67.313 261.244 67.5777 261.438C67.8466 261.626 68.1871 261.72 68.5989 261.72ZM78.0506 250.509V263.387H75.3654V250.509H78.0506ZM81.7711 263.55C81.3551 263.55 80.9979 263.403 80.6995 263.11C80.4054 262.812 80.2583 262.456 80.2583 262.041C80.2583 261.63 80.4054 261.278 80.6995 260.985C80.9979 260.691 81.3551 260.545 81.7711 260.545C82.1745 260.545 82.5275 260.691 82.83 260.985C83.1326 261.278 83.2839 261.63 83.2839 262.041C83.2839 262.318 83.2124 262.571 83.0695 262.802C82.9309 263.028 82.748 263.211 82.5212 263.349C82.2942 263.483 82.0443 263.55 81.7711 263.55ZM81.7711 256.784C81.3551 256.784 80.9979 256.638 80.6995 256.344C80.4054 256.051 80.2583 255.694 80.2583 255.275C80.2583 254.864 80.4054 254.515 80.6995 254.226C80.9979 253.931 81.3551 253.785 81.7711 253.785C82.1745 253.785 82.5275 253.931 82.83 254.226C83.1326 254.515 83.2839 254.864 83.2839 255.275C83.2839 255.556 83.2124 255.812 83.0695 256.043C82.9309 256.269 82.748 256.449 82.5212 256.583C82.2942 256.717 82.0443 256.784 81.7711 256.784Z" fill="#0B5793"/>
<path d="M102.097 249C102.097 245.945 104.581 243.467 107.644 243.467H154.047C157.111 243.467 159.594 245.945 159.594 249V265.6C159.594 268.656 157.111 271.133 154.047 271.133H107.644C104.581 271.133 102.097 268.656 102.097 265.6V249Z" fill="#EDEDED"/>
<path d="M102.097 249C102.097 245.945 104.581 243.467 107.644 243.467H154.047C157.111 243.467 159.594 245.945 159.594 249V265.6C159.594 268.656 157.111 271.133 154.047 271.133H107.644C104.581 271.133 102.097 268.656 102.097 265.6V249Z" fill="#EDEDED"/>
<path d="M113.53 262.28L117.648 254.149V254.084H112.869V252.622H119.463V254.117L115.351 262.28H113.53ZM124.22 252.489C124.684 252.493 125.134 252.575 125.572 252.735C126.014 252.892 126.411 253.15 126.764 253.509C127.117 253.864 127.397 254.34 127.606 254.937C127.813 255.535 127.918 256.273 127.918 257.154C127.921 257.984 127.832 258.725 127.652 259.379C127.476 260.03 127.222 260.58 126.891 261.031C126.561 261.48 126.161 261.823 125.695 262.059C125.228 262.294 124.704 262.412 124.121 262.412C123.51 262.412 122.968 262.292 122.495 262.053C122.026 261.815 121.645 261.488 121.356 261.073C121.066 260.658 120.887 260.183 120.821 259.648H122.547C122.635 260.032 122.814 260.337 123.086 260.564C123.36 260.787 123.705 260.898 124.121 260.898C124.792 260.898 125.309 260.608 125.672 260.026C126.034 259.444 126.216 258.636 126.216 257.602H126.149C125.995 257.879 125.794 258.118 125.549 258.318C125.303 258.516 125.024 258.669 124.713 258.776C124.403 258.883 124.076 258.937 123.729 258.937C123.162 258.937 122.651 258.802 122.198 258.531C121.746 258.261 121.389 257.89 121.124 257.418C120.862 256.946 120.73 256.407 120.727 255.8C120.727 255.172 120.872 254.607 121.161 254.107C121.454 253.605 121.863 253.209 122.386 252.919C122.91 252.627 123.521 252.484 124.22 252.489ZM124.226 253.905C123.885 253.905 123.578 253.988 123.304 254.155C123.032 254.318 122.818 254.541 122.66 254.824C122.506 255.104 122.428 255.416 122.428 255.763C122.432 256.105 122.509 256.417 122.66 256.697C122.814 256.976 123.024 257.198 123.289 257.361C123.557 257.525 123.863 257.607 124.207 257.607C124.462 257.607 124.699 257.558 124.92 257.46C125.141 257.363 125.333 257.228 125.497 257.054C125.664 256.878 125.793 256.679 125.884 256.456C125.979 256.233 126.025 255.996 126.022 255.748C126.022 255.419 125.943 255.113 125.785 254.833C125.631 254.553 125.418 254.329 125.147 254.159C124.879 253.99 124.572 253.905 124.226 253.905ZM130.187 262.384C129.901 262.384 129.655 262.283 129.451 262.082C129.245 261.88 129.145 261.636 129.148 261.346C129.145 261.064 129.245 260.821 129.451 260.62C129.655 260.419 129.901 260.318 130.187 260.318C130.465 260.318 130.707 260.419 130.911 260.62C131.119 260.821 131.225 261.064 131.228 261.346C131.225 261.539 131.174 261.712 131.076 261.869C130.982 262.027 130.856 262.153 130.698 262.247C130.543 262.339 130.374 262.384 130.187 262.384ZM136.177 262.464C135.399 262.464 134.73 262.268 134.173 261.875C133.619 261.479 133.192 260.908 132.892 260.163C132.596 259.415 132.447 258.514 132.447 257.46C132.45 256.407 132.6 255.512 132.896 254.772C133.196 254.03 133.623 253.464 134.178 253.075C134.736 252.685 135.403 252.489 136.177 252.489C136.952 252.489 137.619 252.685 138.177 253.075C138.735 253.464 139.162 254.03 139.458 254.772C139.758 255.514 139.908 256.41 139.908 257.46C139.908 258.516 139.758 259.419 139.458 260.167C139.162 260.912 138.735 261.481 138.177 261.875C137.622 262.268 136.956 262.464 136.177 262.464ZM136.177 260.987C136.783 260.987 137.26 260.691 137.61 260.097C137.963 259.499 138.139 258.62 138.139 257.46C138.139 256.694 138.058 256.048 137.899 255.527C137.738 255.005 137.51 254.612 137.217 254.347C136.925 254.081 136.577 253.947 136.177 253.947C135.576 253.947 135.1 254.246 134.749 254.843C134.4 255.437 134.223 256.31 134.22 257.46C134.217 258.231 134.294 258.878 134.452 259.404C134.613 259.928 134.839 260.325 135.133 260.591C135.426 260.856 135.774 260.987 136.177 260.987ZM145.056 262.464C144.279 262.464 143.61 262.268 143.053 261.875C142.498 261.479 142.071 260.908 141.771 260.163C141.475 259.415 141.327 258.514 141.327 257.46C141.33 256.407 141.48 255.512 141.776 254.772C142.075 254.03 142.503 253.464 143.057 253.075C143.615 252.685 144.281 252.489 145.056 252.489C145.832 252.489 146.498 252.685 147.057 253.075C147.615 253.464 148.042 254.03 148.338 254.772C148.637 255.514 148.787 256.41 148.787 257.46C148.787 258.516 148.637 259.419 148.338 260.167C148.042 260.912 147.615 261.481 147.057 261.875C146.502 262.268 145.835 262.464 145.056 262.464ZM145.056 260.987C145.662 260.987 146.139 260.691 146.49 260.097C146.842 259.499 147.019 258.62 147.019 257.46C147.019 256.694 146.938 256.048 146.777 255.527C146.617 255.005 146.39 254.612 146.097 254.347C145.804 254.081 145.457 253.947 145.056 253.947C144.455 253.947 143.979 254.246 143.629 254.843C143.279 255.437 143.103 256.31 143.099 257.46C143.096 258.231 143.174 258.878 143.331 259.404C143.492 259.928 143.718 260.325 144.012 260.591C144.305 260.856 144.654 260.987 145.056 260.987Z" fill="#0B5793"/>
<g filter="url(#filter3_d_410_1920)">
<path d="M338.359 182.6H188.594C182.467 182.6 177.5 187.555 177.5 193.667V216.907C177.5 223.019 182.467 227.973 188.594 227.973H338.359C344.486 227.973 349.453 223.019 349.453 216.907V193.667C349.453 187.555 344.486 182.6 338.359 182.6Z" fill="white"/>
<path d="M338.359 183.707H188.594C183.08 183.707 178.609 188.166 178.609 193.667V216.907C178.609 222.407 183.08 226.867 188.594 226.867H338.359C343.874 226.867 348.344 222.407 348.344 216.907V193.667C348.344 188.166 343.874 183.707 338.359 183.707Z" stroke="#909090" stroke-opacity="0.25" stroke-width="2"/>
</g>
<g filter="url(#filter4_d_410_1920)">
<path d="M338.359 234.613H188.594C182.467 234.613 177.5 239.568 177.5 245.68V268.92C177.5 275.032 182.467 279.987 188.594 279.987H338.359C344.486 279.987 349.453 275.032 349.453 268.92V245.68C349.453 239.568 344.486 234.613 338.359 234.613Z" fill="white"/>
<path d="M338.359 235.72H188.594C183.08 235.72 178.609 240.179 178.609 245.68V268.92C178.609 274.421 183.08 278.88 188.594 278.88H338.359C343.874 278.88 348.344 274.421 348.344 268.92V245.68C348.344 240.179 343.874 235.72 338.359 235.72Z" stroke="#909090" stroke-opacity="0.25" stroke-width="2"/>
</g>
<defs>
<filter id="filter0_d_410_1920" x="0" y="59.76" width="349.453" height="120.2" filterUnits="userSpaceOnUse" color-interpolation-filters="sRGB">
<feFlood flood-opacity="0" result="BackgroundImageFix"/>
<feColorMatrix in="SourceAlpha" type="matrix" values="0 0 0 0 0 0 0 0 0 0 0 0 0 0 0 0 0 0 127 0" result="hardAlpha"/>
<feOffset dy="4"/>
<feComposite in2="hardAlpha" operator="out"/>
<feColorMatrix type="matrix" values="0 0 0 0 0.566623 0 0 0 0 0.566623 0 0 0 0 0.566623 0 0 0 0.25 0"/>
<feBlend mode="normal" in2="BackgroundImageFix" result="effect1_dropShadow_410_1920"/>
<feBlend mode="normal" in="SourceGraphic" in2="effect1_dropShadow_410_1920" result="shape"/>
</filter>
<filter id="filter1_d_410_1920" x="0" y="182.6" width="171.953" height="49.3733" filterUnits="userSpaceOnUse" color-interpolation-filters="sRGB">
<feFlood flood-opacity="0" result="BackgroundImageFix"/>
<feColorMatrix in="SourceAlpha" type="matrix" values="0 0 0 0 0 0 0 0 0 0 0 0 0 0 0 0 0 0 127 0" result="hardAlpha"/>
<feOffset dy="4"/>
<feComposite in2="hardAlpha" operator="out"/>
<feColorMatrix type="matrix" values="0 0 0 0 0.566623 0 0 0 0 0.566623 0 0 0 0 0.566623 0 0 0 0.25 0"/>
<feBlend mode="normal" in2="BackgroundImageFix" result="effect1_dropShadow_410_1920"/>
<feBlend mode="normal" in="SourceGraphic" in2="effect1_dropShadow_410_1920" result="shape"/>
</filter>
<filter id="filter2_d_410_1920" x="0" y="234.613" width="171.953" height="49.3733" filterUnits="userSpaceOnUse" color-interpolation-filters="sRGB">
<feFlood flood-opacity="0" result="BackgroundImageFix"/>
<feColorMatrix in="SourceAlpha" type="matrix" values="0 0 0 0 0 0 0 0 0 0 0 0 0 0 0 0 0 0 127 0" result="hardAlpha"/>
<feOffset dy="4"/>
<feComposite in2="hardAlpha" operator="out"/>
<feColorMatrix type="matrix" values="0 0 0 0 0.566623 0 0 0 0 0.566623 0 0 0 0 0.566623 0 0 0 0.25 0"/>
<feBlend mode="normal" in2="BackgroundImageFix" result="effect1_dropShadow_410_1920"/>
<feBlend mode="normal" in="SourceGraphic" in2="effect1_dropShadow_410_1920" result="shape"/>
</filter>
<filter id="filter3_d_410_1920" x="177.5" y="182.6" width="171.953" height="49.3733" filterUnits="userSpaceOnUse" color-interpolation-filters="sRGB">
<feFlood flood-opacity="0" result="BackgroundImageFix"/>
<feColorMatrix in="SourceAlpha" type="matrix" values="0 0 0 0 0 0 0 0 0 0 0 0 0 0 0 0 0 0 127 0" result="hardAlpha"/>
<feOffset dy="4"/>
<feComposite in2="hardAlpha" operator="out"/>
<feColorMatrix type="matrix" values="0 0 0 0 0.566623 0 0 0 0 0.566623 0 0 0 0 0.566623 0 0 0 0.25 0"/>
<feBlend mode="normal" in2="BackgroundImageFix" result="effect1_dropShadow_410_1920"/>
<feBlend mode="normal" in="SourceGraphic" in2="effect1_dropShadow_410_1920" result="shape"/>
</filter>
<filter id="filter4_d_410_1920" x="177.5" y="234.613" width="171.953" height="49.3733" filterUnits="userSpaceOnUse" color-interpolation-filters="sRGB">
<feFlood flood-opacity="0" result="BackgroundImageFix"/>
<feColorMatrix in="SourceAlpha" type="matrix" values="0 0 0 0 0 0 0 0 0 0 0 0 0 0 0 0 0 0 127 0" result="hardAlpha"/>
<feOffset dy="4"/>
<feComposite in2="hardAlpha" operator="out"/>
<feColorMatrix type="matrix" values="0 0 0 0 0.566623 0 0 0 0 0.566623 0 0 0 0 0.566623 0 0 0 0.25 0"/>
<feBlend mode="normal" in2="BackgroundImageFix" result="effect1_dropShadow_410_1920"/>
<feBlend mode="normal" in="SourceGraphic" in2="effect1_dropShadow_410_1920" result="shape"/>
</filter>
</defs>
</svg>
