<svg width="506" height="630" viewBox="0 0 506 630" fill="none" xmlns="http://www.w3.org/2000/svg">
<path d="M208 573C208 604.48 182.48 630 151 630C119.52 630 94 604.48 94 573C94 541.52 119.52 516 151 516C182.48 516 208 541.52 208 573Z" fill="#EDEDED"/>
<path d="M90 500C90 515.464 77.464 528 62 528C46.536 528 34 515.464 34 500C34 484.536 46.536 472 62 472C77.464 472 90 484.536 90 500Z" fill="#EDEDED"/>
<path d="M506 253C506 392.728 392.728 506 253 506C113.272 506 0 392.728 0 253C0 113.272 113.272 0 253 0C392.728 0 506 113.272 506 253ZM46.8854 253C46.8854 366.834 139.166 459.115 253 459.115C366.834 459.115 459.115 366.834 459.115 253C459.115 139.166 366.834 46.8854 253 46.8854C139.166 46.8854 46.8854 139.166 46.8854 253Z" fill="#EDEDED"/>
</svg>
