<svg width="511" height="247" viewBox="0 0 511 247" fill="none" xmlns="http://www.w3.org/2000/svg">
<g filter="url(#filter0_d_408_955)">
<rect x="0.5" width="510" height="49" rx="10" fill="white"/>
<rect x="1.5" y="1" width="508" height="47" rx="9" stroke="#909090" stroke-opacity="0.25" stroke-width="2"/>
</g>
<path d="M68.6416 33V15.5455H75.8518C77.1586 15.5455 78.2865 15.8011 79.2353 16.3125C80.1899 16.8182 80.9257 17.5256 81.4427 18.4347C81.9598 19.3381 82.2183 20.3892 82.2183 21.5881C82.2183 22.7926 81.9541 23.8466 81.4257 24.75C80.9029 25.6477 80.1558 26.3437 79.1842 26.8381C78.2126 27.3324 77.0592 27.5795 75.724 27.5795H71.2751V24.2557H74.9399C75.5762 24.2557 76.1075 24.1449 76.5336 23.9233C76.9654 23.7017 77.2921 23.392 77.5137 22.9943C77.7353 22.5909 77.8461 22.1222 77.8461 21.5881C77.8461 21.0483 77.7353 20.5824 77.5137 20.1903C77.2921 19.7926 76.9654 19.4858 76.5336 19.2699C76.1018 19.054 75.5706 18.946 74.9399 18.946H72.8603V33H68.6416ZM84.2978 33V19.9091H88.3461V22.2955H88.4825C88.7211 21.4318 89.1103 20.7898 89.6501 20.3693C90.1899 19.9432 90.8177 19.7301 91.5336 19.7301C91.7268 19.7301 91.9257 19.7443 92.1302 19.7727C92.3348 19.7955 92.5251 19.8324 92.7012 19.8835V23.5057C92.5024 23.4375 92.241 23.3835 91.9171 23.3438C91.599 23.304 91.3149 23.2841 91.0649 23.2841C90.5706 23.2841 90.1245 23.3949 89.7268 23.6165C89.3348 23.8324 89.0251 24.1364 88.7978 24.5284C88.5762 24.9148 88.4654 25.3693 88.4654 25.892V33H84.2978ZM99.8305 33.2472C98.4555 33.2472 97.2737 32.9659 96.285 32.4034C95.3021 31.8352 94.5436 31.0455 94.0095 30.0341C93.4811 29.017 93.2169 27.8381 93.2169 26.4972C93.2169 25.1506 93.4811 23.9716 94.0095 22.9602C94.5436 21.9432 95.3021 21.1534 96.285 20.5909C97.2737 20.0227 98.4555 19.7386 99.8305 19.7386C101.205 19.7386 102.384 20.0227 103.367 20.5909C104.356 21.1534 105.115 21.9432 105.643 22.9602C106.177 23.9716 106.444 25.1506 106.444 26.4972C106.444 27.8381 106.177 29.017 105.643 30.0341C105.115 31.0455 104.356 31.8352 103.367 32.4034C102.384 32.9659 101.205 33.2472 99.8305 33.2472ZM99.8561 30.1023C100.356 30.1023 100.779 29.9489 101.126 29.642C101.473 29.3352 101.737 28.9091 101.919 28.3636C102.106 27.8182 102.2 27.1875 102.2 26.4716C102.2 25.7443 102.106 25.108 101.919 24.5625C101.737 24.017 101.473 23.5909 101.126 23.2841C100.779 22.9773 100.356 22.8239 99.8561 22.8239C99.339 22.8239 98.9015 22.9773 98.5436 23.2841C98.1913 23.5909 97.9214 24.017 97.7339 24.5625C97.5521 25.108 97.4612 25.7443 97.4612 26.4716C97.4612 27.1875 97.5521 27.8182 97.7339 28.3636C97.9214 28.9091 98.1913 29.3352 98.5436 29.642C98.9015 29.9489 99.339 30.1023 99.8561 30.1023ZM114.681 38.1818C113.437 38.1818 112.372 38.0085 111.485 37.6619C110.599 37.3153 109.903 36.8409 109.397 36.2386C108.892 35.6364 108.588 34.9545 108.485 34.1932L112.431 33.9716C112.505 34.2386 112.642 34.4716 112.84 34.6705C113.045 34.8693 113.309 35.0227 113.633 35.1307C113.963 35.2386 114.349 35.2926 114.792 35.2926C115.491 35.2926 116.068 35.1222 116.522 34.7812C116.982 34.446 117.213 33.858 117.213 33.017V30.7159H117.068C116.903 31.1193 116.653 31.4801 116.318 31.7983C115.982 32.1165 115.565 32.3665 115.065 32.5483C114.571 32.7301 114.002 32.821 113.36 32.821C112.406 32.821 111.531 32.5994 110.735 32.1562C109.946 31.7074 109.312 31.0142 108.835 30.0767C108.363 29.1335 108.127 27.9205 108.127 26.4375C108.127 24.9091 108.372 23.6506 108.86 22.6619C109.349 21.6676 109.988 20.9318 110.778 20.4545C111.573 19.9773 112.429 19.7386 113.343 19.7386C114.031 19.7386 114.619 19.858 115.107 20.0966C115.602 20.3295 116.008 20.6307 116.326 21C116.644 21.3693 116.886 21.7528 117.051 22.1506H117.17V19.9091H121.321V33.0511C121.321 34.1591 121.042 35.0938 120.485 35.8551C119.929 36.6165 119.15 37.1932 118.15 37.5852C117.15 37.983 115.994 38.1818 114.681 38.1818ZM114.809 29.7869C115.315 29.7869 115.747 29.6534 116.105 29.3864C116.463 29.1193 116.738 28.7358 116.931 28.2358C117.125 27.7358 117.221 27.1364 117.221 26.4375C117.221 25.7273 117.125 25.1165 116.931 24.6051C116.744 24.0881 116.468 23.6903 116.105 23.4119C115.747 23.1335 115.315 22.9943 114.809 22.9943C114.292 22.9943 113.855 23.1364 113.497 23.4205C113.139 23.7045 112.866 24.1051 112.679 24.6222C112.497 25.1335 112.406 25.7386 112.406 26.4375C112.406 27.1364 112.5 27.7358 112.687 28.2358C112.875 28.7358 113.144 29.1193 113.497 29.3864C113.855 29.6534 114.292 29.7869 114.809 29.7869ZM123.978 33V19.9091H128.026V22.2955H128.162C128.401 21.4318 128.79 20.7898 129.33 20.3693C129.87 19.9432 130.497 19.7301 131.213 19.7301C131.406 19.7301 131.605 19.7443 131.81 19.7727C132.014 19.7955 132.205 19.8324 132.381 19.8835V23.5057C132.182 23.4375 131.921 23.3835 131.597 23.3438C131.279 23.304 130.995 23.2841 130.745 23.2841C130.25 23.2841 129.804 23.3949 129.406 23.6165C129.014 23.8324 128.705 24.1364 128.478 24.5284C128.256 24.9148 128.145 25.3693 128.145 25.892V33H123.978ZM137.277 33.2216C136.442 33.2216 135.701 33.0824 135.053 32.804C134.411 32.5199 133.902 32.0937 133.527 31.5256C133.158 30.9517 132.973 30.233 132.973 29.3693C132.973 28.642 133.101 28.0284 133.357 27.5284C133.612 27.0284 133.965 26.6222 134.414 26.3097C134.862 25.9972 135.38 25.7614 135.965 25.6023C136.55 25.4375 137.175 25.3267 137.84 25.2699C138.584 25.2017 139.183 25.1307 139.638 25.0568C140.093 24.9773 140.422 24.8665 140.627 24.7244C140.837 24.5767 140.942 24.3693 140.942 24.1023V24.0597C140.942 23.6222 140.791 23.2841 140.49 23.0455C140.189 22.8068 139.783 22.6875 139.272 22.6875C138.72 22.6875 138.277 22.8068 137.942 23.0455C137.607 23.2841 137.394 23.6136 137.303 24.0341L133.459 23.8977C133.573 23.1023 133.865 22.392 134.337 21.767C134.814 21.1364 135.468 20.642 136.297 20.2841C137.132 19.9205 138.135 19.7386 139.306 19.7386C140.141 19.7386 140.911 19.8381 141.615 20.0369C142.32 20.2301 142.933 20.5142 143.456 20.8892C143.979 21.2585 144.382 21.7131 144.666 22.2528C144.956 22.7926 145.101 23.4091 145.101 24.1023V33H141.181V31.1761H141.078C140.845 31.6193 140.547 31.9943 140.183 32.3011C139.826 32.608 139.402 32.8381 138.914 32.9915C138.431 33.1449 137.885 33.2216 137.277 33.2216ZM138.564 30.4943C139.013 30.4943 139.416 30.4034 139.774 30.2216C140.138 30.0398 140.428 29.7898 140.644 29.4716C140.86 29.1477 140.968 28.7727 140.968 28.3466V27.1023C140.848 27.1648 140.703 27.2216 140.533 27.2727C140.368 27.3239 140.186 27.3722 139.987 27.4176C139.789 27.4631 139.584 27.5028 139.374 27.5369C139.164 27.571 138.962 27.6023 138.769 27.6307C138.377 27.6932 138.041 27.7898 137.763 27.9205C137.49 28.0511 137.28 28.2216 137.132 28.4318C136.99 28.6364 136.919 28.8807 136.919 29.1648C136.919 29.5966 137.073 29.9261 137.38 30.1534C137.692 30.3807 138.087 30.4943 138.564 30.4943ZM147.649 33V19.9091H151.612V22.3125H151.757C152.03 21.517 152.49 20.8892 153.138 20.429C153.786 19.9688 154.558 19.7386 155.456 19.7386C156.365 19.7386 157.144 19.9716 157.791 20.4375C158.439 20.9034 158.851 21.5284 159.027 22.3125H159.164C159.408 21.5341 159.885 20.9119 160.595 20.446C161.306 19.9744 162.144 19.7386 163.11 19.7386C164.348 19.7386 165.354 20.1364 166.127 20.9318C166.899 21.7216 167.286 22.8068 167.286 24.1875V33H163.118V25.142C163.118 24.4886 162.951 23.9915 162.615 23.6506C162.28 23.304 161.845 23.1307 161.311 23.1307C160.737 23.1307 160.286 23.3182 159.956 23.6932C159.632 24.0625 159.47 24.5597 159.47 25.1847V33H155.465V25.0994C155.465 24.4915 155.3 24.0114 154.97 23.6591C154.641 23.3068 154.206 23.1307 153.666 23.1307C153.303 23.1307 152.982 23.2187 152.703 23.3949C152.425 23.5653 152.206 23.8097 152.047 24.1278C151.894 24.446 151.817 24.821 151.817 25.2528V33H147.649ZM169.868 33V19.9091H173.831V22.3125H173.976C174.249 21.517 174.709 20.8892 175.357 20.429C176.005 19.9688 176.777 19.7386 177.675 19.7386C178.584 19.7386 179.362 19.9716 180.01 20.4375C180.658 20.9034 181.07 21.5284 181.246 22.3125H181.382C181.627 21.5341 182.104 20.9119 182.814 20.446C183.524 19.9744 184.362 19.7386 185.328 19.7386C186.567 19.7386 187.573 20.1364 188.345 20.9318C189.118 21.7216 189.505 22.8068 189.505 24.1875V33H185.337V25.142C185.337 24.4886 185.169 23.9915 184.834 23.6506C184.499 23.304 184.064 23.1307 183.53 23.1307C182.956 23.1307 182.505 23.3182 182.175 23.6932C181.851 24.0625 181.689 24.5597 181.689 25.1847V33H177.683V25.0994C177.683 24.4915 177.519 24.0114 177.189 23.6591C176.86 23.3068 176.425 23.1307 175.885 23.1307C175.522 23.1307 175.201 23.2187 174.922 23.3949C174.644 23.5653 174.425 23.8097 174.266 24.1278C174.112 24.446 174.036 24.821 174.036 25.2528V33H169.868ZM192.087 33V19.9091H196.255V33H192.087ZM194.175 18.3835C193.59 18.3835 193.087 18.1903 192.666 17.804C192.246 17.4119 192.036 16.9403 192.036 16.3892C192.036 15.8437 192.246 15.3778 192.666 14.9915C193.087 14.5994 193.59 14.4034 194.175 14.4034C194.766 14.4034 195.269 14.5994 195.683 14.9915C196.104 15.3778 196.314 15.8437 196.314 16.3892C196.314 16.9403 196.104 17.4119 195.683 17.804C195.269 18.1903 194.766 18.3835 194.175 18.3835ZM203.075 25.5341V33H198.907V19.9091H202.87V22.3125H203.015C203.305 21.5114 203.799 20.8835 204.498 20.429C205.197 19.9688 206.029 19.7386 206.995 19.7386C207.916 19.7386 208.714 19.946 209.39 20.3608C210.072 20.7699 210.6 21.3437 210.975 22.0824C211.356 22.8153 211.544 23.6733 211.538 24.6562V33H207.37V25.4744C207.376 24.7472 207.191 24.179 206.816 23.7699C206.447 23.3608 205.933 23.1562 205.274 23.1562C204.836 23.1562 204.45 23.2528 204.115 23.446C203.785 23.6335 203.529 23.9034 203.348 24.2557C203.171 24.608 203.08 25.0341 203.075 25.5341ZM220.22 38.1818C218.976 38.1818 217.911 38.0085 217.024 37.6619C216.138 37.3153 215.442 36.8409 214.936 36.2386C214.431 35.6364 214.127 34.9545 214.024 34.1932L217.97 33.9716C218.044 34.2386 218.181 34.4716 218.38 34.6705C218.584 34.8693 218.848 35.0227 219.172 35.1307C219.502 35.2386 219.888 35.2926 220.331 35.2926C221.03 35.2926 221.607 35.1222 222.061 34.7812C222.522 34.446 222.752 33.858 222.752 33.017V30.7159H222.607C222.442 31.1193 222.192 31.4801 221.857 31.7983C221.522 32.1165 221.104 32.3665 220.604 32.5483C220.11 32.7301 219.541 32.821 218.899 32.821C217.945 32.821 217.07 32.5994 216.274 32.1562C215.485 31.7074 214.851 31.0142 214.374 30.0767C213.902 29.1335 213.666 27.9205 213.666 26.4375C213.666 24.9091 213.911 23.6506 214.399 22.6619C214.888 21.6676 215.527 20.9318 216.317 20.4545C217.112 19.9773 217.968 19.7386 218.882 19.7386C219.57 19.7386 220.158 19.858 220.647 20.0966C221.141 20.3295 221.547 20.6307 221.865 21C222.183 21.3693 222.425 21.7528 222.59 22.1506H222.709V19.9091H226.86V33.0511C226.86 34.1591 226.581 35.0938 226.024 35.8551C225.468 36.6165 224.689 37.1932 223.689 37.5852C222.689 37.983 221.533 38.1818 220.22 38.1818ZM220.348 29.7869C220.854 29.7869 221.286 29.6534 221.644 29.3864C222.002 29.1193 222.277 28.7358 222.47 28.2358C222.664 27.7358 222.76 27.1364 222.76 26.4375C222.76 25.7273 222.664 25.1165 222.47 24.6051C222.283 24.0881 222.007 23.6903 221.644 23.4119C221.286 23.1335 220.854 22.9943 220.348 22.9943C219.831 22.9943 219.394 23.1364 219.036 23.4205C218.678 23.7045 218.405 24.1051 218.218 24.6222C218.036 25.1335 217.945 25.7386 217.945 26.4375C217.945 27.1364 218.039 27.7358 218.226 28.2358C218.414 28.7358 218.683 29.1193 219.036 29.3864C219.394 29.6534 219.831 29.7869 220.348 29.7869ZM234.673 33V15.5455H238.892V29.5739H246.153V33H234.673ZM254.448 33.2472C253.073 33.2472 251.891 32.9659 250.902 32.4034C249.919 31.8352 249.161 31.0455 248.627 30.0341C248.098 29.017 247.834 27.8381 247.834 26.4972C247.834 25.1506 248.098 23.9716 248.627 22.9602C249.161 21.9432 249.919 21.1534 250.902 20.5909C251.891 20.0227 253.073 19.7386 254.448 19.7386C255.823 19.7386 257.002 20.0227 257.985 20.5909C258.973 21.1534 259.732 21.9432 260.26 22.9602C260.794 23.9716 261.061 25.1506 261.061 26.4972C261.061 27.8381 260.794 29.017 260.26 30.0341C259.732 31.0455 258.973 31.8352 257.985 32.4034C257.002 32.9659 255.823 33.2472 254.448 33.2472ZM254.473 30.1023C254.973 30.1023 255.397 29.9489 255.743 29.642C256.09 29.3352 256.354 28.9091 256.536 28.3636C256.723 27.8182 256.817 27.1875 256.817 26.4716C256.817 25.7443 256.723 25.108 256.536 24.5625C256.354 24.017 256.09 23.5909 255.743 23.2841C255.397 22.9773 254.973 22.8239 254.473 22.8239C253.956 22.8239 253.519 22.9773 253.161 23.2841C252.808 23.5909 252.539 24.017 252.351 24.5625C252.169 25.108 252.078 25.7443 252.078 26.4716C252.078 27.1875 252.169 27.8182 252.351 28.3636C252.539 28.9091 252.808 29.3352 253.161 29.642C253.519 29.9489 253.956 30.1023 254.473 30.1023ZM269.299 38.1818C268.054 38.1818 266.989 38.0085 266.103 37.6619C265.216 37.3153 264.52 36.8409 264.014 36.2386C263.509 35.6364 263.205 34.9545 263.103 34.1932L267.049 33.9716C267.122 34.2386 267.259 34.4716 267.458 34.6705C267.662 34.8693 267.926 35.0227 268.25 35.1307C268.58 35.2386 268.966 35.2926 269.409 35.2926C270.108 35.2926 270.685 35.1222 271.139 34.7812C271.6 34.446 271.83 33.858 271.83 33.017V30.7159H271.685C271.52 31.1193 271.27 31.4801 270.935 31.7983C270.6 32.1165 270.182 32.3665 269.682 32.5483C269.188 32.7301 268.62 32.821 267.978 32.821C267.023 32.821 266.148 32.5994 265.353 32.1562C264.563 31.7074 263.929 31.0142 263.452 30.0767C262.98 29.1335 262.745 27.9205 262.745 26.4375C262.745 24.9091 262.989 23.6506 263.478 22.6619C263.966 21.6676 264.605 20.9318 265.395 20.4545C266.191 19.9773 267.046 19.7386 267.96 19.7386C268.648 19.7386 269.236 19.858 269.725 20.0966C270.219 20.3295 270.625 20.6307 270.943 21C271.262 21.3693 271.503 21.7528 271.668 22.1506H271.787V19.9091H275.938V33.0511C275.938 34.1591 275.659 35.0938 275.103 35.8551C274.546 36.6165 273.767 37.1932 272.767 37.5852C271.767 37.983 270.611 38.1818 269.299 38.1818ZM269.426 29.7869C269.932 29.7869 270.364 29.6534 270.722 29.3864C271.08 29.1193 271.355 28.7358 271.549 28.2358C271.742 27.7358 271.838 27.1364 271.838 26.4375C271.838 25.7273 271.742 25.1165 271.549 24.6051C271.361 24.0881 271.085 23.6903 270.722 23.4119C270.364 23.1335 269.932 22.9943 269.426 22.9943C268.909 22.9943 268.472 23.1364 268.114 23.4205C267.756 23.7045 267.483 24.1051 267.296 24.6222C267.114 25.1335 267.023 25.7386 267.023 26.4375C267.023 27.1364 267.117 27.7358 267.304 28.2358C267.492 28.7358 267.762 29.1193 268.114 29.3864C268.472 29.6534 268.909 29.7869 269.426 29.7869ZM278.595 33V19.9091H282.762V33H278.595ZM280.683 18.3835C280.098 18.3835 279.595 18.1903 279.174 17.804C278.754 17.4119 278.544 16.9403 278.544 16.3892C278.544 15.8437 278.754 15.3778 279.174 14.9915C279.595 14.5994 280.098 14.4034 280.683 14.4034C281.274 14.4034 281.777 14.5994 282.191 14.9915C282.612 15.3778 282.822 15.8437 282.822 16.3892C282.822 16.9403 282.612 17.4119 282.191 17.804C281.777 18.1903 281.274 18.3835 280.683 18.3835ZM291.526 33.2472C290.145 33.2472 288.96 32.9631 287.972 32.3949C286.989 31.8267 286.233 31.0369 285.705 30.0256C285.176 29.0085 284.912 27.8324 284.912 26.4972C284.912 25.1562 285.176 23.9801 285.705 22.9688C286.239 21.9517 286.997 21.1591 287.98 20.5909C288.969 20.0227 290.148 19.7386 291.517 19.7386C292.728 19.7386 293.781 19.9574 294.679 20.3949C295.583 20.8324 296.287 21.4517 296.793 22.2528C297.304 23.0483 297.574 23.983 297.603 25.0568H293.708C293.628 24.3864 293.401 23.8608 293.026 23.4801C292.656 23.0994 292.174 22.9091 291.577 22.9091C291.094 22.9091 290.671 23.0455 290.307 23.3182C289.943 23.5852 289.659 23.983 289.455 24.5114C289.256 25.0341 289.156 25.6818 289.156 26.4545C289.156 27.2273 289.256 27.8807 289.455 28.4148C289.659 28.9432 289.943 29.3437 290.307 29.6165C290.671 29.8835 291.094 30.017 291.577 30.017C291.963 30.017 292.304 29.9347 292.6 29.7699C292.901 29.6051 293.148 29.3636 293.341 29.0455C293.534 28.7216 293.656 28.3295 293.708 27.8693H297.603C297.563 28.9489 297.293 29.892 296.793 30.6989C296.299 31.5057 295.603 32.1335 294.705 32.5824C293.813 33.0256 292.753 33.2472 291.526 33.2472ZM308.582 33.2216C307.747 33.2216 307.005 33.0824 306.357 32.804C305.715 32.5199 305.207 32.0937 304.832 31.5256C304.463 30.9517 304.278 30.233 304.278 29.3693C304.278 28.642 304.406 28.0284 304.661 27.5284C304.917 27.0284 305.269 26.6222 305.718 26.3097C306.167 25.9972 306.684 25.7614 307.269 25.6023C307.855 25.4375 308.48 25.3267 309.144 25.2699C309.889 25.2017 310.488 25.1307 310.943 25.0568C311.397 24.9773 311.727 24.8665 311.931 24.7244C312.142 24.5767 312.247 24.3693 312.247 24.1023V24.0597C312.247 23.6222 312.096 23.2841 311.795 23.0455C311.494 22.8068 311.088 22.6875 310.576 22.6875C310.025 22.6875 309.582 22.8068 309.247 23.0455C308.911 23.2841 308.698 23.6136 308.607 24.0341L304.764 23.8977C304.877 23.1023 305.17 22.392 305.642 21.767C306.119 21.1364 306.772 20.642 307.602 20.2841C308.437 19.9205 309.44 19.7386 310.61 19.7386C311.446 19.7386 312.215 19.8381 312.92 20.0369C313.625 20.2301 314.238 20.5142 314.761 20.8892C315.284 21.2585 315.687 21.7131 315.971 22.2528C316.261 22.7926 316.406 23.4091 316.406 24.1023V33H312.485V31.1761H312.383C312.15 31.6193 311.852 31.9943 311.488 32.3011C311.13 32.608 310.707 32.8381 310.218 32.9915C309.735 33.1449 309.19 33.2216 308.582 33.2216ZM309.869 30.4943C310.318 30.4943 310.721 30.4034 311.079 30.2216C311.443 30.0398 311.732 29.7898 311.948 29.4716C312.164 29.1477 312.272 28.7727 312.272 28.3466V27.1023C312.153 27.1648 312.008 27.2216 311.838 27.2727C311.673 27.3239 311.491 27.3722 311.292 27.4176C311.093 27.4631 310.889 27.5028 310.679 27.5369C310.468 27.571 310.267 27.6023 310.073 27.6307C309.681 27.6932 309.346 27.7898 309.068 27.9205C308.795 28.0511 308.585 28.2216 308.437 28.4318C308.295 28.6364 308.224 28.8807 308.224 29.1648C308.224 29.5966 308.377 29.9261 308.684 30.1534C308.997 30.3807 309.392 30.4943 309.869 30.4943ZM323.122 25.5341V33H318.954V19.9091H322.917V22.3125H323.062C323.352 21.5114 323.846 20.8835 324.545 20.429C325.244 19.9688 326.076 19.7386 327.042 19.7386C327.963 19.7386 328.761 19.946 329.437 20.3608C330.119 20.7699 330.647 21.3437 331.022 22.0824C331.403 22.8153 331.59 23.6733 331.585 24.6562V33H327.417V25.4744C327.423 24.7472 327.238 24.179 326.863 23.7699C326.494 23.3608 325.98 23.1562 325.321 23.1562C324.883 23.1562 324.497 23.2528 324.161 23.446C323.832 23.6335 323.576 23.9034 323.394 24.2557C323.218 24.608 323.127 25.0341 323.122 25.5341ZM338.946 33.1875C337.98 33.1875 337.103 32.9375 336.313 32.4375C335.523 31.9375 334.892 31.1875 334.421 30.1875C333.949 29.1875 333.713 27.946 333.713 26.4631C333.713 24.9233 333.958 23.6562 334.446 22.6619C334.935 21.6676 335.574 20.9318 336.364 20.4545C337.159 19.9773 338.014 19.7386 338.929 19.7386C339.617 19.7386 340.205 19.858 340.693 20.0966C341.182 20.3295 341.585 20.6307 341.904 21C342.222 21.3693 342.463 21.7528 342.628 22.1506H342.713V15.5455H346.881V33H342.756V30.8778H342.628C342.452 31.2812 342.202 31.6591 341.878 32.0114C341.554 32.3636 341.148 32.6477 340.659 32.8636C340.176 33.0795 339.605 33.1875 338.946 33.1875ZM340.395 29.9403C340.901 29.9403 341.333 29.7983 341.691 29.5142C342.049 29.2244 342.324 28.8182 342.517 28.2955C342.71 27.7727 342.807 27.1591 342.807 26.4545C342.807 25.7386 342.71 25.1222 342.517 24.6051C342.33 24.0881 342.054 23.6903 341.691 23.4119C341.333 23.1335 340.901 22.9943 340.395 22.9943C339.878 22.9943 339.441 23.1364 339.083 23.4205C338.725 23.7045 338.452 24.1051 338.264 24.6222C338.083 25.1392 337.992 25.75 337.992 26.4545C337.992 27.1591 338.085 27.7727 338.273 28.2955C338.46 28.8182 338.73 29.2244 339.083 29.5142C339.441 29.7983 339.878 29.9403 340.395 29.9403ZM361.125 33H354.673V15.5455H361.116C362.894 15.5455 364.426 15.8949 365.71 16.5938C367 17.2869 367.994 18.2869 368.693 19.5938C369.392 20.8949 369.741 22.4517 369.741 24.2642C369.741 26.0824 369.392 27.6449 368.693 28.9517C368 30.2585 367.008 31.2614 365.718 31.9602C364.429 32.6534 362.897 33 361.125 33ZM358.892 29.4034H360.963C361.94 29.4034 362.767 29.2386 363.443 28.9091C364.125 28.5739 364.639 28.0312 364.985 27.2812C365.338 26.5256 365.514 25.5199 365.514 24.2642C365.514 23.0085 365.338 22.0085 364.985 21.2642C364.633 20.5142 364.113 19.9744 363.426 19.6449C362.744 19.3097 361.903 19.142 360.903 19.142H358.892V29.4034ZM378.323 33.2472C376.954 33.2472 375.772 32.9773 374.778 32.4375C373.789 31.892 373.028 31.1165 372.494 30.1108C371.965 29.0994 371.701 27.8977 371.701 26.5057C371.701 25.1534 371.968 23.9716 372.502 22.9602C373.036 21.9432 373.789 21.1534 374.761 20.5909C375.732 20.0227 376.877 19.7386 378.196 19.7386C379.127 19.7386 379.98 19.8835 380.752 20.1733C381.525 20.4631 382.193 20.892 382.755 21.4602C383.318 22.0284 383.755 22.7301 384.068 23.5653C384.38 24.3949 384.536 25.3466 384.536 26.4205V27.4602H373.159V25.0398H380.659C380.653 24.5966 380.548 24.2017 380.343 23.8551C380.139 23.5085 379.857 23.2386 379.5 23.0455C379.147 22.8466 378.741 22.7472 378.281 22.7472C377.815 22.7472 377.397 22.8523 377.028 23.0625C376.659 23.267 376.366 23.5483 376.15 23.9062C375.934 24.2585 375.821 24.6591 375.809 25.108V27.571C375.809 28.1051 375.914 28.5739 376.125 28.9773C376.335 29.375 376.633 29.6847 377.019 29.9062C377.406 30.1278 377.866 30.2386 378.4 30.2386C378.769 30.2386 379.105 30.1875 379.406 30.0852C379.707 29.983 379.965 29.8324 380.181 29.6335C380.397 29.4347 380.559 29.1903 380.667 28.9006L384.494 29.0114C384.335 29.8693 383.985 30.6165 383.446 31.2528C382.911 31.8835 382.21 32.375 381.34 32.7273C380.471 33.0739 379.465 33.2472 378.323 33.2472ZM398.094 23.9062L394.267 24.0085C394.228 23.7358 394.12 23.4943 393.943 23.2841C393.767 23.0682 393.537 22.9006 393.253 22.7812C392.975 22.6562 392.651 22.5938 392.281 22.5938C391.799 22.5938 391.387 22.6903 391.046 22.8835C390.71 23.0767 390.546 23.3381 390.551 23.6676C390.546 23.9233 390.648 24.1449 390.858 24.3324C391.074 24.5199 391.458 24.6705 392.009 24.7841L394.531 25.2614C395.838 25.5114 396.81 25.9261 397.446 26.5057C398.088 27.0852 398.412 27.8523 398.418 28.8068C398.412 29.7045 398.145 30.4858 397.617 31.1506C397.094 31.8153 396.378 32.3324 395.469 32.7017C394.56 33.0653 393.52 33.2472 392.35 33.2472C390.48 33.2472 389.006 32.8636 387.926 32.0966C386.853 31.3239 386.239 30.2898 386.085 28.9943L390.202 28.892C390.293 29.3693 390.529 29.733 390.909 29.983C391.29 30.233 391.776 30.358 392.367 30.358C392.901 30.358 393.335 30.2585 393.671 30.0597C394.006 29.8608 394.176 29.5966 394.182 29.267C394.176 28.9716 394.046 28.7358 393.79 28.5597C393.534 28.3778 393.134 28.2358 392.588 28.1335L390.304 27.6989C388.992 27.4602 388.014 27.0199 387.372 26.3778C386.73 25.7301 386.412 24.9062 386.418 23.9062C386.412 23.0312 386.645 22.2841 387.117 21.6648C387.588 21.0398 388.259 20.5625 389.128 20.233C389.997 19.9034 391.023 19.7386 392.205 19.7386C393.978 19.7386 395.375 20.1108 396.398 20.8551C397.421 21.5937 397.986 22.6108 398.094 23.9062ZM400.47 33V19.9091H404.637V33H400.47ZM402.558 18.3835C401.973 18.3835 401.47 18.1903 401.049 17.804C400.629 17.4119 400.419 16.9403 400.419 16.3892C400.419 15.8437 400.629 15.3778 401.049 14.9915C401.47 14.5994 401.973 14.4034 402.558 14.4034C403.149 14.4034 403.652 14.5994 404.066 14.9915C404.487 15.3778 404.697 15.8437 404.697 16.3892C404.697 16.9403 404.487 17.4119 404.066 17.804C403.652 18.1903 403.149 18.3835 402.558 18.3835ZM413.392 38.1818C412.148 38.1818 411.083 38.0085 410.196 37.6619C409.31 37.3153 408.614 36.8409 408.108 36.2386C407.603 35.6364 407.299 34.9545 407.196 34.1932L411.142 33.9716C411.216 34.2386 411.353 34.4716 411.551 34.6705C411.756 34.8693 412.02 35.0227 412.344 35.1307C412.674 35.2386 413.06 35.2926 413.503 35.2926C414.202 35.2926 414.779 35.1222 415.233 34.7812C415.693 34.446 415.924 33.858 415.924 33.017V30.7159H415.779C415.614 31.1193 415.364 31.4801 415.029 31.7983C414.693 32.1165 414.276 32.3665 413.776 32.5483C413.281 32.7301 412.713 32.821 412.071 32.821C411.117 32.821 410.242 32.5994 409.446 32.1562C408.656 31.7074 408.023 31.0142 407.546 30.0767C407.074 29.1335 406.838 27.9205 406.838 26.4375C406.838 24.9091 407.083 23.6506 407.571 22.6619C408.06 21.6676 408.699 20.9318 409.489 20.4545C410.284 19.9773 411.139 19.7386 412.054 19.7386C412.742 19.7386 413.33 19.858 413.818 20.0966C414.313 20.3295 414.719 20.6307 415.037 21C415.355 21.3693 415.597 21.7528 415.762 22.1506H415.881V19.9091H420.031V33.0511C420.031 34.1591 419.753 35.0938 419.196 35.8551C418.639 36.6165 417.861 37.1932 416.861 37.5852C415.861 37.983 414.705 38.1818 413.392 38.1818ZM413.52 29.7869C414.026 29.7869 414.458 29.6534 414.816 29.3864C415.174 29.1193 415.449 28.7358 415.642 28.2358C415.835 27.7358 415.932 27.1364 415.932 26.4375C415.932 25.7273 415.835 25.1165 415.642 24.6051C415.455 24.0881 415.179 23.6903 414.816 23.4119C414.458 23.1335 414.026 22.9943 413.52 22.9943C413.003 22.9943 412.566 23.1364 412.208 23.4205C411.85 23.7045 411.577 24.1051 411.389 24.6222C411.208 25.1335 411.117 25.7386 411.117 26.4375C411.117 27.1364 411.21 27.7358 411.398 28.2358C411.585 28.7358 411.855 29.1193 412.208 29.3864C412.566 29.6534 413.003 29.7869 413.52 29.7869ZM426.856 25.5341V33H422.688V19.9091H426.652V22.3125H426.796C427.086 21.5114 427.58 20.8835 428.279 20.429C428.978 19.9688 429.811 19.7386 430.777 19.7386C431.697 19.7386 432.495 19.946 433.171 20.3608C433.853 20.7699 434.382 21.3437 434.757 22.0824C435.137 22.8153 435.325 23.6733 435.319 24.6562V33H431.152V25.4744C431.157 24.7472 430.973 24.179 430.598 23.7699C430.228 23.3608 429.714 23.1562 429.055 23.1562C428.617 23.1562 428.231 23.2528 427.896 23.446C427.566 23.6335 427.311 23.9034 427.129 24.2557C426.953 24.608 426.862 25.0341 426.856 25.5341Z" fill="#0B5793"/>
<g filter="url(#filter1_d_408_955)">
<rect x="0.5" y="59.5" width="120" height="79" rx="10" fill="white"/>
<rect x="1.5" y="60.5" width="118" height="77" rx="9" stroke="#909090" stroke-opacity="0.25" stroke-width="2"/>
</g>
<path d="M16.7642 95V80.4545H22.5028C23.6061 80.4545 24.5459 80.6652 25.3224 81.0866C26.099 81.5033 26.6908 82.0833 27.098 82.8267C27.5099 83.5653 27.7159 84.4176 27.7159 85.3835C27.7159 86.3494 27.5076 87.2017 27.0909 87.9403C26.6742 88.679 26.0705 89.2543 25.2798 89.6662C24.4938 90.0781 23.5421 90.2841 22.4247 90.2841H18.767V87.8196H21.9276C22.5194 87.8196 23.0071 87.7178 23.3906 87.5142C23.7789 87.3059 24.0677 87.0194 24.2571 86.6548C24.4512 86.2855 24.5483 85.8617 24.5483 85.3835C24.5483 84.9006 24.4512 84.4792 24.2571 84.1193C24.0677 83.7547 23.7789 83.473 23.3906 83.2741C23.0024 83.0705 22.5099 82.9688 21.9134 82.9688H19.8395V95H16.7642ZM29.6566 95V84.0909H32.5898V85.9943H32.7035C32.9023 85.3172 33.2362 84.8059 33.7049 84.4602C34.1737 84.1098 34.7134 83.9347 35.3242 83.9347C35.4757 83.9347 35.6391 83.9441 35.8143 83.9631C35.9895 83.982 36.1433 84.008 36.2759 84.0412V86.7259C36.1339 86.6832 35.9374 86.6454 35.6864 86.6122C35.4355 86.5791 35.2058 86.5625 34.9975 86.5625C34.5524 86.5625 34.1547 86.6596 33.8043 86.8537C33.4587 87.0431 33.1841 87.3082 32.9805 87.6491C32.7816 87.9901 32.6822 88.383 32.6822 88.8281V95H29.6566ZM42.304 95.2131C41.1818 95.2131 40.2159 94.9858 39.4062 94.5312C38.6013 94.072 37.9811 93.4233 37.5455 92.5852C37.1098 91.7424 36.892 90.7457 36.892 89.5952C36.892 88.473 37.1098 87.4882 37.5455 86.6406C37.9811 85.7931 38.5942 85.1326 39.3849 84.6591C40.1804 84.1856 41.1132 83.9489 42.1832 83.9489C42.9029 83.9489 43.5729 84.0649 44.1932 84.2969C44.8182 84.5241 45.3627 84.8674 45.8267 85.3267C46.2955 85.786 46.66 86.3636 46.9205 87.0597C47.1809 87.7509 47.3111 88.5606 47.3111 89.4886V90.3196H38.0994V88.4446H44.4631C44.4631 88.009 44.3684 87.6231 44.179 87.2869C43.9896 86.9508 43.7268 86.688 43.3906 86.4986C43.0592 86.3045 42.6733 86.2074 42.233 86.2074C41.7737 86.2074 41.3665 86.3139 41.0114 86.527C40.661 86.7353 40.3864 87.017 40.1875 87.3722C39.9886 87.7225 39.8868 88.1132 39.8821 88.544V90.3267C39.8821 90.8665 39.9815 91.3329 40.1804 91.7259C40.384 92.1188 40.6705 92.4219 41.0398 92.6349C41.4091 92.848 41.8471 92.9545 42.3537 92.9545C42.6899 92.9545 42.9976 92.9072 43.277 92.8125C43.5563 92.7178 43.7955 92.5758 43.9943 92.3864C44.1932 92.197 44.3447 91.965 44.4489 91.6903L47.2472 91.875C47.1051 92.5473 46.8139 93.1345 46.3736 93.6364C45.938 94.1335 45.3745 94.5218 44.6832 94.8011C43.9967 95.0758 43.2036 95.2131 42.304 95.2131ZM52.3111 80.4545V95H49.2855V80.4545H52.3111ZM54.7347 95V84.0909H57.7603V95H54.7347ZM56.2546 82.6847C55.8048 82.6847 55.4189 82.5355 55.0969 82.2372C54.7797 81.9342 54.6211 81.572 54.6211 81.1506C54.6211 80.7339 54.7797 80.3764 55.0969 80.0781C55.4189 79.7751 55.8048 79.6236 56.2546 79.6236C56.7044 79.6236 57.0879 79.7751 57.4052 80.0781C57.7272 80.3764 57.8881 80.7339 57.8881 81.1506C57.8881 81.572 57.7272 81.9342 57.4052 82.2372C57.0879 82.5355 56.7044 82.6847 56.2546 82.6847ZM60.1839 95V84.0909H63.0675V86.0156H63.1953C63.4226 85.3764 63.8014 84.8722 64.3317 84.5028C64.862 84.1335 65.4964 83.9489 66.2351 83.9489C66.9832 83.9489 67.62 84.1359 68.1456 84.5099C68.6712 84.8793 69.0215 85.3812 69.1967 86.0156H69.3104C69.5329 85.3906 69.9354 84.8911 70.5178 84.517C71.1049 84.1383 71.7985 83.9489 72.5987 83.9489C73.6167 83.9489 74.4429 84.2732 75.0774 84.9219C75.7166 85.5658 76.0362 86.4796 76.0362 87.6634V95H73.0178V88.2599C73.0178 87.6539 72.8568 87.1993 72.5348 86.8963C72.2128 86.5933 71.8104 86.4418 71.3274 86.4418C70.7782 86.4418 70.3497 86.617 70.0419 86.9673C69.7341 87.313 69.5803 87.7699 69.5803 88.3381V95H66.647V88.196C66.647 87.661 66.4931 87.2348 66.1854 86.9176C65.8823 86.6004 65.4822 86.4418 64.9851 86.4418C64.6489 86.4418 64.3459 86.527 64.076 86.6974C63.8108 86.8632 63.6001 87.0975 63.4439 87.4006C63.2876 87.6989 63.2095 88.0492 63.2095 88.4517V95H60.1839ZM80.1946 95.1847C79.7259 95.1847 79.3234 95.0189 78.9872 94.6875C78.6558 94.3513 78.4901 93.9489 78.4901 93.4801C78.4901 93.0161 78.6558 92.6184 78.9872 92.2869C79.3234 91.9555 79.7259 91.7898 80.1946 91.7898C80.6491 91.7898 81.0469 91.9555 81.3878 92.2869C81.7287 92.6184 81.8991 93.0161 81.8991 93.4801C81.8991 93.7926 81.8187 94.0791 81.6577 94.3395C81.5014 94.5952 81.2955 94.8011 81.0398 94.9574C80.7841 95.1089 80.5024 95.1847 80.1946 95.1847ZM80.1946 87.5426C79.7259 87.5426 79.3234 87.3769 78.9872 87.0455C78.6558 86.714 78.4901 86.3116 78.4901 85.8381C78.4901 85.3741 78.6558 84.9787 78.9872 84.652C79.3234 84.3205 79.7259 84.1548 80.1946 84.1548C80.6491 84.1548 81.0469 84.3205 81.3878 84.652C81.7287 84.9787 81.8991 85.3741 81.8991 85.8381C81.8991 86.1553 81.8187 86.4441 81.6577 86.7045C81.5014 86.9602 81.2955 87.1638 81.0398 87.3153C80.7841 87.4669 80.5024 87.5426 80.1946 87.5426Z" fill="#0B5793"/>
<path d="M21.7358 104.256C22.3845 104.26 23.0237 104.379 23.6534 104.611C24.2831 104.843 24.8513 105.222 25.358 105.747C25.8693 106.273 26.2765 106.983 26.5795 107.878C26.8873 108.768 27.0436 109.876 27.0483 111.202C27.0483 112.475 26.9205 113.609 26.6648 114.604C26.4091 115.593 26.0421 116.429 25.5639 117.111C25.0904 117.793 24.5152 118.311 23.8381 118.666C23.161 119.021 22.3987 119.199 21.5511 119.199C20.6847 119.199 19.9152 119.028 19.2429 118.688C18.5705 118.347 18.0237 117.875 17.6023 117.274C17.1809 116.668 16.9181 115.972 16.8139 115.186H18.9801C19.1222 115.811 19.411 116.318 19.8466 116.706C20.2869 117.089 20.8551 117.281 21.5511 117.281C22.6165 117.281 23.4474 116.817 24.044 115.889C24.6406 114.956 24.9413 113.654 24.946 111.983H24.8324C24.5862 112.39 24.2784 112.741 23.9091 113.034C23.5445 113.328 23.1349 113.555 22.6804 113.716C22.2259 113.877 21.7405 113.957 21.2244 113.957C20.3864 113.957 19.6241 113.751 18.9375 113.339C18.2509 112.928 17.7041 112.362 17.2969 111.642C16.8897 110.922 16.6861 110.101 16.6861 109.178C16.6861 108.259 16.8944 107.426 17.3111 106.678C17.7325 105.929 18.3196 105.338 19.0724 104.902C19.83 104.462 20.7178 104.246 21.7358 104.256ZM21.7429 106.102C21.1889 106.102 20.6894 106.24 20.2443 106.514C19.804 106.784 19.456 107.151 19.2003 107.615C18.9446 108.074 18.8168 108.586 18.8168 109.149C18.8168 109.713 18.9399 110.224 19.1861 110.683C19.437 111.138 19.7779 111.5 20.2088 111.77C20.6444 112.035 21.1416 112.168 21.7003 112.168C22.117 112.168 22.5052 112.087 22.8651 111.926C23.2249 111.765 23.5398 111.543 23.8097 111.259C24.0795 110.97 24.2902 110.643 24.4418 110.278C24.5933 109.914 24.669 109.53 24.669 109.128C24.669 108.593 24.5412 108.096 24.2855 107.636C24.0346 107.177 23.6889 106.808 23.2486 106.528C22.8082 106.244 22.3063 106.102 21.7429 106.102ZM34.6921 119.199C34.0434 119.189 33.4042 119.071 32.7745 118.844C32.1495 118.616 31.5813 118.238 31.07 117.707C30.5586 117.177 30.149 116.464 29.8413 115.57C29.5382 114.675 29.3867 113.557 29.3867 112.217C29.3867 110.948 29.5122 109.821 29.7631 108.837C30.0188 107.852 30.3858 107.021 30.864 106.344C31.3422 105.662 31.9199 105.143 32.5969 104.788C33.274 104.433 34.034 104.256 34.8768 104.256C35.7433 104.256 36.5127 104.426 37.185 104.767C37.8574 105.108 38.4019 105.579 38.8185 106.18C39.2399 106.782 39.5075 107.466 39.6211 108.233H37.4549C37.3081 107.627 37.0169 107.132 36.5813 106.749C36.1457 106.365 35.5775 106.173 34.8768 106.173C33.8114 106.173 32.9805 106.637 32.3839 107.565C31.792 108.493 31.4937 109.784 31.489 111.436H31.5955C31.8465 111.024 32.1542 110.674 32.5188 110.385C32.8881 110.091 33.3001 109.866 33.7546 109.71C34.2139 109.549 34.6969 109.469 35.2035 109.469C36.0463 109.469 36.8086 109.675 37.4904 110.087C38.177 110.494 38.7238 111.057 39.131 111.777C39.5382 112.497 39.7418 113.321 39.7418 114.249C39.7418 115.177 39.5311 116.017 39.1097 116.77C38.6931 117.523 38.1059 118.119 37.3484 118.56C36.5908 118.995 35.7054 119.208 34.6921 119.199ZM34.685 117.352C35.2437 117.352 35.7433 117.215 36.1836 116.94C36.6239 116.666 36.9719 116.296 37.2276 115.832C37.4833 115.368 37.6112 114.85 37.6112 114.277C37.6112 113.718 37.4857 113.209 37.2347 112.75C36.9885 112.291 36.6476 111.926 36.212 111.656C35.7811 111.386 35.2887 111.251 34.7347 111.251C34.3133 111.251 33.9227 111.332 33.5629 111.493C33.2077 111.654 32.8952 111.876 32.6254 112.161C32.3555 112.445 32.1424 112.771 31.9862 113.141C31.8346 113.505 31.7589 113.891 31.7589 114.298C31.7589 114.843 31.8844 115.347 32.1353 115.811C32.391 116.275 32.739 116.649 33.1793 116.933C33.6244 117.213 34.1263 117.352 34.685 117.352ZM43.0923 119.135C42.7041 119.135 42.3703 118.998 42.0909 118.723C41.8116 118.444 41.6719 118.107 41.6719 117.714C41.6719 117.326 41.8116 116.995 42.0909 116.72C42.3703 116.441 42.7041 116.301 43.0923 116.301C43.4806 116.301 43.8144 116.441 44.0938 116.72C44.3731 116.995 44.5128 117.326 44.5128 117.714C44.5128 117.975 44.4465 118.214 44.3139 118.432C44.1861 118.645 44.0156 118.815 43.8026 118.943C43.5895 119.071 43.3527 119.135 43.0923 119.135ZM51.8956 119.199C51.0054 119.199 50.2053 119.028 49.495 118.688C48.7895 118.342 48.2261 117.868 47.8047 117.267C47.3833 116.666 47.1584 115.979 47.13 115.207H49.2607C49.3127 115.832 49.5897 116.346 50.0916 116.749C50.5935 117.151 51.1948 117.352 51.8956 117.352C52.4543 117.352 52.9491 117.224 53.38 116.969C53.8156 116.708 54.1565 116.351 54.4027 115.896C54.6536 115.442 54.7791 114.923 54.7791 114.341C54.7791 113.749 54.6513 113.221 54.3956 112.757C54.1399 112.293 53.7872 111.929 53.3374 111.663C52.8923 111.398 52.3809 111.263 51.8033 111.259C51.3629 111.259 50.9202 111.334 50.4751 111.486C50.0301 111.637 49.6702 111.836 49.3956 112.082L47.3857 111.784L48.2024 104.455H56.1996V106.337H50.0277L49.5661 110.406H49.6513C49.9354 110.132 50.3118 109.902 50.7805 109.717C51.254 109.533 51.7607 109.44 52.3004 109.44C53.1858 109.44 53.9742 109.651 54.6655 110.072C55.3615 110.494 55.9084 111.069 56.3061 111.798C56.7086 112.523 56.9074 113.356 56.9027 114.298C56.9074 115.241 56.6944 116.081 56.2635 116.82C55.8374 117.558 55.2455 118.141 54.4879 118.567C53.7351 118.988 52.871 119.199 51.8956 119.199ZM64.5607 119.241C63.4386 119.237 62.4798 118.941 61.6843 118.354C60.8888 117.767 60.2804 116.912 59.859 115.79C59.4376 114.668 59.2269 113.316 59.2269 111.734C59.2269 110.158 59.4376 108.811 59.859 107.693C60.2852 106.576 60.896 105.723 61.6914 105.136C62.4916 104.549 63.448 104.256 64.5607 104.256C65.6734 104.256 66.6275 104.552 67.4229 105.143C68.2184 105.731 68.8268 106.583 69.2482 107.7C69.6744 108.813 69.8874 110.158 69.8874 111.734C69.8874 113.321 69.6767 114.675 69.2553 115.797C68.8339 116.914 68.2255 117.769 67.43 118.361C66.6346 118.948 65.6781 119.241 64.5607 119.241ZM64.5607 117.345C65.5456 117.345 66.315 116.865 66.869 115.903C67.4277 114.942 67.707 113.553 67.707 111.734C67.707 110.527 67.5792 109.507 67.3235 108.673C67.0726 107.835 66.7103 107.201 66.2369 106.77C65.7681 106.334 65.2094 106.116 64.5607 106.116C63.5806 106.116 62.8112 106.599 62.2525 107.565C61.6938 108.531 61.4121 109.921 61.4073 111.734C61.4073 112.946 61.5328 113.972 61.7837 114.81C62.0394 115.643 62.4016 116.275 62.8704 116.706C63.3391 117.132 63.9026 117.345 64.5607 117.345Z" fill="#0B5793"/>
<g filter="url(#filter2_d_408_955)">
<rect x="130.5" y="59.5" width="120" height="79" rx="10" fill="white"/>
<rect x="131.5" y="60.5" width="118" height="77" rx="9" stroke="#909090" stroke-opacity="0.25" stroke-width="2"/>
</g>
<path d="M146.679 80.4545H150.472L154.477 90.2273H154.648L158.654 80.4545H162.446V95H159.463V85.5327H159.342L155.578 94.929H153.547L149.783 85.4972H149.662V95H146.679V80.4545ZM164.923 95V84.0909H167.949V95H164.923ZM166.443 82.6847C165.993 82.6847 165.607 82.5355 165.285 82.2372C164.968 81.9342 164.809 81.572 164.809 81.1506C164.809 80.7339 164.968 80.3764 165.285 80.0781C165.607 79.7751 165.993 79.6236 166.443 79.6236C166.893 79.6236 167.276 79.7751 167.594 80.0781C167.916 80.3764 168.076 80.7339 168.076 81.1506C168.076 81.572 167.916 81.9342 167.594 82.2372C167.276 82.5355 166.893 82.6847 166.443 82.6847ZM174.392 95.1776C173.564 95.1776 172.813 94.9645 172.141 94.5384C171.473 94.1075 170.943 93.4754 170.55 92.642C170.162 91.804 169.967 90.7765 169.967 89.5597C169.967 88.3097 170.169 87.2704 170.571 86.4418C170.974 85.6084 171.509 84.9858 172.176 84.5739C172.849 84.1572 173.585 83.9489 174.385 83.9489C174.996 83.9489 175.505 84.053 175.912 84.2614C176.324 84.465 176.655 84.7206 176.906 85.0284C177.162 85.3314 177.356 85.6297 177.489 85.9233H177.581V80.4545H180.6V95H177.617V93.2528H177.489C177.347 93.5559 177.146 93.8565 176.885 94.1548C176.629 94.4484 176.296 94.6922 175.884 94.8864C175.476 95.0805 174.979 95.1776 174.392 95.1776ZM175.351 92.7699C175.839 92.7699 176.251 92.6373 176.587 92.3722C176.928 92.1023 177.188 91.7259 177.368 91.2429C177.553 90.7599 177.645 90.1941 177.645 89.5455C177.645 88.8968 177.555 88.3333 177.375 87.8551C177.195 87.3769 176.935 87.0076 176.594 86.7472C176.253 86.4867 175.839 86.3565 175.351 86.3565C174.854 86.3565 174.435 86.4915 174.094 86.7614C173.753 87.0312 173.495 87.4053 173.32 87.8835C173.145 88.3617 173.057 88.9157 173.057 89.5455C173.057 90.1799 173.145 90.741 173.32 91.2287C173.5 91.7116 173.758 92.0904 174.094 92.3651C174.435 92.6349 174.854 92.7699 175.351 92.7699ZM188.89 84.0909V86.3636H182.32V84.0909H188.89ZM183.812 81.4773H186.837V91.6477C186.837 91.9271 186.88 92.1449 186.965 92.3011C187.05 92.4527 187.169 92.5592 187.32 92.6207C187.476 92.6823 187.656 92.7131 187.86 92.7131C188.002 92.7131 188.144 92.7012 188.286 92.6776C188.428 92.6491 188.537 92.6278 188.613 92.6136L189.089 94.8651C188.937 94.9124 188.724 94.9669 188.449 95.0284C188.175 95.0947 187.841 95.1349 187.448 95.1491C186.719 95.1776 186.08 95.0805 185.53 94.858C184.986 94.6354 184.562 94.2898 184.259 93.821C183.956 93.3523 183.807 92.7604 183.812 92.0455V81.4773ZM195.715 95.2131C194.593 95.2131 193.627 94.9858 192.817 94.5312C192.012 94.072 191.392 93.4233 190.956 92.5852C190.521 91.7424 190.303 90.7457 190.303 89.5952C190.303 88.473 190.521 87.4882 190.956 86.6406C191.392 85.7931 192.005 85.1326 192.796 84.6591C193.591 84.1856 194.524 83.9489 195.594 83.9489C196.314 83.9489 196.984 84.0649 197.604 84.2969C198.229 84.5241 198.774 84.8674 199.238 85.3267C199.706 85.786 200.071 86.3636 200.331 87.0597C200.592 87.7509 200.722 88.5606 200.722 89.4886V90.3196H191.51V88.4446H197.874C197.874 88.009 197.779 87.6231 197.59 87.2869C197.401 86.9508 197.138 86.688 196.802 86.4986C196.47 86.3045 196.084 86.2074 195.644 86.2074C195.185 86.2074 194.777 86.3139 194.422 86.527C194.072 86.7353 193.797 87.017 193.599 87.3722C193.4 87.7225 193.298 88.1132 193.293 88.544V90.3267C193.293 90.8665 193.393 91.3329 193.591 91.7259C193.795 92.1188 194.081 92.4219 194.451 92.6349C194.82 92.848 195.258 92.9545 195.765 92.9545C196.101 92.9545 196.409 92.9072 196.688 92.8125C196.967 92.7178 197.206 92.5758 197.405 92.3864C197.604 92.197 197.756 91.965 197.86 91.6903L200.658 91.875C200.516 92.5473 200.225 93.1345 199.785 93.6364C199.349 94.1335 198.786 94.5218 198.094 94.8011C197.408 95.0758 196.615 95.2131 195.715 95.2131ZM202.697 95V84.0909H205.63V85.9943H205.743C205.942 85.3172 206.276 84.8059 206.745 84.4602C207.214 84.1098 207.753 83.9347 208.364 83.9347C208.516 83.9347 208.679 83.9441 208.854 83.9631C209.029 83.982 209.183 84.008 209.316 84.0412V86.7259C209.174 86.6832 208.977 86.6454 208.726 86.6122C208.475 86.5791 208.246 86.5625 208.037 86.5625C207.592 86.5625 207.195 86.6596 206.844 86.8537C206.499 87.0431 206.224 87.3082 206.02 87.6491C205.822 87.9901 205.722 88.383 205.722 88.8281V95H202.697ZM210.88 95V84.0909H213.764V86.0156H213.891C214.119 85.3764 214.498 84.8722 215.028 84.5028C215.558 84.1335 216.193 83.9489 216.931 83.9489C217.679 83.9489 218.316 84.1359 218.842 84.5099C219.367 84.8793 219.718 85.3812 219.893 86.0156H220.007C220.229 85.3906 220.632 84.8911 221.214 84.517C221.801 84.1383 222.495 83.9489 223.295 83.9489C224.313 83.9489 225.139 84.2732 225.774 84.9219C226.413 85.5658 226.732 86.4796 226.732 87.6634V95H223.714V88.2599C223.714 87.6539 223.553 87.1993 223.231 86.8963C222.909 86.5933 222.507 86.4418 222.024 86.4418C221.474 86.4418 221.046 86.617 220.738 86.9673C220.43 87.313 220.276 87.7699 220.276 88.3381V95H217.343V88.196C217.343 87.661 217.189 87.2348 216.882 86.9176C216.579 86.6004 216.178 86.4418 215.681 86.4418C215.345 86.4418 215.042 86.527 214.772 86.6974C214.507 86.8632 214.296 87.0975 214.14 87.4006C213.984 87.6989 213.906 88.0492 213.906 88.4517V95H210.88ZM230.891 95.1847C230.422 95.1847 230.02 95.0189 229.683 94.6875C229.352 94.3513 229.186 93.9489 229.186 93.4801C229.186 93.0161 229.352 92.6184 229.683 92.2869C230.02 91.9555 230.422 91.7898 230.891 91.7898C231.345 91.7898 231.743 91.9555 232.084 92.2869C232.425 92.6184 232.595 93.0161 232.595 93.4801C232.595 93.7926 232.515 94.0791 232.354 94.3395C232.198 94.5952 231.992 94.8011 231.736 94.9574C231.48 95.1089 231.199 95.1847 230.891 95.1847ZM230.891 87.5426C230.422 87.5426 230.02 87.3769 229.683 87.0455C229.352 86.714 229.186 86.3116 229.186 85.8381C229.186 85.3741 229.352 84.9787 229.683 84.652C230.02 84.3205 230.422 84.1548 230.891 84.1548C231.345 84.1548 231.743 84.3205 232.084 84.652C232.425 84.9787 232.595 85.3741 232.595 85.8381C232.595 86.1553 232.515 86.4441 232.354 86.7045C232.198 86.9602 231.992 87.1638 231.736 87.3153C231.48 87.4669 231.199 87.5426 230.891 87.5426Z" fill="#0B5793"/>
<path d="M151.729 119.199C150.711 119.199 149.811 119.024 149.03 118.673C148.253 118.323 147.645 117.84 147.205 117.224C146.764 116.609 146.547 115.908 146.551 115.122C146.547 114.507 146.672 113.941 146.928 113.425C147.188 112.904 147.541 112.471 147.986 112.125C148.431 111.775 148.928 111.552 149.477 111.457V111.372C148.753 111.197 148.173 110.809 147.737 110.207C147.302 109.606 147.086 108.915 147.091 108.134C147.086 107.39 147.283 106.727 147.681 106.145C148.083 105.558 148.635 105.096 149.335 104.76C150.036 104.424 150.834 104.256 151.729 104.256C152.614 104.256 153.405 104.426 154.101 104.767C154.802 105.103 155.353 105.565 155.756 106.152C156.158 106.734 156.362 107.395 156.367 108.134C156.362 108.915 156.139 109.606 155.699 110.207C155.259 110.809 154.686 111.197 153.98 111.372V111.457C154.525 111.552 155.015 111.775 155.45 112.125C155.891 112.471 156.241 112.904 156.502 113.425C156.767 113.941 156.902 114.507 156.906 115.122C156.902 115.908 156.679 116.609 156.239 117.224C155.798 117.84 155.188 118.323 154.406 118.673C153.63 119.024 152.737 119.199 151.729 119.199ZM151.729 117.402C152.33 117.402 152.851 117.303 153.291 117.104C153.732 116.9 154.073 116.618 154.314 116.259C154.556 115.894 154.679 115.468 154.683 114.98C154.679 114.473 154.546 114.026 154.286 113.638C154.03 113.25 153.682 112.944 153.242 112.722C152.801 112.499 152.297 112.388 151.729 112.388C151.156 112.388 150.647 112.499 150.202 112.722C149.757 112.944 149.406 113.25 149.151 113.638C148.895 114.026 148.77 114.473 148.774 114.98C148.77 115.468 148.886 115.894 149.122 116.259C149.364 116.618 149.707 116.9 150.152 117.104C150.597 117.303 151.123 117.402 151.729 117.402ZM151.729 110.634C152.212 110.634 152.64 110.536 153.014 110.342C153.388 110.148 153.682 109.878 153.895 109.533C154.113 109.187 154.224 108.782 154.229 108.318C154.224 107.864 154.115 107.466 153.902 107.125C153.694 106.784 153.403 106.521 153.029 106.337C152.655 106.147 152.221 106.053 151.729 106.053C151.227 106.053 150.787 106.147 150.408 106.337C150.034 106.521 149.743 106.784 149.534 107.125C149.326 107.466 149.224 107.864 149.229 108.318C149.224 108.782 149.328 109.187 149.541 109.533C149.754 109.878 150.048 110.148 150.422 110.342C150.801 110.536 151.236 110.634 151.729 110.634ZM164.287 104.256C164.936 104.26 165.575 104.379 166.205 104.611C166.835 104.843 167.403 105.222 167.91 105.747C168.421 106.273 168.828 106.983 169.131 107.878C169.439 108.768 169.595 109.876 169.6 111.202C169.6 112.475 169.472 113.609 169.216 114.604C168.961 115.593 168.594 116.429 168.116 117.111C167.642 117.793 167.067 118.311 166.39 118.666C165.713 119.021 164.95 119.199 164.103 119.199C163.236 119.199 162.467 119.028 161.795 118.688C161.122 118.347 160.575 117.875 160.154 117.274C159.733 116.668 159.47 115.972 159.366 115.186H161.532C161.674 115.811 161.963 116.318 162.398 116.706C162.839 117.089 163.407 117.281 164.103 117.281C165.168 117.281 165.999 116.817 166.596 115.889C167.192 114.956 167.493 113.654 167.498 111.983H167.384C167.138 112.39 166.83 112.741 166.461 113.034C166.096 113.328 165.687 113.555 165.232 113.716C164.777 113.877 164.292 113.957 163.776 113.957C162.938 113.957 162.176 113.751 161.489 113.339C160.803 112.928 160.256 112.362 159.849 111.642C159.441 110.922 159.238 110.101 159.238 109.178C159.238 108.259 159.446 107.426 159.863 106.678C160.284 105.929 160.871 105.338 161.624 104.902C162.382 104.462 163.269 104.246 164.287 104.256ZM164.295 106.102C163.741 106.102 163.241 106.24 162.796 106.514C162.356 106.784 162.008 107.151 161.752 107.615C161.496 108.074 161.368 108.586 161.368 109.149C161.368 109.713 161.492 110.224 161.738 110.683C161.989 111.138 162.33 111.5 162.76 111.77C163.196 112.035 163.693 112.168 164.252 112.168C164.669 112.168 165.057 112.087 165.417 111.926C165.777 111.765 166.091 111.543 166.361 111.259C166.631 110.97 166.842 110.643 166.993 110.278C167.145 109.914 167.221 109.53 167.221 109.128C167.221 108.593 167.093 108.096 166.837 107.636C166.586 107.177 166.241 106.808 165.8 106.528C165.36 106.244 164.858 106.102 164.295 106.102ZM173.066 119.135C172.678 119.135 172.344 118.998 172.064 118.723C171.785 118.444 171.645 118.107 171.645 117.714C171.645 117.326 171.785 116.995 172.064 116.72C172.344 116.441 172.678 116.301 173.066 116.301C173.454 116.301 173.788 116.441 174.067 116.72C174.347 116.995 174.486 117.326 174.486 117.714C174.486 117.975 174.42 118.214 174.287 118.432C174.16 118.645 173.989 118.815 173.776 118.943C173.563 119.071 173.326 119.135 173.066 119.135ZM181.869 119.199C180.979 119.199 180.179 119.028 179.469 118.688C178.763 118.342 178.2 117.868 177.778 117.267C177.357 116.666 177.132 115.979 177.103 115.207H179.234C179.286 115.832 179.563 116.346 180.065 116.749C180.567 117.151 181.168 117.352 181.869 117.352C182.428 117.352 182.923 117.224 183.353 116.969C183.789 116.708 184.13 116.351 184.376 115.896C184.627 115.442 184.753 114.923 184.753 114.341C184.753 113.749 184.625 113.221 184.369 112.757C184.113 112.293 183.761 111.929 183.311 111.663C182.866 111.398 182.354 111.263 181.777 111.259C181.336 111.259 180.894 111.334 180.449 111.486C180.004 111.637 179.644 111.836 179.369 112.082L177.359 111.784L178.176 104.455H186.173V106.337H180.001L179.54 110.406H179.625C179.909 110.132 180.285 109.902 180.754 109.717C181.228 109.533 181.734 109.44 182.274 109.44C183.159 109.44 183.948 109.651 184.639 110.072C185.335 110.494 185.882 111.069 186.28 111.798C186.682 112.523 186.881 113.356 186.876 114.298C186.881 115.241 186.668 116.081 186.237 116.82C185.811 117.558 185.219 118.141 184.461 118.567C183.709 118.988 182.844 119.199 181.869 119.199ZM194.534 119.241C193.412 119.237 192.453 118.941 191.658 118.354C190.862 117.767 190.254 116.912 189.833 115.79C189.411 114.668 189.2 113.316 189.2 111.734C189.2 110.158 189.411 108.811 189.833 107.693C190.259 106.576 190.869 105.723 191.665 105.136C192.465 104.549 193.422 104.256 194.534 104.256C195.647 104.256 196.601 104.552 197.396 105.143C198.192 105.731 198.8 106.583 199.222 107.7C199.648 108.813 199.861 110.158 199.861 111.734C199.861 113.321 199.65 114.675 199.229 115.797C198.807 116.914 198.199 117.769 197.404 118.361C196.608 118.948 195.652 119.241 194.534 119.241ZM194.534 117.345C195.519 117.345 196.288 116.865 196.842 115.903C197.401 114.942 197.681 113.553 197.681 111.734C197.681 110.527 197.553 109.507 197.297 108.673C197.046 107.835 196.684 107.201 196.21 106.77C195.742 106.334 195.183 106.116 194.534 106.116C193.554 106.116 192.785 106.599 192.226 107.565C191.667 108.531 191.386 109.921 191.381 111.734C191.381 112.946 191.506 113.972 191.757 114.81C192.013 115.643 192.375 116.275 192.844 116.706C193.313 117.132 193.876 117.345 194.534 117.345Z" fill="#0B5793"/>
<g filter="url(#filter3_d_408_955)">
<rect x="260.5" y="59.5" width="120" height="79" rx="10" fill="white"/>
<rect x="261.5" y="60.5" width="118" height="77" rx="9" stroke="#909090" stroke-opacity="0.25" stroke-width="2"/>
</g>
<path d="M276.679 95V80.4545H282.418C283.521 80.4545 284.461 80.6652 285.237 81.0866C286.014 81.5033 286.606 82.0833 287.013 82.8267C287.425 83.5653 287.631 84.4176 287.631 85.3835C287.631 86.3494 287.422 87.2017 287.006 87.9403C286.589 88.679 285.985 89.2543 285.195 89.6662C284.409 90.0781 283.457 90.2841 282.34 90.2841H278.682V87.8196H281.842C282.434 87.8196 282.922 87.7178 283.306 87.5142C283.694 87.3059 283.983 87.0194 284.172 86.6548C284.366 86.2855 284.463 85.8617 284.463 85.3835C284.463 84.9006 284.366 84.4792 284.172 84.1193C283.983 83.7547 283.694 83.473 283.306 83.2741C282.917 83.0705 282.425 82.9688 281.828 82.9688H279.754V95H276.679ZM289.572 95V84.0909H292.505V85.9943H292.618C292.817 85.3172 293.151 84.8059 293.62 84.4602C294.089 84.1098 294.628 83.9347 295.239 83.9347C295.391 83.9347 295.554 83.9441 295.729 83.9631C295.904 83.982 296.058 84.008 296.191 84.0412V86.7259C296.049 86.6832 295.852 86.6454 295.601 86.6122C295.35 86.5791 295.121 86.5625 294.912 86.5625C294.467 86.5625 294.07 86.6596 293.719 86.8537C293.374 87.0431 293.099 87.3082 292.895 87.6491C292.697 87.9901 292.597 88.383 292.597 88.8281V95H289.572ZM302.219 95.2131C301.097 95.2131 300.131 94.9858 299.321 94.5312C298.516 94.072 297.896 93.4233 297.46 92.5852C297.025 91.7424 296.807 90.7457 296.807 89.5952C296.807 88.473 297.025 87.4882 297.46 86.6406C297.896 85.7931 298.509 85.1326 299.3 84.6591C300.095 84.1856 301.028 83.9489 302.098 83.9489C302.818 83.9489 303.488 84.0649 304.108 84.2969C304.733 84.5241 305.278 84.8674 305.742 85.3267C306.21 85.786 306.575 86.3636 306.835 87.0597C307.096 87.7509 307.226 88.5606 307.226 89.4886V90.3196H298.014V88.4446H304.378C304.378 88.009 304.283 87.6231 304.094 87.2869C303.905 86.9508 303.642 86.688 303.306 86.4986C302.974 86.3045 302.588 86.2074 302.148 86.2074C301.689 86.2074 301.281 86.3139 300.926 86.527C300.576 86.7353 300.301 87.017 300.102 87.3722C299.904 87.7225 299.802 88.1132 299.797 88.544V90.3267C299.797 90.8665 299.896 91.3329 300.095 91.7259C300.299 92.1188 300.585 92.4219 300.955 92.6349C301.324 92.848 301.762 92.9545 302.269 92.9545C302.605 92.9545 302.913 92.9072 303.192 92.8125C303.471 92.7178 303.71 92.5758 303.909 92.3864C304.108 92.197 304.26 91.965 304.364 91.6903L307.162 91.875C307.02 92.5473 306.729 93.1345 306.288 93.6364C305.853 94.1335 305.289 94.5218 304.598 94.8011C303.912 95.0758 303.119 95.2131 302.219 95.2131ZM315.067 84.0909V86.3636H308.334V84.0909H315.067ZM309.875 95V83.3026C309.875 82.5118 310.029 81.8561 310.337 81.3352C310.649 80.8144 311.075 80.4238 311.615 80.1634C312.155 79.9029 312.768 79.7727 313.455 79.7727C313.919 79.7727 314.342 79.8082 314.726 79.8793C315.114 79.9503 315.403 80.0142 315.592 80.071L315.053 82.3438C314.934 82.3059 314.788 82.2704 314.612 82.2372C314.442 82.2041 314.267 82.1875 314.087 82.1875C313.642 82.1875 313.332 82.2917 313.156 82.5C312.981 82.7036 312.894 82.9901 312.894 83.3594V95H309.875ZM316.915 95V84.0909H319.941V95H316.915ZM318.435 82.6847C317.985 82.6847 317.599 82.5355 317.277 82.2372C316.96 81.9342 316.802 81.572 316.802 81.1506C316.802 80.7339 316.96 80.3764 317.277 80.0781C317.599 79.7751 317.985 79.6236 318.435 79.6236C318.885 79.6236 319.268 79.7751 319.586 80.0781C319.908 80.3764 320.069 80.7339 320.069 81.1506C320.069 81.572 319.908 81.9342 319.586 82.2372C319.268 82.5355 318.885 82.6847 318.435 82.6847ZM325.39 88.6932V95H322.364V84.0909H325.248V86.0156H325.376C325.617 85.3812 326.022 84.8793 326.59 84.5099C327.159 84.1359 327.847 83.9489 328.657 83.9489C329.415 83.9489 330.075 84.1146 330.639 84.446C331.202 84.7775 331.64 85.2509 331.953 85.8665C332.265 86.4773 332.421 87.2064 332.421 88.054V95H329.396V88.5938C329.4 87.9261 329.23 87.4053 328.884 87.0312C328.539 86.6525 328.063 86.4631 327.457 86.4631C327.05 86.4631 326.69 86.5507 326.377 86.7259C326.07 86.901 325.828 87.1567 325.653 87.4929C325.482 87.8243 325.395 88.2244 325.39 88.6932ZM337.917 95.206C337.221 95.206 336.6 95.0852 336.056 94.8438C335.511 94.5975 335.081 94.2353 334.763 93.7571C334.451 93.2741 334.295 92.6728 334.295 91.9531C334.295 91.3471 334.406 90.8381 334.628 90.4261C334.851 90.0142 335.154 89.6828 335.537 89.4318C335.921 89.1809 336.357 88.9915 336.844 88.8636C337.337 88.7358 337.853 88.6458 338.393 88.5938C339.027 88.5275 339.538 88.4659 339.927 88.4091C340.315 88.3475 340.597 88.2576 340.772 88.1392C340.947 88.0208 341.035 87.8456 341.035 87.6136V87.571C341.035 87.1212 340.893 86.7732 340.608 86.527C340.329 86.2808 339.931 86.1577 339.415 86.1577C338.871 86.1577 338.438 86.2784 338.116 86.5199C337.794 86.7566 337.581 87.0549 337.476 87.4148L334.678 87.1875C334.82 86.5246 335.099 85.9517 335.516 85.4688C335.933 84.9811 336.47 84.607 337.128 84.3466C337.791 84.0814 338.558 83.9489 339.429 83.9489C340.036 83.9489 340.616 84.0199 341.17 84.1619C341.728 84.304 342.223 84.5241 342.654 84.8224C343.09 85.1207 343.433 85.5043 343.684 85.973C343.935 86.437 344.06 86.9934 344.06 87.642V95H341.191V93.4872H341.106C340.93 93.8281 340.696 94.1288 340.402 94.3892C340.109 94.6449 339.756 94.8461 339.344 94.9929C338.932 95.1349 338.456 95.206 337.917 95.206ZM338.783 93.1179C339.228 93.1179 339.621 93.0303 339.962 92.8551C340.303 92.6752 340.571 92.4337 340.765 92.1307C340.959 91.8277 341.056 91.4844 341.056 91.1009V89.9432C340.961 90.0047 340.831 90.0616 340.665 90.1136C340.504 90.161 340.322 90.206 340.118 90.2486C339.915 90.2865 339.711 90.322 339.508 90.3551C339.304 90.3835 339.119 90.4096 338.954 90.4332C338.599 90.4853 338.288 90.5682 338.023 90.6818C337.758 90.7955 337.552 90.9493 337.405 91.1435C337.259 91.3329 337.185 91.5696 337.185 91.8537C337.185 92.2656 337.334 92.5805 337.633 92.7983C337.936 93.0114 338.319 93.1179 338.783 93.1179ZM349.433 80.4545V95H346.407V80.4545H349.433ZM353.625 95.1847C353.156 95.1847 352.754 95.0189 352.418 94.6875C352.086 94.3513 351.921 93.9489 351.921 93.4801C351.921 93.0161 352.086 92.6184 352.418 92.2869C352.754 91.9555 353.156 91.7898 353.625 91.7898C354.08 91.7898 354.477 91.9555 354.818 92.2869C355.159 92.6184 355.33 93.0161 355.33 93.4801C355.33 93.7926 355.249 94.0791 355.088 94.3395C354.932 94.5952 354.726 94.8011 354.47 94.9574C354.215 95.1089 353.933 95.1847 353.625 95.1847ZM353.625 87.5426C353.156 87.5426 352.754 87.3769 352.418 87.0455C352.086 86.714 351.921 86.3116 351.921 85.8381C351.921 85.3741 352.086 84.9787 352.418 84.652C352.754 84.3205 353.156 84.1548 353.625 84.1548C354.08 84.1548 354.477 84.3205 354.818 84.652C355.159 84.9787 355.33 85.3741 355.33 85.8381C355.33 86.1553 355.249 86.4441 355.088 86.7045C354.932 86.9602 354.726 87.1638 354.47 87.3153C354.215 87.4669 353.933 87.5426 353.625 87.5426Z" fill="#0B5793"/>
<path d="M281.651 104.256C282.299 104.26 282.939 104.379 283.568 104.611C284.198 104.843 284.766 105.222 285.273 105.747C285.784 106.273 286.191 106.983 286.494 107.878C286.802 108.768 286.958 109.876 286.963 111.202C286.963 112.475 286.835 113.609 286.58 114.604C286.324 115.593 285.957 116.429 285.479 117.111C285.005 117.793 284.43 118.311 283.753 118.666C283.076 119.021 282.314 119.199 281.466 119.199C280.6 119.199 279.83 119.028 279.158 118.688C278.485 118.347 277.939 117.875 277.517 117.274C277.096 116.668 276.833 115.972 276.729 115.186H278.895C279.037 115.811 279.326 116.318 279.762 116.706C280.202 117.089 280.77 117.281 281.466 117.281C282.531 117.281 283.362 116.817 283.959 115.889C284.556 114.956 284.856 113.654 284.861 111.983H284.747C284.501 112.39 284.193 112.741 283.824 113.034C283.459 113.328 283.05 113.555 282.595 113.716C282.141 113.877 281.655 113.957 281.139 113.957C280.301 113.957 279.539 113.751 278.852 113.339C278.166 112.928 277.619 112.362 277.212 111.642C276.805 110.922 276.601 110.101 276.601 109.178C276.601 108.259 276.809 107.426 277.226 106.678C277.647 105.929 278.235 105.338 278.987 104.902C279.745 104.462 280.633 104.246 281.651 104.256ZM281.658 106.102C281.104 106.102 280.604 106.24 280.159 106.514C279.719 106.784 279.371 107.151 279.115 107.615C278.86 108.074 278.732 108.586 278.732 109.149C278.732 109.713 278.855 110.224 279.101 110.683C279.352 111.138 279.693 111.5 280.124 111.77C280.559 112.035 281.056 112.168 281.615 112.168C282.032 112.168 282.42 112.087 282.78 111.926C283.14 111.765 283.455 111.543 283.725 111.259C283.994 110.97 284.205 110.643 284.357 110.278C284.508 109.914 284.584 109.53 284.584 109.128C284.584 108.593 284.456 108.096 284.2 107.636C283.949 107.177 283.604 106.808 283.163 106.528C282.723 106.244 282.221 106.102 281.658 106.102ZM289.529 119V117.409L294.451 112.31C294.976 111.756 295.41 111.27 295.75 110.854C296.096 110.432 296.354 110.032 296.525 109.653C296.695 109.275 296.78 108.872 296.78 108.446C296.78 107.963 296.667 107.546 296.439 107.196C296.212 106.841 295.902 106.569 295.509 106.379C295.116 106.185 294.673 106.088 294.181 106.088C293.66 106.088 293.206 106.195 292.817 106.408C292.429 106.621 292.131 106.921 291.922 107.31C291.714 107.698 291.61 108.152 291.61 108.673H289.515C289.515 107.788 289.718 107.014 290.125 106.351C290.533 105.688 291.091 105.174 291.802 104.81C292.512 104.44 293.319 104.256 294.224 104.256C295.137 104.256 295.942 104.438 296.638 104.803C297.339 105.162 297.886 105.655 298.279 106.28C298.672 106.9 298.868 107.601 298.868 108.382C298.868 108.922 298.767 109.45 298.563 109.966C298.364 110.482 298.016 111.057 297.519 111.692C297.022 112.321 296.331 113.086 295.445 113.986L292.554 117.011V117.118H299.103V119H289.529ZM303.222 119.135C302.834 119.135 302.5 118.998 302.221 118.723C301.941 118.444 301.802 118.107 301.802 117.714C301.802 117.326 301.941 116.995 302.221 116.72C302.5 116.441 302.834 116.301 303.222 116.301C303.61 116.301 303.944 116.441 304.224 116.72C304.503 116.995 304.643 117.326 304.643 117.714C304.643 117.975 304.576 118.214 304.444 118.432C304.316 118.645 304.145 118.815 303.932 118.943C303.719 119.071 303.483 119.135 303.222 119.135ZM311.995 119.241C310.873 119.237 309.914 118.941 309.119 118.354C308.323 117.767 307.715 116.912 307.293 115.79C306.872 114.668 306.661 113.316 306.661 111.734C306.661 110.158 306.872 108.811 307.293 107.693C307.72 106.576 308.33 105.723 309.126 105.136C309.926 104.549 310.882 104.256 311.995 104.256C313.108 104.256 314.062 104.552 314.857 105.143C315.653 105.731 316.261 106.583 316.683 107.7C317.109 108.813 317.322 110.158 317.322 111.734C317.322 113.321 317.111 114.675 316.69 115.797C316.268 116.914 315.66 117.769 314.864 118.361C314.069 118.948 313.113 119.241 311.995 119.241ZM311.995 117.345C312.98 117.345 313.749 116.865 314.303 115.903C314.862 114.942 315.141 113.553 315.141 111.734C315.141 110.527 315.014 109.507 314.758 108.673C314.507 107.835 314.145 107.201 313.671 106.77C313.203 106.334 312.644 106.116 311.995 106.116C311.015 106.116 310.246 106.599 309.687 107.565C309.128 108.531 308.846 109.921 308.842 111.734C308.842 112.946 308.967 113.972 309.218 114.81C309.474 115.643 309.836 116.275 310.305 116.706C310.774 117.132 311.337 117.345 311.995 117.345ZM324.905 119.241C323.783 119.237 322.824 118.941 322.029 118.354C321.233 117.767 320.625 116.912 320.204 115.79C319.782 114.668 319.572 113.316 319.572 111.734C319.572 110.158 319.782 108.811 320.204 107.693C320.63 106.576 321.241 105.723 322.036 105.136C322.836 104.549 323.793 104.256 324.905 104.256C326.018 104.256 326.972 104.552 327.768 105.143C328.563 105.731 329.171 106.583 329.593 107.7C330.019 108.813 330.232 110.158 330.232 111.734C330.232 113.321 330.021 114.675 329.6 115.797C329.179 116.914 328.57 117.769 327.775 118.361C326.979 118.948 326.023 119.241 324.905 119.241ZM324.905 117.345C325.89 117.345 326.66 116.865 327.214 115.903C327.772 114.942 328.052 113.553 328.052 111.734C328.052 110.527 327.924 109.507 327.668 108.673C327.417 107.835 327.055 107.201 326.581 106.77C326.113 106.334 325.554 106.116 324.905 106.116C323.925 106.116 323.156 106.599 322.597 107.565C322.038 108.531 321.757 109.921 321.752 111.734C321.752 112.946 321.877 113.972 322.128 114.81C322.384 115.643 322.746 116.275 323.215 116.706C323.684 117.132 324.247 117.345 324.905 117.345Z" fill="#0B5793"/>
<g filter="url(#filter4_d_408_955)">
<rect x="390.5" y="59.5" width="120" height="79" rx="10" fill="white"/>
<rect x="391.5" y="60.5" width="118" height="77" rx="9" stroke="#909090" stroke-opacity="0.25" stroke-width="2"/>
</g>
<path d="M406.679 95V80.4545H416.31V82.9901H409.754V86.456H415.671V88.9915H409.754V95H406.679ZM418.322 95V84.0909H421.347V95H418.322ZM419.841 82.6847C419.392 82.6847 419.006 82.5355 418.684 82.2372C418.367 81.9342 418.208 81.572 418.208 81.1506C418.208 80.7339 418.367 80.3764 418.684 80.0781C419.006 79.7751 419.392 79.6236 419.841 79.6236C420.291 79.6236 420.675 79.7751 420.992 80.0781C421.314 80.3764 421.475 80.7339 421.475 81.1506C421.475 81.572 421.314 81.9342 420.992 82.2372C420.675 82.5355 420.291 82.6847 419.841 82.6847ZM426.796 88.6932V95H423.771V84.0909H426.654V86.0156H426.782C427.024 85.3812 427.428 84.8793 427.997 84.5099C428.565 84.1359 429.254 83.9489 430.063 83.9489C430.821 83.9489 431.481 84.1146 432.045 84.446C432.608 84.7775 433.046 85.2509 433.359 85.8665C433.671 86.4773 433.828 87.2064 433.828 88.054V95H430.802V88.5938C430.807 87.9261 430.636 87.4053 430.291 87.0312C429.945 86.6525 429.469 86.4631 428.863 86.4631C428.456 86.4631 428.096 86.5507 427.784 86.7259C427.476 86.901 427.234 87.1567 427.059 87.4929C426.889 87.8243 426.801 88.2244 426.796 88.6932ZM439.323 95.206C438.627 95.206 438.007 95.0852 437.462 94.8438C436.918 94.5975 436.487 94.2353 436.17 93.7571C435.857 93.2741 435.701 92.6728 435.701 91.9531C435.701 91.3471 435.812 90.8381 436.035 90.4261C436.257 90.0142 436.56 89.6828 436.944 89.4318C437.327 89.1809 437.763 88.9915 438.25 88.8636C438.743 88.7358 439.259 88.6458 439.799 88.5938C440.433 88.5275 440.945 88.4659 441.333 88.4091C441.721 88.3475 442.003 88.2576 442.178 88.1392C442.353 88.0208 442.441 87.8456 442.441 87.6136V87.571C442.441 87.1212 442.299 86.7732 442.015 86.527C441.735 86.2808 441.338 86.1577 440.822 86.1577C440.277 86.1577 439.844 86.2784 439.522 86.5199C439.2 86.7566 438.987 87.0549 438.883 87.4148L436.084 87.1875C436.226 86.5246 436.506 85.9517 436.922 85.4688C437.339 84.9811 437.876 84.607 438.535 84.3466C439.197 84.0814 439.965 83.9489 440.836 83.9489C441.442 83.9489 442.022 84.0199 442.576 84.1619C443.134 84.304 443.629 84.5241 444.06 84.8224C444.496 85.1207 444.839 85.5043 445.09 85.973C445.341 86.437 445.466 86.9934 445.466 87.642V95H442.597V93.4872H442.512C442.337 93.8281 442.102 94.1288 441.809 94.3892C441.515 94.6449 441.162 94.8461 440.75 94.9929C440.339 95.1349 439.863 95.206 439.323 95.206ZM440.189 93.1179C440.634 93.1179 441.027 93.0303 441.368 92.8551C441.709 92.6752 441.977 92.4337 442.171 92.1307C442.365 91.8277 442.462 91.4844 442.462 91.1009V89.9432C442.367 90.0047 442.237 90.0616 442.072 90.1136C441.911 90.161 441.728 90.206 441.525 90.2486C441.321 90.2865 441.117 90.322 440.914 90.3551C440.71 90.3835 440.526 90.4096 440.36 90.4332C440.005 90.4853 439.695 90.5682 439.429 90.6818C439.164 90.7955 438.958 90.9493 438.812 91.1435C438.665 91.3329 438.591 91.5696 438.591 91.8537C438.591 92.2656 438.741 92.5805 439.039 92.7983C439.342 93.0114 439.725 93.1179 440.189 93.1179ZM450.839 80.4545V95H447.814V80.4545H450.839ZM462.34 87.2017L459.57 87.3722C459.522 87.1354 459.421 86.9223 459.264 86.733C459.108 86.5388 458.902 86.3849 458.646 86.2713C458.396 86.1529 458.095 86.0938 457.744 86.0938C457.276 86.0938 456.88 86.1932 456.558 86.392C456.236 86.5862 456.075 86.8466 456.075 87.1733C456.075 87.4337 456.18 87.6539 456.388 87.8338C456.596 88.0137 456.954 88.1581 457.46 88.267L459.435 88.6648C460.495 88.8826 461.286 89.233 461.807 89.7159C462.328 90.1989 462.588 90.8333 462.588 91.6193C462.588 92.3343 462.378 92.9616 461.956 93.5014C461.539 94.0412 460.967 94.4626 460.237 94.7656C459.513 95.0639 458.677 95.2131 457.73 95.2131C456.286 95.2131 455.136 94.9124 454.279 94.3111C453.426 93.705 452.927 92.8812 452.78 91.8395L455.756 91.6832C455.846 92.1236 456.064 92.4598 456.409 92.6918C456.755 92.919 457.198 93.0327 457.737 93.0327C458.268 93.0327 458.694 92.9309 459.016 92.7273C459.342 92.5189 459.508 92.2514 459.513 91.9247C459.508 91.6501 459.392 91.4252 459.165 91.25C458.938 91.0701 458.587 90.9328 458.114 90.8381L456.225 90.4616C455.159 90.2486 454.366 89.8793 453.845 89.3537C453.329 88.8281 453.071 88.1581 453.071 87.3438C453.071 86.643 453.261 86.0393 453.639 85.5327C454.023 85.026 454.56 84.6354 455.252 84.3608C455.948 84.0862 456.762 83.9489 457.695 83.9489C459.073 83.9489 460.157 84.2401 460.948 84.8224C461.743 85.4048 462.207 86.1979 462.34 87.2017ZM466.262 95.1847C465.793 95.1847 465.391 95.0189 465.054 94.6875C464.723 94.3513 464.557 93.9489 464.557 93.4801C464.557 93.0161 464.723 92.6184 465.054 92.2869C465.391 91.9555 465.793 91.7898 466.262 91.7898C466.716 91.7898 467.114 91.9555 467.455 92.2869C467.796 92.6184 467.966 93.0161 467.966 93.4801C467.966 93.7926 467.886 94.0791 467.725 94.3395C467.569 94.5952 467.363 94.8011 467.107 94.9574C466.851 95.1089 466.57 95.1847 466.262 95.1847ZM466.262 87.5426C465.793 87.5426 465.391 87.3769 465.054 87.0455C464.723 86.714 464.557 86.3116 464.557 85.8381C464.557 85.3741 464.723 84.9787 465.054 84.652C465.391 84.3205 465.793 84.1548 466.262 84.1548C466.716 84.1548 467.114 84.3205 467.455 84.652C467.796 84.9787 467.966 85.3741 467.966 85.8381C467.966 86.1553 467.886 86.4441 467.725 86.7045C467.569 86.9602 467.363 87.1638 467.107 87.3153C466.851 87.4669 466.57 87.5426 466.262 87.5426Z" fill="#0B5793"/>
<path d="M411.651 104.256C412.299 104.26 412.939 104.379 413.568 104.611C414.198 104.843 414.766 105.222 415.273 105.747C415.784 106.273 416.191 106.983 416.494 107.878C416.802 108.768 416.958 109.876 416.963 111.202C416.963 112.475 416.835 113.609 416.58 114.604C416.324 115.593 415.957 116.429 415.479 117.111C415.005 117.793 414.43 118.311 413.753 118.666C413.076 119.021 412.314 119.199 411.466 119.199C410.6 119.199 409.83 119.028 409.158 118.688C408.485 118.347 407.939 117.875 407.517 117.274C407.096 116.668 406.833 115.972 406.729 115.186H408.895C409.037 115.811 409.326 116.318 409.762 116.706C410.202 117.089 410.77 117.281 411.466 117.281C412.531 117.281 413.362 116.817 413.959 115.889C414.556 114.956 414.856 113.654 414.861 111.983H414.747C414.501 112.39 414.193 112.741 413.824 113.034C413.459 113.328 413.05 113.555 412.595 113.716C412.141 113.877 411.655 113.957 411.139 113.957C410.301 113.957 409.539 113.751 408.852 113.339C408.166 112.928 407.619 112.362 407.212 111.642C406.805 110.922 406.601 110.101 406.601 109.178C406.601 108.259 406.809 107.426 407.226 106.678C407.647 105.929 408.235 105.338 408.987 104.902C409.745 104.462 410.633 104.246 411.651 104.256ZM411.658 106.102C411.104 106.102 410.604 106.24 410.159 106.514C409.719 106.784 409.371 107.151 409.115 107.615C408.86 108.074 408.732 108.586 408.732 109.149C408.732 109.713 408.855 110.224 409.101 110.683C409.352 111.138 409.693 111.5 410.124 111.77C410.559 112.035 411.056 112.168 411.615 112.168C412.032 112.168 412.42 112.087 412.78 111.926C413.14 111.765 413.455 111.543 413.725 111.259C413.994 110.97 414.205 110.643 414.357 110.278C414.508 109.914 414.584 109.53 414.584 109.128C414.584 108.593 414.456 108.096 414.2 107.636C413.949 107.177 413.604 106.808 413.163 106.528C412.723 106.244 412.221 106.102 411.658 106.102ZM419.224 116.159V114.384L425.509 104.455H426.908V107.068H426.02L421.525 114.185V114.298H430.14V116.159H419.224ZM426.12 119V115.619L426.134 114.81V104.455H428.215V119H426.12ZM433.496 119.135C433.107 119.135 432.773 118.998 432.494 118.723C432.215 118.444 432.075 118.107 432.075 117.714C432.075 117.326 432.215 116.995 432.494 116.72C432.773 116.441 433.107 116.301 433.496 116.301C433.884 116.301 434.218 116.441 434.497 116.72C434.776 116.995 434.916 117.326 434.916 117.714C434.916 117.975 434.85 118.214 434.717 118.432C434.589 118.645 434.419 118.815 434.206 118.943C433.993 119.071 433.756 119.135 433.496 119.135ZM442.283 119.199C441.634 119.189 440.995 119.071 440.365 118.844C439.74 118.616 439.172 118.238 438.661 117.707C438.149 117.177 437.74 116.464 437.432 115.57C437.129 114.675 436.977 113.557 436.977 112.217C436.977 110.948 437.103 109.821 437.354 108.837C437.61 107.852 437.976 107.021 438.455 106.344C438.933 105.662 439.511 105.143 440.188 104.788C440.865 104.433 441.625 104.256 442.467 104.256C443.334 104.256 444.103 104.426 444.776 104.767C445.448 105.108 445.993 105.579 446.409 106.18C446.831 106.782 447.098 107.466 447.212 108.233H445.046C444.899 107.627 444.608 107.132 444.172 106.749C443.736 106.365 443.168 106.173 442.467 106.173C441.402 106.173 440.571 106.637 439.975 107.565C439.383 108.493 439.084 109.784 439.08 111.436H439.186C439.437 111.024 439.745 110.674 440.11 110.385C440.479 110.091 440.891 109.866 441.345 109.71C441.805 109.549 442.288 109.469 442.794 109.469C443.637 109.469 444.399 109.675 445.081 110.087C445.768 110.494 446.315 111.057 446.722 111.777C447.129 112.497 447.333 113.321 447.333 114.249C447.333 115.177 447.122 116.017 446.7 116.77C446.284 117.523 445.697 118.119 444.939 118.56C444.181 118.995 443.296 119.208 442.283 119.199ZM442.276 117.352C442.834 117.352 443.334 117.215 443.774 116.94C444.215 116.666 444.563 116.296 444.818 115.832C445.074 115.368 445.202 114.85 445.202 114.277C445.202 113.718 445.076 113.209 444.825 112.75C444.579 112.291 444.238 111.926 443.803 111.656C443.372 111.386 442.879 111.251 442.325 111.251C441.904 111.251 441.513 111.332 441.154 111.493C440.798 111.654 440.486 111.876 440.216 112.161C439.946 112.445 439.733 112.771 439.577 113.141C439.425 113.505 439.35 113.891 439.35 114.298C439.35 114.843 439.475 115.347 439.726 115.811C439.982 116.275 440.33 116.649 440.77 116.933C441.215 117.213 441.717 117.352 442.276 117.352ZM450.41 119L456.759 106.443V106.337H449.415V104.455H459.032V106.401L452.704 119H450.41Z" fill="#0B5793"/>
<g filter="url(#filter5_d_408_955)">
<rect x="0.5" y="149" width="510" height="43" rx="10" fill="white"/>
<rect x="1.5" y="150" width="508" height="41" rx="9" stroke="#909090" stroke-opacity="0.25" stroke-width="2"/>
</g>
<path d="M33.1548 170.727C33.1548 172.313 32.8541 173.663 32.2528 174.776C31.6562 175.888 30.8418 176.738 29.8096 177.325C28.7822 177.908 27.6269 178.199 26.3437 178.199C25.0511 178.199 23.8911 177.905 22.8636 177.318C21.8361 176.731 21.0241 175.881 20.4275 174.768C19.8309 173.656 19.5326 172.309 19.5326 170.727C19.5326 169.141 19.8309 167.792 20.4275 166.679C21.0241 165.566 21.8361 164.719 22.8636 164.136C23.8911 163.549 25.0511 163.256 26.3437 163.256C27.6269 163.256 28.7822 163.549 29.8096 164.136C30.8418 164.719 31.6562 165.566 32.2528 166.679C32.8541 167.792 33.1548 169.141 33.1548 170.727ZM30.0369 170.727C30.0369 169.7 29.883 168.833 29.5752 168.128C29.2722 167.422 28.8437 166.887 28.2897 166.523C27.7358 166.158 27.0871 165.976 26.3437 165.976C25.6003 165.976 24.9517 166.158 24.3977 166.523C23.8437 166.887 23.4128 167.422 23.1051 168.128C22.802 168.833 22.6505 169.7 22.6505 170.727C22.6505 171.755 22.802 172.621 23.1051 173.327C23.4128 174.032 23.8437 174.567 24.3977 174.932C24.9517 175.296 25.6003 175.479 26.3437 175.479C27.0871 175.479 27.7358 175.296 28.2897 174.932C28.8437 174.567 29.2722 174.032 29.5752 173.327C29.883 172.621 30.0369 171.755 30.0369 170.727ZM45.5465 167.091L41.7326 178H38.3235L34.5095 167.091H37.7056L39.9712 174.896H40.0848L42.3434 167.091H45.5465ZM51.7148 178.213C50.5926 178.213 49.6267 177.986 48.8171 177.531C48.0122 177.072 47.3919 176.423 46.9563 175.585C46.5207 174.742 46.3029 173.746 46.3029 172.595C46.3029 171.473 46.5207 170.488 46.9563 169.641C47.3919 168.793 48.0051 168.133 48.7958 167.659C49.5912 167.186 50.524 166.949 51.5941 166.949C52.3138 166.949 52.9837 167.065 53.604 167.297C54.229 167.524 54.7735 167.867 55.2375 168.327C55.7063 168.786 56.0709 169.364 56.3313 170.06C56.5917 170.751 56.7219 171.561 56.7219 172.489V173.32H47.5103V171.445H53.8739C53.8739 171.009 53.7792 170.623 53.5898 170.287C53.4004 169.951 53.1376 169.688 52.8015 169.499C52.47 169.304 52.0841 169.207 51.6438 169.207C51.1845 169.207 50.7773 169.314 50.4222 169.527C50.0718 169.735 49.7972 170.017 49.5983 170.372C49.3995 170.723 49.2977 171.113 49.2929 171.544V173.327C49.2929 173.866 49.3924 174.333 49.5912 174.726C49.7948 175.119 50.0813 175.422 50.4506 175.635C50.8199 175.848 51.2579 175.955 51.7645 175.955C52.1007 175.955 52.4085 175.907 52.6878 175.812C52.9672 175.718 53.2063 175.576 53.4051 175.386C53.604 175.197 53.7555 174.965 53.8597 174.69L56.658 174.875C56.5159 175.547 56.2247 176.134 55.7844 176.636C55.3488 177.134 54.7854 177.522 54.0941 177.801C53.4075 178.076 52.6144 178.213 51.7148 178.213ZM58.6963 178V167.091H61.6296V168.994H61.7432C61.9421 168.317 62.2759 167.806 62.7446 167.46C63.2134 167.11 63.7532 166.935 64.364 166.935C64.5155 166.935 64.6788 166.944 64.854 166.963C65.0292 166.982 65.1831 167.008 65.3157 167.041V169.726C65.1736 169.683 64.9771 169.645 64.7262 169.612C64.4752 169.579 64.2456 169.562 64.0372 169.562C63.5922 169.562 63.1944 169.66 62.8441 169.854C62.4984 170.043 62.2238 170.308 62.0202 170.649C61.8213 170.99 61.7219 171.383 61.7219 171.828V178H58.6963ZM69.6782 178.206C68.9822 178.206 68.3619 178.085 67.8174 177.844C67.2729 177.598 66.8421 177.235 66.5248 176.757C66.2123 176.274 66.0561 175.673 66.0561 174.953C66.0561 174.347 66.1673 173.838 66.3899 173.426C66.6124 173.014 66.9154 172.683 67.299 172.432C67.6825 172.181 68.1181 171.991 68.6058 171.864C69.0982 171.736 69.6143 171.646 70.1541 171.594C70.7886 171.527 71.2999 171.466 71.6882 171.409C72.0764 171.348 72.3582 171.258 72.5333 171.139C72.7085 171.021 72.7961 170.846 72.7961 170.614V170.571C72.7961 170.121 72.6541 169.773 72.37 169.527C72.0906 169.281 71.6929 169.158 71.1768 169.158C70.6323 169.158 70.1991 169.278 69.8771 169.52C69.5551 169.757 69.3421 170.055 69.2379 170.415L66.4396 170.188C66.5816 169.525 66.861 168.952 67.2777 168.469C67.6943 167.981 68.2317 167.607 68.8899 167.347C69.5528 167.081 70.3198 166.949 71.191 166.949C71.7971 166.949 72.3771 167.02 72.9311 167.162C73.4898 167.304 73.9846 167.524 74.4154 167.822C74.8511 168.121 75.1943 168.504 75.4453 168.973C75.6962 169.437 75.8217 169.993 75.8217 170.642V178H72.9524V176.487H72.8671C72.692 176.828 72.4576 177.129 72.164 177.389C71.8705 177.645 71.5177 177.846 71.1058 177.993C70.6939 178.135 70.218 178.206 69.6782 178.206ZM70.5447 176.118C70.9898 176.118 71.3828 176.03 71.7237 175.855C72.0646 175.675 72.3321 175.434 72.5262 175.131C72.7204 174.828 72.8174 174.484 72.8174 174.101V172.943C72.7227 173.005 72.5925 173.062 72.4268 173.114C72.2658 173.161 72.0835 173.206 71.8799 173.249C71.6763 173.286 71.4727 173.322 71.2691 173.355C71.0655 173.384 70.8809 173.41 70.7152 173.433C70.36 173.485 70.0499 173.568 69.7848 173.682C69.5196 173.795 69.3136 173.949 69.1669 174.143C69.0201 174.333 68.9467 174.57 68.9467 174.854C68.9467 175.266 69.0958 175.58 69.3941 175.798C69.6972 176.011 70.0807 176.118 70.5447 176.118ZM81.1946 163.455V178H78.169V163.455H81.1946ZM86.6438 163.455V178H83.6182V163.455H86.6438ZM98.6111 182.318C97.631 182.318 96.7906 182.183 96.0898 181.913C95.3938 181.648 94.8398 181.286 94.4279 180.827C94.0159 180.367 93.7484 179.851 93.6253 179.278L96.4236 178.902C96.5088 179.12 96.6438 179.323 96.8284 179.513C97.0131 179.702 97.2569 179.854 97.56 179.967C97.8677 180.086 98.2418 180.145 98.6821 180.145C99.3403 180.145 99.8824 179.984 100.309 179.662C100.739 179.345 100.955 178.812 100.955 178.064V176.068H100.827C100.694 176.371 100.496 176.658 100.23 176.928C99.9653 177.197 99.6244 177.418 99.2077 177.588C98.791 177.759 98.2939 177.844 97.7162 177.844C96.8971 177.844 96.1514 177.654 95.479 177.276C94.8114 176.892 94.2787 176.307 93.881 175.521C93.488 174.731 93.2915 173.732 93.2915 172.524C93.2915 171.288 93.4927 170.256 93.8952 169.428C94.2977 168.599 94.8327 167.979 95.5003 167.567C96.1727 167.155 96.9089 166.949 97.7091 166.949C98.3199 166.949 98.8313 167.053 99.2432 167.261C99.6551 167.465 99.9866 167.721 100.238 168.028C100.493 168.331 100.69 168.63 100.827 168.923H100.941V167.091H103.945V178.107C103.945 179.035 103.718 179.811 103.263 180.436C102.809 181.061 102.179 181.53 101.374 181.842C100.574 182.16 99.6528 182.318 98.6111 182.318ZM98.675 175.571C99.1627 175.571 99.5747 175.45 99.9108 175.209C100.252 174.963 100.512 174.612 100.692 174.158C100.877 173.698 100.969 173.149 100.969 172.51C100.969 171.871 100.879 171.317 100.699 170.848C100.519 170.375 100.259 170.008 99.9179 169.747C99.577 169.487 99.1627 169.357 98.675 169.357C98.1779 169.357 97.7588 169.491 97.4179 169.761C97.077 170.027 96.819 170.396 96.6438 170.869C96.4686 171.343 96.381 171.89 96.381 172.51C96.381 173.14 96.4686 173.684 96.6438 174.143C96.8237 174.598 97.0818 174.951 97.4179 175.202C97.7588 175.448 98.1779 175.571 98.675 175.571ZM106.353 178V167.091H109.286V168.994H109.399C109.598 168.317 109.932 167.806 110.401 167.46C110.87 167.11 111.409 166.935 112.02 166.935C112.172 166.935 112.335 166.944 112.51 166.963C112.685 166.982 112.839 167.008 112.972 167.041V169.726C112.83 169.683 112.633 169.645 112.382 169.612C112.131 169.579 111.902 169.562 111.693 169.562C111.248 169.562 110.851 169.66 110.5 169.854C110.155 170.043 109.88 170.308 109.676 170.649C109.478 170.99 109.378 171.383 109.378 171.828V178H106.353ZM117.334 178.206C116.638 178.206 116.018 178.085 115.474 177.844C114.929 177.598 114.498 177.235 114.181 176.757C113.869 176.274 113.712 175.673 113.712 174.953C113.712 174.347 113.824 173.838 114.046 173.426C114.269 173.014 114.572 172.683 114.955 172.432C115.339 172.181 115.774 171.991 116.262 171.864C116.754 171.736 117.271 171.646 117.81 171.594C118.445 171.527 118.956 171.466 119.344 171.409C119.733 171.348 120.014 171.258 120.19 171.139C120.365 171.021 120.452 170.846 120.452 170.614V170.571C120.452 170.121 120.31 169.773 120.026 169.527C119.747 169.281 119.349 169.158 118.833 169.158C118.289 169.158 117.855 169.278 117.533 169.52C117.211 169.757 116.998 170.055 116.894 170.415L114.096 170.188C114.238 169.525 114.517 168.952 114.934 168.469C115.351 167.981 115.888 167.607 116.546 167.347C117.209 167.081 117.976 166.949 118.847 166.949C119.453 166.949 120.033 167.02 120.587 167.162C121.146 167.304 121.641 167.524 122.072 167.822C122.507 168.121 122.851 168.504 123.102 168.973C123.352 169.437 123.478 169.993 123.478 170.642V178H120.609V176.487H120.523C120.348 176.828 120.114 177.129 119.82 177.389C119.527 177.645 119.174 177.846 118.762 177.993C118.35 178.135 117.874 178.206 117.334 178.206ZM118.201 176.118C118.646 176.118 119.039 176.03 119.38 175.855C119.721 175.675 119.988 175.434 120.182 175.131C120.377 174.828 120.474 174.484 120.474 174.101V172.943C120.379 173.005 120.249 173.062 120.083 173.114C119.922 173.161 119.74 173.206 119.536 173.249C119.333 173.286 119.129 173.322 118.925 173.355C118.722 173.384 118.537 173.41 118.371 173.433C118.016 173.485 117.706 173.568 117.441 173.682C117.176 173.795 116.97 173.949 116.823 174.143C116.676 174.333 116.603 174.57 116.603 174.854C116.603 175.266 116.752 175.58 117.05 175.798C117.353 176.011 117.737 176.118 118.201 176.118ZM129.845 178.178C129.017 178.178 128.266 177.964 127.594 177.538C126.926 177.107 126.396 176.475 126.003 175.642C125.615 174.804 125.42 173.777 125.42 172.56C125.42 171.31 125.622 170.27 126.024 169.442C126.427 168.608 126.962 167.986 127.629 167.574C128.302 167.157 129.038 166.949 129.838 166.949C130.449 166.949 130.958 167.053 131.365 167.261C131.777 167.465 132.108 167.721 132.359 168.028C132.615 168.331 132.809 168.63 132.942 168.923H133.034V163.455H136.053V178H133.07V176.253H132.942C132.8 176.556 132.598 176.857 132.338 177.155C132.082 177.448 131.749 177.692 131.337 177.886C130.929 178.08 130.432 178.178 129.845 178.178ZM130.804 175.77C131.292 175.77 131.704 175.637 132.04 175.372C132.381 175.102 132.641 174.726 132.821 174.243C133.006 173.76 133.098 173.194 133.098 172.545C133.098 171.897 133.008 171.333 132.828 170.855C132.648 170.377 132.388 170.008 132.047 169.747C131.706 169.487 131.292 169.357 130.804 169.357C130.307 169.357 129.888 169.491 129.547 169.761C129.206 170.031 128.948 170.405 128.773 170.884C128.597 171.362 128.51 171.916 128.51 172.545C128.51 173.18 128.597 173.741 128.773 174.229C128.953 174.712 129.211 175.09 129.547 175.365C129.888 175.635 130.307 175.77 130.804 175.77ZM143.512 178.213C142.39 178.213 141.424 177.986 140.614 177.531C139.809 177.072 139.189 176.423 138.753 175.585C138.318 174.742 138.1 173.746 138.1 172.595C138.1 171.473 138.318 170.488 138.753 169.641C139.189 168.793 139.802 168.133 140.593 167.659C141.388 167.186 142.321 166.949 143.391 166.949C144.111 166.949 144.781 167.065 145.401 167.297C146.026 167.524 146.57 167.867 147.034 168.327C147.503 168.786 147.868 169.364 148.128 170.06C148.389 170.751 148.519 171.561 148.519 172.489V173.32H139.307V171.445H145.671C145.671 171.009 145.576 170.623 145.387 170.287C145.197 169.951 144.935 169.688 144.598 169.499C144.267 169.304 143.881 169.207 143.441 169.207C142.981 169.207 142.574 169.314 142.219 169.527C141.869 169.735 141.594 170.017 141.395 170.372C141.196 170.723 141.095 171.113 141.09 171.544V173.327C141.09 173.866 141.189 174.333 141.388 174.726C141.592 175.119 141.878 175.422 142.247 175.635C142.617 175.848 143.055 175.955 143.561 175.955C143.898 175.955 144.205 175.907 144.485 175.812C144.764 175.718 145.003 175.576 145.202 175.386C145.401 175.197 145.552 174.965 145.657 174.69L148.455 174.875C148.313 175.547 148.022 176.134 147.581 176.636C147.146 177.134 146.582 177.522 145.891 177.801C145.204 178.076 144.411 178.213 143.512 178.213Z" fill="#0B5793"/>
<path opacity="0.93" d="M436.583 163.256C437.331 163.256 438.051 163.381 438.742 163.632C439.438 163.883 440.058 164.283 440.603 164.832C441.152 165.382 441.585 166.111 441.903 167.02C442.225 167.924 442.388 169.035 442.393 170.351C442.393 171.587 442.253 172.69 441.974 173.661C441.699 174.626 441.304 175.448 440.788 176.125C440.272 176.802 439.649 177.318 438.92 177.673C438.191 178.024 437.376 178.199 436.477 178.199C435.506 178.199 434.649 178.012 433.906 177.638C433.162 177.259 432.563 176.745 432.109 176.097C431.659 175.443 431.387 174.709 431.292 173.895H434.325C434.443 174.425 434.691 174.837 435.07 175.131C435.449 175.42 435.918 175.564 436.477 175.564C437.423 175.564 438.143 175.152 438.636 174.328C439.128 173.5 439.377 172.366 439.381 170.926H439.282C439.064 171.352 438.771 171.719 438.401 172.027C438.032 172.33 437.608 172.564 437.13 172.73C436.656 172.896 436.152 172.979 435.617 172.979C434.76 172.979 433.995 172.777 433.323 172.375C432.651 171.973 432.12 171.419 431.732 170.713C431.344 170.008 431.15 169.203 431.15 168.298C431.145 167.323 431.37 166.454 431.825 165.692C432.279 164.929 432.914 164.333 433.728 163.902C434.547 163.466 435.499 163.251 436.583 163.256ZM436.604 165.67C436.126 165.67 435.7 165.784 435.326 166.011C434.957 166.239 434.663 166.544 434.445 166.928C434.232 167.311 434.128 167.74 434.133 168.213C434.133 168.691 434.237 169.122 434.445 169.506C434.658 169.884 434.947 170.187 435.312 170.415C435.681 170.637 436.102 170.749 436.576 170.749C436.931 170.749 437.26 170.682 437.563 170.55C437.866 170.417 438.129 170.235 438.352 170.003C438.579 169.766 438.756 169.494 438.884 169.186C439.012 168.878 439.076 168.552 439.076 168.206C439.071 167.747 438.962 167.325 438.749 166.942C438.536 166.558 438.243 166.25 437.869 166.018C437.495 165.786 437.073 165.67 436.604 165.67ZM449.9 178.199C448.839 178.199 447.895 178.017 447.066 177.652C446.242 177.283 445.591 176.776 445.113 176.132C444.639 175.483 444.396 174.735 444.381 173.888H447.478C447.497 174.243 447.613 174.555 447.826 174.825C448.044 175.09 448.333 175.296 448.692 175.443C449.052 175.59 449.457 175.663 449.907 175.663C450.376 175.663 450.79 175.58 451.15 175.415C451.51 175.249 451.791 175.019 451.995 174.726C452.199 174.432 452.3 174.094 452.3 173.71C452.3 173.322 452.191 172.979 451.974 172.68C451.761 172.377 451.453 172.141 451.05 171.97C450.653 171.8 450.179 171.714 449.63 171.714H448.273V169.456H449.63C450.094 169.456 450.504 169.375 450.859 169.214C451.218 169.054 451.498 168.831 451.697 168.547C451.896 168.258 451.995 167.922 451.995 167.538C451.995 167.174 451.907 166.854 451.732 166.58C451.562 166.3 451.32 166.082 451.008 165.926C450.7 165.77 450.34 165.692 449.928 165.692C449.512 165.692 449.13 165.768 448.785 165.919C448.439 166.066 448.162 166.277 447.954 166.551C447.745 166.826 447.634 167.148 447.62 167.517H444.673C444.687 166.679 444.926 165.94 445.39 165.301C445.854 164.662 446.479 164.162 447.265 163.803C448.056 163.438 448.948 163.256 449.942 163.256C450.946 163.256 451.825 163.438 452.577 163.803C453.33 164.167 453.915 164.66 454.332 165.28C454.753 165.895 454.961 166.587 454.957 167.354C454.961 168.168 454.708 168.848 454.197 169.392C453.69 169.937 453.03 170.282 452.215 170.429V170.543C453.285 170.68 454.1 171.052 454.658 171.658C455.222 172.259 455.501 173.012 455.496 173.916C455.501 174.745 455.262 175.481 454.779 176.125C454.301 176.769 453.64 177.276 452.798 177.645C451.955 178.014 450.989 178.199 449.9 178.199ZM459.094 178.185C458.625 178.185 458.222 178.019 457.886 177.688C457.555 177.351 457.389 176.949 457.389 176.48C457.389 176.016 457.555 175.618 457.886 175.287C458.222 174.955 458.625 174.79 459.094 174.79C459.548 174.79 459.946 174.955 460.287 175.287C460.628 175.618 460.798 176.016 460.798 176.48C460.798 176.793 460.718 177.079 460.557 177.339C460.401 177.595 460.195 177.801 459.939 177.957C459.683 178.109 459.401 178.185 459.094 178.185ZM463.034 175.443V173.021L469.106 163.455H471.194V166.807H469.958L466.13 172.865V172.979H474.76V175.443H463.034ZM470.015 178V174.705L470.072 173.632V163.455H472.956V178H470.015ZM477.384 178L483.414 166.068V165.969H476.39V163.455H486.595V166.004L480.559 178H477.384Z" fill="#0B5793"/>
<g filter="url(#filter6_d_408_955)">
<rect x="395.5" y="202" width="115" height="31" rx="15.5" fill="#E7C01D"/>
<rect x="396.5" y="203" width="113" height="29" rx="14.5" stroke="#F3DF8E" stroke-width="2"/>
</g>
<path d="M417.452 222V211.818H421.469C422.238 211.818 422.895 211.956 423.438 212.231C423.985 212.503 424.401 212.889 424.686 213.389C424.974 213.886 425.119 214.471 425.119 215.144C425.119 215.82 424.973 216.402 424.681 216.889C424.389 217.373 423.967 217.744 423.413 218.003C422.863 218.261 422.197 218.391 421.415 218.391H418.725V216.661H421.067C421.478 216.661 421.819 216.604 422.091 216.491C422.363 216.379 422.565 216.21 422.697 215.984C422.833 215.759 422.901 215.479 422.901 215.144C422.901 214.806 422.833 214.521 422.697 214.289C422.565 214.057 422.361 213.881 422.086 213.762C421.814 213.639 421.471 213.578 421.057 213.578H419.605V222H417.452ZM422.951 217.366L425.481 222H423.105L420.629 217.366H422.951ZM429.957 222.149C429.172 222.149 428.495 221.99 427.929 221.672C427.365 221.35 426.931 220.896 426.626 220.31C426.321 219.72 426.169 219.022 426.169 218.217C426.169 217.431 426.321 216.742 426.626 216.148C426.931 215.555 427.36 215.093 427.914 214.761C428.471 214.43 429.124 214.264 429.873 214.264C430.376 214.264 430.845 214.345 431.28 214.508C431.717 214.667 432.098 214.907 432.423 215.229C432.751 215.55 433.006 215.955 433.189 216.442C433.371 216.926 433.462 217.492 433.462 218.142V218.724H427.014V217.411H431.468C431.468 217.106 431.402 216.836 431.27 216.601C431.137 216.366 430.953 216.182 430.718 216.049C430.486 215.913 430.216 215.845 429.907 215.845C429.586 215.845 429.301 215.92 429.052 216.069C428.807 216.215 428.615 216.412 428.476 216.661C428.336 216.906 428.265 217.179 428.262 217.481V218.729C428.262 219.107 428.331 219.433 428.471 219.708C428.613 219.983 428.814 220.195 429.072 220.344C429.331 220.494 429.637 220.568 429.992 220.568C430.227 220.568 430.443 220.535 430.638 220.469C430.834 220.402 431.001 220.303 431.14 220.17C431.28 220.038 431.386 219.875 431.459 219.683L433.417 219.812C433.318 220.283 433.114 220.694 432.806 221.045C432.501 221.393 432.107 221.665 431.623 221.861C431.142 222.053 430.587 222.149 429.957 222.149ZM434.844 222V214.364H436.863V215.711H436.952C437.111 215.263 437.376 214.911 437.748 214.652C438.119 214.393 438.563 214.264 439.08 214.264C439.604 214.264 440.049 214.395 440.417 214.657C440.785 214.915 441.031 215.267 441.153 215.711H441.233C441.388 215.273 441.67 214.924 442.078 214.662C442.489 214.397 442.974 214.264 443.535 214.264C444.247 214.264 444.825 214.491 445.27 214.945C445.717 215.396 445.941 216.036 445.941 216.864V222H443.828V217.282C443.828 216.858 443.715 216.54 443.49 216.327C443.264 216.115 442.983 216.009 442.645 216.009C442.26 216.009 441.96 216.132 441.745 216.377C441.529 216.619 441.422 216.939 441.422 217.337V222H439.368V217.237C439.368 216.863 439.261 216.564 439.045 216.342C438.833 216.12 438.553 216.009 438.205 216.009C437.97 216.009 437.758 216.069 437.569 216.188C437.383 216.304 437.236 216.468 437.126 216.68C437.017 216.889 436.962 217.134 436.962 217.416V222H434.844ZM451.064 222.149C450.292 222.149 449.624 221.985 449.06 221.657C448.5 221.326 448.068 220.865 447.763 220.275C447.458 219.682 447.305 218.994 447.305 218.212C447.305 217.423 447.458 216.733 447.763 216.143C448.068 215.55 448.5 215.089 449.06 214.761C449.624 214.43 450.292 214.264 451.064 214.264C451.836 214.264 452.502 214.43 453.063 214.761C453.626 215.089 454.06 215.55 454.365 216.143C454.67 216.733 454.823 217.423 454.823 218.212C454.823 218.994 454.67 219.682 454.365 220.275C454.06 220.865 453.626 221.326 453.063 221.657C452.502 221.985 451.836 222.149 451.064 222.149ZM451.074 220.509C451.425 220.509 451.719 220.409 451.954 220.21C452.189 220.008 452.367 219.733 452.486 219.385C452.609 219.037 452.67 218.641 452.67 218.197C452.67 217.753 452.609 217.357 452.486 217.009C452.367 216.661 452.189 216.385 451.954 216.183C451.719 215.981 451.425 215.88 451.074 215.88C450.719 215.88 450.421 215.981 450.179 216.183C449.94 216.385 449.76 216.661 449.637 217.009C449.518 217.357 449.458 217.753 449.458 218.197C449.458 218.641 449.518 219.037 449.637 219.385C449.76 219.733 449.94 220.008 450.179 220.21C450.421 220.409 450.719 220.509 451.074 220.509ZM463.073 214.364L460.403 222H458.017L455.347 214.364H457.584L459.17 219.827H459.25L460.831 214.364H463.073ZM467.391 222.149C466.605 222.149 465.929 221.99 465.362 221.672C464.799 221.35 464.365 220.896 464.06 220.31C463.755 219.72 463.602 219.022 463.602 218.217C463.602 217.431 463.755 216.742 464.06 216.148C464.365 215.555 464.794 215.093 465.347 214.761C465.904 214.43 466.557 214.264 467.306 214.264C467.81 214.264 468.279 214.345 468.713 214.508C469.151 214.667 469.532 214.907 469.857 215.229C470.185 215.55 470.44 215.955 470.622 216.442C470.805 216.926 470.896 217.492 470.896 218.142V218.724H464.448V217.411H468.902C468.902 217.106 468.836 216.836 468.703 216.601C468.571 216.366 468.387 216.182 468.151 216.049C467.919 215.913 467.649 215.845 467.341 215.845C467.02 215.845 466.734 215.92 466.486 216.069C466.241 216.215 466.048 216.412 465.909 216.661C465.77 216.906 465.699 217.179 465.695 217.481V218.729C465.695 219.107 465.765 219.433 465.904 219.708C466.047 219.983 466.247 220.195 466.506 220.344C466.764 220.494 467.071 220.568 467.426 220.568C467.661 220.568 467.876 220.535 468.072 220.469C468.267 220.402 468.435 220.303 468.574 220.17C468.713 220.038 468.819 219.875 468.892 219.683L470.851 219.812C470.752 220.283 470.548 220.694 470.239 221.045C469.935 221.393 469.54 221.665 469.056 221.861C468.576 222.053 468.02 222.149 467.391 222.149Z" fill="white"/>
<path d="M503.214 217.171C503.214 221.527 499.684 225.057 495.329 225.057C490.973 225.057 487.443 221.527 487.443 217.171C487.443 212.816 490.973 209.286 495.329 209.286C499.684 209.286 503.214 212.816 503.214 217.171Z" fill="#E7C01D"/>
<path d="M492.892 214.824L493.138 221.959H494.042L493.795 214.824H492.892Z" fill="white"/>
<path d="M494.89 221.959H495.767V214.824H494.89V221.959Z" fill="white"/>
<path d="M494.233 213.041H496.424V212.26C496.424 212.231 496.412 212.203 496.392 212.182C496.371 212.161 496.343 212.149 496.314 212.149H494.343C494.314 212.149 494.286 212.161 494.265 212.182C494.245 212.203 494.233 212.231 494.233 212.26V213.041Z" fill="white"/>
<path d="M496.615 221.959H497.519L497.765 214.824H496.862L496.615 221.959Z" fill="white"/>
<path fill-rule="evenodd" clip-rule="evenodd" d="M495 229C501.351 229 506.5 223.851 506.5 217.5C506.5 211.149 501.351 206 495 206C488.649 206 483.5 211.149 483.5 217.5C483.5 223.851 488.649 229 495 229ZM497.519 213.041H500.573L500.586 214.156H499.682L499.133 222.908C499.118 223.134 499.02 223.346 498.858 223.501C498.695 223.657 498.481 223.743 498.258 223.743H492.399C492.176 223.743 491.962 223.656 491.799 223.501C491.637 223.345 491.539 223.133 491.525 222.907L490.975 214.156H490.071L490.084 213.041H493.138V211.703C493.138 211.585 493.184 211.471 493.266 211.388C493.349 211.304 493.46 211.257 493.576 211.257H497.081C497.197 211.257 497.309 211.304 497.391 211.388C497.473 211.471 497.519 211.585 497.519 211.703V213.041Z" fill="white"/>
<defs>
<filter id="filter0_d_408_955" x="0.5" y="0" width="510" height="53" filterUnits="userSpaceOnUse" color-interpolation-filters="sRGB">
<feFlood flood-opacity="0" result="BackgroundImageFix"/>
<feColorMatrix in="SourceAlpha" type="matrix" values="0 0 0 0 0 0 0 0 0 0 0 0 0 0 0 0 0 0 127 0" result="hardAlpha"/>
<feOffset dy="4"/>
<feComposite in2="hardAlpha" operator="out"/>
<feColorMatrix type="matrix" values="0 0 0 0 0.566623 0 0 0 0 0.566623 0 0 0 0 0.566623 0 0 0 0.25 0"/>
<feBlend mode="normal" in2="BackgroundImageFix" result="effect1_dropShadow_408_955"/>
<feBlend mode="normal" in="SourceGraphic" in2="effect1_dropShadow_408_955" result="shape"/>
</filter>
<filter id="filter1_d_408_955" x="0.5" y="59.5" width="120" height="83" filterUnits="userSpaceOnUse" color-interpolation-filters="sRGB">
<feFlood flood-opacity="0" result="BackgroundImageFix"/>
<feColorMatrix in="SourceAlpha" type="matrix" values="0 0 0 0 0 0 0 0 0 0 0 0 0 0 0 0 0 0 127 0" result="hardAlpha"/>
<feOffset dy="4"/>
<feComposite in2="hardAlpha" operator="out"/>
<feColorMatrix type="matrix" values="0 0 0 0 0.566623 0 0 0 0 0.566623 0 0 0 0 0.566623 0 0 0 0.25 0"/>
<feBlend mode="normal" in2="BackgroundImageFix" result="effect1_dropShadow_408_955"/>
<feBlend mode="normal" in="SourceGraphic" in2="effect1_dropShadow_408_955" result="shape"/>
</filter>
<filter id="filter2_d_408_955" x="130.5" y="59.5" width="120" height="83" filterUnits="userSpaceOnUse" color-interpolation-filters="sRGB">
<feFlood flood-opacity="0" result="BackgroundImageFix"/>
<feColorMatrix in="SourceAlpha" type="matrix" values="0 0 0 0 0 0 0 0 0 0 0 0 0 0 0 0 0 0 127 0" result="hardAlpha"/>
<feOffset dy="4"/>
<feComposite in2="hardAlpha" operator="out"/>
<feColorMatrix type="matrix" values="0 0 0 0 0.566623 0 0 0 0 0.566623 0 0 0 0 0.566623 0 0 0 0.25 0"/>
<feBlend mode="normal" in2="BackgroundImageFix" result="effect1_dropShadow_408_955"/>
<feBlend mode="normal" in="SourceGraphic" in2="effect1_dropShadow_408_955" result="shape"/>
</filter>
<filter id="filter3_d_408_955" x="260.5" y="59.5" width="120" height="83" filterUnits="userSpaceOnUse" color-interpolation-filters="sRGB">
<feFlood flood-opacity="0" result="BackgroundImageFix"/>
<feColorMatrix in="SourceAlpha" type="matrix" values="0 0 0 0 0 0 0 0 0 0 0 0 0 0 0 0 0 0 127 0" result="hardAlpha"/>
<feOffset dy="4"/>
<feComposite in2="hardAlpha" operator="out"/>
<feColorMatrix type="matrix" values="0 0 0 0 0.566623 0 0 0 0 0.566623 0 0 0 0 0.566623 0 0 0 0.25 0"/>
<feBlend mode="normal" in2="BackgroundImageFix" result="effect1_dropShadow_408_955"/>
<feBlend mode="normal" in="SourceGraphic" in2="effect1_dropShadow_408_955" result="shape"/>
</filter>
<filter id="filter4_d_408_955" x="390.5" y="59.5" width="120" height="83" filterUnits="userSpaceOnUse" color-interpolation-filters="sRGB">
<feFlood flood-opacity="0" result="BackgroundImageFix"/>
<feColorMatrix in="SourceAlpha" type="matrix" values="0 0 0 0 0 0 0 0 0 0 0 0 0 0 0 0 0 0 127 0" result="hardAlpha"/>
<feOffset dy="4"/>
<feComposite in2="hardAlpha" operator="out"/>
<feColorMatrix type="matrix" values="0 0 0 0 0.566623 0 0 0 0 0.566623 0 0 0 0 0.566623 0 0 0 0.25 0"/>
<feBlend mode="normal" in2="BackgroundImageFix" result="effect1_dropShadow_408_955"/>
<feBlend mode="normal" in="SourceGraphic" in2="effect1_dropShadow_408_955" result="shape"/>
</filter>
<filter id="filter5_d_408_955" x="0.5" y="149" width="510" height="47" filterUnits="userSpaceOnUse" color-interpolation-filters="sRGB">
<feFlood flood-opacity="0" result="BackgroundImageFix"/>
<feColorMatrix in="SourceAlpha" type="matrix" values="0 0 0 0 0 0 0 0 0 0 0 0 0 0 0 0 0 0 127 0" result="hardAlpha"/>
<feOffset dy="4"/>
<feComposite in2="hardAlpha" operator="out"/>
<feColorMatrix type="matrix" values="0 0 0 0 0.566623 0 0 0 0 0.566623 0 0 0 0 0.566623 0 0 0 0.25 0"/>
<feBlend mode="normal" in2="BackgroundImageFix" result="effect1_dropShadow_408_955"/>
<feBlend mode="normal" in="SourceGraphic" in2="effect1_dropShadow_408_955" result="shape"/>
</filter>
<filter id="filter6_d_408_955" x="395.5" y="202" width="115" height="35" filterUnits="userSpaceOnUse" color-interpolation-filters="sRGB">
<feFlood flood-opacity="0" result="BackgroundImageFix"/>
<feColorMatrix in="SourceAlpha" type="matrix" values="0 0 0 0 0 0 0 0 0 0 0 0 0 0 0 0 0 0 127 0" result="hardAlpha"/>
<feOffset dy="4"/>
<feComposite in2="hardAlpha" operator="out"/>
<feColorMatrix type="matrix" values="0 0 0 0 0.905882 0 0 0 0 0.752941 0 0 0 0 0.113725 0 0 0 0.5 0"/>
<feBlend mode="normal" in2="BackgroundImageFix" result="effect1_dropShadow_408_955"/>
<feBlend mode="normal" in="SourceGraphic" in2="effect1_dropShadow_408_955" result="shape"/>
</filter>
</defs>
</svg>
